<?xml version="1.0" encoding="utf-8"?>
<!-- Generator: Adobe Illustrator 25.0.0, SVG Export Plug-In . SVG Version: 6.00 Build 0)  -->
<svg version="1.1" id="Layer_1" xmlns="http://www.w3.org/2000/svg" xmlns:xlink="http://www.w3.org/1999/xlink" x="0px" y="0px"
	 viewBox="0 0 148.1 150.5" style="enable-background:new 0 0 148.1 150.5;" xml:space="preserve">
<style type="text/css">
	.st0{fill:#FFFFFF;}
	.st1{fill:#4F953B;}
	.st2{fill:#002FF2;}
	.st3{fill:#DA291C;}
	.st4{fill:#E97F02;}
	.st5{fill:#FFCD42;}
	.st6{fill:#704C55;}
	.st7{fill:#5A344B;}
	.st8{fill:#00C6CD;}
	.st9{fill:#A9F0F0;}
	.st10{fill:#00A0AA;}
	.st11{fill:#64DDE0;}
	.st12{fill:#E4F1FB;}
	.st13{fill:#C9E3F7;}
	.st14{fill:#000100;}
	.st15{fill:#FEA7B7;}
	.st16{fill:#FF4869;}
	.st17{fill:#859BF9;}
	.st18{fill:#F0F2FC;}
	.st19{fill:#C8A2C8;}
	.st20{fill:none;stroke:#FFFFFF;stroke-width:5;stroke-miterlimit:10;}
	.st21{clip-path:url(#SVGID_2_);}
	.st22{fill:#FFCD42;stroke:#FFFFFF;stroke-width:5;stroke-miterlimit:10;}
</style>
<g>
	<g>
		<circle class="st0" cx="72.8" cy="-282.5" r="65.3"/>
	</g>
	<g>
		<path class="st1" d="M45.3-323.1c5-1,10.2,0.5,13.8,4.2l12.6,12.6L82-316.7l2.3-2.3c3.6-3.6,8.8-5.2,13.8-4.2l1.3,0.3l11.9-11.9
			c-10.9-8.1-24.4-13-39.1-13c-14.9,0-28.7,5-39.7,13.4l11.5,11.5L45.3-323.1z"/>
		<path class="st1" d="M23.5-301.8c0.4,0.4,0.6,1,0.5,1.5l-0.6,3.5c-0.7,4.4,0.5,8.8,3.4,12.2l16.5,16.6c0.8,0.8,1.8,1.1,2.8,1
			c0.2-2.1,1.3-3.9,3-5.1c-0.2-0.4-0.4-0.7-0.7-1l-9.2-9.2c-0.7-0.7-0.7-1.8,0-2.5c0.7-0.7,1.8-0.7,2.5,0l9.2,9.2
			c0.2,0.2,0.4,0.4,0.6,0.6v-19.9c0-3.9,3.1-7,7-7c1.5,0,2.9,0.5,4,1.3c1-2.3,3.2-4,5.8-4.3l-11.6-11.6c-2.8-2.8-6.8-4-10.6-3.2
			l-1.6,0.3c-0.9,0.2-1.9-0.1-2.6-0.8l-12-12c-6.6,5.7-12.1,12.6-16,20.5c0.1,0.1,0.2,0.1,0.3,0.2L23.5-301.8z"/>
		<path class="st1" d="M99.1-319.3l-1.6-0.3c-3.9-0.8-7.8,0.4-10.6,3.2l-2.3,2.3l-11,11c1.5,1.3,2.4,3.2,2.4,5.3v1.2
			c1-0.6,2.2-0.9,3.5-0.9c3.1,0,5.8,2.1,6.7,4.9c1.1-0.7,2.4-1.1,3.8-1.1c3.9,0,7,3.1,7,7v6.8l4.8-4.8c0.7-0.7,1.8-0.7,2.5,0
			c0.7,0.7,0.7,1.8,0,2.5l-7.4,7.4v7.9c1.1,0.2,2.3-0.1,3.2-1l15.7-15.7c3.4-3.4,5-8.4,4.2-13.2l-0.6-3.5c-0.1-0.6,0.1-1.1,0.5-1.5
			l9.2-9.2c0.4-0.4,1-0.6,1.6-0.5c-4-8.1-9.7-15.3-16.6-21l-12.5,12.5C101-319.4,100-319.1,99.1-319.3z"/>
		<path class="st1" d="M56.1-227.2l-2.1-1.5c-4.9-3.5-7.8-9.2-7.8-15.2v-19.4c-0.1,0-0.2,0-0.2,0c-1.9,0-3.7-0.7-5-2.1l-16.7-16.8
			c-0.1-0.1-0.2-0.2-0.2-0.3c-3.4-4.1-4.8-9.5-4-14.8l0.4-2.6l-8.2-8.2c-3.4,7.9-5.3,16.6-5.3,25.7c0,30.5,20.9,56.1,49.2,63.3
			c0-0.1,0-0.2,0-0.3V-227.2z"/>
		<path class="st1" d="M85.4-228.2c0-1,0.5-1.8,1.3-2.4l1.4-0.9c3.3-2.2,5.2-5.8,5.2-9.8l0-15.6c0-0.1,0-0.3,0-0.5v-29.4
			c0-1.9-1.6-3.5-3.5-3.5c-1.9,0-3.5,1.6-3.5,3.5c0,0,0,0,0,0v16.1c0,1-0.8,1.8-1.8,1.8c-1,0-1.8-0.8-1.8-1.8v-19.9
			c0-1.9-1.6-3.5-3.5-3.5c-1.9,0-3.5,1.6-3.5,3.5v19.9c0,1-0.8,1.8-1.8,1.8c-1,0-1.8-0.8-1.8-1.8v-27.3c0-1.9-1.6-3.5-3.5-3.5
			c-1.9,0-3.5,1.6-3.5,3.5v26.3c0,1-0.8,1.8-1.8,1.8c-1,0-1.8-0.8-1.8-1.8v-23.3c0-1.9-1.6-3.5-3.5-3.5c-1.9,0-3.5,1.6-3.5,3.5v21.7
			c3.1,0.8,5.3,3.6,5.3,6.9v13c0,1-0.8,1.8-1.8,1.8s-1.8-0.8-1.8-1.8v-13c0-2-1.6-3.6-3.6-3.6s-3.6,1.6-3.6,3.6v22.2
			c0,4.9,2.4,9.5,6.3,12.3l2.9,2.1c0.5,0.3,0.7,0.9,0.7,1.4v8.8c0,0.4-0.1,0.7-0.3,1c4.2,0.8,8.5,1.3,13,1.3c4.6,0,9.1-0.5,13.4-1.4
			c-0.2-0.3-0.3-0.6-0.3-0.9V-228.2z"/>
		<path class="st1" d="M137.6-282.4c0-9.5-2-18.4-5.6-26.5c-0.1,0.1-0.2,0.3-0.3,0.4l-8.6,8.6l0.4,2.6c1,5.9-1,12-5.2,16.2
			l-15.7,15.7c-1.4,1.4-3.2,2.1-5,2.1c-0.2,0-0.4,0-0.7,0v6.3v15.8c0,5.1-2.6,9.9-6.8,12.7l-1.1,0.7v8.4c0,0.1,0,0.1,0,0.1
			C117-226.6,137.6-252.1,137.6-282.4z"/>
		<path class="st0" d="M24.1-282.3c-0.1-0.1-0.1-0.2-0.2-0.3C23.9-282.5,24-282.4,24.1-282.3z"/>
		<path class="st0" d="M89-227.8l1.1-0.7c4.3-2.8,6.8-7.6,6.8-12.7v-15.8c0,1-0.8,1.8-1.8,1.8c-1,0-1.8-0.8-1.8-1.8v-0.3
			c0,0.2,0,0.3,0,0.5l0,15.6c0,3.9-2,7.6-5.2,9.8l-1.4,0.9c-0.8,0.5-1.3,1.4-1.3,2.4v8.8c0,0.3,2.5,0.4,3.5,0.1
			C89-219.3,89-227.8,89-227.8z"/>
		<path class="st0" d="M95.1-259.4l-0.4,0.2c-0.8,0-1.3,1-1.4,1.8v0.3c0,1,0.8,1.8,1.8,1.8c1,0,1.8-0.8,1.8-1.8
			C96.9-258.1,96.1-259.4,95.1-259.4z"/>
		<path class="st0" d="M111.3-334.8c1,0.7,1.9,1.5,2.8,2.2L111.3-334.8z"/>
		<path class="st0" d="M98.2-323.1c-5-1-10.2,0.5-13.8,4.2l-2.3,2.3c0.7-0.7,1.6,0.5,2.3,1.2c0.7,0.7,0.9,0.7,0.2,1.4l2.3-2.3
			c2.8-2.8,6.8-4,10.6-3.2l1.6,0.3c0.9,0.2,1.9-0.1,2.6-0.8l12.5-12.5c-0.9-0.8-1.8-1.5-2.8-2.2l-11.9,11.9L98.2-323.1z"/>
		<path class="st0" d="M84.3-315.5c-0.7-0.7-1.6-1.9-2.3-1.2c-0.7,0.7-0.7,1.8,0,2.5c0.3,0.3,0.8,0.5,1.3,0.5c0.5,0,0.9-0.2,1.3-0.5
			C85.2-314.8,85-314.8,84.3-315.5z"/>
		<path class="st0" d="M19.9-297.4c-0.9,5.3,0.6,10.7,4,14.8c-0.3-0.5,0.3-0.9,0.9-1.5c0.7-0.7,1.3-1.3,2-0.6
			c-2.9-3.4-4.1-7.8-3.4-12.2l0.6-3.5c0.1-0.6-0.1-1.1-0.5-1.5l-9.5-9.5c-0.1-0.1-0.2-0.2-0.3-0.2c-0.6,1.1-1.1,2.2-1.6,3.4l8.2,8.2
			L19.9-297.4z"/>
		<path class="st0" d="M24.8-284c-0.6,0.6-1.2,0.9-0.9,1.5c0.1,0.1,0.1,0.2,0.2,0.3c0.4,0.4,0.9,0.6,1.4,0.6c0.4,0,0.8-0.1,1.1-0.4
			c0.7-0.6,0.8-1.8,0.2-2.5C26.1-285.3,25.5-284.7,24.8-284z"/>
	</g>
</g>
<g>
	<g>
		<circle class="st0" cx="271.5" cy="-280.2" r="65.3"/>
	</g>
	<g>
		<path class="st1" d="M244-320.8c5-1,10.2,0.5,13.8,4.2l12.6,12.6l10.3-10.3l2.3-2.3c3.6-3.6,8.8-5.2,13.8-4.2l1.3,0.3l11.9-11.9
			c-10.9-8.1-24.4-13-39.1-13c-14.9,0-28.7,5-39.7,13.4l11.5,11.5L244-320.8z"/>
		<path class="st1" d="M222.2-299.6c0.4,0.4,0.6,1,0.5,1.5l-0.6,3.5c-0.7,4.4,0.5,8.8,3.4,12.2l16.5,16.6c0.8,0.8,1.8,1.1,2.8,1
			c0.2-2.1,1.3-3.9,3-5.1c-0.2-0.4-0.4-0.7-0.7-1l-9.2-9.2c-0.7-0.7-0.7-1.8,0-2.5c0.7-0.7,1.8-0.7,2.5,0l9.2,9.2
			c0.2,0.2,0.4,0.4,0.6,0.6v-19.9c0-3.9,3.1-7,7-7c1.5,0,2.9,0.5,4,1.3c1-2.3,3.2-4,5.8-4.3l-11.6-11.6c-2.8-2.8-6.8-4-10.6-3.2
			L243-317c-0.9,0.2-1.9-0.1-2.6-0.8l-12-12c-6.6,5.7-12.1,12.6-16,20.5c0.1,0.1,0.2,0.1,0.3,0.2L222.2-299.6z"/>
		<path class="st1" d="M297.7-317l-1.6-0.3c-3.9-0.8-7.8,0.4-10.6,3.2l-2.3,2.3l-11,11c1.5,1.3,2.4,3.2,2.4,5.3v1.2
			c1-0.6,2.2-0.9,3.5-0.9c3.1,0,5.8,2.1,6.7,4.9c1.1-0.7,2.4-1.1,3.8-1.1c3.9,0,7,3.1,7,7v6.8l4.8-4.8c0.7-0.7,1.8-0.7,2.5,0
			c0.7,0.7,0.7,1.8,0,2.5l-7.4,7.4v7.9c1.1,0.2,2.3-0.1,3.2-1l15.7-15.7c3.4-3.4,5-8.4,4.2-13.2l-0.6-3.5c-0.1-0.6,0.1-1.1,0.5-1.5
			l9.2-9.2c0.4-0.4,1-0.6,1.6-0.5c-4-8.1-9.7-15.3-16.6-21l-12.5,12.5C299.6-317.1,298.7-316.8,297.7-317z"/>
		<path class="st1" d="M254.7-225l-2.1-1.5c-4.9-3.5-7.8-9.2-7.8-15.2v-19.4c-0.1,0-0.2,0-0.2,0c-1.9,0-3.7-0.7-5-2.1L222.8-280
			c-0.1-0.1-0.2-0.2-0.2-0.3c-3.4-4.1-4.8-9.5-4-14.8l0.4-2.6l-8.2-8.2c-3.4,7.9-5.3,16.6-5.3,25.7c0,30.5,20.9,56.1,49.2,63.3
			c0-0.1,0-0.2,0-0.3V-225z"/>
		<path class="st1" d="M284.1-225.9c0-1,0.5-1.8,1.3-2.4l1.4-0.9c3.3-2.2,5.2-5.8,5.2-9.8l0-15.6c0-0.1,0-0.3,0-0.5v-29.4
			c0-1.9-1.6-3.5-3.5-3.5c-1.9,0-3.5,1.6-3.5,3.5c0,0,0,0,0,0v16.1c0,1-0.8,1.8-1.8,1.8s-1.8-0.8-1.8-1.8v-19.9
			c0-1.9-1.6-3.5-3.5-3.5c-1.9,0-3.5,1.6-3.5,3.5v19.9c0,1-0.8,1.8-1.8,1.8c-1,0-1.8-0.8-1.8-1.8v-27.3c0-1.9-1.6-3.5-3.5-3.5
			c-1.9,0-3.5,1.6-3.5,3.5v26.3c0,1-0.8,1.8-1.8,1.8c-1,0-1.8-0.8-1.8-1.8v-23.3c0-1.9-1.6-3.5-3.5-3.5c-1.9,0-3.5,1.6-3.5,3.5v21.7
			c3.1,0.8,5.3,3.6,5.3,6.9v13c0,1-0.8,1.8-1.8,1.8c-1,0-1.8-0.8-1.8-1.8v-13c0-2-1.6-3.6-3.6-3.6s-3.6,1.6-3.6,3.6v22.2
			c0,4.9,2.4,9.5,6.3,12.3l2.9,2.1c0.5,0.3,0.7,0.9,0.7,1.4v8.8c0,0.4-0.1,0.7-0.3,1c4.2,0.8,8.5,1.3,13,1.3c4.6,0,9.1-0.5,13.4-1.4
			c-0.2-0.3-0.3-0.6-0.3-0.9V-225.9z"/>
		<path class="st1" d="M336.3-280.1c0-9.5-2-18.4-5.6-26.5c-0.1,0.1-0.2,0.3-0.3,0.4l-8.6,8.6l0.4,2.6c1,5.9-1,12-5.2,16.2
			l-15.7,15.7c-1.4,1.4-3.2,2.1-5,2.1c-0.2,0-0.4,0-0.7,0v6.3v15.8c0,5.1-2.6,9.9-6.8,12.7l-1.1,0.7v8.4c0,0.1,0,0.1,0,0.1
			C315.6-224.4,336.3-249.8,336.3-280.1z"/>
		<path class="st0" d="M222.8-280c-0.1-0.1-0.1-0.2-0.2-0.3C222.6-280.2,222.7-280.1,222.8-280z"/>
		<path class="st0" d="M287.7-225.6l1.1-0.7c4.3-2.8,6.8-7.6,6.8-12.7v-15.8c0,1-0.8,1.8-1.8,1.8c-1,0-1.8-0.8-1.8-1.8v-0.3
			c0,0.2,0,0.3,0,0.5l0,15.6c0,3.9-2,7.6-5.2,9.8l-1.4,0.9c-0.8,0.5-1.3,1.4-1.3,2.4v8.8c0,0.3,2.5,0.4,3.5,0.1
			C287.6-217,287.7-225.6,287.7-225.6z"/>
		<path class="st0" d="M293.7-257.1l-0.4,0.2c-0.8,0-1.3,1-1.4,1.8v0.3c0,1,0.8,1.8,1.8,1.8c1,0,1.8-0.8,1.8-1.8
			C295.6-255.8,294.7-257.1,293.7-257.1z"/>
		<path class="st0" d="M310-332.5c1,0.7,1.9,1.5,2.8,2.2L310-332.5z"/>
		<path class="st0" d="M296.8-320.8c-5-1-10.2,0.5-13.8,4.2l-2.3,2.3c0.7-0.7,1.6,0.5,2.3,1.2c0.7,0.7,0.9,0.7,0.2,1.4l2.3-2.3
			c2.8-2.8,6.8-4,10.6-3.2l1.6,0.3c0.9,0.2,1.9-0.1,2.6-0.8l12.5-12.5c-0.9-0.8-1.8-1.5-2.8-2.2l-11.9,11.9L296.8-320.8z"/>
		<path class="st0" d="M283-313.2c-0.7-0.7-1.6-1.9-2.3-1.2c-0.7,0.7-0.7,1.8,0,2.5c0.3,0.3,0.8,0.5,1.3,0.5c0.5,0,0.9-0.2,1.3-0.5
			C283.9-312.6,283.7-312.6,283-313.2z"/>
		<path class="st0" d="M218.6-295.1c-0.9,5.3,0.6,10.7,4,14.8c-0.3-0.5,0.3-0.9,0.9-1.5c0.7-0.7,1.3-1.3,2-0.6
			c-2.9-3.4-4.1-7.8-3.4-12.2l0.6-3.5c0.1-0.6-0.1-1.1-0.5-1.5l-9.5-9.5c-0.1-0.1-0.2-0.2-0.3-0.2c-0.6,1.1-1.1,2.2-1.6,3.4l8.2,8.2
			L218.6-295.1z"/>
		<path class="st0" d="M223.5-281.7c-0.6,0.6-1.2,0.9-0.9,1.5c0.1,0.1,0.1,0.2,0.2,0.3c0.4,0.4,0.9,0.6,1.4,0.6
			c0.4,0,0.8-0.1,1.1-0.4c0.7-0.6,0.8-1.8,0.2-2.5C224.8-283,224.2-282.4,223.5-281.7z"/>
	</g>
</g>
<g>
	<g>
		<circle class="st2" cx="433.3" cy="-803.1" r="62.6"/>
	</g>
</g>
<g>
	<g>
		<circle class="st3" cx="68" cy="-623.4" r="62.6"/>
	</g>
</g>
<g>
	<g>
		<circle class="st3" cx="603.1" cy="-634" r="62.6"/>
	</g>
</g>
<g>
	<g>
		<circle class="st4" cx="945.9" cy="-459.6" r="62.6"/>
	</g>
</g>
<g>
	<g>
		<circle class="st4" cx="775.9" cy="-459.6" r="62.6"/>
	</g>
</g>
<g>
	<g>
		<circle class="st1" cx="782.9" cy="-281.3" r="62.6"/>
	</g>
</g>
<g>
	<g>
		<circle class="st4" cx="69.5" cy="-454.5" r="62.6"/>
	</g>
</g>
<g>
	<g>
		<circle class="st4" cx="432.5" cy="-454.5" r="62.6"/>
	</g>
</g>
<g>
	<g>
		<circle class="st4" cx="600.8" cy="-457.9" r="62.6"/>
	</g>
</g>
<g>
	<g>
		<circle class="st2" cx="69.5" cy="-799.6" r="62.6"/>
	</g>
</g>
<g>
	<g>
		<circle class="st3" cx="433.6" cy="-630.5" r="62.6"/>
	</g>
</g>
<g>
	<g>
		<g>
			<circle class="st5" cx="271.7" cy="71.4" r="62.6"/>
		</g>
	</g>
	<path id="Subtraction_1" class="st0" d="M279.1,9.2c0,0,1.9,0.3,2.6,0.4c0.7,0.1,2.5,0.5,2.5,0.5l-14.3,13.4L285.5,38l21.3-18.5
		c0,0,0.9,0.6,1.2,0.8c0.3,0.2,1.3,1,1.3,1l-40,34.9c1.6,2.9,2.9,5.8,3.9,8.9h6.4v3.1h-5.3c0.2,0.7,0.5,1.4,0.7,2v0l0.4,1.1h5.7v3.1
		h-4.6c0.4,1.2,0.8,2.2,1.2,3.1h5v3.1H279c0.6,1.4,1.1,2.1,1.4,2.2c0.6,0.2,2.6,0.7,5.2,1.2c5.2,1.1,12.3,2.5,14.2,3.9
		c2.5,1.8,4.8,8,5.3,9.2h1.2c0,0,4.1,3,4.1,5.3c0,1.4-0.4,2.8-1,4.1h-41.6l0,0l-46-46.8l2.2-2.2l7.7-7.9l0.2,0.2l1,1.1l15.5-14.4
		l2,2.1L279.1,9.2z M267.6,25.7l-2.5,2.5l15.3,14.3l0,0l2.6-2.3L267.6,25.7z M247.9,41.2l-12.9,12l38.4,43.9H300h0l0,0h1.8
		c-0.5-2.3-1.6-4.3-3.3-5.9c-1.7-1.4-7.6-2.6-12.8-3.7c-2.7-0.5-5.4-1.1-8-2c-0.6-0.3-1.5-1.9-2.7-4.8h-6.3v-3.1h5.1
		c-0.3-0.9-0.7-1.9-1.1-3.1h-5.5v-3.1h4.5c-0.4-1-0.7-2.1-1.1-3.1h-4.9v-3.1h3.8c-1.5-4-2.4-6-3-6.5c-0.9-0.8-2.9-0.9-4.7-0.9
		c-0.7,0-1.5,0-2.3,0h0c-0.8,0-1.5,0-2.3,0c-1.7,0.2-3.4-0.1-5-0.9C250.1,55.3,248.3,44.5,247.9,41.2L247.9,41.2z"/>
</g>
<path id="Subtraction_1-2" class="st2" d="M1470.4-1301.7c-22.1,0-40,18-40,40.1c0,22.1,18,40,40.1,40c22.1,0,40-18,40-40.1
	c0-2.7-0.3-5.3-0.8-7.9C1505.8-1288.3,1489.4-1301.7,1470.4-1301.7z M1440.1-1275.2l14.4,19.2h11.9v-1.6h22v1.6h14.1v2h-2.5v5.5h-2
	v-5.5h-9.6v2.1l-1.4,0.1v1.2h-1v-1.1l-2,0.2v1.9h-1v-1.8l-2,0.2v1.6h-1v-1.5l-2,0.2v1.3h-1v-1.2l-2,0.2v1h-1v-0.9l-2,0.2v1.7h-1
	v-1.6l-2,0.2v1.4h-1v-1.3l-1.6,0.2v-4.4h-8.4v5.5h-2v-5.5h-2.5l0,0v0h0v0l-15-20L1440.1-1275.2z"/>
<path id="Union_122" class="st2" d="M1292.5-1220.6c-20.4-8.6-30-32.1-21.4-52.6c8.6-20.4,32.1-30,52.6-21.4
	c20.4,8.6,30,32.1,21.4,52.6c-6.3,14.9-20.8,24.6-37,24.6h-0.1C1302.7-1217.5,1297.4-1218.6,1292.5-1220.6z M1284.1-1229.5h49v-2
	h-49V-1229.5z M1288.1-1233.5h40v-2h-5.8v-52l0,0c-0.3,0.6-3.3,5.6-6.8,7.7c-1.8,1-3.8,1.5-5.8,1.5c-0.8,0-1.6-0.1-2.4-0.2l0,0
	c-0.5,0.7-3.4,4.3-6.3,5.9c-1.7,0.9-3.6,1.4-5.5,1.4c-0.4,0-0.8,0-1.2-0.1v35.9h-6.1V-1233.5z M1300-1241.8L1300-1241.8l0-21h2v20.2
	c0.1,0.9,0.4,2.3,1.6,2.3c1,0,1.3-1,1.4-1.9v-24.6h2v25c0.1,1.8-1.2,3.3-3,3.4c-0.1,0-0.2,0-0.3,0
	C1301.7-1238.3,1300.1-1239.8,1300-1241.8z M1310-1243.8L1310-1243.8l0-27h2v26.2c0.1,0.9,0.4,2.3,1.6,2.3c1,0,1.3-1,1.4-1.9v-29.6
	h2v30c0.1,1.8-1.2,3.3-3,3.4c-0.1,0-0.2,0-0.3,0C1311.7-1240.3,1310.1-1241.8,1310-1243.8z"/>
<path id="Subtraction_2" class="st2" d="M1129.6-1301.9c-5.4,0-10.8,1.1-15.8,3.1c-4.8,2-9.2,4.9-12.9,8.6
	c-15.6,15.2-15.9,40.3-0.7,55.9c0.2,0.2,0.4,0.5,0.7,0.7c3.7,3.7,8.1,6.6,12.9,8.6c10.1,4.2,21.5,4.2,31.7,0c4.8-2,9.2-4.9,12.9-8.6
	c15.6-15.2,15.9-40.3,0.7-55.9c-0.2-0.2-0.4-0.5-0.7-0.7c-3.7-3.7-8.1-6.6-12.9-8.6C1140.4-1300.8,1135-1301.9,1129.6-1301.9z
	 M1129.2-1292.9c8.8,0,16,2.9,16,6.5c0,0.1,0,0.1,0,0.2v0c0.1,2.8,0,5.7-0.4,8.5c-0.6,4.3-2.1,10.3-5.7,14.1
	c-2.1,2.2-4.9,3.6-7.9,3.9v19.8c5.7,0.3,10,2.2,10,4.5c0,2.5-5.2,4.5-11.5,4.5c-6.3,0-11.5-2-11.5-4.5c0-1.1,1.1-2.2,3.1-3.1
	c2.4-0.9,4.9-1.4,7.5-1.4v-19.8c-3.3-0.2-6.4-1.6-8.6-3.9c-3.8-3.8-5.4-9.8-6.2-14.2c-0.5-2.8-0.7-5.7-0.7-8.6v-0.1
	C1113.2-1289.9,1120.3-1292.9,1129.2-1292.9z M1129.2-1290.9c-7.7,0-14,2.5-14,5.5c0,3,6.3,5.5,14,5.5s14-2.5,14-5.5
	C1143.2-1288.4,1136.9-1290.9,1129.2-1290.9L1129.2-1290.9z"/>
<path id="Subtraction_1-3" class="st2" d="M1646.6-1481.2c-22.1,0-40,18-40,40.1c0,22.1,18,40,40.1,40c22.1,0,40-18,40-40.1
	c0-2.7-0.3-5.3-0.8-7.9C1682-1467.8,1665.6-1481.2,1646.6-1481.2z M1660.6-1471.2L1660.6-1471.2l2,0v61h-2v-19.9
	c-5.5-1.2-9.3-6.2-9.1-11.9C1651.5-1452,1660.2-1470.4,1660.6-1471.2L1660.6-1471.2L1660.6-1471.2L1660.6-1471.2z M1630.6-1471.2h2
	c0,0-0.4,2.9-0.7,6.5c-0.2,3.3-0.2,7.8,0.7,10.8c0.4,1.8,1.4,3.4,2.8,4.6c0.6,0.5,1.4,0.8,2.1,0.8h0.1v-22.6h2v22.7h0.1
	c0.6,0,3.5-0.3,5.1-5.4c0.9-3,0.9-7.5,0.7-10.8c-0.2-3.1-0.6-5.7-0.7-6.4c0,0,0,0,0,0h2c0,0.1,1.7,12.8,0,18.5
	c-1,3.3-3.8,5.8-7.2,6.5v36h-2v-36c-3.4-0.7-6.1-3.2-7-6.5C1628.9-1458.4,1630.6-1471,1630.6-1471.2L1630.6-1471.2z"/>
<path id="Subtraction_1-4" class="st2" d="M1475-1465.8c-22.1,0-40,18-40,40.1c0,22.1,18,40,40.1,40s40-18,40-40.1
	c0-2.7-0.3-5.3-0.8-7.9C1510.5-1452.4,1494.1-1465.9,1475-1465.8z M1474.6-1460.8c9.7,0,17.5,9.5,17.5,21.2c0,11-7.1,20.3-16.2,21.1
	l2.1,2.8h-3.4c-1.3,1.2-4.3,4.2-3.8,7.1c0.3,1.9,2,3,3.6,4c1.5,1,3.1,2,3.4,3.7c0.7,3.5-2.7,6.1-2.7,6.1h-3c0.9-0.4,1.7-0.9,2.5-1.6
	c1.1-0.9,2.3-2.4,1.9-4.2c-0.4-1.7-1.9-2.7-3.6-3.9c-1.7-1.2-3.4-2.3-3.8-4.3c-0.5-3,2-6,3.1-7.1h-3l2.3-3
	c-8.4-1.8-14.4-10.5-14.4-20.8C1457.1-1451.3,1464.9-1460.8,1474.6-1460.8L1474.6-1460.8z"/>
<path id="Subtraction_1-5" class="st2" d="M1303.2-1466.6c-22.1,0-40,17.9-40,40c0,22.1,17.9,40,40,40c22.1,0,40-17.9,40-40
	c0-2.7-0.3-5.3-0.8-7.9C1338.7-1453.2,1322.2-1466.6,1303.2-1466.6z M1303.7-1459.5l6.5,19h-1.9l5.3,18.5h-2.8l6.8,18.7h-12.4v6.9
	h-2v-6.9h-14l6.8-18.7h-2.4l5.6-18.5h-1.9L1303.7-1459.5z"/>
<path id="Subtraction_112" class="st2" d="M1814.8-1394.8c-22.1,0-40-17.9-40-40c0-16.1,9.6-30.6,24.4-36.8
	c20.4-8.6,43.8,0.9,52.4,21.3c8.6,20.4-0.9,43.8-21.3,52.4l0,0C1825.5-1395.9,1820.2-1394.8,1814.8-1394.8z M1790.8-1446.3
	c0.3,6.1,1.3,12.2,3.2,18.1c1.3,4.6,3.7,8.8,6.8,12.4c3.3,3.6,8,5.7,12.9,5.6c0.1,0,0.2,0,0.3,0c4.6,0,9-1.8,12.2-5.1
	c2.3-2.3,4.2-5,5.5-8c2.6-0.2,5.3-0.8,7.7-1.7c3.4-1.4,5.2-3.6,5.1-6.4c-0.1-6.1-6-7.7-8.5-8.1c0.4-2.9,0.5-5.2,0.5-6.3
	c0-0.2,0-0.4,0-0.6c0-2.8-2.4-5.4-6.7-7.4c-5.1-2.1-10.6-3.2-16.2-3c-5.5-0.1-11.1,0.9-16.2,3
	C1793.2-1451.8,1790.8-1449.2,1790.8-1446.3C1790.8-1446.4,1790.8-1446.4,1790.8-1446.3L1790.8-1446.3L1790.8-1446.3z M1832.8-1426
	L1832.8-1426l0.2-0.4c1.3-3.5,2.2-7.1,2.7-10.8c1.5,0.4,2.9,1,4.3,1.8c1.7,1.1,2.6,2.5,2.6,4
	C1842.5-1427.8,1835.7-1426.4,1832.8-1426L1832.8-1426z M1813.7-1438.8c-11.1,0-20.1-3.4-20.1-7.6c0-4.2,9-7.6,20.1-7.6
	s20.1,3.4,20.1,7.6C1833.9-1442.2,1824.8-1438.8,1813.7-1438.8z"/>
<text transform="matrix(1 0 0 1 627.0665 -1346.5883)"><tspan x="0" y="0" style="font-family:'MyriadPro-Regular'; font-size:26px;">Go see</tspan><tspan x="0" y="31.2" style="font-family:'MyriadPro-Regular'; font-size:26px;">Go eat</tspan><tspan x="0" y="62.4" style="font-family:'MyriadPro-Regular'; font-size:26px;">Go drink</tspan><tspan x="0" y="93.6" style="font-family:'MyriadPro-Regular'; font-size:26px;">Go attend/join/take part of</tspan><tspan x="0" y="124.8" style="font-family:'MyriadPro-Regular'; font-size:26px;">Go shop</tspan><tspan x="0" y="156" style="font-family:'MyriadPro-Regular'; font-size:26px;">Go do</tspan></text>
<g>
	<g>
		<circle class="st3" cx="264.8" cy="-630.5" r="62.6"/>
	</g>
</g>
<path class="st6" d="M1829.1-1079.1v9c0,1.5-1.2,2.8-2.8,2.8s-2.8-1.2-2.8-2.8v-41.3c0-1.5,1.2-2.8,2.8-2.8s2.8,1.2,2.8,2.8v26.7
	V-1079.1z"/>
<path class="st7" d="M1829.1-1079.1v9c0,1.5-1.2,2.8-2.8,2.8v-46.8c1.5,0,2.8,1.2,2.8,2.8v26.7V-1079.1z"/>
<path class="st8" d="M1839.9-1109.9h-26.7l12.5-27.5c0.7-0.3,0.6-0.1,0.8-0.1c0.2,0,0.2-0.1,0.8,0.1L1839.9-1109.9z"/>
<path class="st9" d="M1826.6-1137.5l-13.3,27.7h-25.1c-2.8,0-3.8-3.8-1.4-5.2C1831.1-1140.6,1824.9-1137.2,1826.6-1137.5z"/>
<path class="st10" d="M1864.9-1109.9h-25.1l-13.2-27.7c1,0-2.3-1.7,39.7,22.5C1868.7-1113.6,1867.7-1109.9,1864.9-1109.9z"/>
<path class="st11" d="M1839.9-1109.9h-13.3v-27.7c0.3,0,0.2-0.1,0.8,0.1L1839.9-1109.9z"/>
<path class="st6" d="M1786.5-1055.5c-1.5,0-2.8-1.2-2.8-2.8v-20.7c0-1.5,1.2-2.8,2.8-2.8s2.8,1.2,2.8,2.8v20.7
	C1789.3-1056.7,1788-1055.5,1786.5-1055.5z"/>
<path class="st12" d="M1873.4-1065.8v3.4c0,3.8-3.1,7-7,7c-4.1,0-54.9,0-59.3,0c-0.7,0-1.4-0.3-2-0.8l-23.8-23.8
	c-2.7-2.7-2.7-7.1,0-9.9c2.4-2.4,3.9-4.4,7.3-4.4c1.9,0,3.6,0.7,4.9,2l19.1,19.1c0.3,0.3,0.6,0.4,1,0.4h52.7
	C1870.3-1072.8,1873.4-1069.7,1873.4-1065.8L1873.4-1065.8z"/>
<path class="st13" d="M1873.4-1065.8v3.4c0,3.8-3.1,7-7,7h-40v-17.3h40C1870.3-1072.8,1873.4-1069.7,1873.4-1065.8z"/>
<path class="st6" d="M1873.4-1058.2v11.8c0,1.5-1.2,2.8-2.8,2.8s-2.8-1.2-2.8-2.8v-9h-83v9c0,1.5-1.2,2.8-2.8,2.8s-2.8-1.2-2.8-2.8
	v-11.8c0-1.5,1.2-2.8,2.8-2.8h88.5C1872.1-1061,1873.4-1059.8,1873.4-1058.2z"/>
<path class="st7" d="M1873.4-1058.2v11.8c0,1.5-1.2,2.8-2.8,2.8s-2.8-1.2-2.8-2.8v-9h-41.5v-5.5h44.3
	C1872.1-1061,1873.4-1059.8,1873.4-1058.2z"/>
<g>
	<path id="oversized-wine-glass-2_1_" class="st0" d="M435.6-421.8v-25.8c12.2-1.4,20.8-11.6,20.8-23.2c0-4.4-1.2-9.8-3.3-15.1
		c-0.4-1.1-1.5-1.9-2.8-1.9h-34.5c-1.2,0-2.3,0.7-2.8,1.9c-1.9,4.8-3.4,10.4-3.3,15.6l0,0c0,0,0,0,0,0c0.2,11.5,8.8,21.4,20.8,22.7
		v25.8c-7.9,0.6-14,4.2-14,5.9c0,2,7.4,3.5,16.5,3.5c9.1,0,16.5-1.6,16.5-3.5C449.6-417.7,443.5-421.2,435.6-421.8z M417.2-482.8
		h31.6c1.6,4.3,2.5,8.6,2.5,12c0,0.8-0.1,1.6-0.2,2.4c-1.6-0.4-3.2-0.4-5,0.2c-4.6,1.6-7.5,2.7-12.2,0.8c-4.6-1.8-7.5-10.1-13.1-9.4
		c-2.2,0.2-4.1,1-5.8,2C415.5-477.4,416.2-480.1,417.2-482.8z"/>
</g>
<g>
	<g id="cutlery_1_">
		<path class="st14" d="M176.7-599.3c-0.1,0-0.2,0.3-0.2,0.4c0,0.1,0,0.2,0.1,0.2c0.1,0,0.1,0.1,0.1,0.1l-0.1,0.9c0,0,0,0.1,0,0.1
			s0.1,0,0.1,0s0.1,0,0.1,0c0,0,0-0.1,0-0.1l-0.1-0.9c0-0.1,0-0.1,0.1-0.1c0.1,0,0.1-0.1,0.1-0.2C177-599.1,176.8-599.3,176.7-599.3
			z"/>
		<path class="st14" d="M177.6-599.3C177.6-599.3,177.6-599.3,177.6-599.3l0,0.4c0,0,0,0,0,0c0,0,0,0,0,0L177.6-599.3
			c-0.1,0-0.1,0-0.1,0h0c0,0,0,0,0,0v0.4c0,0,0,0,0,0s0,0,0,0v-0.4c0,0,0,0,0,0h0c0,0,0,0,0,0v0.4c0,0,0,0,0,0s0,0,0,0v-0.4
			c0,0,0,0,0,0c0,0,0,0,0,0c0,0.1,0,0.4,0,0.4c0,0.1,0,0.2,0.1,0.2c0.1,0,0.1,0.1,0.1,0.1l-0.1,0.9c0,0,0,0.1,0,0.1s0.1,0,0.1,0
			c0,0,0.1,0,0.1,0c0,0,0-0.1,0-0.1l-0.1-0.9c0-0.1,0-0.1,0.1-0.1c0.1,0,0.1-0.1,0.1-0.2C177.6-598.9,177.6-599.2,177.6-599.3
			C177.6-599.3,177.6-599.3,177.6-599.3z"/>
		<path class="st14" d="M178.1-598.4C178.1-598.4,178.1-598.4,178.1-598.4l0-0.9c0,0,0,0,0,0c0,0,0,0,0,0l-0.1,0.5
			c0,0.1,0,0.3,0.1,0.4C178-598.4,178-598.4,178.1-598.4l-0.2,0.9c0,0,0,0.1,0,0.1c0,0,0.1,0,0.1,0c0,0,0.1,0,0.1,0c0,0,0-0.1,0-0.1
			L178.1-598.4z"/>
	</g>
</g>
<g>
	<g>
		<path class="st0" d="M762-258.3c5.6,0,10.8-2,14.7-5.4c-2.2-2.6-3.8-5.5-4.9-8.7c-2.4,2.7-5.9,4.4-9.9,4.4
			c-7.3,0-13.4-5.9-13.4-13.2c0-7.3,6.1-13.2,13.4-13.2c7.4,0,13.2,6,13.2,13.2c0,12.5,10.2,22.9,22.9,22.9c12.6,0,23-10.3,23-22.9
			c0-12.6-10.4-22.9-23-22.9c-5.6,0-10.8,2-14.7,5.4c2.2,2.6,3.8,5.5,4.9,8.7c2.4-2.7,5.9-4.4,9.9-4.4c7.3,0,13.4,5.9,13.4,13.2
			c0,7.3-6.1,13.2-13.4,13.2c-7.4,0-13.2-6-13.2-13.2c0-12.5-10.2-22.9-22.9-22.9c-12.6,0-23,10.3-23,22.9
			C738.9-268.6,749.3-258.3,762-258.3z"/>
	</g>
</g>
<g>
	<g>
		<g>
			<circle class="st0" cx="607.9" cy="-279.6" r="62.6"/>
		</g>
	</g>
	<g>
		<g id="Page-1_3_">
			<g id="_x30_27---Web-Connections_3_">
				<path id="Shape_3_" class="st1" d="M653.8-237c-7.3-0.1-14.5-1-21.6-2.9c0.1-0.5,0.1-1,0.2-1.6c0-3.3-1.5-6.5-4.1-8.6
					c4.2-10.8,6.4-22.4,6.4-34c0-4-0.3-7.9-0.8-11.9c3.3-1.2,5.9-3.8,6.9-7.2c10.4,2.9,20.3,7.7,29,14.1
					C672.6-270.1,666.7-251,653.8-237L653.8-237z M600.2-217.3c-5.9-0.7-11.6-2.2-17.1-4.5c-0.1-1.2-0.1-2.5-0.1-4
					c0-8.4,1.2-16.7,3.5-24.7c0.3,0,0.6,0.1,1,0.1c2.9,0,5.8-1.2,7.8-3.2c4.6,3.8,9.6,7.1,14.8,9.9c-0.9,4.1,0.6,8.2,3.8,10.9
					C610.1-227.1,605.4-221.9,600.2-217.3z M562.9-295.2c0-3.7,3-6.7,6.7-6.7c3.7,0,6.7,3,6.7,6.7s-3,6.7-6.7,6.7
					C565.9-288.5,562.9-291.5,562.9-295.2z M565.2-325.6c11.6-10.7,26.8-16.7,42.5-16.7c0.3,0,0.6,0,0.9,0
					c6.7,7.8,12,16.7,15.6,26.3c-2,1.2-3.5,3-4.4,5.1c-1,0-2.1-0.1-3.1-0.1c-13.3,0-26.5,2.8-38.7,8.3c-2.6-3-6.6-4.4-10.5-3.6
					C566-312.6,565.2-319.1,565.2-325.6z M668.4-295.4c-8.3-5.5-17.5-9.7-27.2-12.2c-0.1-0.6-0.2-1.3-0.4-1.9c6.1-2.3,12.5-4,19-4.9
					C663.7-308.6,666.6-302.2,668.4-295.4z M636.8-306.4c0,3.7-3,6.7-6.7,6.7c-3.7,0-6.7-3-6.7-6.7s3-6.7,6.7-6.7
					C633.8-313.1,636.8-310.1,636.8-306.4z M630.1-284c0,10.9-2,21.7-5.9,31.9c-1-0.3-2.1-0.5-3.1-0.5c-3.7,0-7.1,1.8-9.2,4.8
					c-5-2.7-9.7-5.9-14.1-9.5c1.9-4.5,0.6-9.6-3.1-12.7c6.6-11.6,15.8-21.6,26.7-29.3c1.9,2.4,4.8,3.8,7.8,4
					C629.8-291.6,630.1-287.8,630.1-284L630.1-284z M580.8-295.2c0-1.2-0.2-2.3-0.6-3.4c11.5-5.1,23.9-7.8,36.4-7.8
					c0.8,0,1.5,0,2.2,0.1c0,1,0.2,2.1,0.5,3.1c-11.7,8.1-21.5,18.7-28.5,31.1c-2.4-0.8-4.9-0.8-7.2,0.2c-3.2-4.2-6.1-8.7-8.6-13.4
					C578.6-287.5,580.8-291.2,580.8-295.2L580.8-295.2z M587.5-268.3c3.7,0,6.7,3,6.7,6.7s-3,6.7-6.7,6.7c-3.7,0-6.7-3-6.7-6.7
					S583.8-268.3,587.5-268.3z M614.4-241.4c0-3.7,3-6.7,6.7-6.7c3.7,0,6.7,3,6.7,6.7c0,0.8-0.2,1.6-0.4,2.3v0
					c-1.1,3-4.3,4.8-7.5,4.3S614.4-238.2,614.4-241.4L614.4-241.4z M656.8-318.5c-6.2,1-12.3,2.7-18.1,5c-2.1-2.6-5.3-4.1-8.6-4.1
					c-0.6,0-1.1,0.1-1.7,0.2c-3.3-8.8-8-17-13.7-24.4C631.3-340,646.5-331.6,656.8-318.5z M560.8-321.2c0.3,5.6,1.2,11.2,2.5,16.7
					c-4.3,2.9-6,8.4-4.1,13.2c-5.2,4-9.9,8.5-14.2,13.5c0-0.6,0-1.2,0-1.8C545-294.9,550.6-309.7,560.8-321.2L560.8-321.2z
					 M545.5-271.3c4.6-6,10-11.5,16.1-16.2c2.1,2.2,5,3.4,8,3.4c0.4,0,0.8-0.1,1.2-0.1c2.6,5.1,5.6,9.9,9.1,14.4
					c-2.6,2.5-3.9,6-3.4,9.6c0.5,3.6,2.6,6.7,5.8,8.3c-2.4,8.5-3.7,17.2-3.7,26c0,0.6,0,1.2,0,1.8
					C560.6-233.5,548.2-251.1,545.5-271.3L545.5-271.3z M606.3-216.8c4.3-4.2,8.2-8.9,11.7-13.9c1,0.3,2.1,0.5,3.1,0.5
					c3.9,0,7.5-2.1,9.5-5.4c6.1,1.6,12.4,2.6,18.7,3c-11.5,10.2-26.3,15.9-41.6,15.9C607.3-216.8,606.8-216.8,606.3-216.8
					L606.3-216.8z"/>
			</g>
		</g>
	</g>
</g>
<g>
	<g>
		<g>
			<path class="st0" d="M622-482.6c-0.3-0.4-0.8-0.6-1.3-0.6h-39.4c-0.5,0-1,0.2-1.3,0.6c-0.3,0.4-0.5,0.9-0.5,1.4l5.4,53.7
				c0.1,0.9,0.9,1.6,1.8,1.6h28.7c0.9,0,1.7-0.7,1.8-1.6l5.4-53.7C622.6-481.7,622.4-482.2,622-482.6z M617.3-465
				c-4.6,1.5-10.5,2.2-15.1-1.7c-5.8-4.8-13-4-17.8-2.5l-1-10.4h35.4L617.3-465z"/>
		</g>
	</g>
</g>
<g>
	<g>
		<g>
			<path class="st0" d="M71.6-426.7v-24.5c10.2-0.8,18.3-9.3,18.3-19.7c0-4.3-2.3-11.5-4-16.7l-0.7-2.1c-0.2-0.6-0.8-1.1-1.5-1.1
				H56.6c-0.6,0-1.2,0.4-1.4,1c-1.5,3.9-4.9,13.5-4.9,18.8c0,10.4,8.1,19,18.3,19.7v24.5c-7.6,0.3-15.2,2.9-15.2,7.6
				c0,0.8,0.7,1.5,1.5,1.5h30.5c0.8,0,1.5-0.7,1.5-1.5C86.8-423.7,79.2-426.4,71.6-426.7z M53.4-469.4c0-0.5-0.1-1-0.1-1.5
				c0-3.7,2.2-10.9,4.3-16.8h25l0.3,1c1.5,4.7,3.8,11.9,3.8,15.8c0,0.5,0,1-0.1,1.5H53.4L53.4-469.4z"/>
		</g>
	</g>
</g>
<g>
	<g>
		<circle class="st4" cx="262.5" cy="-454.5" r="62.6"/>
	</g>
</g>
<g>
	<g>
		<g>
			<path class="st0" d="M264.6-426.7v-24.5c10.2-0.8,18.3-9.3,18.3-19.7c0-4.3-2.3-11.5-4-16.7l-0.7-2.1c-0.2-0.6-0.8-1.1-1.5-1.1
				h-27.2c-0.6,0-1.2,0.4-1.4,1c-1.5,3.9-4.9,13.5-4.9,18.8c0,10.4,8.1,19,18.3,19.7v24.5c-7.6,0.3-15.2,2.9-15.2,7.6
				c0,0.8,0.7,1.5,1.5,1.5h30.5c0.8,0,1.5-0.7,1.5-1.5C279.8-423.7,272.2-426.4,264.6-426.7z M246.4-469.4c0-0.5-0.1-1-0.1-1.5
				c0-3.7,2.2-10.9,4.3-16.8h25l0.3,1c1.5,4.7,3.8,11.9,3.8,15.8c0,0.5,0,1-0.1,1.5H246.4L246.4-469.4z"/>
		</g>
	</g>
</g>
<ellipse class="st15" cx="413.2" cy="-1075.4" rx="44.1" ry="45.2"/>
<ellipse class="st16" cx="508.3" cy="-1073.5" rx="44.1" ry="45.2"/>
<ellipse class="st17" cx="603.7" cy="-1073.4" rx="44.1" ry="45.2"/>
<ellipse class="st2" cx="698.8" cy="-1071.5" rx="44.1" ry="45.2"/>
<ellipse class="st18" cx="797.4" cy="-1073.7" rx="44.1" ry="45.2"/>
<rect x="372" y="-1014.8" style="fill:none;" width="86.6" height="23.2"/>
<text transform="matrix(1 0 0 1 395.126 -1006.2542)" class="st15" style="font-family:'MyriadPro-Regular'; font-size:12px;">#fea7b7</text>
<rect x="467.7" y="-1014.6" style="fill:none;" width="86.6" height="23.2"/>
<text transform="matrix(1 0 0 1 492.1718 -1006.0625)" class="st16" style="font-family:'MyriadPro-Regular'; font-size:12px;">#ff4869</text>
<rect x="559.9" y="-1014.5" style="fill:none;" width="86.6" height="23.2"/>
<text transform="matrix(1 0 0 1 582.6777 -1005.9785)" class="st17" style="font-family:'MyriadPro-Regular'; font-size:12px;">#859bf9</text>
<rect x="659.4" y="-1014.7" style="fill:none;" width="86.6" height="23.2"/>
<text transform="matrix(1 0 0 1 683.9056 -1006.1976)" class="st2" style="font-family:'MyriadPro-Regular'; font-size:12px;">#002ff2</text>
<rect x="754.5" y="-1014.5" style="fill:none;" width="86.6" height="23.2"/>
<text transform="matrix(1 0 0 1 780.6645 -1005.9695)" style="fill:#DADFEF; font-family:'MyriadPro-Regular'; font-size:12px;">#f0f2fc</text>
<g>
	<g>
		<g>
			<circle class="st0" cx="68.3" cy="-800.6" r="11.8"/>
			<path class="st0" d="M115.4-802.1c-0.9-0.9-21.3-22.4-47.1-22.4c-25.8,0-46.3,21.5-47.1,22.4c-0.8,0.8-0.8,2.1,0,3
				c0.9,0.9,21.3,22.4,47.1,22.4c25.8,0,46.3-21.5,47.1-22.4C116.2-800,116.2-801.3,115.4-802.1z M68.3-782.5
				c-10,0-18.2-8.1-18.2-18.2c0-10,8.1-18.2,18.2-18.2c10,0,18.2,8.1,18.2,18.2C86.5-790.6,78.3-782.5,68.3-782.5z M53.9-817.8
				c-4.9,4.1-8.1,10.2-8.1,17.1c0,6.9,3.2,13,8.1,17.2c-13.6-4.4-24.2-13.6-28.1-17.2C29.7-804.2,40.3-813.4,53.9-817.8z
				 M82.7-783.5c4.9-4.1,8.1-10.2,8.1-17.1s-3.2-13-8.1-17.1c13.6,4.4,24.2,13.5,28,17.1C107-797.1,96.3-787.9,82.7-783.5z"/>
		</g>
	</g>
</g>
<g>
	<g>
		<circle class="st2" cx="265" cy="-799.6" r="62.6"/>
	</g>
</g>
<g>
	<g>
		<g>
			<circle class="st0" cx="263.8" cy="-800.6" r="11.8"/>
			<path class="st0" d="M311-802.1c-0.9-0.9-21.3-22.4-47.1-22.4c-25.8,0-46.3,21.5-47.1,22.4c-0.8,0.8-0.8,2.1,0,3
				c0.9,0.9,21.3,22.4,47.1,22.4c25.8,0,46.3-21.5,47.1-22.4C311.7-800,311.7-801.3,311-802.1z M263.8-782.5
				c-10,0-18.2-8.1-18.2-18.2c0-10,8.1-18.2,18.2-18.2c10,0,18.2,8.1,18.2,18.2C282-790.6,273.8-782.5,263.8-782.5z M249.4-817.8
				c-4.9,4.1-8.1,10.2-8.1,17.1c0,6.9,3.2,13,8.1,17.2c-13.6-4.4-24.2-13.6-28.1-17.2C225.2-804.2,235.9-813.4,249.4-817.8z
				 M278.2-783.5c4.9-4.1,8.1-10.2,8.1-17.1s-3.2-13-8.1-17.1c13.6,4.4,24.2,13.5,28,17.1C302.5-797.1,291.8-787.9,278.2-783.5z"/>
		</g>
	</g>
</g>
<g>
	<circle class="st1" cx="439.4" cy="-276.1" r="65.3"/>
</g>
<g>
	<g>
		<path class="st0" d="M474.9-309.4c-3.4-3.4-8-5.3-12.9-5.4s-9.4,1.9-12.8,5.3l-15.5,15.5c0,0,0,0,0,0.1c3.2-0.4,7-0.1,7.4,0.2
			c1.6,0.2,3.4,0.8,4.1,1.2l10.5-10.5c3.5-3.4,9.4-3.4,12.8,0c3.5,3.5,3.5,9.3,0,12.8L453-274.6c-2.9,2.9-7.3,3.2-9.8,1.9
			c-0.7,0-2.6-1.4-3.1-1.9c-1.5-1.4-3.8-1.7-5.6-0.7c-0.2,0.1-0.5,0.3-0.9,0.7l-2.8,2.8c0.8,1.3,1.7,2.5,2.8,3.6
			c1.1,1.1,2.3,2,3.6,2.8c4.4,2.6,9.8,3.1,13.9,1.9c3.1-0.8,5.9-2.4,8.1-4.7l15.5-15.5c3.4-3.4,5.3-8,5.3-12.8
			C480.3-301.4,478.4-305.9,474.9-309.4L474.9-309.4z M438.5-260l-10.6,10.6c-3.5,3.4-9.4,3.4-12.8,0c-3.5-3.5-3.5-9.3,0-12.8
			l15.5-15.5c3.6-3.6,9.2-3.4,12.8,0c1.8,1.7,4.7,1.7,6.4,0l2.8-2.8c-0.8-1.3-1.7-2.6-2.8-3.6c-3.6-3.6-8.2-5.2-11-5.2
			c-3.1-0.9-10.2,0.6-14.7,5.1l-15.5,15.5c-3.4,3.4-5.3,8-5.3,12.8c0,4.9,1.9,9.4,5.4,12.9c3.4,3.4,8,5.3,12.9,5.4
			c4.9,0,9.4-1.9,12.8-5.3l15.5-15.5C449.2-258.6,442.9-257.7,438.5-260z"/>
	</g>
</g>
<g>
	<g id="cutlery_2_">
		<path class="st0" d="M409.8-667.2c-3.6,0-8.3,9.6-8.3,16.9c0,4.8,1.6,7.4,4,8.6c1.9,1,3.1,3.1,2.9,5.2l-3.5,35.4
			c-0.1,1.4,0.3,2.7,1.2,3.7c0.9,1,2.2,1.6,3.6,1.6c1.4,0,2.7-0.6,3.6-1.6c0.9-1,1.4-2.4,1.2-3.7l-3.5-35.4
			c-0.2-2.2,0.9-4.2,2.9-5.2c2.4-1.2,4-3.8,4-8.6C418.1-657.6,413.6-667.2,409.8-667.2z"/>
		<path class="st0" d="M441.5-667.2c-0.7,0-1.2,0.5-1.2,1.2v14.6c0,0.7-0.5,1.2-1.2,1.2c-0.7,0-1.2-0.5-1.2-1.2V-666
			c0-0.7-0.5-1.2-1.2-1.2h0c-0.7,0-1.2,0.5-1.2,1.2v14.6c0,0.7-0.5,1.2-1.2,1.2c-0.7,0-1.2-0.5-1.2-1.2V-666c0-0.7-0.5-1.2-1.2-1.2
			h0c-0.7,0-1.2,0.5-1.2,1.2v14.6c0,0.7-0.5,1.2-1.2,1.2c-0.7,0-1.2-0.5-1.2-1.2V-666c0-0.7-0.5-1.2-1.2-1.2c-0.6,0-1.1,0.5-1.1,1.1
			c0,3.7,0,15.3,0,15.7c0,4.8,1.6,7.4,4,8.6c1.9,1,3.1,3.1,2.9,5.2l-3.5,35.4c-0.1,1.4,0.3,2.7,1.2,3.7c0.9,1,2.2,1.6,3.6,1.6
			c1.4,0,2.7-0.6,3.6-1.6c0.9-1,1.4-2.4,1.2-3.7l-3.5-35.4c-0.2-2.2,0.9-4.2,2.9-5.2c2.4-1.2,4-3.8,4-8.6c0-0.5,0-12,0-15.7
			C442.7-666.7,442.2-667.2,441.5-667.2z"/>
		<path class="st0" d="M460.9-633.5c0.4,0,0.8-0.4,0.8-0.8v-31.5c0-0.8-0.6-1.4-1.4-1.4c-0.7,0-1.3,0.5-1.5,1.1l-4.9,17.2
			c-1.4,5-0.6,10.4,2.4,14.8c0.3,0.4,0.8,0.7,1.3,0.7l-3.2,32.4c-0.1,1.4,0.3,2.7,1.2,3.7c0.9,1,2.2,1.6,3.6,1.6
			c1.4,0,2.7-0.6,3.6-1.6c0.9-1,1.4-2.4,1.2-3.7L460.9-633.5z"/>
	</g>
</g>
<g>
	<g>
		<path class="st0" d="M779.8-484.9c0-4.1,0-22.4,0-22.4h-3H775h-3c0,0,0,18.3,0,22.4s-7.6,9-7.6,14.8c0,5.8,0,47.6,0,49.1
			c0,1.5,1,3.9,3.2,3.9c1.5,0,5.2,0,7.4,0c1.1,0,1.8,0,1.8,0c2.2,0,5.9,0,7.4,0c2.2,0,3.2-2.5,3.2-3.9s0-43.3,0-49.1
			C787.4-476,779.8-480.9,779.8-484.9z"/>
	</g>
</g>
<g>
	<g>
		<circle class="st19" cx="267.3" cy="-104.7" r="62.6"/>
	</g>
</g>
<g>
	<g>
		<circle class="st19" cx="68.2" cy="-96.8" r="62.6"/>
	</g>
</g>
<g>
	<g>
		<circle class="st19" cx="610.8" cy="-109.8" r="62.6"/>
	</g>
</g>
<g>
	<g>
		<g>
			<path class="st0" d="M304.8-119.6l-0.1-0.3c0,0,0-0.1,0-0.1l-5.3-12.8v-6.3h-64.7v6.3l-5.2,12.8c0,0.1,0,0.1,0,0.2l0,0.3
				c-0.1,0.5-0.1,0.9-0.1,1.4c0,3.4,1.9,6.4,4.7,7.9v35.7h66.1v-35.7c2.8-1.5,4.7-4.5,4.7-7.9C304.9-118.7,304.9-119.2,304.8-119.6z
				 M301.2-120.2h-11.6l-1.4-9.3h9.1L301.2-120.2z M237.9-136h58.4v3.1h-58.4V-136z M287-117.1l0.2,1.1l-0.9,1.2
				c-1.1,1.5-2.8,2.3-4.7,2.3c-1.9,0-3.6-0.9-4.7-2.3l-0.9-1.3l-0.1-1.1H287z M275.7-120.2l-0.5-9.3h9.9l1.4,9.3H275.7z
				 M272.7-117.1L272.7-117.1l0.1,1.1l-0.9,1.2c-1.1,1.5-2.8,2.3-4.7,2.3c-1.9,0-3.6-0.9-4.7-2.3l-1-1.3l0.1-1.1L272.7-117.1
				L272.7-117.1z M261.7-120.2l0.5-9.3h9.9l0.5,9.3H261.7z M247.8-120.2l1.4-9.3h9.9l-0.5,9.3H247.8z M258.4-117.1l-0.1,1.2
				l-0.9,1.2c-1.1,1.5-2.8,2.3-4.7,2.3s-3.6-0.9-4.7-2.3l-0.9-1.2l0.2-1.2H258.4z M236.8-129.6h9.2l-1.4,9.3H233L236.8-129.6z
				 M232.6-117.1h11.5l-0.2,1.2l-0.9,1.2c-1.1,1.5-2.8,2.3-4.7,2.3C235.5-112.4,233.2-114.4,232.6-117.1z M290.7-77.7h-12.6v-11h1.6
				c0.9,0,1.6-0.7,1.6-1.6c0-0.9-0.7-1.6-1.6-1.6h-1.6v-11h12.6V-77.7z M297-77.7L297-77.7h-3.1v-28.3H275v28.3h-37.8v-31.5
				c0.4,0,0.7,0.1,1.1,0.1c2.9,0,5.6-1.4,7.2-3.6c1.6,2.2,4.3,3.6,7.2,3.6c2.9,0,5.6-1.4,7.2-3.6c1.6,2.2,4.3,3.6,7.2,3.6
				s5.6-1.4,7.2-3.6c1.6,2.2,4.3,3.6,7.2,3.6s5.6-1.4,7.2-3.6c1.6,2.2,4.3,3.6,7.2,3.6c0.4,0,0.8,0,1.1-0.1L297-77.7L297-77.7z
				 M295.9-112.4c-1.9,0-3.6-0.9-4.7-2.3l-0.9-1.2l-0.2-1.2h11.5C301.1-114.4,298.8-112.4,295.9-112.4z"/>
		</g>
	</g>
	<g>
		<g>
			<path class="st0" d="M240.4-106.1v22h31.5v-22H240.4z M268.7-87.2h-25.2v-15.7h25.2V-87.2z"/>
		</g>
	</g>
</g>
<g>
	<path class="st0" d="M99-63.9L94.4-115c-0.1-1.4-1.3-2.5-2.7-2.5h-9.5v-4.3c0-7.9-6.5-14.4-14.4-14.4c-7.9,0-14.4,6.5-14.4,14.4
		v4.3h-9.5c-1.4,0-2.6,1.1-2.7,2.5l-4.6,51.3c-0.1,0.8,0.2,1.5,0.7,2.1c0.5,0.6,1.2,0.9,2,0.9h57c0,0,0,0,0,0c1.5,0,2.7-1.2,2.7-2.7
		C99-63.7,99-63.8,99-63.9z M58.8-121.7c0-5,4-9,9-9c5,0,9,4,9,9v4.3h-18V-121.7z M42.3-66.2l4.1-45.9h7v4.8c0,1.5,1.2,2.7,2.7,2.7
		c1.5,0,2.7-1.2,2.7-2.7v-4.8h18v4.8c0,1.5,1.2,2.7,2.7,2.7c1.5,0,2.7-1.2,2.7-2.7v-4.8h7l4.1,45.9L42.3-66.2L42.3-66.2z"/>
</g>
<g>
	<g>
		<circle class="st19" cx="435.6" cy="-108.1" r="62.6"/>
	</g>
</g>
<g>
	<path class="st0" d="M466.4-75.2l-4.6-51.1c-0.1-1.4-1.3-2.5-2.7-2.5h-9.5v-4.3c0-7.9-6.5-14.4-14.4-14.4
		c-7.9,0-14.4,6.5-14.4,14.4v4.3h-9.5c-1.4,0-2.6,1.1-2.7,2.5L404.1-75c-0.1,0.8,0.2,1.5,0.7,2.1c0.5,0.6,1.2,0.9,2,0.9h57
		c0,0,0,0,0,0c1.5,0,2.7-1.2,2.7-2.7C466.4-74.9,466.4-75.1,466.4-75.2z M426.3-133c0-5,4-9,9-9c5,0,9,4,9,9v4.3h-18V-133z
		 M409.7-77.5l4.1-45.9h7v4.8c0,1.5,1.2,2.7,2.7,2.7s2.7-1.2,2.7-2.7v-4.8h18v4.8c0,1.5,1.2,2.7,2.7,2.7c1.5,0,2.7-1.2,2.7-2.7v-4.8
		h7l4.1,45.9L409.7-77.5L409.7-77.5z"/>
</g>
<g>
	<path class="st0" d="M593.9-94L593.9-94C593.9-94,593.9-94,593.9-94l41.3,0c1,0,1.9-0.7,2.2-1.7l9.1-31.9c0.2-0.7,0.1-1.4-0.4-2
		c-0.4-0.6-1.1-0.9-1.8-0.9h-55.7l-1.6-7.3c-0.2-1-1.2-1.8-2.2-1.8h-13.7c-1.3,0-2.3,1-2.3,2.3s1,2.3,2.3,2.3h11.8
		c0.3,1.3,7.8,35.1,8.2,37c-2.4,1.1-4.1,3.5-4.1,6.3c0,3.8,3.1,6.8,6.8,6.8h41.3c1.3,0,2.3-1,2.3-2.3c0-1.3-1-2.3-2.3-2.3h-41.3
		c-1.3,0-2.3-1-2.3-2.3C591.6-92.9,592.6-94,593.9-94z M641.3-125.9l-7.8,27.3h-37.8l-6.1-27.3H641.3z"/>
	<path class="st0" d="M591.6-78c0,3.8,3.1,6.8,6.8,6.8s6.8-3.1,6.8-6.8c0-3.8-3.1-6.8-6.8-6.8S591.6-81.8,591.6-78z M598.4-80.3
		c1.3,0,2.3,1,2.3,2.3s-1,2.3-2.3,2.3s-2.3-1-2.3-2.3S597.2-80.3,598.4-80.3z"/>
	<path class="st0" d="M623.8-78c0,3.8,3.1,6.8,6.8,6.8s6.8-3.1,6.8-6.8c0-3.8-3.1-6.8-6.8-6.8S623.8-81.8,623.8-78z M630.6-80.3
		c1.3,0,2.3,1,2.3,2.3s-1,2.3-2.3,2.3s-2.3-1-2.3-2.3S629.4-80.3,630.6-80.3z"/>
</g>
<g>
	<g>
		<path class="st0" d="M973.7-456.4c-1.1-1.4-2.7-2.2-4.5-2.2h-5.3v-4h-39.7v11.9c0,6.7,3.4,12.6,8.5,16.2h-8.5v3.5h39.7v-3.5h-8.5
			c1.8-1.2,3.4-2.8,4.7-4.5h3.8c4.5,0,8.4-3.1,9.5-7.4l1.3-5.1C975.1-453.3,974.7-455,973.7-456.4L973.7-456.4z M944.2-434.5h-0.3
			c-8.9,0-16.2-7.3-16.2-16.2v-8.4h32.7v8.4C960.4-441.7,953.1-434.5,944.2-434.5L944.2-434.5z M971.3-452.4l-1.3,5.1
			c-0.7,2.8-3.2,4.8-6.1,4.8h-1.8c1.1-2.5,1.8-5.3,1.8-8.2v-4.4h5.3c0.7,0,1.3,0.3,1.7,0.8C971.3-453.7,971.5-453,971.3-452.4
			L971.3-452.4z"/>
		<path class="st0" d="M944.1-477c-3.2,0-5.8,2.6-5.8,5.8v4h3.5v-4c0-1.3,1-2.3,2.3-2.3h16.1c7.6,0,13.8-6.2,13.8-13.8v-3.5h-3.5
			v3.5c0,5.7-4.6,10.3-10.3,10.3H944.1z"/>
		<path class="st0" d="M933.8-470.7c0-5.7,4.6-10.3,10.3-10.3h16.1c3.2,0,5.8-2.6,5.8-5.8v-4h-3.5v4c0,1.3-1,2.3-2.3,2.3h-16.1
			c-7.6,0-13.8,6.2-13.8,13.8v3.5h3.5V-470.7z"/>
	</g>
</g>
<g>
	<g>
		<path class="st0" d="M618.2-636.3c4.5,2.4,13.3,1.7,19.9-5c6.6-6.6,9.1-16.2,2.9-22.7l0,0c0,0-0.1-0.1-0.2-0.2c0,0,0,0,0,0
			c-6.4-6.2-16.1-3.7-22.7,2.9c-6.6,6.7-7.4,15.4-5,19.9c-0.6,3.7-5.7,7.8-10.3,10.4c-3.5-2.2-8-6-8.4-13.8c0.3-3.1-0.7-6.3-3-8.7
			c-0.2-0.2-0.8-0.7-0.8-0.7l-17.2-13.4l-1.6,1.6l18.7,17.5l-2,2l-18.1-18.1l-1.7,1.7l18.1,18.1L585-643l-18.1-18.1l-1.5,1.5l18,18
			l-2.1,2.1L563.8-658l-1.7,1.7l14.3,18c0,0,0.3,0.3,0.5,0.5c2.1,1.8,4.7,2.7,7.3,2.6c0,0,0,0,0.1,0c6.8,0.1,11,4.2,13.7,7.8
			c-6.5,6.5-26.6,26.6-26.6,26.6l0,0c0,0,0,0-0.1,0.1c-1.6,1.6-1.6,4.3,0,5.9c0.1,0.1,0.4,0.4,0.5,0.5c1.6,1.6,4.3,1.6,5.9,0
			c0,0,0,0,0.1-0.1l0,0c0,0,18.7-18.7,25.8-25.8c6.8,6.8,25.7,25.7,25.7,25.7l0,0c0,0,0,0,0,0.1c1.6,1.6,4.2,1.6,5.8,0
			c1.6-1.6,1.6-4.2,0-5.8c0,0,0,0-0.1-0.1l0,0c0,0-20.8-20.8-26.6-26.6C611.1-631.3,614.8-635.7,618.2-636.3z"/>
	</g>
</g>
<g>
	<g id="cutlery-6_1_">
		<path class="st0" d="M35-649.1c-0.5,0-1,0.4-1,1v11.9c0,0.5-0.4,1-1,1c-0.5,0-1-0.4-1-1v-11.9c0-0.5-0.4-1-1-1h0c-0.5,0-1,0.4-1,1
			v11.9c0,0.5-0.4,1-1,1c-0.5,0-1-0.4-1-1v-11.9c0-0.5-0.4-1-1-1h0c-0.5,0-1,0.4-1,1v11.9c0,0.5-0.4,1-1,1c-0.5,0-1-0.4-1-1v-11.9
			c0-0.5-0.4-1-1-1c-0.5,0-0.9,0.4-0.9,0.9c0,3,0,12.5,0,12.9c0,3.9,1.3,6.1,3.3,7.1c1.6,0.8,2.5,2.5,2.3,4.3L25.2-595
			c-0.1,1.1,0.3,2.2,1,3.1c0.8,0.8,1.8,1.3,2.9,1.3c1.1,0,2.2-0.5,2.9-1.3c0.8-0.8,1.1-1.9,1-3.1l-2.8-28.9
			c-0.2-1.8,0.8-3.5,2.3-4.3c2-1,3.3-3.1,3.3-7.1c0-0.4,0-9.8,0-12.9C35.9-648.7,35.5-649.1,35-649.1z"/>
		<path class="st0" d="M110.4-621.5c0.4,0,0.7-0.3,0.7-0.7v-25.7c0-0.6-0.5-1.2-1.2-1.2c-0.6,0-1,0.4-1.2,0.9l-4,14.1
			c-1.2,4.1-0.5,8.5,2,12.1c0.2,0.3,0.6,0.5,1,0.5l-2.6,26.5c-0.1,1.1,0.3,2.2,1,3.1c0.8,0.8,1.8,1.3,2.9,1.3c1.1,0,2.2-0.5,2.9-1.3
			c0.8-0.8,1.1-1.9,1-3.1L110.4-621.5z"/>
		<path class="st0" d="M69.2-650C52.5-650,39-636.5,39-619.9c0,16.7,13.5,30.2,30.2,30.2c16.7,0,30.2-13.5,30.2-30.2
			C99.3-636.5,85.8-650,69.2-650z M69.2-598.3c-11.9,0-21.5-9.7-21.5-21.5s9.7-21.5,21.5-21.5c11.9,0,21.5,9.7,21.5,21.5
			S81-598.3,69.2-598.3z"/>
		<path class="st0" d="M69.2-638.4c-10.2,0-18.5,8.3-18.5,18.5c0,10.2,8.3,18.5,18.5,18.5c10.2,0,18.5-8.3,18.5-18.5
			C87.7-630.1,79.4-638.4,69.2-638.4z"/>
	</g>
</g>
<g>
	<g>
		<circle class="st3" cx="778.2" cy="-635.7" r="62.6"/>
	</g>
</g>
<g>
	<g id="cutlery-6_2_">
		<path class="st0" d="M745.2-661.4c-0.5,0-1,0.4-1,1v11.9c0,0.5-0.4,1-1,1c-0.5,0-1-0.4-1-1v-11.9c0-0.5-0.4-1-1-1h0
			c-0.5,0-1,0.4-1,1v11.9c0,0.5-0.4,1-1,1c-0.5,0-1-0.4-1-1v-11.9c0-0.5-0.4-1-1-1h0c-0.5,0-1,0.4-1,1v11.9c0,0.5-0.4,1-1,1
			c-0.5,0-1-0.4-1-1v-11.9c0-0.5-0.4-1-1-1c-0.5,0-0.9,0.4-0.9,0.9c0,3,0,12.5,0,12.9c0,3.9,1.3,6.1,3.3,7.1
			c1.6,0.8,2.5,2.5,2.3,4.3l-2.8,28.9c-0.1,1.1,0.3,2.2,1,3.1c0.8,0.8,1.8,1.3,2.9,1.3c1.1,0,2.2-0.5,2.9-1.3c0.8-0.8,1.1-1.9,1-3.1
			l-2.8-28.9c-0.2-1.8,0.8-3.5,2.3-4.3c2-1,3.3-3.1,3.3-7.1c0-0.4,0-9.8,0-12.9C746.1-660.9,745.7-661.4,745.2-661.4z"/>
		<path class="st0" d="M820.6-633.8c0.4,0,0.7-0.3,0.7-0.7v-25.7c0-0.6-0.5-1.2-1.2-1.2c-0.6,0-1,0.4-1.2,0.9l-4,14.1
			c-1.2,4.1-0.5,8.5,2,12.1c0.2,0.3,0.6,0.5,1,0.5l-2.6,26.5c-0.1,1.1,0.3,2.2,1,3.1c0.8,0.8,1.8,1.3,2.9,1.3s2.2-0.5,2.9-1.3
			c0.8-0.8,1.1-1.9,1-3.1L820.6-633.8z"/>
		<path class="st0" d="M779.4-662.3c-16.7,0-30.2,13.5-30.2,30.2c0,16.7,13.5,30.2,30.2,30.2c16.7,0,30.2-13.5,30.2-30.2
			C809.6-648.8,796.1-662.3,779.4-662.3z M779.4-610.6c-11.9,0-21.5-9.7-21.5-21.5s9.7-21.5,21.5-21.5c11.9,0,21.5,9.7,21.5,21.5
			S791.3-610.6,779.4-610.6z"/>
		<path class="st0" d="M779.4-650.7c-10.2,0-18.5,8.3-18.5,18.5c0,10.2,8.3,18.5,18.5,18.5c10.2,0,18.5-8.3,18.5-18.5
			C797.9-642.4,789.6-650.7,779.4-650.7z"/>
	</g>
</g>
<g>
	<g>
		<path class="st0" d="M459-804.8c-7.3-6.2-16.2-11.1-25.8-11.1c-9.5,0-18.5,4.9-25.8,11.1c-6.4,5.4-10.3,10.7-10.5,11
			c-0.5,0.8-0.5,1.8,0,2.5c0.2,0.2,4.1,5.6,10.5,11c7.3,6.2,16.2,11.1,25.8,11.1c9.5,0,18.5-4.9,25.8-11.1
			c6.4-5.4,10.3-10.7,10.5-11c0.5-0.8,0.5-1.8,0-2.5C469.3-794.1,465.3-799.4,459-804.8z M456.1-783.5c-5.4,4.6-13.8,10-22.9,10
			s-17.5-5.5-22.9-10c-4.2-3.6-7.3-7.2-8.8-9c1.5-1.8,4.6-5.5,8.8-9c5.4-4.6,13.8-10,22.9-10s17.5,5.5,22.9,10
			c4.2,3.6,7.3,7.2,8.8,9C463.5-790.7,460.3-787.1,456.1-783.5z"/>
		<path class="st0" d="M433.2-805.1c-6.9,0-12.5,5.6-12.5,12.5s5.6,12.5,12.5,12.5s12.5-5.6,12.5-12.5S440.1-805.1,433.2-805.1z
			 M433.2-784.3c-4.6,0-8.3-3.7-8.3-8.3c0-4.6,3.7-8.3,8.3-8.3s8.3,3.7,8.3,8.3C441.4-788,437.7-784.3,433.2-784.3z"/>
		<path class="st0" d="M433.2-820.2c1.2,0,2.1-1,2.1-2.1v-18c0-1.2-1-2.1-2.1-2.1s-2.1,1-2.1,2.1v18
			C431-821.2,432-820.2,433.2-820.2z"/>
		<path class="st0" d="M416.1-819.5c0.5,1.1,1.8,1.5,2.9,0.9c1.1-0.5,1.5-1.8,0.9-2.9l-8.3-16c-0.5-1.1-1.8-1.5-2.9-0.9
			c-1.1,0.5-1.5,1.8-0.9,2.9L416.1-819.5z"/>
		<path class="st0" d="M447.4-818.5c1.1,0.5,2.3,0.1,2.9-0.9l8.3-16c0.5-1.1,0.1-2.3-0.9-2.9c-1.1-0.5-2.3-0.1-2.9,0.9l-8.3,16
			C445.9-820.4,446.3-819.1,447.4-818.5L447.4-818.5z"/>
	</g>
</g>
<g>
	<g>
		<path class="st0" d="M292.8-597.2L292.8-597.2c0,0-17.7-18-19.5-19.8c-1.1-0.3-7.4-3.1-7.5-8.3c2.7-3.1,6.6-6.1,12.4-6.1
			c0,0,0,0,0.1,0c2.6,0.1,5.3-0.8,7.4-2.6c0.1-0.1,0.5-0.5,0.5-0.5l14.5-18.2l-1.7-1.7l-17.7,18.8l-2.1-2.1l18.2-18.2l-1.5-1.5
			l-18.3,18.3l-1.7-1.7l18.3-18.3l-1.7-1.7L274-642.8l-2.1-2.1l18.9-17.8l-1.6-1.6l-17.4,13.6c0,0-0.6,0.5-0.9,0.8
			c-2.4,2.4-3.4,5.6-3.1,8.8c-0.2,4-1.5,6.9-3.2,9.2c-32.5-31.8-44.8-28.4-44.8-28.4l-1,1c0,0,21.9,21.9,35.4,35.5
			c-4.7,4.7-27.6,27.6-27.6,27.6l0,0c0,0,0,0-0.1,0.1c-1.6,1.6-1.6,4.3,0,5.9c1.6,1.6,4.3,1.6,5.9,0c0,0,0-0.1,0-0.1l0,0
			c0,0,22.9-22.9,27.6-27.6c2.5,2.5,4.1,4.1,4.4,4.4c2,2,22.2,22.2,22.2,22.2h0c0,0,0,0,0,0.1c1.6,1.6,4.3,1.6,5.9,0
			C294.5-592.9,294.5-595.5,292.8-597.2C292.9-597.2,292.8-597.2,292.8-597.2z"/>
	</g>
</g>
<g>
	<g>
		<g>
			<circle class="st5" cx="441.7" cy="71.4" r="62.6"/>
		</g>
	</g>
</g>
<path class="st0" d="M471.5,81.4h-3.1l-8.9-27.9c-5.5,3.2-10.9,5.3-15.7,3.3c-6.2-2.9-7.9-9.7-8.2-10.6l-11.3-7.4l-21.9,30.6
	l51.6,35.2l32.8-0.2v-7.7C486.8,88.2,479.9,81.4,471.5,81.4L471.5,81.4z M416.3,58.9c3.1,4.9,7.6,8.8,14.1,12.7
	c10,5.9,10.8,13,10.4,16.8L409.8,68L416.3,58.9z M481.5,99.1h-24.4l-11.6-7.6c2.9-10.8-4.5-20-12.4-24.4
	c-9.1-5.4-12.3-10.6-13.3-12.9l5.9-8.3l5.5,3.6c3.3,9.3,12.5,17,25.2,11.4l1.9,5.8l-6.7,2.2l1.6,5l6.7-2.2l1.8,5.6l-6.1,2l1.6,5
	l6.1-2l1.4,4.3h7c5.5,0,10,4.5,10,10L481.5,99.1L481.5,99.1z"/>
<g>
	<g>
		<g>
			<circle class="st5" cx="608.7" cy="66.2" r="62.6"/>
		</g>
	</g>
</g>
<g>
	<g>
		<path class="st0" d="M568.3,75.3h19v4.8h-19V75.3z"/>
		<path class="st0" d="M636.2,70.6h-2.9l-8.2-25.7c-5.1,2.9-10,4.9-14.5,3c-5.7-2.6-7.2-8.9-7.5-9.8l-10.4-6.8l-20.2,28.2l41.6,27.4
			H578v4.8h72.3v-7.1C650.3,76.9,644,70.6,636.2,70.6L636.2,70.6z M585.4,49.9c2.9,4.5,7,8.1,12.9,11.7c9.2,5.4,10,12,9.5,15.5
			l-28.5-18.7L585.4,49.9z M645.5,86.9H623l-10.7-7c2.6-10-4.2-18.4-11.5-22.5c-8.4-4.9-11.3-9.7-12.3-11.9L594,38l5,3.3
			c3,8.6,11.5,15.7,23.2,10.5l1.7,5.4l-6.2,2l1.5,4.6l6.2-2l1.7,5.2l-5.6,1.8l1.5,4.6l5.6-1.8l1.3,3.9h6.4c5.1,0,9.2,4.1,9.2,9.2
			L645.5,86.9L645.5,86.9z"/>
	</g>
</g>
<line class="st20" x1="454.6" y1="-0.1" x2="431.8" y2="47.8"/>
<polyline class="st20" points="443.2,23.8 466.2,34 454,59.5 476.8,11.6 "/>
<path class="st20" d="M432.5,45.8"/>
<g>
	<g>
		<g>
			<circle class="st5" cx="792.4" cy="67.9" r="62.6"/>
		</g>
	</g>
</g>
<line class="st20" x1="805.2" y1="-3.6" x2="782.5" y2="44.2"/>
<polyline class="st20" points="793.8,20.3 816.9,30.5 804.7,55.9 827.4,8.1 "/>
<path class="st20" d="M783.1,42.3"/>
<g>
	<g>
		<path class="st0" d="M751.3,79.8h19v4.8h-19V79.8z"/>
		<path class="st0" d="M819.3,75.2h-2.9l-8.2-25.7c-5.1,2.9-10,4.9-14.5,3c-5.7-2.6-7.2-8.9-7.5-9.8l-10.4-6.8l-20.2,28.2l41.6,27.4
			H761v4.8h72.3v-7.1C833.4,81.5,827.1,75.2,819.3,75.2L819.3,75.2z M768.5,54.5c2.9,4.5,7,8.1,12.9,11.7c9.2,5.4,10,12,9.5,15.5
			l-28.5-18.7L768.5,54.5z M828.6,91.5h-22.5l-10.7-7c2.6-10-4.2-18.4-11.5-22.5c-8.4-4.9-11.3-9.7-12.3-11.9l5.4-7.6l5,3.3
			c3,8.6,11.5,15.7,23.2,10.5l1.7,5.4l-6.2,2l1.5,4.6l6.2-2l1.7,5.2l-5.6,1.8l1.5,4.6l5.6-1.8l1.3,3.9h6.4c5.1,0,9.2,4.1,9.2,9.2
			L828.6,91.5L828.6,91.5z"/>
	</g>
</g>
<polygon class="st0" points="791.6,25.5 815.2,35.8 802.3,55.3 786.2,51 782.5,42 "/>
<g>
	<defs>
		<circle id="SVGID_1_" cx="77.6" cy="79.1" r="62.6"/>
	</defs>
	<use xlink:href="#SVGID_1_"  style="overflow:visible;fill:#FFCD42;"/>
	<clipPath id="SVGID_2_">
		<use xlink:href="#SVGID_1_"  style="overflow:visible;"/>
	</clipPath>
	<g class="st21">
		<line class="st22" x1="90.4" y1="8" x2="67.7" y2="55.8"/>
		<polyline class="st22" points="79.1,31.9 102.1,42.1 89.9,67.6 112.7,19.7 		"/>
		<path class="st22" d="M68.4,53.9"/>
		<g>
			<g>
				<path class="st5" d="M36.6,91.5h19v4.8h-19V91.5z"/>
				<path class="st5" d="M104.6,86.8h-2.9l-8.2-25.7c-5.1,2.9-10,4.9-14.5,3c-5.7-2.6-7.2-8.9-7.5-9.8l-10.4-6.8L40.9,75.7
					l41.6,27.4H46.3v4.8h72.3v-7.1C118.6,93.1,112.3,86.8,104.6,86.8L104.6,86.8z M53.7,66.1c2.9,4.5,7,8.1,12.9,11.7
					c9.2,5.4,10,12,9.5,15.5L47.8,74.5L53.7,66.1z M113.8,103.1H91.3l-10.7-7c2.6-10-4.2-18.4-11.5-22.5
					c-8.4-4.9-11.3-9.7-12.3-11.9l5.4-7.6l5,3.3c3,8.6,11.5,15.7,23.2,10.5l1.7,5.4l-6.2,2l1.5,4.6l6.2-2l1.7,5.2l-5.6,1.8l1.5,4.6
					l5.6-1.8l1.3,3.9h6.4c5.1,0,9.2,4.1,9.2,9.2L113.8,103.1L113.8,103.1z"/>
			</g>
		</g>
		<polygon class="st5" points="76.8,37.1 100.4,47.4 87.5,67 71.4,62.6 67.7,53.6 		"/>
	</g>
</g>
<g>
	<g>
		<path class="st0" d="M36.9,90.9h19v4.8h-19V90.9z"/>
		<path class="st0" d="M104.8,86.2h-2.9l-8.2-25.7c-5.1,2.9-10,4.9-14.5,3c-5.7-2.6-7.2-8.9-7.5-9.8L61.3,47L41.2,75.2l41.6,27.4
			H46.6v4.8h72.3v-7.1C118.9,92.5,112.6,86.2,104.8,86.2L104.8,86.2z M54,65.5c2.9,4.5,7,8.1,12.9,11.7c9.2,5.4,10,12,9.5,15.5
			L48,73.9L54,65.5z M114.1,102.5H91.6l-10.7-7c2.6-10-4.2-18.4-11.5-22.5c-8.4-4.9-11.3-9.7-12.3-11.9l5.4-7.6l5,3.3
			c3,8.6,11.5,15.7,23.2,10.5l1.7,5.4l-6.2,2l1.5,4.6l6.2-2l1.7,5.2L90,84.3l1.5,4.6l5.6-1.8l1.3,3.9h6.4c5.1,0,9.2,4.1,9.2,9.2
			L114.1,102.5L114.1,102.5z"/>
	</g>
</g>
<polygon class="st0" points="77.1,36.5 101.5,47.6 88.7,67.2 71.7,62 68,53.1 "/>
</svg>
