<?xml version="1.0" encoding="utf-8"?>
<!-- Generator: Adobe Illustrator 25.0.0, SVG Export Plug-In . SVG Version: 6.00 Build 0)  -->
<svg version="1.1" id="Layer_1" xmlns="http://www.w3.org/2000/svg" xmlns:xlink="http://www.w3.org/1999/xlink" x="0px" y="0px"
	 viewBox="0 0 148.1 150.5" style="enable-background:new 0 0 148.1 150.5;" xml:space="preserve">
<style type="text/css">
	.st0{fill:#FFFFFF;}
	.st1{fill:#4F953B;}
	.st2{fill:#002FF2;}
	.st3{fill:#DA291C;}
	.st4{fill:#E97F02;}
	.st5{fill:#FFCD42;}
	.st6{fill:#704C55;}
	.st7{fill:#5A344B;}
	.st8{fill:#00C6CD;}
	.st9{fill:#A9F0F0;}
	.st10{fill:#00A0AA;}
	.st11{fill:#64DDE0;}
	.st12{fill:#E4F1FB;}
	.st13{fill:#C9E3F7;}
	.st14{fill:#000100;}
	.st15{fill:#FEA7B7;}
	.st16{fill:#FF4869;}
	.st17{fill:#859BF9;}
	.st18{fill:#F0F2FC;}
	.st19{fill:#C8A2C8;}
	.st20{fill:none;stroke:#FFFFFF;stroke-width:5;stroke-miterlimit:10;}
</style>
<g>
	<g>
		<circle class="st0" cx="77.4" cy="247.3" r="65.3"/>
	</g>
	<g>
		<path class="st1" d="M49.9,206.6c5-1,10.2,0.5,13.8,4.2l12.6,12.6l10.3-10.3l2.3-2.3c3.6-3.6,8.8-5.2,13.8-4.2l1.3,0.3l11.9-11.9
			c-10.9-8.1-24.4-13-39.1-13c-14.9,0-28.7,5-39.7,13.4l11.5,11.5L49.9,206.6z"/>
		<path class="st1" d="M28.1,227.9c0.4,0.4,0.6,1,0.5,1.5L28,233c-0.7,4.4,0.5,8.8,3.4,12.2L48,261.8c0.8,0.8,1.8,1.1,2.8,1
			c0.2-2.1,1.3-3.9,3-5.1c-0.2-0.4-0.4-0.7-0.7-1l-9.2-9.2c-0.7-0.7-0.7-1.8,0-2.5c0.7-0.7,1.8-0.7,2.5,0l9.2,9.2
			c0.2,0.2,0.4,0.4,0.6,0.6V235c0-3.9,3.1-7,7-7c1.5,0,2.9,0.5,4,1.3c1-2.3,3.2-4,5.8-4.3l-11.6-11.6c-2.8-2.8-6.8-4-10.6-3.2
			l-1.6,0.3c-0.9,0.2-1.9-0.1-2.6-0.8l-12-12c-6.6,5.7-12.1,12.6-16,20.5c0.1,0.1,0.2,0.1,0.3,0.2L28.1,227.9z"/>
		<path class="st1" d="M103.7,210.4l-1.6-0.3c-3.9-0.8-7.8,0.4-10.6,3.2l-2.3,2.3l-11,11c1.5,1.3,2.4,3.2,2.4,5.3v1.2
			c1-0.6,2.2-0.9,3.5-0.9c3.1,0,5.8,2.1,6.7,4.9c1.1-0.7,2.4-1.1,3.8-1.1c3.9,0,7,3.1,7,7v6.8l4.8-4.8c0.7-0.7,1.8-0.7,2.5,0
			c0.7,0.7,0.7,1.8,0,2.5l-7.4,7.4v7.9c1.1,0.2,2.3-0.1,3.2-1l15.7-15.7c3.4-3.4,5-8.4,4.2-13.2l-0.6-3.5c-0.1-0.6,0.1-1.1,0.5-1.5
			l9.2-9.2c0.4-0.4,1-0.6,1.6-0.5c-4-8.1-9.7-15.3-16.6-21l-12.5,12.5C105.6,210.3,104.6,210.6,103.7,210.4z"/>
		<path class="st1" d="M60.7,302.5l-2.1-1.5c-4.9-3.5-7.8-9.2-7.8-15.2v-19.4c-0.1,0-0.2,0-0.2,0c-1.9,0-3.7-0.7-5-2.1l-16.7-16.8
			c-0.1-0.1-0.2-0.2-0.2-0.3c-3.4-4.1-4.8-9.5-4-14.8l0.4-2.6l-8.2-8.2c-3.4,7.9-5.3,16.6-5.3,25.7c0,30.5,20.9,56.1,49.2,63.3
			c0-0.1,0-0.2,0-0.3V302.5z"/>
		<path class="st1" d="M90.1,301.5c0-1,0.5-1.8,1.3-2.4l1.4-0.9c3.3-2.2,5.2-5.8,5.2-9.8l0-15.6c0-0.1,0-0.3,0-0.5V243
			c0-1.9-1.6-3.5-3.5-3.5c-1.9,0-3.5,1.6-3.5,3.5c0,0,0,0,0,0v16.1c0,1-0.8,1.8-1.8,1.8c-1,0-1.8-0.8-1.8-1.8v-19.9
			c0-1.9-1.6-3.5-3.5-3.5c-1.9,0-3.5,1.6-3.5,3.5v19.9c0,1-0.8,1.8-1.8,1.8c-1,0-1.8-0.8-1.8-1.8v-27.3c0-1.9-1.6-3.5-3.5-3.5
			c-1.9,0-3.5,1.6-3.5,3.5v26.3c0,1-0.8,1.8-1.8,1.8c-1,0-1.8-0.8-1.8-1.8V235c0-1.9-1.6-3.5-3.5-3.5c-1.9,0-3.5,1.6-3.5,3.5v21.7
			c3.1,0.8,5.3,3.6,5.3,6.9v13c0,1-0.8,1.8-1.8,1.8s-1.8-0.8-1.8-1.8v-13c0-2-1.6-3.6-3.6-3.6s-3.6,1.6-3.6,3.6v22.2
			c0,4.9,2.4,9.5,6.3,12.3l2.9,2.1c0.5,0.3,0.7,0.9,0.7,1.4v8.8c0,0.4-0.1,0.7-0.3,1c4.2,0.8,8.5,1.3,13,1.3c4.6,0,9.1-0.5,13.4-1.4
			c-0.2-0.3-0.3-0.6-0.3-0.9V301.5z"/>
		<path class="st1" d="M142.2,247.3c0-9.5-2-18.4-5.6-26.5c-0.1,0.1-0.2,0.3-0.3,0.4l-8.6,8.6l0.4,2.6c1,5.9-1,12-5.2,16.2
			l-15.7,15.7c-1.4,1.4-3.2,2.1-5,2.1c-0.2,0-0.4,0-0.7,0v6.3v15.8c0,5.1-2.6,9.9-6.8,12.7l-1.1,0.7v8.4c0,0.1,0,0.1,0,0.1
			C121.6,303.1,142.2,277.7,142.2,247.3z"/>
		<path class="st0" d="M28.7,247.5c-0.1-0.1-0.1-0.2-0.2-0.3C28.6,247.3,28.6,247.4,28.7,247.5z"/>
		<path class="st0" d="M93.6,301.9l1.1-0.7c4.3-2.8,6.8-7.6,6.8-12.7v-15.8c0,1-0.8,1.8-1.8,1.8c-1,0-1.8-0.8-1.8-1.8v-0.3
			c0,0.2,0,0.3,0,0.5l0,15.6c0,3.9-2,7.6-5.2,9.8l-1.4,0.9c-0.8,0.5-1.3,1.4-1.3,2.4v8.8c0,0.3,2.5,0.4,3.5,0.1
			C93.6,310.5,93.6,301.9,93.6,301.9z"/>
		<path class="st0" d="M99.7,270.4l-0.4,0.2c-0.8,0-1.3,1-1.4,1.8v0.3c0,1,0.8,1.8,1.8,1.8c1,0,1.8-0.8,1.8-1.8
			C101.5,271.7,100.7,270.4,99.7,270.4z"/>
		<path class="st0" d="M115.9,195c1,0.7,1.9,1.5,2.8,2.2L115.9,195z"/>
		<path class="st0" d="M102.8,206.6c-5-1-10.2,0.5-13.8,4.2l-2.3,2.3c0.7-0.7,1.6,0.5,2.3,1.2c0.7,0.7,0.9,0.7,0.2,1.4l2.3-2.3
			c2.8-2.8,6.8-4,10.6-3.2l1.6,0.3c0.9,0.2,1.9-0.1,2.6-0.8l12.5-12.5c-0.9-0.8-1.8-1.5-2.8-2.2L104,206.9L102.8,206.6z"/>
		<path class="st0" d="M88.9,214.2c-0.7-0.7-1.6-1.9-2.3-1.2c-0.7,0.7-0.7,1.8,0,2.5c0.3,0.3,0.8,0.5,1.3,0.5c0.5,0,0.9-0.2,1.3-0.5
			C89.9,214.9,89.6,214.9,88.9,214.2z"/>
		<path class="st0" d="M24.5,232.4c-0.9,5.3,0.6,10.7,4,14.8c-0.3-0.5,0.3-0.9,0.9-1.5c0.7-0.7,1.3-1.3,2-0.6
			c-2.9-3.4-4.1-7.8-3.4-12.2l0.6-3.5c0.1-0.6-0.1-1.1-0.5-1.5l-9.5-9.5c-0.1-0.1-0.2-0.2-0.3-0.2c-0.6,1.1-1.1,2.2-1.6,3.4l8.2,8.2
			L24.5,232.4z"/>
		<path class="st0" d="M29.4,245.7c-0.6,0.6-1.2,0.9-0.9,1.5c0.1,0.1,0.1,0.2,0.2,0.3c0.4,0.4,0.9,0.6,1.4,0.6
			c0.4,0,0.8-0.1,1.1-0.4c0.7-0.6,0.8-1.8,0.2-2.5C30.7,244.5,30.1,245,29.4,245.7z"/>
	</g>
</g>
<g>
	<g>
		<circle class="st0" cx="276.1" cy="249.5" r="65.3"/>
	</g>
	<g>
		<path class="st1" d="M248.6,208.9c5-1,10.2,0.5,13.8,4.2l12.6,12.6l10.3-10.3l2.3-2.3c3.6-3.6,8.8-5.2,13.8-4.2l1.3,0.3l11.9-11.9
			c-10.9-8.1-24.4-13-39.1-13c-14.9,0-28.7,5-39.7,13.4l11.5,11.5L248.6,208.9z"/>
		<path class="st1" d="M226.8,230.2c0.4,0.4,0.6,1,0.5,1.5l-0.6,3.5c-0.7,4.4,0.5,8.8,3.4,12.2l16.5,16.6c0.8,0.8,1.8,1.1,2.8,1
			c0.2-2.1,1.3-3.9,3-5.1c-0.2-0.4-0.4-0.7-0.7-1l-9.2-9.2c-0.7-0.7-0.7-1.8,0-2.5c0.7-0.7,1.8-0.7,2.5,0l9.2,9.2
			c0.2,0.2,0.4,0.4,0.6,0.6v-19.9c0-3.9,3.1-7,7-7c1.5,0,2.9,0.5,4,1.3c1-2.3,3.2-4,5.8-4.3l-11.6-11.6c-2.8-2.8-6.8-4-10.6-3.2
			l-1.6,0.3c-0.9,0.2-1.9-0.1-2.6-0.8l-12-12c-6.6,5.7-12.1,12.6-16,20.5c0.1,0.1,0.2,0.1,0.3,0.2L226.8,230.2z"/>
		<path class="st1" d="M302.3,212.7l-1.6-0.3c-3.9-0.8-7.8,0.4-10.6,3.2l-2.3,2.3l-11,11c1.5,1.3,2.4,3.2,2.4,5.3v1.2
			c1-0.6,2.2-0.9,3.5-0.9c3.1,0,5.8,2.1,6.7,4.9c1.1-0.7,2.4-1.1,3.8-1.1c3.9,0,7,3.1,7,7v6.8l4.8-4.8c0.7-0.7,1.8-0.7,2.5,0
			c0.7,0.7,0.7,1.8,0,2.5l-7.4,7.4v7.9c1.1,0.2,2.3-0.1,3.2-1l15.7-15.7c3.4-3.4,5-8.4,4.2-13.2l-0.6-3.5c-0.1-0.6,0.1-1.1,0.5-1.5
			l9.2-9.2c0.4-0.4,1-0.6,1.6-0.5c-4-8.1-9.7-15.3-16.6-21l-12.5,12.5C304.2,212.6,303.3,212.9,302.3,212.7z"/>
		<path class="st1" d="M259.3,304.8l-2.1-1.5c-4.9-3.5-7.8-9.2-7.8-15.2v-19.4c-0.1,0-0.2,0-0.2,0c-1.9,0-3.7-0.7-5-2.1l-16.7-16.8
			c-0.1-0.1-0.2-0.2-0.2-0.3c-3.4-4.1-4.8-9.5-4-14.8l0.4-2.6l-8.2-8.2c-3.4,7.9-5.3,16.6-5.3,25.7c0,30.5,20.9,56.1,49.2,63.3
			c0-0.1,0-0.2,0-0.3V304.8z"/>
		<path class="st1" d="M288.7,303.8c0-1,0.5-1.8,1.3-2.4l1.4-0.9c3.3-2.2,5.2-5.8,5.2-9.8l0-15.6c0-0.1,0-0.3,0-0.5v-29.4
			c0-1.9-1.6-3.5-3.5-3.5c-1.9,0-3.5,1.6-3.5,3.5c0,0,0,0,0,0v16.1c0,1-0.8,1.8-1.8,1.8c-1,0-1.8-0.8-1.8-1.8v-19.9
			c0-1.9-1.6-3.5-3.5-3.5c-1.9,0-3.5,1.6-3.5,3.5v19.9c0,1-0.8,1.8-1.8,1.8c-1,0-1.8-0.8-1.8-1.8v-27.3c0-1.9-1.6-3.5-3.5-3.5
			c-1.9,0-3.5,1.6-3.5,3.5v26.3c0,1-0.8,1.8-1.8,1.8c-1,0-1.8-0.8-1.8-1.8v-23.3c0-1.9-1.6-3.5-3.5-3.5c-1.9,0-3.5,1.6-3.5,3.5v21.7
			c3.1,0.8,5.3,3.6,5.3,6.9v13c0,1-0.8,1.8-1.8,1.8c-1,0-1.8-0.8-1.8-1.8v-13c0-2-1.6-3.6-3.6-3.6c-2,0-3.6,1.6-3.6,3.6V288
			c0,4.9,2.4,9.5,6.3,12.3l2.9,2.1c0.5,0.3,0.7,0.9,0.7,1.4v8.8c0,0.4-0.1,0.7-0.3,1c4.2,0.8,8.5,1.3,13,1.3c4.6,0,9.1-0.5,13.4-1.4
			c-0.2-0.3-0.3-0.6-0.3-0.9V303.8z"/>
		<path class="st1" d="M340.9,249.6c0-9.5-2-18.4-5.6-26.5c-0.1,0.1-0.2,0.3-0.3,0.4l-8.6,8.6l0.4,2.6c1,5.9-1,12-5.2,16.2
			l-15.7,15.7c-1.4,1.4-3.2,2.1-5,2.1c-0.2,0-0.4,0-0.7,0v6.3v15.8c0,5.1-2.6,9.9-6.8,12.7l-1.1,0.7v8.4c0,0.1,0,0.1,0,0.1
			C320.2,305.4,340.9,279.9,340.9,249.6z"/>
		<path class="st0" d="M227.4,249.7c-0.1-0.1-0.1-0.2-0.2-0.3C227.2,249.5,227.3,249.6,227.4,249.7z"/>
		<path class="st0" d="M292.3,304.2l1.1-0.7c4.3-2.8,6.8-7.6,6.8-12.7v-15.8c0,1-0.8,1.8-1.8,1.8c-1,0-1.8-0.8-1.8-1.8v-0.3
			c0,0.2,0,0.3,0,0.5l0,15.6c0,3.9-2,7.6-5.2,9.8l-1.4,0.9c-0.8,0.5-1.3,1.4-1.3,2.4v8.8c0,0.3,2.5,0.4,3.5,0.1
			C292.3,312.7,292.3,304.2,292.3,304.2z"/>
		<path class="st0" d="M298.4,272.6l-0.4,0.2c-0.8,0-1.3,1-1.4,1.8v0.3c0,1,0.8,1.8,1.8,1.8c1,0,1.8-0.8,1.8-1.8
			C300.2,273.9,299.3,272.6,298.4,272.6z"/>
		<path class="st0" d="M314.6,197.2c1,0.7,1.9,1.5,2.8,2.2L314.6,197.2z"/>
		<path class="st0" d="M301.4,208.9c-5-1-10.2,0.5-13.8,4.2l-2.3,2.3c0.7-0.7,1.6,0.5,2.3,1.2c0.7,0.7,0.9,0.7,0.2,1.4l2.3-2.3
			c2.8-2.8,6.8-4,10.6-3.2l1.6,0.3c0.9,0.2,1.9-0.1,2.6-0.8l12.5-12.5c-0.9-0.8-1.8-1.5-2.8-2.2l-11.9,11.9L301.4,208.9z"/>
		<path class="st0" d="M287.6,216.5c-0.7-0.7-1.6-1.9-2.3-1.2c-0.7,0.7-0.7,1.8,0,2.5c0.3,0.3,0.8,0.5,1.3,0.5
			c0.5,0,0.9-0.2,1.3-0.5C288.5,217.2,288.3,217.2,287.6,216.5z"/>
		<path class="st0" d="M223.2,234.6c-0.9,5.3,0.6,10.7,4,14.8c-0.3-0.5,0.3-0.9,0.9-1.5c0.7-0.7,1.3-1.3,2-0.6
			c-2.9-3.4-4.1-7.8-3.4-12.2l0.6-3.5c0.1-0.6-0.1-1.1-0.5-1.5l-9.5-9.5c-0.1-0.1-0.2-0.2-0.3-0.2c-0.6,1.1-1.1,2.2-1.6,3.4l8.2,8.2
			L223.2,234.6z"/>
		<path class="st0" d="M228.1,248c-0.6,0.6-1.2,0.9-0.9,1.5c0.1,0.1,0.1,0.2,0.2,0.3c0.4,0.4,0.9,0.6,1.4,0.6c0.4,0,0.8-0.1,1.1-0.4
			c0.7-0.6,0.8-1.8,0.2-2.5C229.4,246.7,228.8,247.3,228.1,248z"/>
	</g>
</g>
<g>
	<g>
		<circle class="st2" cx="437.9" cy="-273.3" r="62.6"/>
	</g>
</g>
<g>
	<g>
		<circle class="st3" cx="72.6" cy="-93.7" r="62.6"/>
	</g>
</g>
<g>
	<g>
		<circle class="st3" cx="607.7" cy="-104.2" r="62.6"/>
	</g>
</g>
<g>
	<g>
		<circle class="st4" cx="950.5" cy="70.1" r="62.6"/>
	</g>
</g>
<g>
	<g>
		<circle class="st4" cx="780.5" cy="70.1" r="62.6"/>
	</g>
</g>
<g>
	<g>
		<circle class="st1" cx="787.5" cy="248.5" r="62.6"/>
	</g>
</g>
<g>
	<g>
		<circle class="st4" cx="74.1" cy="75.3" r="62.6"/>
	</g>
</g>
<g>
	<g>
		<circle class="st4" cx="437.1" cy="75.3" r="62.6"/>
	</g>
</g>
<g>
	<g>
		<circle class="st4" cx="605.4" cy="71.8" r="62.6"/>
	</g>
</g>
<g>
	<g>
		<circle class="st2" cx="74.1" cy="-269.9" r="62.6"/>
	</g>
</g>
<g>
	<g>
		<circle class="st3" cx="438.2" cy="-100.8" r="62.6"/>
	</g>
</g>
<g>
	<g>
		<g>
			<circle class="st5" cx="276.4" cy="601.1" r="62.6"/>
		</g>
	</g>
	<path id="Subtraction_1" class="st0" d="M283.7,538.9c0,0,1.9,0.3,2.6,0.4c0.7,0.1,2.5,0.5,2.5,0.5l-14.3,13.4l15.6,14.6l21.3-18.5
		c0,0,0.9,0.6,1.2,0.8c0.3,0.2,1.3,1,1.3,1l-40,34.9c1.6,2.9,2.9,5.8,3.9,8.9h6.4v3.1H279c0.2,0.7,0.5,1.4,0.7,2v0l0.4,1.1h5.7v3.1
		h-4.6c0.4,1.2,0.8,2.2,1.2,3.1h5v3.1h-3.7c0.6,1.4,1.1,2.1,1.4,2.2c0.6,0.2,2.6,0.7,5.2,1.2c5.2,1.1,12.3,2.5,14.2,3.9
		c2.5,1.8,4.8,8,5.3,9.2h1.2c0,0,4.1,3,4.1,5.3c0,1.4-0.4,2.8-1,4.1h-41.6l0,0l-46-46.8l2.2-2.2l7.7-7.9l0.2,0.2l1,1.1l15.5-14.4
		l2,2.1L283.7,538.9z M272.3,555.4l-2.5,2.5l15.3,14.3l0,0l2.6-2.3L272.3,555.4z M252.5,571l-12.9,12l38.4,43.9h26.6h0l0,0h1.8
		c-0.5-2.3-1.6-4.3-3.3-5.9c-1.7-1.4-7.6-2.6-12.8-3.7c-2.7-0.5-5.4-1.1-8-2c-0.6-0.3-1.5-1.9-2.7-4.8h-6.3v-3.1h5.1
		c-0.3-0.9-0.7-1.9-1.1-3.1h-5.5v-3.1h4.5c-0.4-1-0.7-2.1-1.1-3.1h-4.9v-3.1h3.8c-1.5-4-2.4-6-3-6.5c-0.9-0.8-2.9-0.9-4.7-0.9
		c-0.7,0-1.5,0-2.3,0h0c-0.8,0-1.5,0-2.3,0c-1.7,0.2-3.4-0.1-5-0.9C254.7,585,253,574.2,252.5,571L252.5,571z"/>
</g>
<path id="Subtraction_1-2" class="st2" d="M1475-771.9c-22.1,0-40,18-40,40.1c0,22.1,18,40,40.1,40c22.1,0,40-18,40-40.1
	c0-2.7-0.3-5.3-0.8-7.9C1510.5-758.6,1494-772,1475-771.9z M1444.7-745.5l14.4,19.2h11.9v-1.6h22v1.6h14.1v2h-2.5v5.5h-2v-5.5h-9.6
	v2.1l-1.4,0.1v1.2h-1v-1.1l-2,0.2v1.9h-1v-1.8l-2,0.2v1.6h-1v-1.5l-2,0.2v1.3h-1v-1.2l-2,0.2v1h-1v-0.9l-2,0.2v1.7h-1v-1.6l-2,0.2
	v1.4h-1v-1.3l-1.6,0.2v-4.4h-8.4v5.5h-2v-5.5h-2.5l0,0v0h0v0l-15-20L1444.7-745.5z"/>
<path id="Union_122" class="st2" d="M1297.1-690.9c-20.4-8.6-30-32.1-21.4-52.6c8.6-20.4,32.1-30,52.6-21.4
	c20.4,8.6,30,32.1,21.4,52.6c-6.3,14.9-20.8,24.6-37,24.6h-0.1C1307.3-687.8,1302.1-688.8,1297.1-690.9z M1288.7-699.8h49v-2h-49
	V-699.8z M1292.7-703.8h40v-2h-5.8v-52l0,0c-0.3,0.6-3.3,5.6-6.8,7.7c-1.8,1-3.8,1.5-5.8,1.5c-0.8,0-1.6-0.1-2.4-0.2l0,0
	c-0.5,0.7-3.4,4.3-6.3,5.9c-1.7,0.9-3.6,1.4-5.5,1.4c-0.4,0-0.8,0-1.2-0.1v35.9h-6.1V-703.8z M1304.6-712L1304.6-712l0-21h2v20.2
	c0.1,0.9,0.4,2.3,1.6,2.3c1,0,1.3-1,1.4-1.9V-737h2v25c0.1,1.8-1.2,3.3-3,3.4c-0.1,0-0.2,0-0.3,0
	C1306.3-708.6,1304.7-710.1,1304.6-712z M1314.6-714L1314.6-714l0-27h2v26.2c0.1,0.9,0.4,2.3,1.6,2.3c1,0,1.3-1,1.4-1.9V-744h2v30
	c0.1,1.8-1.2,3.3-3,3.4c-0.1,0-0.2,0-0.3,0C1316.3-710.6,1314.7-712.1,1314.6-714z"/>
<path id="Subtraction_2" class="st2" d="M1134.2-772.1c-5.4,0-10.8,1.1-15.8,3.1c-4.8,2-9.2,4.9-12.9,8.6
	c-15.6,15.2-15.9,40.3-0.7,55.9c0.2,0.2,0.4,0.5,0.7,0.7c3.7,3.7,8.1,6.6,12.9,8.6c10.1,4.2,21.5,4.2,31.7,0c4.8-2,9.2-4.9,12.9-8.6
	c15.6-15.2,15.9-40.3,0.7-55.9c-0.2-0.2-0.4-0.5-0.7-0.7c-3.7-3.7-8.1-6.6-12.9-8.6C1145-771,1139.7-772.1,1134.2-772.1z
	 M1133.8-763.1c8.8,0,16,2.9,16,6.5c0,0.1,0,0.1,0,0.2v0c0.1,2.8,0,5.7-0.4,8.5c-0.6,4.3-2.1,10.3-5.7,14.1
	c-2.1,2.2-4.9,3.6-7.9,3.9v19.8c5.7,0.3,10,2.2,10,4.5c0,2.5-5.2,4.5-11.5,4.5c-6.3,0-11.5-2-11.5-4.5c0-1.1,1.1-2.2,3.1-3.1
	c2.4-0.9,4.9-1.4,7.5-1.4v-19.8c-3.3-0.2-6.4-1.6-8.6-3.9c-3.8-3.8-5.4-9.8-6.2-14.2c-0.5-2.8-0.7-5.7-0.7-8.6v-0.1
	C1117.8-760.2,1125-763.1,1133.8-763.1z M1133.8-761.1c-7.7,0-14,2.5-14,5.5c0,3,6.3,5.5,14,5.5s14-2.5,14-5.5
	C1147.8-758.6,1141.5-761.1,1133.8-761.1L1133.8-761.1z"/>
<path id="Subtraction_1-3" class="st2" d="M1651.2-951.4c-22.1,0-40,18-40,40.1c0,22.1,18,40,40.1,40c22.1,0,40-18,40-40.1
	c0-2.7-0.3-5.3-0.8-7.9C1686.7-938.1,1670.2-951.5,1651.2-951.4z M1665.2-941.4L1665.2-941.4l2,0v61h-2v-19.9
	c-5.5-1.2-9.3-6.2-9.1-11.9C1656.2-922.2,1664.9-940.6,1665.2-941.4L1665.2-941.4L1665.2-941.4L1665.2-941.4z M1635.2-941.4h2
	c0,0-0.4,2.9-0.7,6.5c-0.2,3.3-0.2,7.8,0.7,10.8c0.4,1.8,1.4,3.4,2.8,4.6c0.6,0.5,1.4,0.8,2.1,0.8h0.1v-22.6h2v22.7h0.1
	c0.6,0,3.5-0.3,5.1-5.4c0.9-3,0.9-7.5,0.7-10.8c-0.2-3.1-0.6-5.7-0.7-6.4c0,0,0,0,0,0h2c0,0.1,1.7,12.8,0,18.5
	c-1,3.3-3.8,5.8-7.2,6.5v36h-2v-36c-3.4-0.7-6.1-3.2-7-6.5C1633.5-928.6,1635.2-941.3,1635.2-941.4L1635.2-941.4z"/>
<path id="Subtraction_1-4" class="st2" d="M1479.6-936.1c-22.1,0-40,18-40,40.1c0,22.1,18,40,40.1,40c22.1,0,40-18,40-40.1
	c0-2.7-0.3-5.3-0.8-7.9C1515.1-922.7,1498.7-936.1,1479.6-936.1z M1479.2-931.1c9.6,0,17.5,9.5,17.5,21.2c0,11-7.1,20.3-16.2,21.1
	l2.1,2.8h-3.4c-1.3,1.2-4.3,4.2-3.8,7.1c0.3,1.9,2,3,3.6,4c1.5,1,3.1,2,3.4,3.7c0.7,3.5-2.7,6.1-2.7,6.1h-3c0.9-0.4,1.7-0.9,2.5-1.6
	c1.1-0.9,2.3-2.4,1.9-4.2c-0.4-1.7-1.9-2.7-3.6-3.9c-1.7-1.2-3.4-2.3-3.8-4.3c-0.5-3,2-6,3.1-7.1h-3l2.3-3
	c-8.4-1.8-14.4-10.5-14.4-20.8C1461.7-921.6,1469.5-931.1,1479.2-931.1L1479.2-931.1z"/>
<path id="Subtraction_1-5" class="st2" d="M1307.8-936.8c-22.1,0-40,17.9-40,40c0,22.1,17.9,40,40,40s40-17.9,40-40
	c0-2.7-0.3-5.3-0.8-7.9C1343.3-923.4,1326.8-936.8,1307.8-936.8z M1308.3-929.8l6.5,19h-1.9l5.3,18.5h-2.8l6.8,18.7h-12.4v6.9h-2
	v-6.9h-14l6.8-18.7h-2.4l5.6-18.5h-1.9L1308.3-929.8z"/>
<path id="Subtraction_112" class="st2" d="M1819.4-865.1c-22.1,0-40-17.9-40-40c0-16.1,9.6-30.6,24.4-36.8
	c20.4-8.6,43.8,0.9,52.4,21.3c8.6,20.4-0.9,43.8-21.3,52.4l0,0C1830.1-866.1,1824.8-865.1,1819.4-865.1z M1795.4-916.6
	c0.3,6.1,1.3,12.2,3.2,18.1c1.3,4.6,3.7,8.8,6.8,12.4c3.3,3.6,8,5.7,12.9,5.6c0.1,0,0.2,0,0.3,0c4.6,0,9-1.8,12.2-5.1
	c2.3-2.3,4.2-5,5.5-8c2.6-0.2,5.3-0.8,7.7-1.7c3.4-1.4,5.2-3.6,5.1-6.4c-0.1-6.1-6-7.7-8.5-8.1c0.4-2.9,0.5-5.2,0.5-6.3
	c0-0.2,0-0.4,0-0.6c0-2.8-2.4-5.4-6.7-7.4c-5.1-2.1-10.6-3.2-16.2-3c-5.5-0.1-11.1,0.9-16.2,3
	C1797.8-922.1,1795.4-919.5,1795.4-916.6C1795.4-916.6,1795.4-916.6,1795.4-916.6L1795.4-916.6L1795.4-916.6z M1837.4-896.3
	L1837.4-896.3l0.2-0.4c1.3-3.5,2.2-7.1,2.7-10.8c1.5,0.4,2.9,1,4.3,1.8c1.7,1.1,2.6,2.5,2.6,4C1847.1-898,1840.4-896.7,1837.4-896.3
	L1837.4-896.3z M1818.3-909.1c-11.1,0-20.1-3.4-20.1-7.6s9-7.6,20.1-7.6s20.1,3.4,20.1,7.6C1838.5-912.5,1829.4-909.1,1818.3-909.1z
	"/>
<text transform="matrix(1 0 0 1 631.6779 -816.849)"><tspan x="0" y="0" style="font-family:'MyriadPro-Regular'; font-size:26px;">Go see</tspan><tspan x="0" y="31.2" style="font-family:'MyriadPro-Regular'; font-size:26px;">Go eat</tspan><tspan x="0" y="62.4" style="font-family:'MyriadPro-Regular'; font-size:26px;">Go drink</tspan><tspan x="0" y="93.6" style="font-family:'MyriadPro-Regular'; font-size:26px;">Go attend/join/take part of</tspan><tspan x="0" y="124.8" style="font-family:'MyriadPro-Regular'; font-size:26px;">Go shop</tspan><tspan x="0" y="156" style="font-family:'MyriadPro-Regular'; font-size:26px;">Go do</tspan></text>
<g>
	<g>
		<circle class="st3" cx="269.4" cy="-100.8" r="62.6"/>
	</g>
</g>
<path class="st6" d="M1833.7-549.3v9c0,1.5-1.2,2.8-2.8,2.8s-2.8-1.2-2.8-2.8v-41.3c0-1.5,1.2-2.8,2.8-2.8s2.8,1.2,2.8,2.8v26.7
	V-549.3z"/>
<path class="st7" d="M1833.7-549.3v9c0,1.5-1.2,2.8-2.8,2.8v-46.8c1.5,0,2.8,1.2,2.8,2.8v26.7V-549.3z"/>
<path class="st8" d="M1844.5-580.1h-26.7l12.5-27.5c0.7-0.3,0.6-0.1,0.8-0.1c0.2,0,0.2-0.1,0.8,0.1L1844.5-580.1z"/>
<path class="st9" d="M1831.2-607.8l-13.3,27.7h-25.1c-2.8,0-3.8-3.8-1.4-5.2C1835.7-610.9,1829.5-607.5,1831.2-607.8z"/>
<path class="st10" d="M1869.5-580.1h-25.1l-13.2-27.7c1,0-2.3-1.7,39.7,22.5C1873.3-583.9,1872.3-580.1,1869.5-580.1z"/>
<path class="st11" d="M1844.5-580.1h-13.3v-27.7c0.3,0,0.2-0.1,0.8,0.1L1844.5-580.1z"/>
<path class="st6" d="M1791.1-525.7c-1.5,0-2.8-1.2-2.8-2.8v-20.7c0-1.5,1.2-2.8,2.8-2.8s2.8,1.2,2.8,2.8v20.7
	C1793.9-527,1792.7-525.7,1791.1-525.7z"/>
<path class="st12" d="M1878-536.1v3.4c0,3.8-3.1,7-7,7c-4.1,0-54.9,0-59.3,0c-0.7,0-1.4-0.3-2-0.8l-23.8-23.8
	c-2.7-2.7-2.7-7.1,0-9.9c2.4-2.4,3.9-4.4,7.3-4.4c1.9,0,3.6,0.7,4.9,2l19.1,19.1c0.3,0.3,0.6,0.4,1,0.4h52.7
	C1874.9-543.1,1878-539.9,1878-536.1L1878-536.1z"/>
<path class="st13" d="M1878-536.1v3.4c0,3.8-3.1,7-7,7h-40v-17.3h40C1874.9-543.1,1878-539.9,1878-536.1z"/>
<path class="st6" d="M1878-528.5v11.8c0,1.5-1.2,2.8-2.8,2.8s-2.8-1.2-2.8-2.8v-9h-83v9c0,1.5-1.2,2.8-2.8,2.8s-2.8-1.2-2.8-2.8
	v-11.8c0-1.5,1.2-2.8,2.8-2.8h88.5C1876.8-531.3,1878-530,1878-528.5z"/>
<path class="st7" d="M1878-528.5v11.8c0,1.5-1.2,2.8-2.8,2.8s-2.8-1.2-2.8-2.8v-9H1831v-5.5h44.3C1876.8-531.3,1878-530,1878-528.5z
	"/>
<g>
	<path id="oversized-wine-glass-2_1_" class="st0" d="M440.2,107.9V82.1c12.2-1.4,20.8-11.6,20.8-23.2c0-4.4-1.2-9.8-3.3-15.1
		c-0.4-1.1-1.5-1.9-2.8-1.9h-34.5c-1.2,0-2.3,0.7-2.8,1.9c-1.9,4.8-3.4,10.4-3.3,15.6l0,0c0,0,0,0,0,0c0.2,11.5,8.8,21.4,20.8,22.7
		v25.8c-7.9,0.6-14,4.2-14,5.9c0,2,7.4,3.5,16.5,3.5c9.1,0,16.5-1.6,16.5-3.5C454.2,112.1,448.1,108.6,440.2,107.9z M421.8,46.9
		h31.6c1.6,4.3,2.5,8.6,2.5,12c0,0.8-0.1,1.6-0.2,2.4c-1.6-0.4-3.2-0.4-5,0.2c-4.6,1.6-7.5,2.7-12.2,0.8c-4.6-1.8-7.5-10.1-13.1-9.4
		c-2.2,0.2-4.1,1-5.8,2C420.1,52.4,420.8,49.7,421.8,46.9z"/>
</g>
<g>
	<g id="cutlery_1_">
		<path class="st14" d="M181.4-69.6c-0.1,0-0.2,0.3-0.2,0.4c0,0.1,0,0.2,0.1,0.2c0.1,0,0.1,0.1,0.1,0.1l-0.1,0.9c0,0,0,0.1,0,0.1
			c0,0,0.1,0,0.1,0s0.1,0,0.1,0c0,0,0-0.1,0-0.1l-0.1-0.9c0-0.1,0-0.1,0.1-0.1c0.1,0,0.1-0.1,0.1-0.2
			C181.6-69.3,181.5-69.6,181.4-69.6z"/>
		<path class="st14" d="M182.2-69.6C182.2-69.6,182.2-69.6,182.2-69.6l0,0.4c0,0,0,0,0,0s0,0,0,0L182.2-69.6c-0.1,0-0.1,0-0.1,0h0
			c0,0,0,0,0,0v0.4c0,0,0,0,0,0c0,0,0,0,0,0v-0.4c0,0,0,0,0,0h0c0,0,0,0,0,0v0.4c0,0,0,0,0,0s0,0,0,0v-0.4c0,0,0,0,0,0c0,0,0,0,0,0
			c0,0.1,0,0.4,0,0.4c0,0.1,0,0.2,0.1,0.2c0.1,0,0.1,0.1,0.1,0.1l-0.1,0.9c0,0,0,0.1,0,0.1c0,0,0.1,0,0.1,0s0.1,0,0.1,0
			c0,0,0-0.1,0-0.1l-0.1-0.9c0-0.1,0-0.1,0.1-0.1c0.1,0,0.1-0.1,0.1-0.2C182.2-69.1,182.2-69.4,182.2-69.6
			C182.2-69.6,182.2-69.6,182.2-69.6z"/>
		<path class="st14" d="M182.7-68.7C182.7-68.7,182.7-68.7,182.7-68.7l0-0.9c0,0,0,0,0,0c0,0,0,0,0,0l-0.1,0.5c0,0.1,0,0.3,0.1,0.4
			C182.6-68.7,182.6-68.7,182.7-68.7l-0.2,0.9c0,0,0,0.1,0,0.1c0,0,0.1,0,0.1,0s0.1,0,0.1,0c0,0,0-0.1,0-0.1L182.7-68.7z"/>
	</g>
</g>
<g>
	<g>
		<path class="st0" d="M766.6,271.4c5.6,0,10.8-2,14.7-5.4c-2.2-2.6-3.8-5.5-4.9-8.7c-2.4,2.7-5.9,4.4-9.9,4.4
			c-7.3,0-13.4-5.9-13.4-13.2s6.1-13.2,13.4-13.2c7.4,0,13.2,6,13.2,13.2c0,12.5,10.2,22.9,22.9,22.9c12.6,0,23-10.3,23-22.9
			c0-12.6-10.4-22.9-23-22.9c-5.6,0-10.8,2-14.7,5.4c2.2,2.6,3.8,5.5,4.9,8.7c2.4-2.7,5.9-4.4,9.9-4.4c7.3,0,13.4,5.9,13.4,13.2
			c0,7.3-6.1,13.2-13.4,13.2c-7.4,0-13.2-6-13.2-13.2c0-12.5-10.2-22.9-22.9-22.9c-12.6,0-23,10.3-23,22.9
			C743.5,261.2,753.9,271.4,766.6,271.4z"/>
	</g>
</g>
<g>
	<g>
		<g>
			<circle class="st0" cx="612.5" cy="250.1" r="62.6"/>
		</g>
	</g>
	<g>
		<g id="Page-1_3_">
			<g id="_x30_27---Web-Connections_3_">
				<path id="Shape_3_" class="st1" d="M658.4,292.7c-7.3-0.1-14.5-1-21.6-2.9c0.1-0.5,0.1-1,0.2-1.6c0-3.3-1.5-6.5-4.1-8.6
					c4.2-10.8,6.4-22.4,6.4-34c0-4-0.3-7.9-0.8-11.9c3.3-1.2,5.9-3.8,6.9-7.2c10.4,2.9,20.3,7.7,29,14.1
					C677.2,259.6,671.3,278.8,658.4,292.7L658.4,292.7z M604.9,312.5c-5.9-0.7-11.6-2.2-17.1-4.5c-0.1-1.2-0.1-2.5-0.1-4
					c0-8.4,1.2-16.7,3.5-24.7c0.3,0,0.6,0.1,1,0.1c2.9,0,5.8-1.2,7.8-3.2c4.6,3.8,9.6,7.1,14.8,9.9c-0.9,4.1,0.6,8.2,3.8,10.9
					C614.7,302.6,610,307.8,604.9,312.5z M567.5,234.5c0-3.7,3-6.7,6.7-6.7c3.7,0,6.7,3,6.7,6.7s-3,6.7-6.7,6.7
					C570.5,241.2,567.5,238.2,567.5,234.5z M569.8,204.1c11.6-10.7,26.8-16.7,42.5-16.7c0.3,0,0.6,0,0.9,0
					c6.7,7.8,12,16.7,15.6,26.3c-2,1.2-3.5,3-4.4,5.1c-1,0-2.1-0.1-3.1-0.1c-13.3,0-26.5,2.8-38.7,8.3c-2.6-3-6.6-4.4-10.5-3.6
					C570.6,217.2,569.9,210.7,569.8,204.1z M673,234.4c-8.3-5.5-17.5-9.7-27.2-12.2c-0.1-0.6-0.2-1.3-0.4-1.9c6.1-2.3,12.5-4,19-4.9
					C668.4,221.1,671.3,227.6,673,234.4z M641.5,223.3c0,3.7-3,6.7-6.7,6.7c-3.7,0-6.7-3-6.7-6.7s3-6.7,6.7-6.7
					C638.4,216.6,641.5,219.6,641.5,223.3z M634.7,245.7c0,10.9-2,21.7-5.9,31.9c-1-0.3-2.1-0.5-3.1-0.5c-3.7,0-7.1,1.8-9.2,4.8
					c-5-2.7-9.7-5.9-14.1-9.5c1.9-4.5,0.6-9.6-3.1-12.7c6.6-11.6,15.8-21.6,26.7-29.3c1.9,2.4,4.8,3.8,7.8,4
					C634.5,238.2,634.7,241.9,634.7,245.7L634.7,245.7z M585.4,234.5c0-1.2-0.2-2.3-0.6-3.4c11.5-5.1,23.9-7.8,36.4-7.8
					c0.8,0,1.5,0,2.2,0.1c0,1,0.2,2.1,0.5,3.1c-11.7,8.1-21.5,18.7-28.5,31.1c-2.4-0.8-4.9-0.8-7.2,0.2c-3.2-4.2-6.1-8.7-8.6-13.4
					C583.2,242.2,585.4,238.5,585.4,234.5L585.4,234.5z M592.2,261.4c3.7,0,6.7,3,6.7,6.7c0,3.7-3,6.7-6.7,6.7c-3.7,0-6.7-3-6.7-6.7
					C585.4,264.4,588.4,261.4,592.2,261.4z M619,288.3c0-3.7,3-6.7,6.7-6.7c3.7,0,6.7,3,6.7,6.7c0,0.8-0.2,1.6-0.4,2.3v0
					c-1.1,3-4.3,4.8-7.5,4.3S619,291.5,619,288.3L619,288.3z M661.5,211.3c-6.2,1-12.3,2.7-18.1,5c-2.1-2.6-5.3-4.1-8.6-4.1
					c-0.6,0-1.1,0.1-1.7,0.2c-3.3-8.8-8-17-13.7-24.4C635.9,189.7,651.1,198.2,661.5,211.3z M565.4,208.6c0.3,5.6,1.2,11.2,2.5,16.7
					c-4.3,2.9-6,8.4-4.1,13.2c-5.2,4-9.9,8.5-14.2,13.5c0-0.6,0-1.2,0-1.8C549.6,234.8,555.2,220,565.4,208.6L565.4,208.6z
					 M550.1,258.5c4.6-6,10-11.5,16.1-16.2c2.1,2.2,5,3.4,8,3.4c0.4,0,0.8-0.1,1.2-0.1c2.6,5.1,5.6,9.9,9.1,14.4
					c-2.6,2.5-3.9,6-3.4,9.6c0.5,3.6,2.6,6.7,5.8,8.3c-2.4,8.5-3.7,17.2-3.7,26c0,0.6,0,1.2,0,1.8
					C565.2,296.3,552.9,278.7,550.1,258.5L550.1,258.5z M611,312.9c4.3-4.2,8.2-8.9,11.7-13.9c1,0.3,2.1,0.5,3.1,0.5
					c3.9,0,7.5-2.1,9.5-5.4c6.1,1.6,12.4,2.6,18.7,3c-11.5,10.2-26.3,15.9-41.6,15.9C611.9,312.9,611.4,312.9,611,312.9L611,312.9z"
					/>
			</g>
		</g>
	</g>
</g>
<g>
	<g>
		<g>
			<path class="st0" d="M626.7,47.1c-0.3-0.4-0.8-0.6-1.3-0.6h-39.4c-0.5,0-1,0.2-1.3,0.6c-0.3,0.4-0.5,0.9-0.5,1.4l5.4,53.7
				c0.1,0.9,0.9,1.6,1.8,1.6H620c0.9,0,1.7-0.7,1.8-1.6l5.4-53.7C627.2,48,627,47.5,626.7,47.1z M621.9,64.7
				c-4.6,1.5-10.5,2.2-15.1-1.7c-5.8-4.8-13-4-17.8-2.5l-1-10.4h35.4L621.9,64.7z"/>
		</g>
	</g>
</g>
<g>
	<g>
		<g>
			<path class="st0" d="M76.2,103V78.5c10.2-0.8,18.3-9.3,18.3-19.7c0-4.3-2.3-11.5-4-16.7l-0.7-2.1C89.6,39.4,89,39,88.4,39H61.2
				c-0.6,0-1.2,0.4-1.4,1c-1.5,3.9-4.9,13.5-4.9,18.8c0,10.4,8.1,19,18.3,19.7V103c-7.6,0.3-15.2,2.9-15.2,7.6
				c0,0.8,0.7,1.5,1.5,1.5h30.5c0.8,0,1.5-0.7,1.5-1.5C91.4,106,83.8,103.4,76.2,103z M58,60.3c0-0.5-0.1-1-0.1-1.5
				c0-3.7,2.2-10.9,4.3-16.8h25l0.3,1c1.5,4.7,3.8,11.9,3.8,15.8c0,0.5,0,1-0.1,1.5L58,60.3L58,60.3z"/>
		</g>
	</g>
</g>
<g>
	<g>
		<circle class="st4" cx="267.1" cy="75.3" r="62.6"/>
	</g>
</g>
<g>
	<g>
		<g>
			<path class="st0" d="M269.2,103V78.5c10.2-0.8,18.3-9.3,18.3-19.7c0-4.3-2.3-11.5-4-16.7l-0.7-2.1c-0.2-0.6-0.8-1.1-1.5-1.1
				h-27.2c-0.6,0-1.2,0.4-1.4,1c-1.5,3.9-4.9,13.5-4.9,18.8c0,10.4,8.1,19,18.3,19.7V103c-7.6,0.3-15.2,2.9-15.2,7.6
				c0,0.8,0.7,1.5,1.5,1.5h30.5c0.8,0,1.5-0.7,1.5-1.5C284.4,106,276.8,103.4,269.2,103z M251,60.3c0-0.5-0.1-1-0.1-1.5
				c0-3.7,2.2-10.9,4.3-16.8h25l0.3,1c1.5,4.7,3.8,11.9,3.8,15.8c0,0.5,0,1-0.1,1.5L251,60.3L251,60.3z"/>
		</g>
	</g>
</g>
<ellipse class="st15" cx="417.8" cy="-545.6" rx="44.1" ry="45.2"/>
<ellipse class="st16" cx="512.9" cy="-543.7" rx="44.1" ry="45.2"/>
<ellipse class="st17" cx="608.3" cy="-543.6" rx="44.1" ry="45.2"/>
<ellipse class="st2" cx="703.4" cy="-541.7" rx="44.1" ry="45.2"/>
<ellipse class="st18" cx="802" cy="-543.9" rx="44.1" ry="45.2"/>
<rect x="376.7" y="-485" style="fill:none;" width="86.6" height="23.2"/>
<text transform="matrix(1 0 0 1 399.7375 -476.515)" class="st15" style="font-family:'MyriadPro-Regular'; font-size:12px;">#fea7b7</text>
<rect x="472.3" y="-484.8" style="fill:none;" width="86.6" height="23.2"/>
<text transform="matrix(1 0 0 1 496.7833 -476.3233)" class="st16" style="font-family:'MyriadPro-Regular'; font-size:12px;">#ff4869</text>
<rect x="564.5" y="-484.8" style="fill:none;" width="86.6" height="23.2"/>
<text transform="matrix(1 0 0 1 587.2891 -476.2393)" class="st17" style="font-family:'MyriadPro-Regular'; font-size:12px;">#859bf9</text>
<rect x="664" y="-485" style="fill:none;" width="86.6" height="23.2"/>
<text transform="matrix(1 0 0 1 688.517 -476.4584)" class="st2" style="font-family:'MyriadPro-Regular'; font-size:12px;">#002ff2</text>
<rect x="759.1" y="-484.7" style="fill:none;" width="86.6" height="23.2"/>
<text transform="matrix(1 0 0 1 785.2759 -476.2303)" style="fill:#DADFEF; font-family:'MyriadPro-Regular'; font-size:12px;">#f0f2fc</text>
<g>
	<g>
		<g>
			<circle class="st0" cx="72.9" cy="-270.9" r="11.8"/>
			<path class="st0" d="M120.1-272.4c-0.9-0.9-21.3-22.4-47.1-22.4c-25.8,0-46.3,21.5-47.1,22.4c-0.8,0.8-0.8,2.1,0,3
				c0.9,0.9,21.3,22.4,47.1,22.4c25.8,0,46.3-21.5,47.1-22.4C120.8-270.3,120.8-271.6,120.1-272.4z M72.9-252.7
				c-10,0-18.2-8.1-18.2-18.2c0-10,8.1-18.2,18.2-18.2c10,0,18.2,8.1,18.2,18.2C91.1-260.9,82.9-252.7,72.9-252.7z M58.5-288.1
				c-4.9,4.1-8.1,10.2-8.1,17.1c0,6.9,3.2,13,8.1,17.2c-13.6-4.4-24.2-13.6-28.1-17.2C34.3-274.5,45-283.7,58.5-288.1z M87.3-253.8
				c4.9-4.1,8.1-10.2,8.1-17.1s-3.2-13-8.1-17.1c13.6,4.4,24.2,13.5,28,17.1C111.6-267.3,100.9-258.1,87.3-253.8z"/>
		</g>
	</g>
</g>
<g>
	<g>
		<circle class="st2" cx="269.6" cy="-269.9" r="62.6"/>
	</g>
</g>
<g>
	<g>
		<g>
			<circle class="st0" cx="268.4" cy="-270.9" r="11.8"/>
			<path class="st0" d="M315.6-272.4c-0.9-0.9-21.3-22.4-47.1-22.4c-25.8,0-46.3,21.5-47.1,22.4c-0.8,0.8-0.8,2.1,0,3
				c0.9,0.9,21.3,22.4,47.1,22.4c25.8,0,46.3-21.5,47.1-22.4C316.4-270.3,316.4-271.6,315.6-272.4z M268.4-252.7
				c-10,0-18.2-8.1-18.2-18.2c0-10,8.1-18.2,18.2-18.2c10,0,18.2,8.1,18.2,18.2C286.6-260.9,278.5-252.7,268.4-252.7z M254-288.1
				c-4.9,4.1-8.1,10.2-8.1,17.1c0,6.9,3.2,13,8.1,17.2c-13.6-4.4-24.2-13.6-28.1-17.2C229.8-274.5,240.5-283.7,254-288.1z
				 M282.8-253.8c4.9-4.1,8.1-10.2,8.1-17.1s-3.2-13-8.1-17.1c13.6,4.4,24.2,13.5,28,17.1C307.1-267.3,296.4-258.1,282.8-253.8z"/>
		</g>
	</g>
</g>
<g>
	<circle class="st1" cx="444" cy="253.6" r="65.3"/>
</g>
<g>
	<g>
		<path class="st0" d="M479.6,220.4c-3.4-3.4-8-5.3-12.9-5.4c-4.9,0-9.4,1.9-12.8,5.3l-15.5,15.5c0,0,0,0,0,0.1
			c3.2-0.4,7-0.1,7.4,0.2c1.6,0.2,3.4,0.8,4.1,1.2l10.5-10.5c3.5-3.4,9.4-3.4,12.8,0c3.5,3.5,3.5,9.3,0,12.8l-15.5,15.5
			c-2.9,2.9-7.3,3.2-9.8,1.9c-0.7,0-2.6-1.4-3.1-1.9c-1.5-1.4-3.8-1.7-5.6-0.7c-0.2,0.1-0.5,0.3-0.9,0.7l-2.8,2.8
			c0.8,1.3,1.7,2.5,2.8,3.6c1.1,1.1,2.3,2,3.6,2.8c4.4,2.6,9.8,3.1,13.9,1.9c3.1-0.8,5.9-2.4,8.1-4.7l15.5-15.5
			c3.4-3.4,5.3-8,5.3-12.8C484.9,228.3,483,223.8,479.6,220.4L479.6,220.4z M443.1,269.7l-10.6,10.6c-3.5,3.4-9.4,3.4-12.8,0
			c-3.5-3.5-3.5-9.3,0-12.8l15.5-15.5c3.6-3.6,9.2-3.4,12.8,0c1.8,1.7,4.7,1.7,6.4,0l2.8-2.8c-0.8-1.3-1.7-2.6-2.8-3.6
			c-3.6-3.6-8.2-5.2-11-5.2c-3.1-0.9-10.2,0.6-14.7,5.1L413.2,261c-3.4,3.4-5.3,8-5.3,12.8c0,4.9,1.9,9.4,5.4,12.9
			c3.4,3.4,8,5.3,12.9,5.4c4.9,0,9.4-1.9,12.8-5.3l15.5-15.5C453.8,271.2,447.5,272,443.1,269.7z"/>
	</g>
</g>
<g>
	<g id="cutlery_2_">
		<path class="st0" d="M414.5-137.5c-3.6,0-8.3,9.6-8.3,16.9c0,4.8,1.6,7.4,4,8.6c1.9,1,3.1,3.1,2.9,5.2l-3.5,35.4
			c-0.1,1.4,0.3,2.7,1.2,3.7c0.9,1,2.2,1.6,3.6,1.6c1.4,0,2.7-0.6,3.6-1.6c0.9-1,1.4-2.4,1.2-3.7l-3.5-35.4
			c-0.2-2.2,0.9-4.2,2.9-5.2c2.4-1.2,4-3.8,4-8.6C422.7-127.9,418.2-137.5,414.5-137.5z"/>
		<path class="st0" d="M446.2-137.5c-0.7,0-1.2,0.5-1.2,1.2v14.6c0,0.7-0.5,1.2-1.2,1.2c-0.7,0-1.2-0.5-1.2-1.2v-14.6
			c0-0.7-0.5-1.2-1.2-1.2h0c-0.7,0-1.2,0.5-1.2,1.2v14.6c0,0.7-0.5,1.2-1.2,1.2c-0.7,0-1.2-0.5-1.2-1.2v-14.6c0-0.7-0.5-1.2-1.2-1.2
			h0c-0.7,0-1.2,0.5-1.2,1.2v14.6c0,0.7-0.5,1.2-1.2,1.2c-0.7,0-1.2-0.5-1.2-1.2v-14.6c0-0.7-0.5-1.2-1.2-1.2
			c-0.6,0-1.1,0.5-1.1,1.1c0,3.7,0,15.3,0,15.7c0,4.8,1.6,7.4,4,8.6c1.9,1,3.1,3.1,2.9,5.2l-3.5,35.4c-0.1,1.4,0.3,2.7,1.2,3.7
			c0.9,1,2.2,1.6,3.6,1.6c1.4,0,2.7-0.6,3.6-1.6c0.9-1,1.4-2.4,1.2-3.7l-3.5-35.4c-0.2-2.2,0.9-4.2,2.9-5.2c2.4-1.2,4-3.8,4-8.6
			c0-0.5,0-12,0-15.7C447.3-137,446.8-137.5,446.2-137.5z"/>
		<path class="st0" d="M465.5-103.7c0.4,0,0.8-0.4,0.8-0.8V-136c0-0.8-0.6-1.4-1.4-1.4c-0.7,0-1.3,0.5-1.5,1.1l-4.9,17.2
			c-1.4,5-0.6,10.4,2.4,14.8c0.3,0.4,0.8,0.7,1.3,0.7L459-71.4c-0.1,1.4,0.3,2.7,1.2,3.7c0.9,1,2.2,1.6,3.6,1.6
			c1.4,0,2.7-0.6,3.6-1.6c0.9-1,1.4-2.4,1.2-3.7L465.5-103.7z"/>
	</g>
</g>
<g>
	<g>
		<path class="st0" d="M784.4,44.8c0-4.1,0-22.4,0-22.4h-3h-1.8h-3c0,0,0,18.3,0,22.4s-7.6,9-7.6,14.8c0,5.8,0,47.6,0,49.1
			c0,1.5,1,3.9,3.2,3.9c1.5,0,5.2,0,7.4,0c1.1,0,1.8,0,1.8,0c2.2,0,5.9,0,7.4,0c2.2,0,3.2-2.5,3.2-3.9s0-43.3,0-49.1
			C792,53.8,784.4,48.9,784.4,44.8z"/>
	</g>
</g>
<g>
	<g>
		<circle class="st19" cx="271.9" cy="425.1" r="62.6"/>
	</g>
</g>
<g>
	<g>
		<circle class="st19" cx="72.8" cy="432.9" r="62.6"/>
	</g>
</g>
<g>
	<g>
		<circle class="st19" cx="615.4" cy="419.9" r="62.6"/>
	</g>
</g>
<g>
	<g>
		<g>
			<path class="st0" d="M309.4,410.1l-0.1-0.3c0,0,0-0.1,0-0.1l-5.3-12.8v-6.3h-64.7v6.3l-5.2,12.8c0,0.1,0,0.1,0,0.2l0,0.3
				c-0.1,0.5-0.1,0.9-0.1,1.4c0,3.4,1.9,6.4,4.7,7.9v35.7h66.1v-35.7c2.8-1.5,4.7-4.5,4.7-7.9C309.5,411,309.5,410.6,309.4,410.1z
				 M305.9,409.5h-11.6l-1.4-9.3h9.1L305.9,409.5z M242.5,393.8h58.4v3.1h-58.4V393.8z M291.6,412.6l0.2,1.1l-0.9,1.2
				c-1.1,1.5-2.8,2.3-4.7,2.3c-1.9,0-3.6-0.9-4.7-2.3l-0.9-1.3l-0.1-1.1H291.6z M280.3,409.5l-0.5-9.3h9.9l1.4,9.3H280.3z
				 M277.3,412.6L277.3,412.6l0.1,1.1l-0.9,1.2c-1.1,1.5-2.8,2.3-4.7,2.3c-1.9,0-3.6-0.9-4.7-2.3l-1-1.3l0.1-1.1H277.3L277.3,412.6z
				 M266.3,409.5l0.5-9.3h9.9l0.5,9.3H266.3z M252.4,409.5l1.4-9.3h9.9l-0.5,9.3H252.4z M263,412.6l-0.1,1.2L262,415
				c-1.1,1.5-2.8,2.3-4.7,2.3c-1.9,0-3.6-0.9-4.7-2.3l-0.9-1.2l0.2-1.2H263z M241.5,400.2h9.2l-1.4,9.3h-11.6L241.5,400.2z
				 M237.2,412.6h11.5l-0.2,1.2l-0.9,1.2c-1.1,1.5-2.8,2.3-4.7,2.3C240.1,417.4,237.8,415.3,237.2,412.6z M295.4,452h-12.6v-11h1.6
				c0.9,0,1.6-0.7,1.6-1.6s-0.7-1.6-1.6-1.6h-1.6v-11h12.6V452z M301.7,452L301.7,452h-3.1v-28.3h-18.9V452h-37.8v-31.5
				c0.4,0,0.7,0.1,1.1,0.1c2.9,0,5.6-1.4,7.2-3.6c1.6,2.2,4.3,3.6,7.2,3.6c2.9,0,5.6-1.4,7.2-3.6c1.6,2.2,4.3,3.6,7.2,3.6
				s5.6-1.4,7.2-3.6c1.6,2.2,4.3,3.6,7.2,3.6s5.6-1.4,7.2-3.6c1.6,2.2,4.3,3.6,7.2,3.6c0.4,0,0.8,0,1.1-0.1V452L301.7,452z
				 M300.5,417.4c-1.9,0-3.6-0.9-4.7-2.3l-0.9-1.2l-0.2-1.2h11.5C305.7,415.3,303.4,417.4,300.5,417.4z"/>
		</g>
	</g>
	<g>
		<g>
			<path class="st0" d="M245,423.7v22h31.5v-22H245z M273.3,442.6h-25.2v-15.7h25.2V442.6z"/>
		</g>
	</g>
</g>
<g>
	<path class="st0" d="M103.6,465.8L99,414.7c-0.1-1.4-1.3-2.5-2.7-2.5h-9.5V408c0-7.9-6.5-14.4-14.4-14.4C64.5,393.6,58,400,58,408
		v4.3h-9.5c-1.4,0-2.6,1.1-2.7,2.5L41.3,466c-0.1,0.8,0.2,1.5,0.7,2.1c0.5,0.6,1.2,0.9,2,0.9h57c0,0,0,0,0,0c1.5,0,2.7-1.2,2.7-2.7
		C103.6,466.1,103.6,465.9,103.6,465.8z M63.4,408c0-5,4-9,9-9c5,0,9,4,9,9v4.3h-18V408z M46.9,463.5l4.1-45.9h7v4.8
		c0,1.5,1.2,2.7,2.7,2.7c1.5,0,2.7-1.2,2.7-2.7v-4.8h18v4.8c0,1.5,1.2,2.7,2.7,2.7s2.7-1.2,2.7-2.7v-4.8h7l4.1,45.9L46.9,463.5
		L46.9,463.5z"/>
</g>
<g>
	<g>
		<circle class="st19" cx="440.2" cy="421.6" r="62.6"/>
	</g>
</g>
<g>
	<path class="st0" d="M471,454.5l-4.6-51.1c-0.1-1.4-1.3-2.5-2.7-2.5h-9.5v-4.3c0-7.9-6.5-14.4-14.4-14.4c-7.9,0-14.4,6.5-14.4,14.4
		v4.3H416c-1.4,0-2.6,1.1-2.7,2.5l-4.6,51.3c-0.1,0.8,0.2,1.5,0.7,2.1c0.5,0.6,1.2,0.9,2,0.9h57c0,0,0,0,0,0c1.5,0,2.7-1.2,2.7-2.7
		C471.1,454.8,471,454.7,471,454.5z M430.9,396.7c0-5,4-9,9-9c5,0,9,4,9,9v4.3h-18V396.7z M414.3,452.2l4.1-45.9h7v4.8
		c0,1.5,1.2,2.7,2.7,2.7c1.5,0,2.7-1.2,2.7-2.7v-4.8h18v4.8c0,1.5,1.2,2.7,2.7,2.7c1.5,0,2.7-1.2,2.7-2.7v-4.8h7l4.1,45.9H414.3
		L414.3,452.2z"/>
</g>
<g>
	<path class="st0" d="M598.5,435.8L598.5,435.8C598.5,435.8,598.5,435.8,598.5,435.8l41.3,0c1,0,1.9-0.7,2.2-1.7l9.1-31.9
		c0.2-0.7,0.1-1.4-0.4-2c-0.4-0.6-1.1-0.9-1.8-0.9h-55.7l-1.6-7.3c-0.2-1-1.2-1.8-2.2-1.8h-13.7c-1.3,0-2.3,1-2.3,2.3s1,2.3,2.3,2.3
		h11.8c0.3,1.3,7.8,35.1,8.2,37c-2.4,1.1-4.1,3.5-4.1,6.3c0,3.8,3.1,6.8,6.8,6.8h41.3c1.3,0,2.3-1,2.3-2.3c0-1.3-1-2.3-2.3-2.3
		h-41.3c-1.3,0-2.3-1-2.3-2.3C596.2,436.8,597.2,435.8,598.5,435.8z M645.9,403.9l-7.8,27.3h-37.8l-6.1-27.3H645.9z"/>
	<path class="st0" d="M596.2,451.7c0,3.8,3.1,6.8,6.8,6.8s6.8-3.1,6.8-6.8c0-3.8-3.1-6.8-6.8-6.8S596.2,448,596.2,451.7z M603,449.4
		c1.3,0,2.3,1,2.3,2.3c0,1.3-1,2.3-2.3,2.3s-2.3-1-2.3-2.3C600.7,450.5,601.8,449.4,603,449.4z"/>
	<path class="st0" d="M628.4,451.7c0,3.8,3.1,6.8,6.8,6.8c3.8,0,6.8-3.1,6.8-6.8c0-3.8-3.1-6.8-6.8-6.8
		C631.4,444.9,628.4,448,628.4,451.7z M635.2,449.4c1.3,0,2.3,1,2.3,2.3c0,1.3-1,2.3-2.3,2.3c-1.3,0-2.3-1-2.3-2.3
		C632.9,450.5,634,449.4,635.2,449.4z"/>
</g>
<g>
	<g>
		<path class="st0" d="M978.3,73.3c-1.1-1.4-2.7-2.2-4.5-2.2h-5.3v-4h-39.7v11.9c0,6.7,3.4,12.6,8.5,16.2h-8.5v3.5h39.7v-3.5H960
			c1.8-1.2,3.4-2.8,4.7-4.5h3.8c4.5,0,8.4-3.1,9.5-7.4l1.3-5.1C979.7,76.5,979.4,74.7,978.3,73.3L978.3,73.3z M948.8,95.3h-0.3
			c-8.9,0-16.2-7.3-16.2-16.2v-8.4H965v8.4C965,88,957.7,95.3,948.8,95.3L948.8,95.3z M975.9,77.3l-1.3,5.1
			c-0.7,2.8-3.2,4.8-6.1,4.8h-1.8c1.1-2.5,1.8-5.3,1.8-8.2v-4.4h5.3c0.7,0,1.3,0.3,1.7,0.8C975.9,76,976.1,76.7,975.9,77.3
			L975.9,77.3z"/>
		<path class="st0" d="M948.7,52.8c-3.2,0-5.8,2.6-5.8,5.8v4h3.5v-4c0-1.3,1-2.3,2.3-2.3h16.1c7.6,0,13.8-6.2,13.8-13.8V39h-3.5v3.5
			c0,5.7-4.6,10.3-10.3,10.3H948.7z"/>
		<path class="st0" d="M938.4,59.1c0-5.7,4.6-10.3,10.3-10.3h16.1c3.2,0,5.8-2.6,5.8-5.8v-4H967v4c0,1.3-1,2.3-2.3,2.3h-16.1
			c-7.6,0-13.8,6.2-13.8,13.8v3.5h3.5V59.1z"/>
	</g>
</g>
<g>
	<g>
		<path class="st0" d="M622.8-106.5c4.5,2.4,13.3,1.7,19.9-5c6.6-6.6,9.1-16.2,2.9-22.7l0,0c0,0-0.1-0.1-0.2-0.2c0,0,0,0,0,0
			c-6.4-6.2-16.1-3.7-22.7,2.9c-6.6,6.7-7.4,15.4-5,19.9c-0.6,3.7-5.7,7.8-10.3,10.4c-3.5-2.2-8-6-8.4-13.8c0.3-3.1-0.7-6.3-3-8.7
			c-0.2-0.2-0.8-0.7-0.8-0.7l-17.2-13.4l-1.6,1.6l18.7,17.5l-2,2l-18.1-18.1l-1.7,1.7l18.1,18.1l-1.7,1.7l-18.1-18.1l-1.5,1.5l18,18
			l-2.1,2.1l-17.5-18.5l-1.7,1.7l14.3,18c0,0,0.3,0.3,0.5,0.5c2.1,1.8,4.7,2.7,7.3,2.6c0,0,0,0,0.1,0c6.8,0.1,11,4.2,13.7,7.8
			c-6.5,6.5-26.6,26.6-26.6,26.6l0,0c0,0,0,0-0.1,0.1c-1.6,1.6-1.6,4.3,0,5.9c0.1,0.1,0.4,0.4,0.5,0.5c1.6,1.6,4.3,1.6,5.9,0
			c0,0,0,0,0.1-0.1l0,0c0,0,18.7-18.7,25.8-25.8c6.8,6.8,25.7,25.7,25.7,25.7l0,0c0,0,0,0,0,0.1c1.6,1.6,4.2,1.6,5.8,0
			c1.6-1.6,1.6-4.2,0-5.8c0,0,0,0-0.1-0.1l0,0c0,0-20.8-20.8-26.6-26.6C615.7-101.6,619.4-105.9,622.8-106.5z"/>
	</g>
</g>
<g>
	<g id="cutlery-6_1_">
		<path class="st0" d="M39.6-119.3c-0.5,0-1,0.4-1,1v11.9c0,0.5-0.4,1-1,1c-0.5,0-1-0.4-1-1v-11.9c0-0.5-0.4-1-1-1h0
			c-0.5,0-1,0.4-1,1v11.9c0,0.5-0.4,1-1,1c-0.5,0-1-0.4-1-1v-11.9c0-0.5-0.4-1-1-1h0c-0.5,0-1,0.4-1,1v11.9c0,0.5-0.4,1-1,1
			c-0.5,0-1-0.4-1-1v-11.9c0-0.5-0.4-1-1-1c-0.5,0-0.9,0.4-0.9,0.9c0,3,0,12.5,0,12.9c0,3.9,1.3,6.1,3.3,7.1
			c1.6,0.8,2.5,2.5,2.3,4.3l-2.8,28.9c-0.1,1.1,0.3,2.2,1,3.1c0.8,0.8,1.8,1.3,2.9,1.3c1.1,0,2.2-0.5,2.9-1.3c0.8-0.8,1.1-1.9,1-3.1
			l-2.8-28.9c-0.2-1.8,0.8-3.5,2.3-4.3c2-1,3.3-3.1,3.3-7.1c0-0.4,0-9.8,0-12.9C40.5-118.9,40.1-119.3,39.6-119.3z"/>
		<path class="st0" d="M115-91.8c0.4,0,0.7-0.3,0.7-0.7v-25.7c0-0.6-0.5-1.2-1.2-1.2c-0.6,0-1,0.4-1.2,0.9l-4,14.1
			c-1.2,4.1-0.5,8.5,2,12.1c0.2,0.3,0.6,0.5,1,0.5l-2.6,26.5c-0.1,1.1,0.3,2.2,1,3.1c0.8,0.8,1.8,1.3,2.9,1.3s2.2-0.5,2.9-1.3
			c0.8-0.8,1.1-1.9,1-3.1L115-91.8z"/>
		<path class="st0" d="M73.8-120.3c-16.7,0-30.2,13.5-30.2,30.2C43.6-73.5,57.1-60,73.8-60C90.4-60,104-73.5,104-90.1
			C104-106.8,90.4-120.3,73.8-120.3z M73.8-68.6c-11.9,0-21.5-9.7-21.5-21.5s9.7-21.5,21.5-21.5c11.9,0,21.5,9.7,21.5,21.5
			S85.7-68.6,73.8-68.6z"/>
		<path class="st0" d="M73.8-108.6c-10.2,0-18.5,8.3-18.5,18.5c0,10.2,8.3,18.5,18.5,18.5c10.2,0,18.5-8.3,18.5-18.5
			C92.3-100.3,84-108.6,73.8-108.6z"/>
	</g>
</g>
<g>
	<g>
		<circle class="st3" cx="782.8" cy="-105.9" r="62.6"/>
	</g>
</g>
<g>
	<g id="cutlery-6_2_">
		<path class="st0" d="M749.8-131.6c-0.5,0-1,0.4-1,1v11.9c0,0.5-0.4,1-1,1c-0.5,0-1-0.4-1-1v-11.9c0-0.5-0.4-1-1-1h0
			c-0.5,0-1,0.4-1,1v11.9c0,0.5-0.4,1-1,1c-0.5,0-1-0.4-1-1v-11.9c0-0.5-0.4-1-1-1h0c-0.5,0-1,0.4-1,1v11.9c0,0.5-0.4,1-1,1
			c-0.5,0-1-0.4-1-1v-11.9c0-0.5-0.4-1-1-1c-0.5,0-0.9,0.4-0.9,0.9c0,3,0,12.5,0,12.9c0,3.9,1.3,6.1,3.3,7.1
			c1.6,0.8,2.5,2.5,2.3,4.3L740-77.6c-0.1,1.1,0.3,2.2,1,3.1c0.8,0.8,1.8,1.3,2.9,1.3c1.1,0,2.2-0.5,2.9-1.3c0.8-0.8,1.1-1.9,1-3.1
			l-2.8-28.9c-0.2-1.8,0.8-3.5,2.3-4.3c2-1,3.3-3.1,3.3-7.1c0-0.4,0-9.8,0-12.9C750.8-131.2,750.3-131.6,749.8-131.6z"/>
		<path class="st0" d="M825.2-104c0.4,0,0.7-0.3,0.7-0.7v-25.7c0-0.6-0.5-1.2-1.2-1.2c-0.6,0-1,0.4-1.2,0.9l-4,14.1
			c-1.2,4.1-0.5,8.5,2,12.1c0.2,0.3,0.6,0.5,1,0.5l-2.6,26.5c-0.1,1.1,0.3,2.2,1,3.1c0.8,0.8,1.8,1.3,2.9,1.3s2.2-0.5,2.9-1.3
			c0.8-0.8,1.1-1.9,1-3.1L825.2-104z"/>
		<path class="st0" d="M784-132.6c-16.7,0-30.2,13.5-30.2,30.2c0,16.7,13.5,30.2,30.2,30.2c16.7,0,30.2-13.5,30.2-30.2
			C814.2-119.1,800.7-132.6,784-132.6z M784-80.9c-11.9,0-21.5-9.7-21.5-21.5S772.1-124,784-124c11.9,0,21.5,9.7,21.5,21.5
			S795.9-80.9,784-80.9z"/>
		<path class="st0" d="M784-120.9c-10.2,0-18.5,8.3-18.5,18.5c0,10.2,8.3,18.5,18.5,18.5c10.2,0,18.5-8.3,18.5-18.5
			C802.5-112.6,794.2-120.9,784-120.9z"/>
	</g>
</g>
<g>
	<g>
		<path class="st0" d="M463.6-275.1c-7.3-6.2-16.2-11.1-25.8-11.1c-9.5,0-18.5,4.9-25.8,11.1c-6.4,5.4-10.3,10.7-10.5,11
			c-0.5,0.8-0.5,1.8,0,2.5c0.2,0.2,4.1,5.6,10.5,11c7.3,6.2,16.2,11.1,25.8,11.1c9.5,0,18.5-4.9,25.8-11.1
			c6.4-5.4,10.3-10.7,10.5-11c0.5-0.8,0.5-1.8,0-2.5C473.9-264.3,470-269.7,463.6-275.1z M460.7-253.8c-5.4,4.6-13.8,10-22.9,10
			s-17.5-5.5-22.9-10c-4.2-3.6-7.3-7.2-8.8-9c1.5-1.8,4.6-5.5,8.8-9c5.4-4.6,13.8-10,22.9-10s17.5,5.5,22.9,10
			c4.2,3.6,7.3,7.2,8.8,9C468.1-261,465-257.4,460.7-253.8z"/>
		<path class="st0" d="M437.8-275.4c-6.9,0-12.5,5.6-12.5,12.5c0,6.9,5.6,12.5,12.5,12.5s12.5-5.6,12.5-12.5
			C450.4-269.7,444.7-275.4,437.8-275.4z M437.8-254.6c-4.6,0-8.3-3.7-8.3-8.3c0-4.6,3.7-8.3,8.3-8.3c4.6,0,8.3,3.7,8.3,8.3
			C446.1-258.3,442.4-254.6,437.8-254.6z"/>
		<path class="st0" d="M437.8-290.5c1.2,0,2.1-1,2.1-2.1v-18c0-1.2-1-2.1-2.1-2.1c-1.2,0-2.1,1-2.1,2.1v18
			C435.7-291.4,436.6-290.5,437.8-290.5z"/>
		<path class="st0" d="M420.7-289.7c0.5,1.1,1.8,1.5,2.9,0.9c1.1-0.5,1.5-1.8,0.9-2.9l-8.3-16c-0.5-1.1-1.8-1.5-2.9-0.9
			c-1.1,0.5-1.5,1.8-0.9,2.9L420.7-289.7z"/>
		<path class="st0" d="M452-288.8c1.1,0.5,2.3,0.1,2.9-0.9l8.3-16c0.5-1.1,0.1-2.3-0.9-2.9c-1.1-0.5-2.3-0.1-2.9,0.9l-8.3,16
			C450.5-290.6,450.9-289.3,452-288.8L452-288.8z"/>
	</g>
</g>
<g>
	<g>
		<path class="st0" d="M297.4-67.5L297.4-67.5c0,0-17.7-18-19.5-19.8c-1.1-0.3-7.4-3.1-7.5-8.3c2.7-3.1,6.6-6.1,12.4-6.1
			c0,0,0,0,0.1,0c2.6,0.1,5.3-0.8,7.4-2.6c0.1-0.1,0.5-0.5,0.5-0.5l14.5-18.2l-1.7-1.7l-17.7,18.8l-2.1-2.1l18.2-18.2l-1.5-1.5
			l-18.3,18.3l-1.7-1.7l18.3-18.3l-1.7-1.7L278.6-113l-2.1-2.1l18.9-17.8l-1.6-1.6l-17.4,13.6c0,0-0.6,0.5-0.9,0.8
			c-2.4,2.4-3.4,5.6-3.1,8.8c-0.2,4-1.5,6.9-3.2,9.2c-32.5-31.8-44.8-28.4-44.8-28.4l-1,1c0,0,21.9,21.9,35.4,35.5
			c-4.7,4.7-27.6,27.6-27.6,27.6l0,0c0,0,0,0-0.1,0.1c-1.6,1.6-1.6,4.3,0,5.9c1.6,1.6,4.3,1.6,5.9,0c0,0,0-0.1,0-0.1l0,0
			c0,0,22.9-22.9,27.6-27.6c2.5,2.5,4.1,4.1,4.4,4.4c2,2,22.2,22.2,22.2,22.2h0c0,0,0,0,0,0.1c1.6,1.6,4.3,1.6,5.9,0
			C299.1-63.1,299.1-65.8,297.4-67.5C297.5-67.5,297.4-67.5,297.4-67.5z"/>
	</g>
</g>
<g>
	<g>
		<g>
			<circle class="st5" cx="446.4" cy="601.1" r="62.6"/>
		</g>
	</g>
</g>
<path class="st0" d="M476.1,611.1H473l-8.9-27.9c-5.5,3.2-10.9,5.3-15.7,3.3c-6.2-2.9-7.9-9.7-8.2-10.6l-11.3-7.4L407,599.1
	l51.6,35.2l32.8-0.2v-7.7C491.4,618,484.5,611.1,476.1,611.1L476.1,611.1z M420.9,588.6c3.1,4.9,7.6,8.8,14.1,12.7
	c10,5.9,10.8,13,10.4,16.8l-30.9-20.3L420.9,588.6z M486.2,628.8h-24.4l-11.6-7.6c2.9-10.8-4.5-20-12.4-24.4
	c-9.1-5.4-12.3-10.6-13.3-12.9l5.9-8.3l5.5,3.6c3.3,9.3,12.5,17,25.2,11.4l1.9,5.8l-6.7,2.2l1.6,5l6.7-2.2l1.8,5.6l-6.1,2l1.6,5
	l6.1-2l1.4,4.3h7c5.5,0,10,4.5,10,10L486.2,628.8L486.2,628.8z"/>
<g>
	<g>
		<g>
			<circle class="st5" cx="613.3" cy="595.9" r="62.6"/>
		</g>
	</g>
</g>
<g>
	<g>
		<path class="st0" d="M572.9,605h19v4.8h-19V605z"/>
		<path class="st0" d="M640.8,600.4h-2.9l-8.2-25.7c-5.1,2.9-10,4.9-14.5,3c-5.7-2.6-7.2-8.9-7.5-9.8l-10.4-6.8l-20.2,28.2
			l41.6,27.4h-36.2v4.8h72.3v-7.1C654.9,606.7,648.6,600.4,640.8,600.4L640.8,600.4z M590,579.7c2.9,4.5,7,8.1,12.9,11.7
			c9.2,5.4,10,12,9.5,15.5L584,588.1L590,579.7z M650.1,616.7h-22.5l-10.7-7c2.6-10-4.2-18.4-11.5-22.5c-8.4-4.9-11.3-9.7-12.3-11.9
			l5.4-7.6l5,3.3c3,8.6,11.5,15.7,23.2,10.5l1.7,5.4l-6.2,2l1.5,4.6l6.2-2l1.7,5.2l-5.6,1.8l1.5,4.6l5.6-1.8l1.3,3.9h6.4
			c5.1,0,9.2,4.1,9.2,9.2L650.1,616.7L650.1,616.7z"/>
	</g>
</g>
<line class="st20" x1="459.2" y1="529.6" x2="436.4" y2="577.5"/>
<polyline class="st20" points="447.8,553.6 470.8,563.8 458.7,589.2 481.4,541.4 "/>
<path class="st20" d="M437.1,575.5"/>
<g>
	<g>
		<g>
			<circle class="st5" cx="85.9" cy="606.6" r="62.6"/>
		</g>
	</g>
</g>
<line class="st20" x1="98.7" y1="535.1" x2="76" y2="583"/>
<polyline class="st20" points="87.3,559.1 110.4,569.3 98.2,594.7 120.9,546.9 "/>
<path class="st20" d="M76.6,581"/>
<g>
	<g>
		<path class="st0" d="M44.8,618.6h19v4.8h-19V618.6z"/>
		<path class="st0" d="M112.8,613.9h-2.9l-8.2-25.7c-5.1,2.9-10,4.9-14.5,3c-5.7-2.6-7.2-8.9-7.5-9.8l-10.4-6.8l-20.2,28.2
			l41.6,27.4H54.6v4.8h72.3V628C126.9,620.3,120.6,613.9,112.8,613.9L112.8,613.9z M62,593.2c2.9,4.5,7,8.1,12.9,11.7
			c9.2,5.4,10,12,9.5,15.5L56,601.6L62,593.2z M122.1,630.3H99.6l-10.7-7c2.6-10-4.2-18.4-11.5-22.5c-8.4-4.9-11.3-9.7-12.3-11.9
			l5.4-7.6l5,3.3c3,8.6,11.5,15.7,23.2,10.5l1.7,5.4l-6.2,2l1.5,4.6l6.2-2l1.7,5.2l-5.6,1.8l1.5,4.6l5.6-1.8l1.3,3.9h6.4
			c5.1,0,9.2,4.1,9.2,9.2L122.1,630.3L122.1,630.3z"/>
	</g>
</g>
<polygon class="st0" points="85.1,564.3 108.7,574.6 95.8,594.1 79.7,589.7 76,580.8 "/>
<g>
	<g>
		<g>
			<circle class="st5" cx="797" cy="597.6" r="62.6"/>
		</g>
	</g>
</g>
<line class="st20" x1="809.8" y1="526.1" x2="787.1" y2="574"/>
<polyline class="st20" points="798.5,550 821.5,560.3 809.3,585.7 832.1,537.8 "/>
<path class="st20" d="M787.8,572"/>
<g>
	<g>
		<path class="st0" d="M756,609.6h19v4.8h-19V609.6z"/>
		<path class="st0" d="M823.9,604.9H821l-8.2-25.7c-5.1,2.9-10,4.9-14.5,3c-5.7-2.6-7.2-8.9-7.5-9.8l-10.4-6.8l-20.2,28.2l41.6,27.4
			h-36.2v4.8H838V619C838,611.2,831.7,604.9,823.9,604.9L823.9,604.9z M773.1,584.2c2.9,4.5,7,8.1,12.9,11.7c9.2,5.4,10,12,9.5,15.5
			l-28.5-18.7L773.1,584.2z M833.2,621.2h-22.5l-10.7-7c2.6-10-4.2-18.4-11.5-22.5c-8.4-4.9-11.3-9.7-12.3-11.9l5.4-7.6l5,3.3
			c3,8.6,11.5,15.7,23.2,10.5l1.7,5.4l-6.2,2l1.5,4.6l6.2-2l1.7,5.2l-5.6,1.8l1.5,4.6l5.6-1.8l1.3,3.9h6.4c5.1,0,9.2,4.1,9.2,9.2
			L833.2,621.2L833.2,621.2z"/>
	</g>
</g>
<polygon class="st0" points="796.2,555.2 819.8,565.6 806.9,585.1 790.8,580.7 787.1,571.7 "/>
</svg>
