<?xml version="1.0" encoding="utf-8"?>
<!-- Generator: Adobe Illustrator 25.0.0, SVG Export Plug-In . SVG Version: 6.00 Build 0)  -->
<svg version="1.1" id="Layer_1" xmlns="http://www.w3.org/2000/svg" xmlns:xlink="http://www.w3.org/1999/xlink" x="0px" y="0px"
	 viewBox="0 0 148.1 150.5" style="enable-background:new 0 0 148.1 150.5;" xml:space="preserve">
<style type="text/css">
	.st0{fill:#FFFFFF;}
	.st1{fill:#4F953B;}
	.st2{fill:#002FF2;}
	.st3{fill:#DA291C;}
	.st4{fill:#E97F02;}
	.st5{fill:#FFCD42;}
	.st6{fill:#704C55;}
	.st7{fill:#5A344B;}
	.st8{fill:#00C6CD;}
	.st9{fill:#A9F0F0;}
	.st10{fill:#00A0AA;}
	.st11{fill:#64DDE0;}
	.st12{fill:#E4F1FB;}
	.st13{fill:#C9E3F7;}
	.st14{fill:#000100;}
	.st15{fill:#FEA7B7;}
	.st16{fill:#FF4869;}
	.st17{fill:#859BF9;}
	.st18{fill:#F0F2FC;}
	.st19{fill:#C8A2C8;}
	.st20{fill:none;stroke:#FFFFFF;stroke-width:5;stroke-miterlimit:10;}
</style>
<g>
	<g>
		<circle class="st0" cx="78.9" cy="416.2" r="65.3"/>
	</g>
	<g>
		<path class="st1" d="M51.4,375.6c5-1,10.2,0.5,13.8,4.2l12.6,12.6L88.1,382l2.3-2.3c3.6-3.6,8.8-5.2,13.8-4.2l1.3,0.3l11.9-11.9
			c-10.9-8.1-24.4-13-39.1-13c-14.9,0-28.7,5-39.7,13.4l11.5,11.5L51.4,375.6z"/>
		<path class="st1" d="M29.6,396.8c0.4,0.4,0.6,1,0.5,1.5l-0.6,3.5c-0.7,4.4,0.5,8.8,3.4,12.2l16.5,16.6c0.8,0.8,1.8,1.1,2.8,1
			c0.2-2.1,1.3-3.9,3-5.1c-0.2-0.4-0.4-0.7-0.7-1l-9.2-9.2c-0.7-0.7-0.7-1.8,0-2.5c0.7-0.7,1.8-0.7,2.5,0l9.2,9.2
			c0.2,0.2,0.4,0.4,0.6,0.6v-19.9c0-3.9,3.1-7,7-7c1.5,0,2.9,0.5,4,1.3c1-2.3,3.2-4,5.8-4.3l-11.6-11.6c-2.8-2.8-6.8-4-10.6-3.2
			l-1.6,0.3c-0.9,0.2-1.9-0.1-2.6-0.8l-12-12c-6.6,5.7-12.1,12.6-16,20.5c0.1,0.1,0.2,0.1,0.3,0.2L29.6,396.8z"/>
		<path class="st1" d="M105.1,379.4l-1.6-0.3c-3.9-0.8-7.8,0.4-10.6,3.2l-2.3,2.3l-11,11c1.5,1.3,2.4,3.2,2.4,5.3v1.2
			c1-0.6,2.2-0.9,3.5-0.9c3.1,0,5.8,2.1,6.7,4.9c1.1-0.7,2.4-1.1,3.8-1.1c3.9,0,7,3.1,7,7v6.8l4.8-4.8c0.7-0.7,1.8-0.7,2.5,0
			c0.7,0.7,0.7,1.8,0,2.5l-7.4,7.4v7.9c1.1,0.2,2.3-0.1,3.2-1l15.7-15.7c3.4-3.4,5-8.4,4.2-13.2l-0.6-3.5c-0.1-0.6,0.1-1.1,0.5-1.5
			l9.2-9.2c0.4-0.4,1-0.6,1.6-0.5c-4-8.1-9.7-15.3-16.6-21l-12.5,12.5C107,379.3,106.1,379.6,105.1,379.4z"/>
		<path class="st1" d="M62.1,471.4l-2.1-1.5c-4.9-3.5-7.8-9.2-7.8-15.2v-19.4c-0.1,0-0.2,0-0.2,0c-1.9,0-3.7-0.7-5-2.1l-16.7-16.8
			c-0.1-0.1-0.2-0.2-0.2-0.3c-3.4-4.1-4.8-9.5-4-14.8l0.4-2.6l-8.2-8.2c-3.4,7.9-5.3,16.6-5.3,25.7c0,30.5,20.9,56.1,49.2,63.3
			c0-0.1,0-0.2,0-0.3V471.4z"/>
		<path class="st1" d="M91.5,470.5c0-1,0.5-1.8,1.3-2.4l1.4-0.9c3.3-2.2,5.2-5.8,5.2-9.8l0-15.6c0-0.1,0-0.3,0-0.5V412
			c0-1.9-1.6-3.5-3.5-3.5c-1.9,0-3.5,1.6-3.5,3.5c0,0,0,0,0,0v16.1c0,1-0.8,1.8-1.8,1.8c-1,0-1.8-0.8-1.8-1.8v-19.9
			c0-1.9-1.6-3.5-3.5-3.5c-1.9,0-3.5,1.6-3.5,3.5v19.9c0,1-0.8,1.8-1.8,1.8c-1,0-1.8-0.8-1.8-1.8v-27.3c0-1.9-1.6-3.5-3.5-3.5
			c-1.9,0-3.5,1.6-3.5,3.5v26.3c0,1-0.8,1.8-1.8,1.8c-1,0-1.8-0.8-1.8-1.8v-23.3c0-1.9-1.6-3.5-3.5-3.5c-1.9,0-3.5,1.6-3.5,3.5v21.7
			c3.1,0.8,5.3,3.6,5.3,6.9v13c0,1-0.8,1.8-1.8,1.8c-1,0-1.8-0.8-1.8-1.8v-13c0-2-1.6-3.6-3.6-3.6c-2,0-3.6,1.6-3.6,3.6v22.2
			c0,4.9,2.4,9.5,6.3,12.3l2.9,2.1c0.5,0.3,0.7,0.9,0.7,1.4v8.8c0,0.4-0.1,0.7-0.3,1c4.2,0.8,8.5,1.3,13,1.3c4.6,0,9.1-0.5,13.4-1.4
			c-0.2-0.3-0.3-0.6-0.3-0.9V470.5z"/>
		<path class="st1" d="M143.7,416.3c0-9.5-2-18.4-5.6-26.5c-0.1,0.1-0.2,0.3-0.3,0.4l-8.6,8.6l0.4,2.6c1,5.9-1,12-5.2,16.2
			l-15.7,15.7c-1.4,1.4-3.2,2.1-5,2.1c-0.2,0-0.4,0-0.7,0v6.3v15.8c0,5.1-2.6,9.9-6.8,12.7l-1.1,0.7v8.4c0,0.1,0,0.1,0,0.1
			C123,472.1,143.7,446.6,143.7,416.3z"/>
		<path class="st0" d="M30.2,416.4c-0.1-0.1-0.1-0.2-0.2-0.3C30,416.2,30.1,416.3,30.2,416.4z"/>
		<path class="st0" d="M95.1,470.8l1.1-0.7c4.3-2.8,6.8-7.6,6.8-12.7v-15.8c0,1-0.8,1.8-1.8,1.8c-1,0-1.8-0.8-1.8-1.8v-0.3
			c0,0.2,0,0.3,0,0.5l0,15.6c0,3.9-2,7.6-5.2,9.8l-1.4,0.9c-0.8,0.5-1.3,1.4-1.3,2.4v8.8c0,0.3,2.5,0.4,3.5,0.1
			C95,479.4,95.1,470.8,95.1,470.8z"/>
		<path class="st0" d="M101.1,439.3l-0.4,0.2c-0.8,0-1.3,1-1.4,1.8v0.3c0,1,0.8,1.8,1.8,1.8c1,0,1.8-0.8,1.8-1.8
			C103,440.6,102.1,439.3,101.1,439.3z"/>
		<path class="st0" d="M117.4,363.9c1,0.7,1.9,1.5,2.8,2.2L117.4,363.9z"/>
		<path class="st0" d="M104.2,375.6c-5-1-10.2,0.5-13.8,4.2l-2.3,2.3c0.7-0.7,1.6,0.5,2.3,1.2c0.7,0.7,0.9,0.7,0.2,1.4l2.3-2.3
			c2.8-2.8,6.8-4,10.6-3.2l1.6,0.3c0.9,0.2,1.9-0.1,2.6-0.8l12.5-12.5c-0.9-0.8-1.8-1.5-2.8-2.2l-11.9,11.9L104.2,375.6z"/>
		<path class="st0" d="M90.4,383.2c-0.7-0.7-1.6-1.9-2.3-1.2c-0.7,0.7-0.7,1.8,0,2.5c0.3,0.3,0.8,0.5,1.3,0.5c0.5,0,0.9-0.2,1.3-0.5
			C91.3,383.8,91.1,383.9,90.4,383.2z"/>
		<path class="st0" d="M26,401.3c-0.9,5.3,0.6,10.7,4,14.8c-0.3-0.5,0.3-0.9,0.9-1.5c0.7-0.7,1.3-1.3,2-0.6
			c-2.9-3.4-4.1-7.8-3.4-12.2l0.6-3.5c0.1-0.6-0.1-1.1-0.5-1.5l-9.5-9.5c-0.1-0.1-0.2-0.2-0.3-0.2c-0.6,1.1-1.1,2.2-1.6,3.4l8.2,8.2
			L26,401.3z"/>
		<path class="st0" d="M30.9,414.7c-0.6,0.6-1.2,0.9-0.9,1.5c0.1,0.1,0.1,0.2,0.2,0.3c0.4,0.4,0.9,0.6,1.4,0.6
			c0.4,0,0.8-0.1,1.1-0.4c0.7-0.6,0.8-1.8,0.2-2.5C32.2,413.4,31.6,414,30.9,414.7z"/>
	</g>
</g>
<g>
	<g>
		<circle class="st0" cx="277.5" cy="418.5" r="65.3"/>
	</g>
	<g>
		<path class="st1" d="M250,377.8c5-1,10.2,0.5,13.8,4.2l12.6,12.6l10.3-10.3l2.3-2.3c3.6-3.6,8.8-5.2,13.8-4.2l1.3,0.3l11.9-11.9
			c-10.9-8.1-24.4-13-39.1-13c-14.9,0-28.7,5-39.7,13.4l11.5,11.5L250,377.8z"/>
		<path class="st1" d="M228.2,399.1c0.4,0.4,0.6,1,0.5,1.5l-0.6,3.5c-0.7,4.4,0.5,8.8,3.4,12.2l16.5,16.6c0.8,0.8,1.8,1.1,2.8,1
			c0.2-2.1,1.3-3.9,3-5.1c-0.2-0.4-0.4-0.7-0.7-1l-9.2-9.2c-0.7-0.7-0.7-1.8,0-2.5c0.7-0.7,1.8-0.7,2.5,0l9.2,9.2
			c0.2,0.2,0.4,0.4,0.6,0.6v-19.9c0-3.9,3.1-7,7-7c1.5,0,2.9,0.5,4,1.3c1-2.3,3.2-4,5.8-4.3l-11.6-11.6c-2.8-2.8-6.8-4-10.6-3.2
			l-1.6,0.3c-0.9,0.2-1.9-0.1-2.6-0.8l-12-12c-6.6,5.7-12.1,12.6-16,20.5c0.1,0.1,0.2,0.1,0.3,0.2L228.2,399.1z"/>
		<path class="st1" d="M303.8,381.6l-1.6-0.3c-3.9-0.8-7.8,0.4-10.6,3.2l-2.3,2.3l-11,11c1.5,1.3,2.4,3.2,2.4,5.3v1.2
			c1-0.6,2.2-0.9,3.5-0.9c3.1,0,5.8,2.1,6.7,4.9c1.1-0.7,2.4-1.1,3.8-1.1c3.9,0,7,3.1,7,7v6.8l4.8-4.8c0.7-0.7,1.8-0.7,2.5,0
			c0.7,0.7,0.7,1.8,0,2.5l-7.4,7.4v7.9c1.1,0.2,2.3-0.1,3.2-1l15.7-15.7c3.4-3.4,5-8.4,4.2-13.2l-0.6-3.5c-0.1-0.6,0.1-1.1,0.5-1.5
			l9.2-9.2c0.4-0.4,1-0.6,1.6-0.5c-4-8.1-9.7-15.3-16.6-21l-12.5,12.5C305.7,381.5,304.7,381.8,303.8,381.6z"/>
		<path class="st1" d="M260.8,473.7l-2.1-1.5c-4.9-3.5-7.8-9.2-7.8-15.2v-19.4c-0.1,0-0.2,0-0.2,0c-1.9,0-3.7-0.7-5-2.1l-16.7-16.8
			c-0.1-0.1-0.2-0.2-0.2-0.3c-3.4-4.1-4.8-9.5-4-14.8l0.4-2.6l-8.2-8.2c-3.4,7.9-5.3,16.6-5.3,25.7c0,30.5,20.9,56.1,49.2,63.3
			c0-0.1,0-0.2,0-0.3V473.7z"/>
		<path class="st1" d="M290.2,472.7c0-1,0.5-1.8,1.3-2.4l1.4-0.9c3.3-2.2,5.2-5.8,5.2-9.8l0-15.6c0-0.1,0-0.3,0-0.5v-29.4
			c0-1.9-1.6-3.5-3.5-3.5c-1.9,0-3.5,1.6-3.5,3.5c0,0,0,0,0,0v16.1c0,1-0.8,1.8-1.8,1.8s-1.8-0.8-1.8-1.8v-19.9
			c0-1.9-1.6-3.5-3.5-3.5c-1.9,0-3.5,1.6-3.5,3.5v19.9c0,1-0.8,1.8-1.8,1.8c-1,0-1.8-0.8-1.8-1.8v-27.3c0-1.9-1.6-3.5-3.5-3.5
			c-1.9,0-3.5,1.6-3.5,3.5v26.3c0,1-0.8,1.8-1.8,1.8c-1,0-1.8-0.8-1.8-1.8v-23.3c0-1.9-1.6-3.5-3.5-3.5c-1.9,0-3.5,1.6-3.5,3.5v21.7
			c3.1,0.8,5.3,3.6,5.3,6.9v13c0,1-0.8,1.8-1.8,1.8c-1,0-1.8-0.8-1.8-1.8v-13c0-2-1.6-3.6-3.6-3.6c-2,0-3.6,1.6-3.6,3.6V457
			c0,4.9,2.4,9.5,6.3,12.3l2.9,2.1c0.5,0.3,0.7,0.9,0.7,1.4v8.8c0,0.4-0.1,0.7-0.3,1c4.2,0.8,8.5,1.3,13,1.3c4.6,0,9.1-0.5,13.4-1.4
			c-0.2-0.3-0.3-0.6-0.3-0.9V472.7z"/>
		<path class="st1" d="M342.3,418.5c0-9.5-2-18.4-5.6-26.5c-0.1,0.1-0.2,0.3-0.3,0.4l-8.6,8.6l0.4,2.6c1,5.9-1,12-5.2,16.2
			l-15.7,15.7c-1.4,1.4-3.2,2.1-5,2.1c-0.2,0-0.4,0-0.7,0v6.3v15.8c0,5.1-2.6,9.9-6.8,12.7l-1.1,0.7v8.4c0,0.1,0,0.1,0,0.1
			C321.7,474.3,342.3,448.8,342.3,418.5z"/>
		<path class="st0" d="M228.8,418.7c-0.1-0.1-0.1-0.2-0.2-0.3C228.7,418.5,228.7,418.6,228.8,418.7z"/>
		<path class="st0" d="M293.7,473.1l1.1-0.7c4.3-2.8,6.8-7.6,6.8-12.7v-15.8c0,1-0.8,1.8-1.8,1.8c-1,0-1.8-0.8-1.8-1.8v-0.3
			c0,0.2,0,0.3,0,0.5l0,15.6c0,3.9-2,7.6-5.2,9.8l-1.4,0.9c-0.8,0.5-1.3,1.4-1.3,2.4v8.8c0,0.3,2.5,0.4,3.5,0.1
			C293.7,481.6,293.7,473.1,293.7,473.1z"/>
		<path class="st0" d="M299.8,441.5l-0.4,0.2c-0.8,0-1.3,1-1.4,1.8v0.3c0,1,0.8,1.8,1.8,1.8c1,0,1.8-0.8,1.8-1.8
			C301.6,442.9,300.8,441.5,299.8,441.5z"/>
		<path class="st0" d="M316.1,366.2c1,0.7,1.9,1.5,2.8,2.2L316.1,366.2z"/>
		<path class="st0" d="M302.9,377.8c-5-1-10.2,0.5-13.8,4.2l-2.3,2.3c0.7-0.7,1.6,0.5,2.3,1.2c0.7,0.7,0.9,0.7,0.2,1.4l2.3-2.3
			c2.8-2.8,6.8-4,10.6-3.2l1.6,0.3c0.9,0.2,1.9-0.1,2.6-0.8l12.5-12.5c-0.9-0.8-1.8-1.5-2.8-2.2l-11.9,11.9L302.9,377.8z"/>
		<path class="st0" d="M289,385.4c-0.7-0.7-1.6-1.9-2.3-1.2c-0.7,0.7-0.7,1.8,0,2.5c0.3,0.3,0.8,0.5,1.3,0.5c0.5,0,0.9-0.2,1.3-0.5
			C290,386.1,289.7,386.1,289,385.4z"/>
		<path class="st0" d="M224.7,403.6c-0.9,5.3,0.6,10.7,4,14.8c-0.3-0.5,0.3-0.9,0.9-1.5c0.7-0.7,1.3-1.3,2-0.6
			c-2.9-3.4-4.1-7.8-3.4-12.2l0.6-3.5c0.1-0.6-0.1-1.1-0.5-1.5l-9.5-9.5c-0.1-0.1-0.2-0.2-0.3-0.2c-0.6,1.1-1.1,2.2-1.6,3.4l8.2,8.2
			L224.7,403.6z"/>
		<path class="st0" d="M229.5,416.9c-0.6,0.6-1.2,0.9-0.9,1.5c0.1,0.1,0.1,0.2,0.2,0.3c0.4,0.4,0.9,0.6,1.4,0.6
			c0.4,0,0.8-0.1,1.1-0.4c0.7-0.6,0.8-1.8,0.2-2.5C230.9,415.7,230.2,416.2,229.5,416.9z"/>
	</g>
</g>
<g>
	<g>
		<circle class="st2" cx="439.3" cy="-104.4" r="62.6"/>
	</g>
</g>
<g>
	<g>
		<circle class="st3" cx="74.1" cy="75.3" r="62.6"/>
	</g>
</g>
<g>
	<g>
		<circle class="st3" cx="609.1" cy="64.7" r="62.6"/>
	</g>
</g>
<g>
	<g>
		<circle class="st4" cx="952" cy="239" r="62.6"/>
	</g>
</g>
<g>
	<g>
		<circle class="st4" cx="782" cy="239" r="62.6"/>
	</g>
</g>
<g>
	<g>
		<circle class="st1" cx="788.9" cy="417.4" r="62.6"/>
	</g>
</g>
<g>
	<g>
		<circle class="st4" cx="75.5" cy="244.2" r="62.6"/>
	</g>
</g>
<g>
	<g>
		<circle class="st4" cx="438.5" cy="244.2" r="62.6"/>
	</g>
</g>
<g>
	<g>
		<circle class="st4" cx="606.8" cy="240.8" r="62.6"/>
	</g>
</g>
<g>
	<g>
		<circle class="st2" cx="75.5" cy="-101" r="62.6"/>
	</g>
</g>
<g>
	<g>
		<circle class="st3" cx="439.6" cy="68.1" r="62.6"/>
	</g>
</g>
<g>
	<g>
		<g>
			<circle class="st5" cx="277.8" cy="770" r="62.6"/>
		</g>
	</g>
	<path id="Subtraction_1" class="st0" d="M285.1,707.9c0,0,1.9,0.3,2.6,0.4c0.7,0.1,2.5,0.5,2.5,0.5l-14.3,13.4l15.6,14.6l21.3-18.5
		c0,0,0.9,0.6,1.2,0.8c0.3,0.2,1.3,1,1.3,1l-40,34.9c1.6,2.9,2.9,5.8,3.9,8.9h6.4v3.1h-5.3c0.2,0.7,0.5,1.4,0.7,2v0l0.4,1.1h5.7v3.1
		h-4.6c0.4,1.2,0.8,2.2,1.2,3.1h5v3.1h-3.7c0.6,1.4,1.1,2.1,1.4,2.2c0.6,0.2,2.6,0.7,5.2,1.2c5.2,1.1,12.3,2.5,14.2,3.9
		c2.5,1.8,4.8,8,5.3,9.2h1.2c0,0,4.1,3,4.1,5.3c0,1.4-0.4,2.8-1,4.1h-41.6l0,0l-46-46.8l2.2-2.2l7.7-7.9l0.2,0.2l1,1.1l15.5-14.4
		l2,2.1L285.1,707.9z M273.7,724.3l-2.5,2.5l15.3,14.3l0,0l2.6-2.3L273.7,724.3z M253.9,739.9l-12.9,12l38.4,43.9h26.6h0l0,0h1.8
		c-0.5-2.3-1.6-4.3-3.3-5.9c-1.7-1.4-7.6-2.6-12.8-3.7c-2.7-0.5-5.4-1.1-8-2c-0.6-0.3-1.5-1.9-2.7-4.8h-6.3v-3.1h5.1
		c-0.3-0.9-0.7-1.9-1.1-3.1h-5.5V770h4.5c-0.4-1-0.7-2.1-1.1-3.1h-4.9v-3.1h3.8c-1.5-4-2.4-6-3-6.5c-0.9-0.8-2.9-0.9-4.7-0.9
		c-0.7,0-1.5,0-2.3,0h0c-0.8,0-1.5,0-2.3,0c-1.7,0.2-3.4-0.1-5-0.9C256.1,754,254.4,743.1,253.9,739.9L253.9,739.9z"/>
</g>
<path id="Subtraction_1-2" class="st2" d="M1476.4-603c-22.1,0-40,18-40,40.1c0,22.1,18,40,40.1,40c22.1,0,40-18,40-40.1
	c0-2.7-0.3-5.3-0.8-7.9C1511.9-589.6,1495.5-603,1476.4-603z M1446.2-576.6l14.4,19.2h11.9v-1.6h22v1.6h14.1v2h-2.5v5.5h-2v-5.5
	h-9.6v2.1l-1.4,0.1v1.2h-1v-1.1l-2,0.2v1.9h-1v-1.8l-2,0.2v1.6h-1v-1.5l-2,0.2v1.3h-1v-1.2l-2,0.2v1h-1v-0.9l-2,0.2v1.7h-1v-1.6
	l-2,0.2v1.4h-1v-1.3l-1.6,0.2v-4.4h-8.4v5.5h-2v-5.5h-2.5l0,0v0h0v0l-15-20L1446.2-576.6z"/>
<path id="Union_122" class="st2" d="M1298.6-522c-20.4-8.6-30-32.1-21.4-52.6c8.6-20.4,32.1-30,52.6-21.4
	c20.4,8.6,30,32.1,21.4,52.6c-6.3,14.9-20.8,24.6-37,24.6h-0.1C1308.8-518.8,1303.5-519.9,1298.6-522z M1290.2-530.8h49v-2h-49
	V-530.8z M1294.2-534.8h40v-2h-5.8v-52l0,0c-0.3,0.6-3.3,5.6-6.8,7.7c-1.8,1-3.8,1.5-5.8,1.5c-0.8,0-1.6-0.1-2.4-0.2l0,0
	c-0.5,0.7-3.4,4.3-6.3,5.9c-1.7,0.9-3.6,1.4-5.5,1.4c-0.4,0-0.8,0-1.2-0.1v35.9h-6.1V-534.8z M1306.1-543.1L1306.1-543.1l0-21h2
	v20.2c0.1,0.9,0.4,2.3,1.6,2.3c1,0,1.3-1,1.4-1.9v-24.6h2v25c0.1,1.8-1.2,3.3-3,3.4c-0.1,0-0.2,0-0.3,0
	C1307.8-539.7,1306.2-541.2,1306.1-543.1z M1316.1-545.1L1316.1-545.1l0-27h2v26.2c0.1,0.9,0.4,2.3,1.6,2.3c1,0,1.3-1,1.4-1.9v-29.6
	h2v30c0.1,1.8-1.2,3.3-3,3.4c-0.1,0-0.2,0-0.3,0C1317.8-541.7,1316.2-543.2,1316.1-545.1z"/>
<path id="Subtraction_2" class="st2" d="M1135.7-603.2c-5.4,0-10.8,1.1-15.8,3.1c-4.8,2-9.2,4.9-12.9,8.6
	c-15.6,15.2-15.9,40.3-0.7,55.9c0.2,0.2,0.4,0.5,0.7,0.7c3.7,3.7,8.1,6.6,12.9,8.6c10.1,4.2,21.5,4.2,31.7,0c4.8-2,9.2-4.9,12.9-8.6
	c15.6-15.2,15.9-40.3,0.7-55.9c-0.2-0.2-0.4-0.5-0.7-0.7c-3.7-3.7-8.1-6.6-12.9-8.6C1146.5-602.1,1141.1-603.2,1135.7-603.2z
	 M1135.2-594.2c8.8,0,16,2.9,16,6.5c0,0.1,0,0.1,0,0.2v0c0.1,2.8,0,5.7-0.4,8.5c-0.6,4.3-2.1,10.3-5.7,14.1
	c-2.1,2.2-4.9,3.6-7.9,3.9v19.8c5.7,0.3,10,2.2,10,4.5c0,2.5-5.2,4.5-11.5,4.5c-6.3,0-11.5-2-11.5-4.5c0-1.1,1.1-2.2,3.1-3.1
	c2.4-0.9,4.9-1.4,7.5-1.4v-19.8c-3.3-0.2-6.4-1.6-8.6-3.9c-3.8-3.8-5.4-9.8-6.2-14.2c-0.5-2.8-0.7-5.7-0.7-8.6v-0.1
	C1119.2-591.3,1126.4-594.2,1135.2-594.2z M1135.2-592.2c-7.7,0-14,2.5-14,5.5s6.3,5.5,14,5.5s14-2.5,14-5.5
	S1142.9-592.2,1135.2-592.2L1135.2-592.2z"/>
<path id="Subtraction_1-3" class="st2" d="M1652.6-782.5c-22.1,0-40,18-40,40.1c0,22.1,18,40,40.1,40c22.1,0,40-18,40-40.1
	c0-2.7-0.3-5.3-0.8-7.9C1688.1-769.1,1671.7-782.5,1652.6-782.5z M1666.7-772.5L1666.7-772.5l2,0v61h-2v-19.9
	c-5.5-1.2-9.3-6.2-9.1-11.9C1657.6-753.3,1666.3-771.7,1666.7-772.5L1666.7-772.5L1666.7-772.5L1666.7-772.5z M1636.7-772.5h2
	c0,0-0.4,2.9-0.7,6.5c-0.2,3.3-0.2,7.8,0.7,10.8c0.4,1.8,1.4,3.4,2.8,4.6c0.6,0.5,1.4,0.8,2.1,0.8h0.1v-22.6h2v22.7h0.1
	c0.6,0,3.5-0.3,5.1-5.4c0.9-3,0.9-7.5,0.7-10.8c-0.2-3.1-0.6-5.7-0.7-6.4c0,0,0,0,0,0h2c0,0.1,1.7,12.8,0,18.5
	c-1,3.3-3.8,5.8-7.2,6.5v36h-2v-36c-3.4-0.7-6.1-3.2-7-6.5C1634.9-759.7,1636.7-772.4,1636.7-772.5L1636.7-772.5z"/>
<path id="Subtraction_1-4" class="st2" d="M1481.1-767.2c-22.1,0-40,18-40,40.1c0,22.1,18,40,40.1,40c22.1,0,40-18,40-40.1
	c0-2.7-0.3-5.3-0.8-7.9C1516.5-753.8,1500.1-767.2,1481.1-767.2z M1480.6-762.2c9.7,0,17.5,9.5,17.5,21.2c0,11-7.1,20.3-16.2,21.1
	l2.1,2.8h-3.4c-1.3,1.2-4.3,4.2-3.8,7.1c0.3,1.9,2,3,3.6,4c1.5,1,3.1,2,3.4,3.7c0.7,3.5-2.7,6.1-2.7,6.1h-3c0.9-0.4,1.7-0.9,2.5-1.6
	c1.1-0.9,2.3-2.4,1.9-4.2c-0.4-1.7-1.9-2.7-3.6-3.9c-1.7-1.2-3.4-2.3-3.8-4.3c-0.5-3,2-6,3.1-7.1h-3l2.3-3
	c-8.4-1.8-14.4-10.5-14.4-20.8C1463.1-752.7,1471-762.2,1480.6-762.2L1480.6-762.2z"/>
<path id="Subtraction_1-5" class="st2" d="M1309.3-767.9c-22.1,0-40,17.9-40,40c0,22.1,17.9,40,40,40c22.1,0,40-17.9,40-40
	c0-2.7-0.3-5.3-0.8-7.9C1344.7-754.5,1328.3-767.9,1309.3-767.9z M1309.8-760.9l6.5,19h-1.9l5.3,18.5h-2.8l6.8,18.7h-12.4v6.9h-2
	v-6.9h-14l6.8-18.7h-2.4l5.6-18.5h-1.9L1309.8-760.9z"/>
<path id="Subtraction_112" class="st2" d="M1820.9-696.2c-22.1,0-40-17.9-40-40c0-16.1,9.6-30.6,24.4-36.8
	c20.4-8.6,43.8,0.9,52.4,21.3c8.6,20.4-0.9,43.8-21.3,52.4l0,0C1831.5-697.2,1826.2-696.1,1820.9-696.2z M1796.9-747.7
	c0.3,6.1,1.3,12.2,3.2,18.1c1.3,4.6,3.7,8.8,6.8,12.4c3.3,3.6,8,5.7,12.9,5.6c0.1,0,0.2,0,0.3,0c4.6,0,9-1.8,12.2-5.1
	c2.3-2.3,4.2-5,5.5-8c2.6-0.2,5.3-0.8,7.7-1.7c3.4-1.4,5.2-3.6,5.1-6.4c-0.1-6.1-6-7.7-8.5-8.1c0.4-2.9,0.5-5.2,0.5-6.3
	c0-0.2,0-0.4,0-0.6c0-2.8-2.4-5.4-6.7-7.4c-5.1-2.1-10.6-3.2-16.2-3c-5.5-0.1-11.1,0.9-16.2,3
	C1799.3-753.1,1796.9-750.5,1796.9-747.7C1796.9-747.7,1796.9-747.7,1796.9-747.7L1796.9-747.7L1796.9-747.7z M1838.9-727.3
	L1838.9-727.3l0.2-0.4c1.3-3.5,2.2-7.1,2.7-10.8c1.5,0.4,2.9,1,4.3,1.8c1.7,1.1,2.6,2.5,2.6,4
	C1848.6-729.1,1841.8-727.8,1838.9-727.3L1838.9-727.3z M1819.8-740.1c-11.1,0-20.1-3.4-20.1-7.6c0-4.2,9-7.6,20.1-7.6
	s20.1,3.4,20.1,7.6S1830.9-740.1,1819.8-740.1z"/>
<text transform="matrix(1 0 0 1 633.1309 -647.926)"><tspan x="0" y="0" style="font-family:'MyriadPro-Regular'; font-size:26px;">Go see</tspan><tspan x="0" y="31.2" style="font-family:'MyriadPro-Regular'; font-size:26px;">Go eat</tspan><tspan x="0" y="62.4" style="font-family:'MyriadPro-Regular'; font-size:26px;">Go drink</tspan><tspan x="0" y="93.6" style="font-family:'MyriadPro-Regular'; font-size:26px;">Go attend/join/take part of</tspan><tspan x="0" y="124.8" style="font-family:'MyriadPro-Regular'; font-size:26px;">Go shop</tspan><tspan x="0" y="156" style="font-family:'MyriadPro-Regular'; font-size:26px;">Go do</tspan></text>
<g>
	<g>
		<circle class="st3" cx="270.9" cy="68.1" r="62.6"/>
	</g>
</g>
<path class="st6" d="M1835.2-380.4v9c0,1.5-1.2,2.8-2.8,2.8s-2.8-1.2-2.8-2.8v-41.3c0-1.5,1.2-2.8,2.8-2.8s2.8,1.2,2.8,2.8v26.7
	V-380.4z"/>
<path class="st7" d="M1835.2-380.4v9c0,1.5-1.2,2.8-2.8,2.8v-46.8c1.5,0,2.8,1.2,2.8,2.8v26.7V-380.4z"/>
<path class="st8" d="M1845.9-411.2h-26.7l12.5-27.5c0.7-0.3,0.6-0.1,0.8-0.1c0.2,0,0.2-0.1,0.8,0.1L1845.9-411.2z"/>
<path class="st9" d="M1832.6-438.9l-13.3,27.7h-25.1c-2.8,0-3.8-3.8-1.4-5.2C1837.2-441.9,1831-438.6,1832.6-438.9z"/>
<path class="st10" d="M1871-411.2h-25.1l-13.2-27.7c1,0-2.3-1.7,39.7,22.5C1874.8-415,1873.8-411.2,1871-411.2z"/>
<path class="st11" d="M1845.9-411.2h-13.3v-27.7c0.3,0,0.2-0.1,0.8,0.1L1845.9-411.2z"/>
<path class="st6" d="M1792.6-356.8c-1.5,0-2.8-1.2-2.8-2.8v-20.7c0-1.5,1.2-2.8,2.8-2.8s2.8,1.2,2.8,2.8v20.7
	C1795.3-358,1794.1-356.8,1792.6-356.8z"/>
<path class="st12" d="M1879.4-367.2v3.4c0,3.8-3.1,7-7,7c-4.1,0-54.9,0-59.3,0c-0.7,0-1.4-0.3-2-0.8l-23.8-23.8
	c-2.7-2.7-2.7-7.1,0-9.9c2.4-2.4,3.9-4.4,7.3-4.4c1.9,0,3.6,0.7,4.9,2l19.1,19.1c0.3,0.3,0.6,0.4,1,0.4h52.7
	C1876.3-374.1,1879.4-371,1879.4-367.2L1879.4-367.2z"/>
<path class="st13" d="M1879.4-367.2v3.4c0,3.8-3.1,7-7,7h-40v-17.3h40C1876.3-374.1,1879.4-371,1879.4-367.2z"/>
<path class="st6" d="M1879.4-359.6v11.8c0,1.5-1.2,2.8-2.8,2.8s-2.8-1.2-2.8-2.8v-9h-83v9c0,1.5-1.2,2.8-2.8,2.8s-2.8-1.2-2.8-2.8
	v-11.8c0-1.5,1.2-2.8,2.8-2.8h88.5C1878.2-362.3,1879.4-361.1,1879.4-359.6z"/>
<path class="st7" d="M1879.4-359.6v11.8c0,1.5-1.2,2.8-2.8,2.8s-2.8-1.2-2.8-2.8v-9h-41.5v-5.5h44.3
	C1878.2-362.3,1879.4-361.1,1879.4-359.6z"/>
<g>
	<path id="oversized-wine-glass-2_1_" class="st0" d="M441.6,276.8V251c12.2-1.4,20.8-11.6,20.8-23.2c0-4.4-1.2-9.8-3.3-15.1
		c-0.4-1.1-1.5-1.9-2.8-1.9h-34.5c-1.2,0-2.3,0.7-2.8,1.9c-1.9,4.8-3.4,10.4-3.3,15.6l0,0c0,0,0,0,0,0c0.2,11.5,8.8,21.4,20.8,22.7
		v25.8c-7.9,0.6-14,4.2-14,5.9c0,2,7.4,3.5,16.5,3.5c9.1,0,16.5-1.6,16.5-3.5C455.6,281,449.5,277.5,441.6,276.8z M423.3,215.8h31.6
		c1.6,4.3,2.5,8.6,2.5,12c0,0.8-0.1,1.6-0.2,2.4c-1.6-0.4-3.2-0.4-5,0.2c-4.6,1.6-7.5,2.7-12.2,0.8c-4.6-1.8-7.5-10.1-13.1-9.4
		c-2.2,0.2-4.1,1-5.8,2C421.6,221.3,422.3,218.6,423.3,215.8z"/>
</g>
<g>
	<g id="cutlery_1_">
		<path class="st14" d="M182.8,99.3c-0.1,0-0.2,0.3-0.2,0.4c0,0.1,0,0.2,0.1,0.2c0.1,0,0.1,0.1,0.1,0.1l-0.1,0.9c0,0,0,0.1,0,0.1
			c0,0,0.1,0,0.1,0c0,0,0.1,0,0.1,0c0,0,0-0.1,0-0.1l-0.1-0.9c0-0.1,0-0.1,0.1-0.1c0.1,0,0.1-0.1,0.1-0.2
			C183,99.6,182.9,99.3,182.8,99.3z"/>
		<path class="st14" d="M183.7,99.3C183.6,99.3,183.6,99.4,183.7,99.3l0,0.4c0,0,0,0,0,0s0,0,0,0L183.7,99.3c-0.1,0-0.1,0-0.1,0h0
			c0,0,0,0,0,0v0.4c0,0,0,0,0,0c0,0,0,0,0,0v-0.4c0,0,0,0,0,0h0c0,0,0,0,0,0v0.4c0,0,0,0,0,0s0,0,0,0v-0.4c0,0,0,0,0,0c0,0,0,0,0,0
			c0,0.1,0,0.4,0,0.4c0,0.1,0,0.2,0.1,0.2c0.1,0,0.1,0.1,0.1,0.1l-0.1,0.9c0,0,0,0.1,0,0.1c0,0,0.1,0,0.1,0c0,0,0.1,0,0.1,0
			c0,0,0-0.1,0-0.1l-0.1-0.9c0-0.1,0-0.1,0.1-0.1c0.1,0,0.1-0.1,0.1-0.2C183.7,99.8,183.7,99.5,183.7,99.3
			C183.7,99.4,183.7,99.3,183.7,99.3z"/>
		<path class="st14" d="M184.2,100.2C184.2,100.2,184.2,100.2,184.2,100.2l0-0.9c0,0,0,0,0,0c0,0,0,0,0,0l-0.1,0.5
			c0,0.1,0,0.3,0.1,0.4C184.1,100.2,184.1,100.2,184.2,100.2l-0.2,0.9c0,0,0,0.1,0,0.1c0,0,0.1,0,0.1,0c0,0,0.1,0,0.1,0
			c0,0,0-0.1,0-0.1L184.2,100.2z"/>
	</g>
</g>
<g>
	<g>
		<path class="st0" d="M768,440.3c5.6,0,10.8-2,14.7-5.4c-2.2-2.6-3.8-5.5-4.9-8.7c-2.4,2.7-5.9,4.4-9.9,4.4
			c-7.3,0-13.4-5.9-13.4-13.2c0-7.3,6.1-13.2,13.4-13.2c7.4,0,13.2,6,13.2,13.2c0,12.5,10.2,22.9,22.9,22.9c12.6,0,23-10.3,23-22.9
			c0-12.6-10.4-22.9-23-22.9c-5.6,0-10.8,2-14.7,5.4c2.2,2.6,3.8,5.5,4.9,8.7c2.4-2.7,5.9-4.4,9.9-4.4c7.3,0,13.4,5.9,13.4,13.2
			c0,7.3-6.1,13.2-13.4,13.2c-7.4,0-13.2-6-13.2-13.2c0-12.5-10.2-22.9-22.9-22.9c-12.6,0-23,10.3-23,22.9
			C745,430.1,755.4,440.3,768,440.3z"/>
	</g>
</g>
<g>
	<g>
		<g>
			<circle class="st0" cx="613.9" cy="419" r="62.6"/>
		</g>
	</g>
	<g>
		<g id="Page-1_3_">
			<g id="_x30_27---Web-Connections_3_">
				<path id="Shape_3_" class="st1" d="M659.8,461.7c-7.3-0.1-14.5-1-21.6-2.9c0.1-0.5,0.1-1,0.2-1.6c0-3.3-1.5-6.5-4.1-8.6
					c4.2-10.8,6.4-22.4,6.4-34c0-4-0.3-7.9-0.8-11.9c3.3-1.2,5.9-3.8,6.9-7.2c10.4,2.9,20.3,7.7,29,14.1
					C678.7,428.5,672.8,447.7,659.8,461.7L659.8,461.7z M606.3,481.4c-5.9-0.7-11.6-2.2-17.1-4.5c-0.1-1.2-0.1-2.5-0.1-4
					c0-8.4,1.2-16.7,3.5-24.7c0.3,0,0.6,0.1,1,0.1c2.9,0,5.8-1.2,7.8-3.2c4.6,3.8,9.6,7.1,14.8,9.9c-0.9,4.1,0.6,8.2,3.8,10.9
					C616.1,471.5,611.5,476.8,606.3,481.4z M569,403.4c0-3.7,3-6.7,6.7-6.7c3.7,0,6.7,3,6.7,6.7s-3,6.7-6.7,6.7
					C572,410.2,569,407.2,569,403.4z M571.2,373.1c11.6-10.7,26.8-16.7,42.5-16.7c0.3,0,0.6,0,0.9,0c6.7,7.8,12,16.7,15.6,26.3
					c-2,1.2-3.5,3-4.4,5.1c-1,0-2.1-0.1-3.1-0.1c-13.3,0-26.5,2.8-38.7,8.3c-2.6-3-6.6-4.4-10.5-3.6
					C572.1,386.1,571.3,379.6,571.2,373.1z M674.5,403.3c-8.3-5.5-17.5-9.7-27.2-12.2c-0.1-0.6-0.2-1.3-0.4-1.9
					c6.1-2.3,12.5-4,19-4.9C669.8,390.1,672.7,396.5,674.5,403.3z M642.9,392.2c0,3.7-3,6.7-6.7,6.7c-3.7,0-6.7-3-6.7-6.7
					s3-6.7,6.7-6.7C639.9,385.5,642.9,388.5,642.9,392.2z M636.2,414.6c0,10.9-2,21.7-5.9,31.9c-1-0.3-2.1-0.5-3.1-0.5
					c-3.7,0-7.1,1.8-9.2,4.8c-5-2.7-9.7-5.9-14.1-9.5c1.9-4.5,0.6-9.6-3.1-12.7c6.6-11.6,15.8-21.6,26.7-29.3c1.9,2.4,4.8,3.8,7.8,4
					C635.9,407.1,636.2,410.9,636.2,414.6L636.2,414.6z M586.9,403.4c0-1.2-0.2-2.3-0.6-3.4c11.5-5.1,23.9-7.8,36.4-7.8
					c0.8,0,1.5,0,2.2,0.1c0,1,0.2,2.1,0.5,3.1c-11.7,8.1-21.5,18.7-28.5,31.1c-2.4-0.8-4.9-0.8-7.2,0.2c-3.2-4.2-6.1-8.7-8.6-13.4
					C584.7,411.2,586.9,407.5,586.9,403.4L586.9,403.4z M593.6,430.3c3.7,0,6.7,3,6.7,6.7s-3,6.7-6.7,6.7c-3.7,0-6.7-3-6.7-6.7
					S589.9,430.3,593.6,430.3z M620.5,457.2c0-3.7,3-6.7,6.7-6.7c3.7,0,6.7,3,6.7,6.7c0,0.8-0.2,1.6-0.4,2.3v0
					c-1.1,3-4.3,4.8-7.5,4.3S620.5,460.5,620.5,457.2L620.5,457.2z M662.9,380.2c-6.2,1-12.3,2.7-18.1,5c-2.1-2.6-5.3-4.1-8.6-4.1
					c-0.6,0-1.1,0.1-1.7,0.2c-3.3-8.8-8-17-13.7-24.4C637.4,358.7,652.5,367.1,662.9,380.2z M566.9,377.5c0.3,5.6,1.2,11.2,2.5,16.7
					c-4.3,2.9-6,8.4-4.1,13.2c-5.2,4-9.9,8.5-14.2,13.5c0-0.6,0-1.2,0-1.8C551,403.8,556.7,389,566.9,377.5L566.9,377.5z
					 M551.6,427.4c4.6-6,10-11.5,16.1-16.2c2.1,2.2,5,3.4,8,3.4c0.4,0,0.8-0.1,1.2-0.1c2.6,5.1,5.6,9.9,9.1,14.4
					c-2.6,2.5-3.9,6-3.4,9.6c0.5,3.6,2.6,6.7,5.8,8.3c-2.4,8.5-3.7,17.2-3.7,26c0,0.6,0,1.2,0,1.8
					C566.6,465.2,554.3,447.6,551.6,427.4L551.6,427.4z M612.4,481.8c4.3-4.2,8.2-8.9,11.7-13.9c1,0.3,2.1,0.5,3.1,0.5
					c3.9,0,7.5-2.1,9.5-5.4c6.1,1.6,12.4,2.6,18.7,3c-11.5,10.2-26.3,15.9-41.6,15.9C613.3,481.9,612.9,481.8,612.4,481.8
					L612.4,481.8z"/>
			</g>
		</g>
	</g>
</g>
<g>
	<g>
		<g>
			<path class="st0" d="M628.1,216.1c-0.3-0.4-0.8-0.6-1.3-0.6h-39.4c-0.5,0-1,0.2-1.3,0.6c-0.3,0.4-0.5,0.9-0.5,1.4l5.4,53.7
				c0.1,0.9,0.9,1.6,1.8,1.6h28.7c0.9,0,1.7-0.7,1.8-1.6l5.4-53.7C628.6,216.9,628.5,216.4,628.1,216.1z M623.3,233.7
				c-4.6,1.5-10.5,2.2-15.1-1.7c-5.8-4.8-13-4-17.8-2.5l-1-10.4h35.4L623.3,233.7z"/>
		</g>
	</g>
</g>
<g>
	<g>
		<g>
			<path class="st0" d="M77.6,272v-24.5c10.2-0.8,18.3-9.3,18.3-19.7c0-4.3-2.3-11.5-4-16.7l-0.7-2.1c-0.2-0.6-0.8-1.1-1.5-1.1H62.6
				c-0.6,0-1.2,0.4-1.4,1c-1.5,3.9-4.9,13.5-4.9,18.8c0,10.4,8.1,19,18.3,19.7V272c-7.6,0.3-15.2,2.9-15.2,7.6
				c0,0.8,0.7,1.5,1.5,1.5h30.5c0.8,0,1.5-0.7,1.5-1.5C92.9,274.9,85.3,272.3,77.6,272z M59.4,229.3c0-0.5-0.1-1-0.1-1.5
				c0-3.7,2.2-10.9,4.3-16.8h25l0.3,1c1.5,4.7,3.8,11.9,3.8,15.8c0,0.5,0,1-0.1,1.5H59.4L59.4,229.3z"/>
		</g>
	</g>
</g>
<g>
	<g>
		<circle class="st4" cx="268.5" cy="244.2" r="62.6"/>
	</g>
</g>
<g>
	<g>
		<g>
			<path class="st0" d="M270.7,272v-24.5c10.2-0.8,18.3-9.3,18.3-19.7c0-4.3-2.3-11.5-4-16.7l-0.7-2.1c-0.2-0.6-0.8-1.1-1.5-1.1
				h-27.2c-0.6,0-1.2,0.4-1.4,1c-1.5,3.9-4.9,13.5-4.9,18.8c0,10.4,8.1,19,18.3,19.7V272c-7.6,0.3-15.2,2.9-15.2,7.6
				c0,0.8,0.7,1.5,1.5,1.5h30.5c0.8,0,1.5-0.7,1.5-1.5C285.9,274.9,278.3,272.3,270.7,272z M252.4,229.3c0-0.5-0.1-1-0.1-1.5
				c0-3.7,2.2-10.9,4.3-16.8h25l0.3,1c1.5,4.7,3.8,11.9,3.8,15.8c0,0.5,0,1-0.1,1.5H252.4L252.4,229.3z"/>
		</g>
	</g>
</g>
<ellipse class="st15" cx="419.3" cy="-376.7" rx="44.1" ry="45.2"/>
<ellipse class="st16" cx="514.4" cy="-374.8" rx="44.1" ry="45.2"/>
<ellipse class="st17" cx="609.8" cy="-374.7" rx="44.1" ry="45.2"/>
<ellipse class="st2" cx="704.9" cy="-372.8" rx="44.1" ry="45.2"/>
<ellipse class="st18" cx="803.4" cy="-375" rx="44.1" ry="45.2"/>
<rect x="378.1" y="-316.1" style="fill:none;" width="86.6" height="23.2"/>
<text transform="matrix(1 0 0 1 401.1905 -307.5919)" class="st15" style="font-family:'MyriadPro-Regular'; font-size:12px;">#fea7b7</text>
<rect x="473.7" y="-315.9" style="fill:none;" width="86.6" height="23.2"/>
<text transform="matrix(1 0 0 1 498.2363 -307.4003)" class="st16" style="font-family:'MyriadPro-Regular'; font-size:12px;">#ff4869</text>
<rect x="565.9" y="-315.8" style="fill:none;" width="86.6" height="23.2"/>
<text transform="matrix(1 0 0 1 588.7421 -307.3162)" class="st17" style="font-family:'MyriadPro-Regular'; font-size:12px;">#859bf9</text>
<rect x="665.5" y="-316.1" style="fill:none;" width="86.6" height="23.2"/>
<text transform="matrix(1 0 0 1 689.97 -307.5353)" class="st2" style="font-family:'MyriadPro-Regular'; font-size:12px;">#002ff2</text>
<rect x="760.5" y="-315.8" style="fill:none;" width="86.6" height="23.2"/>
<text transform="matrix(1 0 0 1 786.7289 -307.3072)" style="fill:#DADFEF; font-family:'MyriadPro-Regular'; font-size:12px;">#f0f2fc</text>
<g>
	<g>
		<g>
			<circle class="st0" cx="74.4" cy="-102" r="11.8"/>
			<path class="st0" d="M121.5-103.5c-0.9-0.9-21.3-22.4-47.1-22.4c-25.8,0-46.3,21.5-47.1,22.4c-0.8,0.8-0.8,2.1,0,3
				c0.9,0.9,21.3,22.4,47.1,22.4c25.8,0,46.3-21.5,47.1-22.4C122.3-101.3,122.3-102.6,121.5-103.5z M74.4-83.8
				c-10,0-18.2-8.1-18.2-18.2c0-10,8.1-18.2,18.2-18.2c10,0,18.2,8.1,18.2,18.2C92.6-92,84.4-83.8,74.4-83.8z M60-119.1
				c-4.9,4.1-8.1,10.2-8.1,17.1c0,6.9,3.2,13,8.1,17.2C46.4-89.2,35.7-98.4,31.9-102C35.7-105.6,46.4-114.8,60-119.1z M88.8-84.8
				c4.9-4.1,8.1-10.2,8.1-17.1s-3.2-13-8.1-17.1c13.6,4.4,24.2,13.5,28,17.1C113-98.4,102.4-89.2,88.8-84.8z"/>
		</g>
	</g>
</g>
<g>
	<g>
		<circle class="st2" cx="271.1" cy="-101" r="62.6"/>
	</g>
</g>
<g>
	<g>
		<g>
			<circle class="st0" cx="269.9" cy="-102" r="11.8"/>
			<path class="st0" d="M317-103.5c-0.9-0.9-21.3-22.4-47.1-22.4c-25.8,0-46.3,21.5-47.1,22.4c-0.8,0.8-0.8,2.1,0,3
				c0.9,0.9,21.3,22.4,47.1,22.4c25.8,0,46.3-21.5,47.1-22.4C317.8-101.3,317.8-102.6,317-103.5z M269.9-83.8
				c-10,0-18.2-8.1-18.2-18.2c0-10,8.1-18.2,18.2-18.2c10,0,18.2,8.1,18.2,18.2C288.1-92,279.9-83.8,269.9-83.8z M255.5-119.1
				c-4.9,4.1-8.1,10.2-8.1,17.1c0,6.9,3.2,13,8.1,17.2c-13.6-4.4-24.2-13.6-28.1-17.2C231.3-105.6,241.9-114.8,255.5-119.1z
				 M284.3-84.8c4.9-4.1,8.1-10.2,8.1-17.1s-3.2-13-8.1-17.1c13.6,4.4,24.2,13.5,28,17.1C308.5-98.4,297.9-89.2,284.3-84.8z"/>
		</g>
	</g>
</g>
<g>
	<circle class="st1" cx="445.5" cy="422.6" r="65.3"/>
</g>
<g>
	<g>
		<path class="st0" d="M481,389.3c-3.4-3.4-8-5.3-12.9-5.4s-9.4,1.9-12.8,5.3l-15.5,15.5c0,0,0,0,0,0.1c3.2-0.4,7-0.1,7.4,0.2
			c1.6,0.2,3.4,0.8,4.1,1.2l10.5-10.5c3.5-3.4,9.4-3.4,12.8,0c3.5,3.5,3.5,9.3,0,12.8l-15.5,15.5c-2.9,2.9-7.3,3.2-9.8,1.9
			c-0.7,0-2.6-1.4-3.1-1.9c-1.5-1.4-3.8-1.7-5.6-0.7c-0.2,0.1-0.5,0.3-0.9,0.7l-2.8,2.8c0.8,1.3,1.7,2.5,2.8,3.6
			c1.1,1.1,2.3,2,3.6,2.8c4.4,2.6,9.8,3.1,13.9,1.9c3.1-0.8,5.9-2.4,8.1-4.7l15.5-15.5c3.4-3.4,5.3-8,5.3-12.8
			C486.4,397.3,484.5,392.7,481,389.3L481,389.3z M444.5,438.6L434,449.2c-3.5,3.4-9.4,3.4-12.8,0c-3.5-3.5-3.5-9.3,0-12.8
			l15.5-15.5c3.6-3.6,9.2-3.4,12.8,0c1.8,1.7,4.7,1.7,6.4,0l2.8-2.8c-0.8-1.3-1.7-2.6-2.8-3.6c-3.6-3.6-8.2-5.2-11-5.2
			c-3.1-0.9-10.2,0.6-14.7,5.1l-15.5,15.5c-3.4,3.4-5.3,8-5.3,12.8c0,4.9,1.9,9.4,5.4,12.9c3.4,3.4,8,5.3,12.9,5.4
			c4.9,0,9.4-1.9,12.8-5.3l15.5-15.5C455.3,440.1,448.9,440.9,444.5,438.6z"/>
	</g>
</g>
<g>
	<g id="cutlery_2_">
		<path class="st0" d="M415.9,31.5c-3.6,0-8.3,9.6-8.3,16.9c0,4.8,1.6,7.4,4,8.6c1.9,1,3.1,3.1,2.9,5.2l-3.5,35.4
			c-0.1,1.4,0.3,2.7,1.2,3.7c0.9,1,2.2,1.6,3.6,1.6c1.4,0,2.7-0.6,3.6-1.6c0.9-1,1.4-2.4,1.2-3.7l-3.5-35.4
			c-0.2-2.2,0.9-4.2,2.9-5.2c2.4-1.2,4-3.8,4-8.6C424.2,41,419.6,31.5,415.9,31.5z"/>
		<path class="st0" d="M447.6,31.5c-0.7,0-1.2,0.5-1.2,1.2v14.6c0,0.7-0.5,1.2-1.2,1.2c-0.7,0-1.2-0.5-1.2-1.2V32.6
			c0-0.7-0.5-1.2-1.2-1.2h0c-0.7,0-1.2,0.5-1.2,1.2v14.6c0,0.7-0.5,1.2-1.2,1.2c-0.7,0-1.2-0.5-1.2-1.2V32.6c0-0.7-0.5-1.2-1.2-1.2
			h0c-0.7,0-1.2,0.5-1.2,1.2v14.6c0,0.7-0.5,1.2-1.2,1.2c-0.7,0-1.2-0.5-1.2-1.2V32.6c0-0.7-0.5-1.2-1.2-1.2c-0.6,0-1.1,0.5-1.1,1.1
			c0,3.7,0,15.3,0,15.7c0,4.8,1.6,7.4,4,8.6c1.9,1,3.1,3.1,2.9,5.2l-3.5,35.4c-0.1,1.4,0.3,2.7,1.2,3.7c0.9,1,2.2,1.6,3.6,1.6
			c1.4,0,2.7-0.6,3.6-1.6c0.9-1,1.4-2.4,1.2-3.7l-3.5-35.4c-0.2-2.2,0.9-4.2,2.9-5.2c2.4-1.2,4-3.8,4-8.6c0-0.5,0-12,0-15.7
			C448.7,32,448.2,31.5,447.6,31.5z"/>
		<path class="st0" d="M466.9,65.2c0.4,0,0.8-0.4,0.8-0.8V32.9c0-0.8-0.6-1.4-1.4-1.4c-0.7,0-1.3,0.5-1.5,1.1l-4.9,17.2
			c-1.4,5-0.6,10.4,2.4,14.8c0.3,0.4,0.8,0.7,1.3,0.7l-3.2,32.4c-0.1,1.4,0.3,2.7,1.2,3.7c0.9,1,2.2,1.6,3.6,1.6
			c1.4,0,2.7-0.6,3.6-1.6c0.9-1,1.4-2.4,1.2-3.7L466.9,65.2z"/>
	</g>
</g>
<g>
	<g>
		<path class="st0" d="M785.8,213.7c0-4.1,0-22.4,0-22.4h-3H781h-3c0,0,0,18.3,0,22.4c0,4.1-7.6,9-7.6,14.8c0,5.8,0,47.6,0,49.1
			c0,1.5,1,3.9,3.2,3.9c1.5,0,5.2,0,7.4,0c1.1,0,1.8,0,1.8,0c2.2,0,5.9,0,7.4,0c2.2,0,3.2-2.5,3.2-3.9s0-43.3,0-49.1
			C793.5,222.7,785.8,217.8,785.8,213.7z"/>
	</g>
</g>
<g>
	<g>
		<circle class="st19" cx="273.4" cy="594" r="62.6"/>
	</g>
</g>
<g>
	<g>
		<circle class="st19" cx="74.2" cy="601.8" r="62.6"/>
	</g>
</g>
<g>
	<g>
		<circle class="st19" cx="616.8" cy="588.8" r="62.6"/>
	</g>
</g>
<g>
	<g>
		<g>
			<path class="st0" d="M310.9,579l-0.1-0.3c0,0,0-0.1,0-0.1l-5.3-12.8v-6.3h-64.7v6.3l-5.2,12.8c0,0.1,0,0.1,0,0.2l0,0.3
				c-0.1,0.5-0.1,0.9-0.1,1.4c0,3.4,1.9,6.4,4.7,7.9v35.7h66.1v-35.7c2.8-1.5,4.7-4.5,4.7-7.9C311,580,310.9,579.5,310.9,579z
				 M307.3,578.4h-11.6l-1.4-9.3h9.1L307.3,578.4z M244,562.7h58.4v3.1H244V562.7z M293,581.6l0.2,1.1l-0.9,1.2
				c-1.1,1.5-2.8,2.3-4.7,2.3c-1.9,0-3.6-0.9-4.7-2.3l-0.9-1.3l-0.1-1.1H293z M281.8,578.4l-0.5-9.3h9.9l1.4,9.3H281.8z
				 M278.8,581.6L278.8,581.6l0.1,1.1l-0.9,1.2c-1.1,1.5-2.8,2.3-4.7,2.3c-1.9,0-3.6-0.9-4.7-2.3l-1-1.3l0.1-1.1L278.8,581.6
				L278.8,581.6z M267.8,578.4l0.5-9.3h9.9l0.5,9.3H267.8z M253.9,578.4l1.4-9.3h9.9l-0.5,9.3H253.9z M264.5,581.6l-0.1,1.2
				l-0.9,1.2c-1.1,1.5-2.8,2.3-4.7,2.3s-3.6-0.9-4.7-2.3l-0.9-1.2l0.2-1.2H264.5z M242.9,569.1h9.2l-1.4,9.3h-11.6L242.9,569.1z
				 M238.7,581.6h11.5l-0.2,1.2l-0.9,1.2c-1.1,1.5-2.8,2.3-4.7,2.3C241.6,586.3,239.2,584.3,238.7,581.6z M296.8,620.9h-12.6v-11
				h1.6c0.9,0,1.6-0.7,1.6-1.6c0-0.9-0.7-1.6-1.6-1.6h-1.6v-11h12.6V620.9z M303.1,620.9L303.1,620.9H300v-28.3h-18.9v28.3h-37.8
				v-31.5c0.4,0,0.7,0.1,1.1,0.1c2.9,0,5.6-1.4,7.2-3.6c1.6,2.2,4.3,3.6,7.2,3.6s5.6-1.4,7.2-3.6c1.6,2.2,4.3,3.6,7.2,3.6
				s5.6-1.4,7.2-3.6c1.6,2.2,4.3,3.6,7.2,3.6s5.6-1.4,7.2-3.6c1.6,2.2,4.3,3.6,7.2,3.6c0.4,0,0.8,0,1.1-0.1V620.9L303.1,620.9z
				 M302,586.3c-1.9,0-3.6-0.9-4.7-2.3l-0.9-1.2l-0.2-1.2h11.5C307.2,584.3,304.8,586.3,302,586.3z"/>
		</g>
	</g>
	<g>
		<g>
			<path class="st0" d="M246.5,592.6v22h31.5v-22H246.5z M274.8,611.5h-25.2v-15.7h25.2V611.5z"/>
		</g>
	</g>
</g>
<g>
	<path class="st0" d="M105,634.7l-4.6-51.1c-0.1-1.4-1.3-2.5-2.7-2.5h-9.5v-4.3c0-7.9-6.5-14.4-14.4-14.4c-7.9,0-14.4,6.5-14.4,14.4
		v4.3H50c-1.4,0-2.6,1.1-2.7,2.5l-4.6,51.3c-0.1,0.8,0.2,1.5,0.7,2.1c0.5,0.6,1.2,0.9,2,0.9h57c0,0,0,0,0,0c1.5,0,2.7-1.2,2.7-2.7
		C105.1,635,105.1,634.9,105,634.7z M64.9,576.9c0-5,4-9,9-9c5,0,9,4,9,9v4.3h-18V576.9z M48.4,632.5l4.1-45.9h7v4.8
		c0,1.5,1.2,2.7,2.7,2.7s2.7-1.2,2.7-2.7v-4.8h18v4.8c0,1.5,1.2,2.7,2.7,2.7s2.7-1.2,2.7-2.7v-4.8h7l4.1,45.9H48.4L48.4,632.5z"/>
</g>
<g>
	<g>
		<circle class="st19" cx="441.7" cy="590.6" r="62.6"/>
	</g>
</g>
<g>
	<path class="st0" d="M472.5,623.4l-4.6-51.1c-0.1-1.4-1.3-2.5-2.7-2.5h-9.5v-4.3c0-7.9-6.5-14.4-14.4-14.4
		c-7.9,0-14.4,6.5-14.4,14.4v4.3h-9.5c-1.4,0-2.6,1.1-2.7,2.5l-4.6,51.3c-0.1,0.8,0.2,1.5,0.7,2.1c0.5,0.6,1.2,0.9,2,0.9h57
		c0,0,0,0,0,0c1.5,0,2.7-1.2,2.7-2.7C472.5,623.7,472.5,623.6,472.5,623.4z M432.3,565.6c0-5,4-9,9-9c5,0,9,4,9,9v4.3h-18V565.6z
		 M415.8,621.2l4.1-45.9h7v4.8c0,1.5,1.2,2.7,2.7,2.7s2.7-1.2,2.7-2.7v-4.8h18v4.8c0,1.5,1.2,2.7,2.7,2.7c1.5,0,2.7-1.2,2.7-2.7
		v-4.8h7l4.1,45.9H415.8L415.8,621.2z"/>
</g>
<g>
	<path class="st0" d="M599.9,604.7L599.9,604.7C599.9,604.7,599.9,604.7,599.9,604.7l41.3,0c1,0,1.9-0.7,2.2-1.7l9.1-31.9
		c0.2-0.7,0.1-1.4-0.4-2c-0.4-0.6-1.1-0.9-1.8-0.9h-55.7l-1.6-7.3c-0.2-1-1.2-1.8-2.2-1.8h-13.7c-1.3,0-2.3,1-2.3,2.3
		c0,1.3,1,2.3,2.3,2.3H589c0.3,1.3,7.8,35.1,8.2,37c-2.4,1.1-4.1,3.5-4.1,6.3c0,3.8,3.1,6.8,6.8,6.8h41.3c1.3,0,2.3-1,2.3-2.3
		s-1-2.3-2.3-2.3h-41.3c-1.3,0-2.3-1-2.3-2.3C597.6,605.7,598.7,604.7,599.9,604.7z M647.3,572.8l-7.8,27.3h-37.8l-6.1-27.3H647.3z"
		/>
	<path class="st0" d="M597.6,620.6c0,3.8,3.1,6.8,6.8,6.8s6.8-3.1,6.8-6.8s-3.1-6.8-6.8-6.8S597.6,616.9,597.6,620.6z M604.5,618.4
		c1.3,0,2.3,1,2.3,2.3s-1,2.3-2.3,2.3s-2.3-1-2.3-2.3S603.2,618.4,604.5,618.4z"/>
	<path class="st0" d="M629.8,620.6c0,3.8,3.1,6.8,6.8,6.8s6.8-3.1,6.8-6.8s-3.1-6.8-6.8-6.8S629.8,616.9,629.8,620.6z M636.7,618.4
		c1.3,0,2.3,1,2.3,2.3s-1,2.3-2.3,2.3s-2.3-1-2.3-2.3S635.4,618.4,636.7,618.4z"/>
</g>
<g>
	<g>
		<path class="st0" d="M979.7,242.2c-1.1-1.4-2.7-2.2-4.5-2.2H970v-4h-39.7V248c0,6.7,3.4,12.6,8.5,16.2h-8.5v3.5H970v-3.5h-8.5
			c1.8-1.2,3.4-2.8,4.7-4.5h3.8c4.5,0,8.4-3.1,9.5-7.4l1.3-5.1C981.2,245.4,980.8,243.6,979.7,242.2L979.7,242.2z M950.3,264.2H950
			c-8.9,0-16.2-7.3-16.2-16.2v-8.4h32.7v8.4C966.5,256.9,959.2,264.2,950.3,264.2L950.3,264.2z M977.4,246.3l-1.3,5.1
			c-0.7,2.8-3.2,4.8-6.1,4.8h-1.8c1.1-2.5,1.8-5.3,1.8-8.2v-4.4h5.3c0.7,0,1.3,0.3,1.7,0.8C977.4,244.9,977.5,245.6,977.4,246.3
			L977.4,246.3z"/>
		<path class="st0" d="M950.1,221.7c-3.2,0-5.8,2.6-5.8,5.8v4h3.5v-4c0-1.3,1-2.3,2.3-2.3h16.1c7.6,0,13.8-6.2,13.8-13.8v-3.5h-3.5
			v3.5c0,5.7-4.6,10.3-10.3,10.3H950.1z"/>
		<path class="st0" d="M939.8,228c0-5.7,4.6-10.3,10.3-10.3h16.1c3.2,0,5.8-2.6,5.8-5.8v-4h-3.5v4c0,1.3-1,2.3-2.3,2.3h-16.1
			c-7.6,0-13.8,6.2-13.8,13.8v3.5h3.5V228z"/>
	</g>
</g>
<g>
	<g>
		<path class="st0" d="M624.3,62.4c4.5,2.4,13.3,1.7,19.9-5c6.6-6.6,9.1-16.2,2.9-22.7l0,0c0,0-0.1-0.1-0.2-0.2c0,0,0,0,0,0
			c-6.4-6.2-16.1-3.7-22.7,2.9c-6.6,6.7-7.4,15.4-5,19.9c-0.6,3.7-5.7,7.8-10.3,10.4c-3.5-2.2-8-6-8.4-13.8c0.3-3.1-0.7-6.3-3-8.7
			c-0.2-0.2-0.8-0.7-0.8-0.7l-17.2-13.4l-1.6,1.6l18.7,17.5l-2,2l-18.1-18.1l-1.7,1.7L592.8,54l-1.7,1.7L573,37.6l-1.5,1.5l18,18
			l-2.1,2.1l-17.5-18.5l-1.7,1.7l14.3,18c0,0,0.3,0.3,0.5,0.5c2.1,1.8,4.7,2.7,7.3,2.6c0,0,0,0,0.1,0c6.8,0.1,11,4.2,13.7,7.8
			c-6.5,6.5-26.6,26.6-26.6,26.6l0,0c0,0,0,0-0.1,0.1c-1.6,1.6-1.6,4.3,0,5.9c0.1,0.1,0.4,0.4,0.5,0.5c1.6,1.6,4.3,1.6,5.9,0
			c0,0,0,0,0.1-0.1l0,0c0,0,18.7-18.7,25.8-25.8c6.8,6.8,25.7,25.7,25.7,25.7l0,0c0,0,0,0,0,0.1c1.6,1.6,4.2,1.6,5.8,0
			c1.6-1.6,1.6-4.2,0-5.8c0,0,0,0-0.1-0.1l0,0c0,0-20.8-20.8-26.6-26.6C617.1,67.4,620.8,63,624.3,62.4z"/>
	</g>
</g>
<g>
	<g id="cutlery-6_1_">
		<path class="st0" d="M41.1,49.6c-0.5,0-1,0.4-1,1v11.9c0,0.5-0.4,1-1,1c-0.5,0-1-0.4-1-1V50.6c0-0.5-0.4-1-1-1h0c-0.5,0-1,0.4-1,1
			v11.9c0,0.5-0.4,1-1,1c-0.5,0-1-0.4-1-1V50.6c0-0.5-0.4-1-1-1h0c-0.5,0-1,0.4-1,1v11.9c0,0.5-0.4,1-1,1c-0.5,0-1-0.4-1-1V50.6
			c0-0.5-0.4-1-1-1c-0.5,0-0.9,0.4-0.9,0.9c0,3,0,12.5,0,12.9c0,3.9,1.3,6.1,3.3,7.1c1.6,0.8,2.5,2.5,2.3,4.3l-2.8,28.9
			c-0.1,1.1,0.3,2.2,1,3.1c0.8,0.8,1.8,1.3,2.9,1.3c1.1,0,2.2-0.5,2.9-1.3c0.8-0.8,1.1-1.9,1-3.1l-2.8-28.9
			c-0.2-1.8,0.8-3.5,2.3-4.3c2-1,3.3-3.1,3.3-7.1c0-0.4,0-9.8,0-12.9C42,50,41.6,49.6,41.1,49.6z"/>
		<path class="st0" d="M116.4,77.2c0.4,0,0.7-0.3,0.7-0.7V50.8c0-0.6-0.5-1.2-1.2-1.2c-0.6,0-1,0.4-1.2,0.9l-4,14.1
			c-1.2,4.1-0.5,8.5,2,12.1c0.2,0.3,0.6,0.5,1,0.5l-2.6,26.5c-0.1,1.1,0.3,2.2,1,3.1c0.8,0.8,1.8,1.3,2.9,1.3s2.2-0.5,2.9-1.3
			c0.8-0.8,1.1-1.9,1-3.1L116.4,77.2z"/>
		<path class="st0" d="M75.2,48.6c-16.7,0-30.2,13.5-30.2,30.2c0,16.7,13.5,30.2,30.2,30.2c16.7,0,30.2-13.5,30.2-30.2
			C105.4,62.1,91.9,48.6,75.2,48.6z M75.2,100.3c-11.9,0-21.5-9.7-21.5-21.5s9.7-21.5,21.5-21.5c11.9,0,21.5,9.7,21.5,21.5
			S87.1,100.3,75.2,100.3z"/>
		<path class="st0" d="M75.2,60.3c-10.2,0-18.5,8.3-18.5,18.5c0,10.2,8.3,18.5,18.5,18.5c10.2,0,18.5-8.3,18.5-18.5
			C93.7,68.6,85.4,60.3,75.2,60.3z"/>
	</g>
</g>
<g>
	<g>
		<circle class="st3" cx="784.3" cy="63" r="62.6"/>
	</g>
</g>
<g>
	<g id="cutlery-6_2_">
		<path class="st0" d="M751.3,37.3c-0.5,0-1,0.4-1,1v11.9c0,0.5-0.4,1-1,1c-0.5,0-1-0.4-1-1V38.3c0-0.5-0.4-1-1-1h0
			c-0.5,0-1,0.4-1,1v11.9c0,0.5-0.4,1-1,1c-0.5,0-1-0.4-1-1V38.3c0-0.5-0.4-1-1-1h0c-0.5,0-1,0.4-1,1v11.9c0,0.5-0.4,1-1,1
			c-0.5,0-1-0.4-1-1V38.3c0-0.5-0.4-1-1-1c-0.5,0-0.9,0.4-0.9,0.9c0,3,0,12.5,0,12.9c0,3.9,1.3,6.1,3.3,7.1c1.6,0.8,2.5,2.5,2.3,4.3
			l-2.8,28.9c-0.1,1.1,0.3,2.2,1,3.1c0.8,0.8,1.8,1.3,2.9,1.3c1.1,0,2.2-0.5,2.9-1.3c0.8-0.8,1.1-1.9,1-3.1l-2.8-28.9
			c-0.2-1.8,0.8-3.5,2.3-4.3c2-1,3.3-3.1,3.3-7.1c0-0.4,0-9.8,0-12.9C752.2,37.7,751.8,37.3,751.3,37.3z"/>
		<path class="st0" d="M826.7,64.9c0.4,0,0.7-0.3,0.7-0.7V38.5c0-0.6-0.5-1.2-1.2-1.2c-0.6,0-1,0.4-1.2,0.9l-4,14.1
			c-1.2,4.1-0.5,8.5,2,12.1c0.2,0.3,0.6,0.5,1,0.5l-2.6,26.5c-0.1,1.1,0.3,2.2,1,3.1c0.8,0.8,1.8,1.3,2.9,1.3s2.2-0.5,2.9-1.3
			c0.8-0.8,1.1-1.9,1-3.1L826.7,64.9z"/>
		<path class="st0" d="M785.5,36.3c-16.7,0-30.2,13.5-30.2,30.2c0,16.7,13.5,30.2,30.2,30.2c16.7,0,30.2-13.5,30.2-30.2
			C815.6,49.8,802.1,36.3,785.5,36.3z M785.5,88c-11.9,0-21.5-9.7-21.5-21.5S773.6,45,785.5,45c11.9,0,21.5,9.7,21.5,21.5
			S797.3,88,785.5,88z"/>
		<path class="st0" d="M785.5,48c-10.2,0-18.5,8.3-18.5,18.5c0,10.2,8.3,18.5,18.5,18.5c10.2,0,18.5-8.3,18.5-18.5
			C804,56.3,795.7,48,785.5,48z"/>
	</g>
</g>
<g>
	<g>
		<path class="st0" d="M465-106.1c-7.3-6.2-16.2-11.1-25.8-11.1c-9.5,0-18.5,4.9-25.8,11.1c-6.4,5.4-10.3,10.7-10.5,11
			c-0.5,0.8-0.5,1.8,0,2.5c0.2,0.2,4.1,5.6,10.5,11c7.3,6.2,16.2,11.1,25.8,11.1c9.5,0,18.5-4.9,25.8-11.1
			c6.4-5.4,10.3-10.7,10.5-11c0.5-0.8,0.5-1.8,0-2.5C475.3-95.4,471.4-100.7,465-106.1z M462.2-84.9c-5.4,4.6-13.8,10-22.9,10
			s-17.5-5.5-22.9-10c-4.2-3.6-7.3-7.2-8.8-9c1.5-1.8,4.6-5.5,8.8-9c5.4-4.6,13.8-10,22.9-10s17.5,5.5,22.9,10
			c4.2,3.6,7.3,7.2,8.8,9C469.5-92.1,466.4-88.4,462.2-84.9z"/>
		<path class="st0" d="M439.3-106.5c-6.9,0-12.5,5.6-12.5,12.5c0,6.9,5.6,12.5,12.5,12.5s12.5-5.6,12.5-12.5
			C451.8-100.8,446.2-106.5,439.3-106.5z M439.3-85.6c-4.6,0-8.3-3.7-8.3-8.3s3.7-8.3,8.3-8.3s8.3,3.7,8.3,8.3
			S443.8-85.6,439.3-85.6z"/>
		<path class="st0" d="M439.3-121.5c1.2,0,2.1-1,2.1-2.1v-18c0-1.2-1-2.1-2.1-2.1s-2.1,1-2.1,2.1v18
			C437.1-122.5,438.1-121.5,439.3-121.5z"/>
		<path class="st0" d="M422.2-120.8c0.5,1.1,1.8,1.5,2.9,0.9c1.1-0.5,1.5-1.8,0.9-2.9l-8.3-16c-0.5-1.1-1.8-1.5-2.9-0.9
			c-1.1,0.5-1.5,1.8-0.9,2.9L422.2-120.8z"/>
		<path class="st0" d="M453.4-119.9c1.1,0.5,2.3,0.1,2.9-0.9l8.3-16c0.5-1.1,0.1-2.3-0.9-2.9c-1.1-0.5-2.3-0.1-2.9,0.9l-8.3,16
			C452-121.7,452.4-120.4,453.4-119.9L453.4-119.9z"/>
	</g>
</g>
<g>
	<g>
		<path class="st0" d="M298.9,101.4L298.9,101.4c0,0-17.7-18-19.5-19.8c-1.1-0.3-7.4-3.1-7.5-8.3c2.7-3.1,6.6-6.1,12.4-6.1
			c0,0,0,0,0.1,0c2.6,0.1,5.3-0.8,7.4-2.6c0.1-0.1,0.5-0.5,0.5-0.5l14.5-18.2l-1.7-1.7l-17.7,18.8l-2.1-2.1l18.2-18.2l-1.5-1.5
			l-18.3,18.3l-1.7-1.7l18.3-18.3l-1.7-1.7l-18.3,18.3l-2.1-2.1L297,36.1l-1.6-1.6l-17.4,13.6c0,0-0.6,0.5-0.9,0.8
			c-2.4,2.4-3.4,5.6-3.1,8.8c-0.2,4-1.5,6.9-3.2,9.2C238.3,35,226,38.4,226,38.4l-1,1c0,0,21.9,21.9,35.4,35.5
			c-4.7,4.7-27.6,27.6-27.6,27.6l0,0c0,0,0,0-0.1,0.1c-1.6,1.6-1.6,4.3,0,5.9c1.6,1.6,4.3,1.6,5.9,0c0,0,0-0.1,0-0.1l0,0
			c0,0,22.9-22.9,27.6-27.6c2.5,2.5,4.1,4.1,4.4,4.4c2,2,22.2,22.2,22.2,22.2h0c0,0,0,0,0,0.1c1.6,1.6,4.3,1.6,5.9,0
			C300.6,105.8,300.6,103.1,298.9,101.4C298.9,101.5,298.9,101.5,298.9,101.4z"/>
	</g>
</g>
<g>
	<g>
		<g>
			<circle class="st5" cx="447.8" cy="770" r="62.6"/>
		</g>
	</g>
</g>
<path class="st0" d="M477.6,780h-3.1l-8.9-27.9c-5.5,3.2-10.9,5.3-15.7,3.3c-6.2-2.9-7.9-9.7-8.2-10.6l-11.3-7.4L408.5,768
	l51.6,35.2l32.8-0.2v-7.7C492.8,786.9,486,780,477.6,780L477.6,780z M422.4,757.6c3.1,4.9,7.6,8.8,14.1,12.7
	c10,5.9,10.8,13,10.4,16.8l-30.9-20.3L422.4,757.6z M487.6,797.7h-24.4l-11.6-7.6c2.9-10.8-4.5-20-12.4-24.4
	c-9.1-5.4-12.3-10.6-13.3-12.9l5.9-8.3l5.5,3.6c3.3,9.3,12.5,17,25.2,11.4l1.9,5.8l-6.7,2.2l1.6,5l6.7-2.2l1.8,5.6l-6.1,2l1.6,5
	l6.1-2l1.4,4.3h7c5.5,0,10,4.5,10,10L487.6,797.7L487.6,797.7z"/>
<g>
	<g>
		<g>
			<circle class="st5" cx="614.8" cy="764.8" r="62.6"/>
		</g>
	</g>
</g>
<g>
	<g>
		<path class="st0" d="M574.3,774h19v4.8h-19V774z"/>
		<path class="st0" d="M642.3,769.3h-2.9l-8.2-25.7c-5.1,2.9-10,4.9-14.5,3c-5.7-2.6-7.2-8.9-7.5-9.8l-10.4-6.8l-20.2,28.2
			l41.6,27.4H584v4.8h72.3v-7.1C656.4,775.6,650.1,769.3,642.3,769.3L642.3,769.3z M591.5,748.6c2.9,4.5,7,8.1,12.9,11.7
			c9.2,5.4,10,12,9.5,15.5L585.5,757L591.5,748.6z M651.5,785.6H629l-10.7-7c2.6-10-4.2-18.4-11.5-22.5c-8.4-4.9-11.3-9.7-12.3-11.9
			l5.4-7.6l5,3.3c3,8.6,11.5,15.7,23.2,10.5l1.7,5.4l-6.2,2l1.5,4.6l6.2-2l1.7,5.2l-5.6,1.8l1.5,4.6l5.6-1.8l1.3,3.9h6.4
			c5.1,0,9.2,4.1,9.2,9.2L651.5,785.6L651.5,785.6z"/>
	</g>
</g>
<line class="st20" x1="460.6" y1="698.6" x2="437.9" y2="746.4"/>
<polyline class="st20" points="449.3,722.5 472.3,732.7 460.1,758.1 482.8,710.3 "/>
<path class="st20" d="M438.6,744.5"/>
<g>
	<g>
		<g>
			<circle class="st5" cx="87.4" cy="775.6" r="62.6"/>
		</g>
	</g>
</g>
<line class="st20" x1="100.2" y1="704.1" x2="77.4" y2="751.9"/>
<polyline class="st20" points="88.8,728 111.8,738.2 99.7,763.6 122.4,715.8 "/>
<path class="st20" d="M78.1,750"/>
<g>
	<g>
		<path class="st0" d="M46.3,787.5h19v4.8h-19V787.5z"/>
		<path class="st0" d="M114.3,782.9h-2.9l-8.2-25.7c-5.1,2.9-10,4.9-14.5,3c-5.7-2.6-7.2-8.9-7.5-9.8l-10.4-6.8l-20.2,28.2
			l41.6,27.4H56v4.8h72.3v-7.1C128.3,789.2,122,782.9,114.3,782.9L114.3,782.9z M63.5,762.2c2.9,4.5,7,8.1,12.9,11.7
			c9.2,5.4,10,12,9.5,15.5l-28.5-18.7L63.5,762.2z M123.5,799.2H101l-10.7-7c2.6-10-4.2-18.4-11.5-22.5c-8.4-4.9-11.3-9.7-12.3-11.9
			l5.4-7.6l5,3.3c3,8.6,11.5,15.7,23.2,10.5l1.7,5.4l-6.2,2l1.5,4.6l6.2-2l1.7,5.2l-5.6,1.8l1.5,4.6l5.6-1.8l1.3,3.9h6.4
			c5.1,0,9.2,4.1,9.2,9.2L123.5,799.2L123.5,799.2z"/>
	</g>
</g>
<polygon class="st0" points="86.5,733.2 110.1,743.5 97.3,763 81.1,758.6 77.4,749.7 "/>
<g>
	<g>
		<g>
			<circle class="st5" cx="798.5" cy="766.5" r="62.6"/>
		</g>
	</g>
</g>
<line class="st20" x1="811.3" y1="695" x2="788.5" y2="742.9"/>
<polyline class="st20" points="799.9,719 822.9,729.2 810.8,754.6 833.5,706.8 "/>
<path class="st20" d="M789.2,740.9"/>
<g>
	<g>
		<path class="st0" d="M757.4,778.5h19v4.8h-19V778.5z"/>
		<path class="st0" d="M825.4,773.8h-2.9l-8.2-25.7c-5.1,2.9-10,4.9-14.5,3c-5.7-2.6-7.2-8.9-7.5-9.8l-10.4-6.8l-20.2,28.2
			l41.6,27.4h-36.2v4.8h72.3v-7.1C839.5,780.1,833.1,773.8,825.4,773.8L825.4,773.8z M774.6,753.1c2.9,4.5,7,8.1,12.9,11.7
			c9.2,5.4,10,12,9.5,15.5l-28.5-18.7L774.6,753.1z M834.6,790.1h-22.5l-10.7-7c2.6-10-4.2-18.4-11.5-22.5
			c-8.4-4.9-11.3-9.7-12.3-11.9l5.4-7.6l5,3.3c3,8.6,11.5,15.7,23.2,10.5l1.7,5.4l-6.2,2l1.5,4.6l6.2-2l1.7,5.2l-5.6,1.8l1.5,4.6
			l5.6-1.8l1.3,3.9h6.4c5.1,0,9.2,4.1,9.2,9.2L834.6,790.1L834.6,790.1z"/>
	</g>
</g>
<polygon class="st0" points="797.7,724.2 821.2,734.5 808.4,754 792.2,749.6 788.5,740.7 "/>
</svg>
