<?xml version="1.0" encoding="utf-8"?>
<!-- Generator: Adobe Illustrator 25.0.0, SVG Export Plug-In . SVG Version: 6.00 Build 0)  -->
<svg version="1.1" id="Layer_1" xmlns="http://www.w3.org/2000/svg" xmlns:xlink="http://www.w3.org/1999/xlink" x="0px" y="0px"
	 viewBox="0 0 148.1 150.5" style="enable-background:new 0 0 148.1 150.5;" xml:space="preserve">
<style type="text/css">
	.st0{fill:#FFFFFF;}
	.st1{fill:#4F953B;}
	.st2{fill:#002FF2;}
	.st3{fill:#DA291C;}
	.st4{fill:#E97F02;}
	.st5{fill:#FFCD42;}
	.st6{fill:#704C55;}
	.st7{fill:#5A344B;}
	.st8{fill:#00C6CD;}
	.st9{fill:#A9F0F0;}
	.st10{fill:#00A0AA;}
	.st11{fill:#64DDE0;}
	.st12{fill:#E4F1FB;}
	.st13{fill:#C9E3F7;}
	.st14{fill:#000100;}
	.st15{fill:#FEA7B7;}
	.st16{fill:#FF4869;}
	.st17{fill:#859BF9;}
	.st18{fill:#F0F2FC;}
	.st19{fill:#C8A2C8;}
	.st20{fill:none;stroke:#FFFFFF;stroke-width:5;stroke-miterlimit:10;}
</style>
<g>
	<g>
		<circle class="st0" cx="76.1" cy="71.2" r="65.3"/>
	</g>
	<g>
		<path class="st1" d="M48.6,30.5c5-1,10.2,0.5,13.8,4.2L75,47.3L85.3,37l2.3-2.3c3.6-3.6,8.8-5.2,13.8-4.2l1.3,0.3l11.9-11.9
			c-10.9-8.1-24.4-13-39.1-13c-14.9,0-28.7,5-39.7,13.4l11.5,11.5L48.6,30.5z"/>
		<path class="st1" d="M26.8,51.8c0.4,0.4,0.6,1,0.5,1.5l-0.6,3.5c-0.7,4.4,0.5,8.8,3.4,12.2l16.5,16.6c0.8,0.8,1.8,1.1,2.8,1
			c0.2-2.1,1.3-3.9,3-5.1c-0.2-0.4-0.4-0.7-0.7-1l-9.2-9.2c-0.7-0.7-0.7-1.8,0-2.5c0.7-0.7,1.8-0.7,2.5,0l9.2,9.2
			c0.2,0.2,0.4,0.4,0.6,0.6V58.9c0-3.9,3.1-7,7-7c1.5,0,2.9,0.5,4,1.3c1-2.3,3.2-4,5.8-4.3L59.9,37.2c-2.8-2.8-6.8-4-10.6-3.2
			l-1.6,0.3c-0.9,0.2-1.9-0.1-2.6-0.8l-12-12c-6.6,5.7-12.1,12.6-16,20.5c0.1,0.1,0.2,0.1,0.3,0.2L26.8,51.8z"/>
		<path class="st1" d="M102.4,34.3l-1.6-0.3c-3.9-0.8-7.8,0.4-10.6,3.2l-2.3,2.3l-11,11c1.5,1.3,2.4,3.2,2.4,5.3V57
			c1-0.6,2.2-0.9,3.5-0.9c3.1,0,5.8,2.1,6.7,4.9c1.1-0.7,2.4-1.1,3.8-1.1c3.9,0,7,3.1,7,7v6.8l4.8-4.8c0.7-0.7,1.8-0.7,2.5,0
			c0.7,0.7,0.7,1.8,0,2.5l-7.4,7.4v7.9c1.1,0.2,2.3-0.1,3.2-1L119.1,70c3.4-3.4,5-8.4,4.2-13.2l-0.6-3.5c-0.1-0.6,0.1-1.1,0.5-1.5
			l9.2-9.2c0.4-0.4,1-0.6,1.6-0.5c-4-8.1-9.7-15.3-16.6-21L105,33.6C104.3,34.2,103.3,34.5,102.4,34.3z"/>
		<path class="st1" d="M59.4,126.4l-2.1-1.5c-4.9-3.5-7.8-9.2-7.8-15.2V90.3c-0.1,0-0.2,0-0.2,0c-1.9,0-3.7-0.7-5-2.1L27.4,71.4
			c-0.1-0.1-0.2-0.2-0.2-0.3c-3.4-4.1-4.8-9.5-4-14.8l0.4-2.6l-8.2-8.2c-3.4,7.9-5.3,16.6-5.3,25.7c0,30.5,20.9,56.1,49.2,63.3
			c0-0.1,0-0.2,0-0.3V126.4z"/>
		<path class="st1" d="M88.7,125.4c0-1,0.5-1.8,1.3-2.4l1.4-0.9c3.3-2.2,5.2-5.8,5.2-9.8l0-15.6c0-0.1,0-0.3,0-0.5V66.9
			c0-1.9-1.6-3.5-3.5-3.5c-1.9,0-3.5,1.6-3.5,3.5c0,0,0,0,0,0V83c0,1-0.8,1.8-1.8,1.8c-1,0-1.8-0.8-1.8-1.8V63.1
			c0-1.9-1.6-3.5-3.5-3.5c-1.9,0-3.5,1.6-3.5,3.5V83c0,1-0.8,1.8-1.8,1.8c-1,0-1.8-0.8-1.8-1.8V55.8c0-1.9-1.6-3.5-3.5-3.5
			c-1.9,0-3.5,1.6-3.5,3.5v26.3c0,1-0.8,1.8-1.8,1.8c-1,0-1.8-0.8-1.8-1.8V58.9c0-1.9-1.6-3.5-3.5-3.5c-1.9,0-3.5,1.6-3.5,3.5v21.7
			c3.1,0.8,5.3,3.6,5.3,6.9v13c0,1-0.8,1.8-1.8,1.8c-1,0-1.8-0.8-1.8-1.8v-13c0-2-1.6-3.6-3.6-3.6S53,85.5,53,87.5v22.2
			c0,4.9,2.4,9.5,6.3,12.3l2.9,2.1c0.5,0.3,0.7,0.9,0.7,1.4v8.8c0,0.4-0.1,0.7-0.3,1c4.2,0.8,8.5,1.3,13,1.3c4.6,0,9.1-0.5,13.4-1.4
			c-0.2-0.3-0.3-0.6-0.3-0.9V125.4z"/>
		<path class="st1" d="M140.9,71.2c0-9.5-2-18.4-5.6-26.5c-0.1,0.1-0.2,0.3-0.3,0.4l-8.6,8.6l0.4,2.6c1,5.9-1,12-5.2,16.2
			l-15.7,15.7c-1.4,1.4-3.2,2.1-5,2.1c-0.2,0-0.4,0-0.7,0v6.3v15.8c0,5.1-2.6,9.9-6.8,12.7l-1.1,0.7v8.4c0,0.1,0,0.1,0,0.1
			C120.3,127,140.9,101.5,140.9,71.2z"/>
		<path class="st0" d="M27.4,71.4c-0.1-0.1-0.1-0.2-0.2-0.3C27.3,71.2,27.3,71.3,27.4,71.4z"/>
		<path class="st0" d="M92.3,125.8l1.1-0.7c4.3-2.8,6.8-7.6,6.8-12.7V96.5c0,1-0.8,1.8-1.8,1.8c-1,0-1.8-0.8-1.8-1.8v-0.3
			c0,0.2,0,0.3,0,0.5l0,15.6c0,3.9-2,7.6-5.2,9.8l-1.4,0.9c-0.8,0.5-1.3,1.4-1.3,2.4v8.8c0,0.3,2.5,0.4,3.5,0.1
			C92.3,134.3,92.3,125.8,92.3,125.8z"/>
		<path class="st0" d="M98.4,94.2L98,94.4c-0.8,0-1.3,1-1.4,1.8v0.3c0,1,0.8,1.8,1.8,1.8c1,0,1.8-0.8,1.8-1.8
			C100.2,95.6,99.4,94.2,98.4,94.2z"/>
		<path class="st0" d="M114.6,18.9c1,0.7,1.9,1.5,2.8,2.2L114.6,18.9z"/>
		<path class="st0" d="M101.5,30.5c-5-1-10.2,0.5-13.8,4.2L85.3,37c0.7-0.7,1.6,0.5,2.3,1.2c0.7,0.7,0.9,0.7,0.2,1.4l2.3-2.3
			c2.8-2.8,6.8-4,10.6-3.2l1.6,0.3c0.9,0.2,1.9-0.1,2.6-0.8l12.5-12.5c-0.9-0.8-1.8-1.5-2.8-2.2l-11.9,11.9L101.5,30.5z"/>
		<path class="st0" d="M87.6,38.1c-0.7-0.7-1.6-1.9-2.3-1.2c-0.7,0.7-0.7,1.8,0,2.5c0.3,0.3,0.8,0.5,1.3,0.5c0.5,0,0.9-0.2,1.3-0.5
			C88.6,38.8,88.3,38.8,87.6,38.1z"/>
		<path class="st0" d="M23.2,56.3c-0.9,5.3,0.6,10.7,4,14.8c-0.3-0.5,0.3-0.9,0.9-1.5c0.7-0.7,1.3-1.3,2-0.6
			c-2.9-3.4-4.1-7.8-3.4-12.2l0.6-3.5c0.1-0.6-0.1-1.1-0.5-1.5l-9.5-9.5c-0.1-0.1-0.2-0.2-0.3-0.2c-0.6,1.1-1.1,2.2-1.6,3.4l8.2,8.2
			L23.2,56.3z"/>
		<path class="st0" d="M28.1,69.6c-0.6,0.6-1.2,0.9-0.9,1.5c0.1,0.1,0.1,0.2,0.2,0.3c0.4,0.4,0.9,0.6,1.4,0.6c0.4,0,0.8-0.1,1.1-0.4
			c0.7-0.6,0.8-1.8,0.2-2.5C29.4,68.4,28.8,68.9,28.1,69.6z"/>
	</g>
</g>
<g>
	<g>
		<circle class="st0" cx="274.8" cy="73.4" r="65.3"/>
	</g>
	<g>
		<path class="st1" d="M247.3,32.8c5-1,10.2,0.5,13.8,4.2l12.6,12.6L284,39.2l2.3-2.3c3.6-3.6,8.8-5.2,13.8-4.2l1.3,0.3l11.9-11.9
			c-10.9-8.1-24.4-13-39.1-13c-14.9,0-28.7,5-39.7,13.4L246,33L247.3,32.8z"/>
		<path class="st1" d="M225.5,54c0.4,0.4,0.6,1,0.5,1.5l-0.6,3.5c-0.7,4.4,0.5,8.8,3.4,12.2l16.5,16.6c0.8,0.8,1.8,1.1,2.8,1
			c0.2-2.1,1.3-3.9,3-5.1c-0.2-0.4-0.4-0.7-0.7-1l-9.2-9.2c-0.7-0.7-0.7-1.8,0-2.5c0.7-0.7,1.8-0.7,2.5,0l9.2,9.2
			c0.2,0.2,0.4,0.4,0.6,0.6V61.1c0-3.9,3.1-7,7-7c1.5,0,2.9,0.5,4,1.3c1-2.3,3.2-4,5.8-4.3l-11.6-11.6c-2.8-2.8-6.8-4-10.6-3.2
			l-1.6,0.3c-0.9,0.2-1.9-0.1-2.6-0.8l-12-12c-6.6,5.7-12.1,12.6-16,20.5c0.1,0.1,0.2,0.1,0.3,0.2L225.5,54z"/>
		<path class="st1" d="M301,36.6l-1.6-0.3c-3.9-0.8-7.8,0.4-10.6,3.2l-2.3,2.3l-11,11c1.5,1.3,2.4,3.2,2.4,5.3v1.2
			c1-0.6,2.2-0.9,3.5-0.9c3.1,0,5.8,2.1,6.7,4.9c1.1-0.7,2.4-1.1,3.8-1.1c3.9,0,7,3.1,7,7V76l4.8-4.8c0.7-0.7,1.8-0.7,2.5,0
			c0.7,0.7,0.7,1.8,0,2.5l-7.4,7.4v7.9c1.1,0.2,2.3-0.1,3.2-1l15.7-15.7c3.4-3.4,5-8.4,4.2-13.2l-0.6-3.5c-0.1-0.6,0.1-1.1,0.5-1.5
			l9.2-9.2c0.4-0.4,1-0.6,1.6-0.5c-4-8.1-9.7-15.3-16.6-21l-12.5,12.5C302.9,36.5,302,36.8,301,36.6z"/>
		<path class="st1" d="M258,128.6l-2.1-1.5c-4.9-3.5-7.8-9.2-7.8-15.2V92.5c-0.1,0-0.2,0-0.2,0c-1.9,0-3.7-0.7-5-2.1l-16.7-16.8
			c-0.1-0.1-0.2-0.2-0.2-0.3c-3.4-4.1-4.8-9.5-4-14.8l0.4-2.6l-8.2-8.2c-3.4,7.9-5.3,16.6-5.3,25.7c0,30.5,20.9,56.1,49.2,63.3
			c0-0.1,0-0.2,0-0.3V128.6z"/>
		<path class="st1" d="M287.4,127.7c0-1,0.5-1.8,1.3-2.4l1.4-0.9c3.3-2.2,5.2-5.8,5.2-9.8l0-15.6c0-0.1,0-0.3,0-0.5V69.2
			c0-1.9-1.6-3.5-3.5-3.5c-1.9,0-3.5,1.6-3.5,3.5c0,0,0,0,0,0v16.1c0,1-0.8,1.8-1.8,1.8c-1,0-1.8-0.8-1.8-1.8V65.4
			c0-1.9-1.6-3.5-3.5-3.5c-1.9,0-3.5,1.6-3.5,3.5v19.9c0,1-0.8,1.8-1.8,1.8c-1,0-1.8-0.8-1.8-1.8V58c0-1.9-1.6-3.5-3.5-3.5
			c-1.9,0-3.5,1.6-3.5,3.5v26.3c0,1-0.8,1.8-1.8,1.8c-1,0-1.8-0.8-1.8-1.8V61.1c0-1.9-1.6-3.5-3.5-3.5c-1.9,0-3.5,1.6-3.5,3.5v21.7
			c3.1,0.8,5.3,3.6,5.3,6.9v13c0,1-0.8,1.8-1.8,1.8s-1.8-0.8-1.8-1.8v-13c0-2-1.6-3.6-3.6-3.6s-3.6,1.6-3.6,3.6v22.2
			c0,4.9,2.4,9.5,6.3,12.3l2.9,2.1c0.5,0.3,0.7,0.9,0.7,1.4v8.8c0,0.4-0.1,0.7-0.3,1c4.2,0.8,8.5,1.3,13,1.3c4.6,0,9.1-0.5,13.4-1.4
			c-0.2-0.3-0.3-0.6-0.3-0.9V127.7z"/>
		<path class="st1" d="M339.6,73.5c0-9.5-2-18.4-5.6-26.5c-0.1,0.1-0.2,0.3-0.3,0.4l-8.6,8.6l0.4,2.6c1,5.9-1,12-5.2,16.2
			l-15.7,15.7c-1.4,1.4-3.2,2.1-5,2.1c-0.2,0-0.4,0-0.7,0v6.3v15.8c0,5.1-2.6,9.9-6.8,12.7l-1.1,0.7v8.4c0,0.1,0,0.1,0,0.1
			C318.9,129.3,339.6,103.8,339.6,73.5z"/>
		<path class="st0" d="M226.1,73.6c-0.1-0.1-0.1-0.2-0.2-0.3C225.9,73.4,226,73.5,226.1,73.6z"/>
		<path class="st0" d="M291,128.1l1.1-0.7c4.3-2.8,6.8-7.6,6.8-12.7V98.8c0,1-0.8,1.8-1.8,1.8c-1,0-1.8-0.8-1.8-1.8v-0.3
			c0,0.2,0,0.3,0,0.5l0,15.6c0,3.9-2,7.6-5.2,9.8l-1.4,0.9c-0.8,0.5-1.3,1.4-1.3,2.4v8.8c0,0.3,2.5,0.4,3.5,0.1
			C290.9,136.6,291,128.1,291,128.1z"/>
		<path class="st0" d="M297,96.5l-0.4,0.2c-0.8,0-1.3,1-1.4,1.8v0.3c0,1,0.8,1.8,1.8,1.8c1,0,1.8-0.8,1.8-1.8
			C298.9,97.8,298,96.5,297,96.5z"/>
		<path class="st0" d="M313.3,21.1c1,0.7,1.9,1.5,2.8,2.2L313.3,21.1z"/>
		<path class="st0" d="M300.1,32.8c-5-1-10.2,0.5-13.8,4.2l-2.3,2.3c0.7-0.7,1.6,0.5,2.3,1.2c0.7,0.7,0.9,0.7,0.2,1.4l2.3-2.3
			c2.8-2.8,6.8-4,10.6-3.2l1.6,0.3c0.9,0.2,1.9-0.1,2.6-0.8l12.5-12.5c-0.9-0.8-1.8-1.5-2.8-2.2L301.4,33L300.1,32.8z"/>
		<path class="st0" d="M286.3,40.4c-0.7-0.7-1.6-1.9-2.3-1.2c-0.7,0.7-0.7,1.8,0,2.5c0.3,0.3,0.8,0.5,1.3,0.5c0.5,0,0.9-0.2,1.3-0.5
			C287.2,41,287,41.1,286.3,40.4z"/>
		<path class="st0" d="M221.9,58.5c-0.9,5.3,0.6,10.7,4,14.8c-0.3-0.5,0.3-0.9,0.9-1.5c0.7-0.7,1.3-1.3,2-0.6
			c-2.9-3.4-4.1-7.8-3.4-12.2l0.6-3.5c0.1-0.6-0.1-1.1-0.5-1.5l-9.5-9.5c-0.1-0.1-0.2-0.2-0.3-0.2c-0.6,1.1-1.1,2.2-1.6,3.4l8.2,8.2
			L221.9,58.5z"/>
		<path class="st0" d="M226.8,71.9c-0.6,0.6-1.2,0.9-0.9,1.5c0.1,0.1,0.1,0.2,0.2,0.3c0.4,0.4,0.9,0.6,1.4,0.6
			c0.4,0,0.8-0.1,1.1-0.4c0.7-0.6,0.8-1.8,0.2-2.5C228.1,70.6,227.5,71.2,226.8,71.9z"/>
	</g>
</g>
<g>
	<g>
		<circle class="st2" cx="436.6" cy="-449.5" r="62.6"/>
	</g>
</g>
<g>
	<g>
		<circle class="st3" cx="71.3" cy="-269.8" r="62.6"/>
	</g>
</g>
<g>
	<g>
		<circle class="st3" cx="606.4" cy="-280.3" r="62.6"/>
	</g>
</g>
<g>
	<g>
		<circle class="st4" cx="949.2" cy="-106" r="62.6"/>
	</g>
</g>
<g>
	<g>
		<circle class="st4" cx="779.2" cy="-106" r="62.6"/>
	</g>
</g>
<g>
	<g>
		<circle class="st1" cx="786.2" cy="72.4" r="62.6"/>
	</g>
</g>
<g>
	<g>
		<circle class="st4" cx="72.8" cy="-100.9" r="62.6"/>
	</g>
</g>
<g>
	<g>
		<circle class="st4" cx="435.8" cy="-100.9" r="62.6"/>
	</g>
</g>
<g>
	<g>
		<circle class="st4" cx="604.1" cy="-104.3" r="62.6"/>
	</g>
</g>
<g>
	<g>
		<circle class="st2" cx="72.8" cy="-446" r="62.6"/>
	</g>
</g>
<g>
	<g>
		<circle class="st3" cx="436.9" cy="-276.9" r="62.6"/>
	</g>
</g>
<g>
	<g>
		<g>
			<circle class="st5" cx="275" cy="425" r="62.6"/>
		</g>
	</g>
	<path id="Subtraction_1" class="st0" d="M282.4,362.8c0,0,1.9,0.3,2.6,0.4c0.7,0.1,2.5,0.5,2.5,0.5l-14.3,13.4l15.6,14.6l21.3-18.5
		c0,0,0.9,0.6,1.2,0.8c0.3,0.2,1.3,1,1.3,1l-40,34.9c1.6,2.9,2.9,5.8,3.9,8.9h6.4v3.1h-5.3c0.2,0.7,0.5,1.4,0.7,2v0l0.4,1.1h5.7v3.1
		h-4.6c0.4,1.2,0.8,2.2,1.2,3.1h5v3.1h-3.7c0.6,1.4,1.1,2.1,1.4,2.2c0.6,0.2,2.6,0.7,5.2,1.2c5.2,1.1,12.3,2.5,14.2,3.9
		c2.5,1.8,4.8,8,5.3,9.2h1.2c0,0,4.1,3,4.1,5.3c0,1.4-0.4,2.8-1,4.1H271l0,0l-46-46.8l2.2-2.2l7.7-7.9l0.2,0.2l1,1.1l15.5-14.4
		l2,2.1L282.4,362.8z M271,379.3l-2.5,2.5l15.3,14.3l0,0l2.6-2.3L271,379.3z M251.2,394.8l-12.9,12l38.4,43.9h26.6h0l0,0h1.8
		c-0.5-2.3-1.6-4.3-3.3-5.9c-1.7-1.4-7.6-2.6-12.8-3.7c-2.7-0.5-5.4-1.1-8-2c-0.6-0.3-1.5-1.9-2.7-4.8H272v-3.1h5.1
		c-0.3-0.9-0.7-1.9-1.1-3.1h-5.5V425h4.5c-0.4-1-0.7-2.1-1.1-3.1h-4.9v-3.1h3.8c-1.5-4-2.4-6-3-6.5c-0.9-0.8-2.9-0.9-4.7-0.9
		c-0.7,0-1.5,0-2.3,0h0c-0.8,0-1.5,0-2.3,0c-1.7,0.2-3.4-0.1-5-0.9C253.4,408.9,251.7,398.1,251.2,394.8L251.2,394.8z"/>
</g>
<path id="Subtraction_1-2" class="st2" d="M1473.7-948.1c-22.1,0-40,18-40,40.1c0,22.1,18,40,40.1,40s40-18,40-40.1
	c0-2.7-0.3-5.3-0.8-7.9C1509.1-934.7,1492.7-948.1,1473.7-948.1z M1443.4-921.6l14.4,19.2h11.9v-1.6h22v1.6h14.1v2h-2.5v5.5h-2v-5.5
	h-9.6v2.1l-1.4,0.1v1.2h-1v-1.1l-2,0.2v1.9h-1v-1.8l-2,0.2v1.6h-1v-1.5l-2,0.2v1.3h-1v-1.2l-2,0.2v1h-1v-0.9l-2,0.2v1.7h-1v-1.6
	l-2,0.2v1.4h-1v-1.3l-1.6,0.2v-4.4h-8.4v5.5h-2v-5.5h-2.5l0,0v0h0v0l-15-20L1443.4-921.6z"/>
<path id="Union_122" class="st2" d="M1295.8-867c-20.4-8.6-30-32.1-21.4-52.6c8.6-20.4,32.1-30,52.6-21.4
	c20.4,8.6,30,32.1,21.4,52.6c-6.3,14.9-20.8,24.6-37,24.6h-0.1C1306-863.9,1300.7-864.9,1295.8-867z M1287.4-875.9h49v-2h-49V-875.9
	z M1291.4-879.9h40v-2h-5.8v-52l0,0c-0.3,0.6-3.3,5.6-6.8,7.7c-1.8,1-3.8,1.5-5.8,1.5c-0.8,0-1.6-0.1-2.4-0.2l0,0
	c-0.5,0.7-3.4,4.3-6.3,5.9c-1.7,0.9-3.6,1.4-5.5,1.4c-0.4,0-0.8,0-1.2-0.1v35.9h-6.1V-879.9z M1303.3-888.1L1303.3-888.1l0-21h2
	v20.2c0.1,0.9,0.4,2.3,1.6,2.3c1,0,1.3-1,1.4-1.9v-24.6h2v25c0.1,1.8-1.2,3.3-3,3.4c-0.1,0-0.2,0-0.3,0
	C1305-884.7,1303.4-886.2,1303.3-888.1z M1313.3-890.1L1313.3-890.1l0-27h2v26.2c0.1,0.9,0.4,2.3,1.6,2.3c1,0,1.3-1,1.4-1.9v-29.6h2
	v30c0.1,1.8-1.2,3.3-3,3.4c-0.1,0-0.2,0-0.3,0C1315-886.7,1313.4-888.2,1313.3-890.1z"/>
<path id="Subtraction_2" class="st2" d="M1132.9-948.2c-5.4,0-10.8,1.1-15.8,3.1c-4.8,2-9.2,4.9-12.9,8.6
	c-15.6,15.2-15.9,40.3-0.7,55.9c0.2,0.2,0.4,0.5,0.7,0.7c3.7,3.7,8.1,6.6,12.9,8.6c10.1,4.2,21.5,4.2,31.7,0c4.8-2,9.2-4.9,12.9-8.6
	c15.6-15.2,15.9-40.3,0.7-55.9c-0.2-0.2-0.4-0.5-0.7-0.7c-3.7-3.7-8.1-6.6-12.9-8.6C1143.7-947.2,1138.3-948.2,1132.9-948.2z
	 M1132.5-939.2c8.8,0,16,2.9,16,6.5c0,0.1,0,0.1,0,0.2v0c0.1,2.8,0,5.7-0.4,8.5c-0.6,4.3-2.1,10.3-5.7,14.1
	c-2.1,2.2-4.9,3.6-7.9,3.9v19.8c5.7,0.3,10,2.2,10,4.5c0,2.5-5.2,4.5-11.5,4.5c-6.3,0-11.5-2-11.5-4.5c0-1.1,1.1-2.2,3.1-3.1
	c2.4-0.9,4.9-1.4,7.5-1.4V-906c-3.3-0.2-6.4-1.6-8.6-3.9c-3.8-3.8-5.4-9.8-6.2-14.2c-0.5-2.8-0.7-5.7-0.7-8.6v-0.1
	C1116.5-936.3,1123.6-939.2,1132.5-939.2z M1132.5-937.2c-7.7,0-14,2.5-14,5.5c0,3,6.3,5.5,14,5.5s14-2.5,14-5.5
	C1146.5-934.8,1140.2-937.2,1132.5-937.2L1132.5-937.2z"/>
<path id="Subtraction_1-3" class="st2" d="M1649.9-1127.6c-22.1,0-40,18-40,40.1c0,22.1,18,40,40.1,40s40-18,40-40.1
	c0-2.7-0.3-5.3-0.8-7.9C1685.3-1114.2,1668.9-1127.6,1649.9-1127.6z M1663.9-1117.6L1663.9-1117.6l2,0v61h-2v-19.9
	c-5.5-1.2-9.3-6.2-9.1-11.9C1654.9-1098.4,1663.5-1116.7,1663.9-1117.6L1663.9-1117.6L1663.9-1117.6L1663.9-1117.6z M1633.9-1117.5
	h2c0,0-0.4,2.9-0.7,6.5c-0.2,3.3-0.2,7.8,0.7,10.8c0.4,1.8,1.4,3.4,2.8,4.6c0.6,0.5,1.4,0.8,2.1,0.8h0.1v-22.6h2v22.7h0.1
	c0.6,0,3.5-0.3,5.1-5.4c0.9-3,0.9-7.5,0.7-10.8c-0.2-3.1-0.6-5.7-0.7-6.4c0,0,0,0,0,0h2c0,0.1,1.7,12.8,0,18.5
	c-1,3.3-3.8,5.8-7.2,6.5v36h-2v-36c-3.4-0.7-6.1-3.2-7-6.5C1632.2-1104.7,1633.9-1117.4,1633.9-1117.5L1633.9-1117.5z"/>
<path id="Subtraction_1-4" class="st2" d="M1478.3-1112.2c-22.1,0-40,18-40,40.1c0,22.1,18,40,40.1,40c22.1,0,40-18,40-40.1
	c0-2.7-0.3-5.3-0.8-7.9C1513.8-1098.8,1497.4-1112.2,1478.3-1112.2z M1477.9-1107.2c9.7,0,17.5,9.5,17.5,21.2
	c0,11-7.1,20.3-16.2,21.1l2.1,2.8h-3.4c-1.3,1.2-4.3,4.2-3.8,7.1c0.3,1.9,2,3,3.6,4c1.5,1,3.1,2,3.4,3.7c0.7,3.5-2.7,6.1-2.7,6.1h-3
	c0.9-0.4,1.7-0.9,2.5-1.6c1.1-0.9,2.3-2.4,1.9-4.2c-0.4-1.7-1.9-2.7-3.6-3.9c-1.7-1.2-3.4-2.3-3.8-4.3c-0.5-3,2-6,3.1-7.1h-3l2.3-3
	c-8.4-1.8-14.4-10.5-14.4-20.8C1460.4-1097.7,1468.2-1107.2,1477.9-1107.2L1477.9-1107.2z"/>
<path id="Subtraction_1-5" class="st2" d="M1306.5-1112.9c-22.1,0-40,17.9-40,40c0,22.1,17.9,40,40,40s40-17.9,40-40
	c0-2.7-0.3-5.3-0.8-7.9C1342-1099.5,1325.5-1113,1306.5-1112.9z M1307-1105.9l6.5,19h-1.9l5.3,18.5h-2.8l6.8,18.7h-12.4v6.9h-2v-6.9
	h-14l6.8-18.7h-2.4l5.6-18.5h-1.9L1307-1105.9z"/>
<path id="Subtraction_112" class="st2" d="M1818.1-1041.2c-22.1,0-40-17.9-40-40c0-16.1,9.6-30.6,24.4-36.8
	c20.4-8.6,43.8,0.9,52.4,21.3c8.6,20.4-0.9,43.8-21.3,52.4l0,0C1828.8-1042.3,1823.5-1041.2,1818.1-1041.2z M1794.1-1092.7
	c0.3,6.1,1.3,12.2,3.2,18.1c1.3,4.6,3.7,8.8,6.8,12.4c3.3,3.6,8,5.7,12.9,5.6c0.1,0,0.2,0,0.3,0c4.6,0,9-1.8,12.2-5.1
	c2.3-2.3,4.2-5,5.5-8c2.6-0.2,5.3-0.8,7.7-1.7c3.4-1.4,5.2-3.6,5.1-6.4c-0.1-6.1-6-7.7-8.5-8.1c0.4-2.9,0.5-5.2,0.5-6.3
	c0-0.2,0-0.4,0-0.6c0-2.8-2.4-5.4-6.7-7.4c-5.1-2.1-10.6-3.2-16.2-3c-5.5-0.1-11.1,0.9-16.2,3
	C1796.5-1098.2,1794.1-1095.6,1794.1-1092.7C1794.1-1092.8,1794.1-1092.7,1794.1-1092.7L1794.1-1092.7L1794.1-1092.7z
	 M1836.1-1072.4L1836.1-1072.4l0.2-0.4c1.3-3.5,2.2-7.1,2.7-10.8c1.5,0.4,2.9,1,4.3,1.8c1.7,1.1,2.5,2.5,2.5,4
	C1845.8-1074.1,1839-1072.8,1836.1-1072.4L1836.1-1072.4z M1817-1085.2c-11.1,0-20.1-3.4-20.1-7.6c0-4.2,9-7.6,20.1-7.6
	c11.1,0,20.1,3.4,20.1,7.6C1837.2-1088.6,1828.1-1085.2,1817-1085.2z"/>
<text transform="matrix(1 0 0 1 630.3719 -992.9672)"><tspan x="0" y="0" style="font-family:'MyriadPro-Regular'; font-size:26px;">Go see</tspan><tspan x="0" y="31.2" style="font-family:'MyriadPro-Regular'; font-size:26px;">Go eat</tspan><tspan x="0" y="62.4" style="font-family:'MyriadPro-Regular'; font-size:26px;">Go drink</tspan><tspan x="0" y="93.6" style="font-family:'MyriadPro-Regular'; font-size:26px;">Go attend/join/take part of</tspan><tspan x="0" y="124.8" style="font-family:'MyriadPro-Regular'; font-size:26px;">Go shop</tspan><tspan x="0" y="156" style="font-family:'MyriadPro-Regular'; font-size:26px;">Go do</tspan></text>
<g>
	<g>
		<circle class="st3" cx="268.1" cy="-276.9" r="62.6"/>
	</g>
</g>
<path class="st6" d="M1832.4-725.5v9c0,1.5-1.2,2.8-2.8,2.8s-2.8-1.2-2.8-2.8v-41.3c0-1.5,1.2-2.8,2.8-2.8s2.8,1.2,2.8,2.8v26.7
	V-725.5z"/>
<path class="st7" d="M1832.4-725.5v9c0,1.5-1.2,2.8-2.8,2.8v-46.8c1.5,0,2.8,1.2,2.8,2.8v26.7V-725.5z"/>
<path class="st8" d="M1843.2-756.3h-26.7l12.5-27.5c0.7-0.3,0.6-0.1,0.8-0.1c0.2,0,0.2-0.1,0.8,0.1L1843.2-756.3z"/>
<path class="st9" d="M1829.9-783.9l-13.3,27.7h-25.1c-2.8,0-3.8-3.8-1.4-5.2C1834.4-787,1828.2-783.6,1829.9-783.9z"/>
<path class="st10" d="M1868.2-756.3h-25.1l-13.2-27.7c1,0-2.3-1.7,39.7,22.5C1872-760,1871-756.3,1868.2-756.3z"/>
<path class="st11" d="M1843.2-756.3h-13.3v-27.7c0.3,0,0.2-0.1,0.8,0.1L1843.2-756.3z"/>
<path class="st6" d="M1789.8-701.9c-1.5,0-2.8-1.2-2.8-2.8v-20.7c0-1.5,1.2-2.8,2.8-2.8s2.8,1.2,2.8,2.8v20.7
	C1792.6-703.1,1791.3-701.9,1789.8-701.9z"/>
<path class="st12" d="M1876.7-712.2v3.4c0,3.8-3.1,7-7,7c-4.1,0-54.9,0-59.3,0c-0.7,0-1.4-0.3-2-0.8l-23.8-23.8
	c-2.7-2.7-2.7-7.1,0-9.9c2.4-2.4,3.9-4.4,7.3-4.4c1.9,0,3.6,0.7,4.9,2l19.1,19.1c0.3,0.3,0.6,0.4,1,0.4h52.7
	C1873.6-719.2,1876.7-716.1,1876.7-712.2L1876.7-712.2z"/>
<path class="st13" d="M1876.7-712.2v3.4c0,3.8-3.1,7-7,7h-40v-17.3h40C1873.6-719.2,1876.7-716.1,1876.7-712.2z"/>
<path class="st6" d="M1876.7-704.6v11.8c0,1.5-1.2,2.8-2.8,2.8s-2.8-1.2-2.8-2.8v-9h-83v9c0,1.5-1.2,2.8-2.8,2.8s-2.8-1.2-2.8-2.8
	v-11.8c0-1.5,1.2-2.8,2.8-2.8h88.5C1875.4-707.4,1876.7-706.1,1876.7-704.6z"/>
<path class="st7" d="M1876.7-704.6v11.8c0,1.5-1.2,2.8-2.8,2.8s-2.8-1.2-2.8-2.8v-9h-41.5v-5.5h44.3
	C1875.4-707.4,1876.7-706.1,1876.7-704.6z"/>
<g>
	<path id="oversized-wine-glass-2_1_" class="st0" d="M438.9-68.2V-94c12.2-1.4,20.8-11.6,20.8-23.2c0-4.4-1.2-9.8-3.3-15.1
		c-0.4-1.1-1.5-1.9-2.8-1.9h-34.5c-1.2,0-2.3,0.7-2.8,1.9c-1.9,4.8-3.4,10.4-3.3,15.6l0,0c0,0,0,0,0,0c0.2,11.5,8.8,21.4,20.8,22.7
		v25.8c-7.9,0.6-14,4.2-14,5.9c0,2,7.4,3.5,16.5,3.5c9.1,0,16.5-1.6,16.5-3.5C452.9-64,446.8-67.6,438.9-68.2z M420.5-129.2h31.6
		c1.6,4.3,2.5,8.6,2.5,12c0,0.8-0.1,1.6-0.2,2.4c-1.6-0.4-3.2-0.4-5,0.2c-4.6,1.6-7.5,2.7-12.2,0.8c-4.6-1.8-7.5-10.1-13.1-9.4
		c-2.2,0.2-4.1,1-5.8,2C418.8-123.7,419.5-126.5,420.5-129.2z"/>
</g>
<g>
	<g id="cutlery_1_">
		<path class="st14" d="M180-245.7c-0.1,0-0.2,0.3-0.2,0.4c0,0.1,0,0.2,0.1,0.2c0.1,0,0.1,0.1,0.1,0.1l-0.1,0.9c0,0,0,0.1,0,0.1
			c0,0,0.1,0,0.1,0c0,0,0.1,0,0.1,0c0,0,0-0.1,0-0.1l-0.1-0.9c0-0.1,0-0.1,0.1-0.1c0.1,0,0.1-0.1,0.1-0.2
			C180.3-245.4,180.1-245.7,180-245.7z"/>
		<path class="st14" d="M180.9-245.7C180.9-245.7,180.9-245.7,180.9-245.7l0,0.4c0,0,0,0,0,0s0,0,0,0L180.9-245.7
			c-0.1,0-0.1,0-0.1,0h0c0,0,0,0,0,0v0.4c0,0,0,0,0,0c0,0,0,0,0,0v-0.4c0,0,0,0,0,0h0c0,0,0,0,0,0v0.4c0,0,0,0,0,0s0,0,0,0v-0.4
			c0,0,0,0,0,0c0,0,0,0,0,0c0,0.1,0,0.4,0,0.4c0,0.1,0,0.2,0.1,0.2c0.1,0,0.1,0.1,0.1,0.1l-0.1,0.9c0,0,0,0.1,0,0.1c0,0,0.1,0,0.1,0
			s0.1,0,0.1,0c0,0,0-0.1,0-0.1l-0.1-0.9c0-0.1,0-0.1,0.1-0.1c0.1,0,0.1-0.1,0.1-0.2C180.9-245.3,180.9-245.6,180.9-245.7
			C180.9-245.7,180.9-245.7,180.9-245.7z"/>
		<path class="st14" d="M181.4-244.8C181.4-244.8,181.4-244.8,181.4-244.8l0-0.9c0,0,0,0,0,0c0,0,0,0,0,0l-0.1,0.5
			c0,0.1,0,0.3,0.1,0.4C181.3-244.8,181.3-244.8,181.4-244.8l-0.2,0.9c0,0,0,0.1,0,0.1c0,0,0.1,0,0.1,0c0,0,0.1,0,0.1,0
			c0,0,0-0.1,0-0.1L181.4-244.8z"/>
	</g>
</g>
<g>
	<g>
		<path class="st0" d="M765.3,95.3c5.6,0,10.8-2,14.7-5.4c-2.2-2.6-3.8-5.5-4.9-8.7c-2.4,2.7-5.9,4.4-9.9,4.4
			c-7.3,0-13.4-5.9-13.4-13.2s6.1-13.2,13.4-13.2c7.4,0,13.2,6,13.2,13.2c0,12.5,10.2,22.9,22.9,22.9c12.6,0,23-10.3,23-22.9
			s-10.4-22.9-23-22.9c-5.6,0-10.8,2-14.7,5.4c2.2,2.6,3.8,5.5,4.9,8.7c2.4-2.7,5.9-4.4,9.9-4.4c7.3,0,13.4,5.9,13.4,13.2
			c0,7.3-6.1,13.2-13.4,13.2c-7.4,0-13.2-6-13.2-13.2c0-12.5-10.2-22.9-22.9-22.9c-12.6,0-23,10.3-23,22.9S752.6,95.3,765.3,95.3z"
			/>
	</g>
</g>
<g>
	<g>
		<g>
			<circle class="st0" cx="611.2" cy="74" r="62.6"/>
		</g>
	</g>
	<g>
		<g id="Page-1_3_">
			<g id="_x30_27---Web-Connections_3_">
				<path id="Shape_3_" class="st1" d="M657.1,116.6c-7.3-0.1-14.5-1-21.6-2.9c0.1-0.5,0.1-1,0.2-1.6c0-3.3-1.5-6.5-4.1-8.6
					c4.2-10.8,6.4-22.4,6.4-34c0-4-0.3-7.9-0.8-11.9c3.3-1.2,5.9-3.8,6.9-7.2c10.4,2.9,20.3,7.7,29,14.1
					C675.9,83.5,670,102.6,657.1,116.6L657.1,116.6z M603.5,136.4c-5.9-0.7-11.6-2.2-17.1-4.5c-0.1-1.2-0.1-2.5-0.1-4
					c0-8.4,1.2-16.7,3.5-24.7c0.3,0,0.6,0.1,1,0.1c2.9,0,5.8-1.2,7.8-3.2c4.6,3.8,9.6,7.1,14.8,9.9c-0.9,4.1,0.6,8.2,3.8,10.9
					C613.4,126.5,608.7,131.7,603.5,136.4z M566.2,58.4c0-3.7,3-6.7,6.7-6.7c3.7,0,6.7,3,6.7,6.7s-3,6.7-6.7,6.7
					C569.2,65.1,566.2,62.1,566.2,58.4z M568.5,28C580,17.3,595.2,11.3,611,11.3c0.3,0,0.6,0,0.9,0c6.7,7.8,12,16.7,15.6,26.3
					c-2,1.2-3.5,3-4.4,5.1c-1,0-2.1-0.1-3.1-0.1c-13.3,0-26.5,2.8-38.7,8.3c-2.6-3-6.6-4.4-10.5-3.6C569.3,41.1,568.5,34.6,568.5,28
					z M671.7,58.2c-8.3-5.5-17.5-9.7-27.2-12.2c-0.1-0.6-0.2-1.3-0.4-1.9c6.1-2.3,12.5-4,19-4.9C667,45,670,51.5,671.7,58.2z
					 M640.1,47.2c0,3.7-3,6.7-6.7,6.7s-6.7-3-6.7-6.7s3-6.7,6.7-6.7S640.1,43.5,640.1,47.2z M633.4,69.6c0,10.9-2,21.7-5.9,31.9
					c-1-0.3-2.1-0.5-3.1-0.5c-3.7,0-7.1,1.8-9.2,4.8c-5-2.7-9.7-5.9-14.1-9.5c1.9-4.5,0.6-9.6-3.1-12.7
					c6.6-11.6,15.8-21.6,26.7-29.3c1.9,2.4,4.8,3.8,7.8,4C633.2,62.1,633.4,65.8,633.4,69.6L633.4,69.6z M584.1,58.4
					c0-1.2-0.2-2.3-0.6-3.4c11.5-5.1,23.9-7.8,36.4-7.8c0.8,0,1.5,0,2.2,0.1c0,1,0.2,2.1,0.5,3.1C611,58.4,601.3,69,594.2,81.4
					c-2.4-0.8-4.9-0.8-7.2,0.2c-3.2-4.2-6.1-8.7-8.6-13.4C581.9,66.1,584.1,62.4,584.1,58.4L584.1,58.4z M590.9,85.3
					c3.7,0,6.7,3,6.7,6.7c0,3.7-3,6.7-6.7,6.7c-3.7,0-6.7-3-6.7-6.7C584.1,88.3,587.1,85.3,590.9,85.3z M617.7,112.2
					c0-3.7,3-6.7,6.7-6.7c3.7,0,6.7,3,6.7,6.7c0,0.8-0.2,1.6-0.4,2.3v0c-1.1,3-4.3,4.8-7.5,4.3C620.1,118.2,617.7,115.4,617.7,112.2
					L617.7,112.2z M660.2,35.1c-6.2,1-12.3,2.7-18.1,5c-2.1-2.6-5.3-4.1-8.6-4.1c-0.6,0-1.1,0.1-1.7,0.2c-3.3-8.8-8-17-13.7-24.4
					C634.6,13.6,649.8,22,660.2,35.1z M564.1,32.4c0.3,5.6,1.2,11.2,2.5,16.7c-4.3,2.9-6,8.4-4.1,13.2c-5.2,4-9.9,8.5-14.2,13.5
					c0-0.6,0-1.2,0-1.8C548.3,58.7,553.9,43.9,564.1,32.4L564.1,32.4z M548.8,82.4c4.6-6,10-11.5,16.1-16.2c2.1,2.2,5,3.4,8,3.4
					c0.4,0,0.8-0.1,1.2-0.1c2.6,5.1,5.6,9.9,9.1,14.4c-2.6,2.5-3.9,6-3.4,9.6c0.5,3.6,2.6,6.7,5.8,8.3c-2.4,8.5-3.7,17.2-3.7,26
					c0,0.6,0,1.2,0,1.8C563.9,120.2,551.6,102.5,548.8,82.4L548.8,82.4z M609.7,136.8c4.3-4.2,8.2-8.9,11.7-13.9
					c1,0.3,2.1,0.5,3.1,0.5c3.9,0,7.5-2.1,9.5-5.4c6.1,1.6,12.4,2.6,18.7,3c-11.5,10.2-26.3,15.9-41.6,15.9
					C610.6,136.8,610.1,136.8,609.7,136.8L609.7,136.8z"/>
			</g>
		</g>
	</g>
</g>
<g>
	<g>
		<g>
			<path class="st0" d="M625.4-129c-0.3-0.4-0.8-0.6-1.3-0.6h-39.4c-0.5,0-1,0.2-1.3,0.6c-0.3,0.4-0.5,0.9-0.5,1.4l5.4,53.7
				c0.1,0.9,0.9,1.6,1.8,1.6h28.7c0.9,0,1.7-0.7,1.8-1.6l5.4-53.7C625.9-128.1,625.7-128.6,625.4-129z M620.6-111.4
				c-4.6,1.5-10.5,2.2-15.1-1.7c-5.8-4.8-13-4-17.8-2.5l-1-10.4H622L620.6-111.4z"/>
		</g>
	</g>
</g>
<g>
	<g>
		<g>
			<path class="st0" d="M74.9-73.1v-24.5c10.2-0.8,18.3-9.3,18.3-19.7c0-4.3-2.3-11.5-4-16.7l-0.7-2.1c-0.2-0.6-0.8-1.1-1.5-1.1
				H59.9c-0.6,0-1.2,0.4-1.4,1c-1.5,3.9-4.9,13.5-4.9,18.8c0,10.4,8.1,19,18.3,19.7v24.5c-7.6,0.3-15.2,2.9-15.2,7.6
				c0,0.8,0.7,1.5,1.5,1.5h30.5c0.8,0,1.5-0.7,1.5-1.5C90.1-70.1,82.5-72.8,74.9-73.1z M56.7-115.8c0-0.5-0.1-1-0.1-1.5
				c0-3.7,2.2-10.9,4.3-16.8h25l0.3,1c1.5,4.7,3.8,11.9,3.8,15.8c0,0.5,0,1-0.1,1.5L56.7-115.8L56.7-115.8z"/>
		</g>
	</g>
</g>
<g>
	<g>
		<circle class="st4" cx="265.8" cy="-100.9" r="62.6"/>
	</g>
</g>
<g>
	<g>
		<g>
			<path class="st0" d="M267.9-73.1v-24.5c10.2-0.8,18.3-9.3,18.3-19.7c0-4.3-2.3-11.5-4-16.7l-0.7-2.1c-0.2-0.6-0.8-1.1-1.5-1.1
				h-27.2c-0.6,0-1.2,0.4-1.4,1c-1.5,3.9-4.9,13.5-4.9,18.8c0,10.4,8.1,19,18.3,19.7v24.5c-7.6,0.3-15.2,2.9-15.2,7.6
				c0,0.8,0.7,1.5,1.5,1.5h30.5c0.8,0,1.5-0.7,1.5-1.5C283.1-70.1,275.5-72.8,267.9-73.1z M249.7-115.8c0-0.5-0.1-1-0.1-1.5
				c0-3.7,2.2-10.9,4.3-16.8h25l0.3,1c1.5,4.7,3.8,11.9,3.8,15.8c0,0.5,0,1-0.1,1.5L249.7-115.8L249.7-115.8z"/>
		</g>
	</g>
</g>
<ellipse class="st15" cx="416.5" cy="-721.8" rx="44.1" ry="45.2"/>
<ellipse class="st16" cx="511.6" cy="-719.9" rx="44.1" ry="45.2"/>
<ellipse class="st17" cx="607" cy="-719.8" rx="44.1" ry="45.2"/>
<ellipse class="st2" cx="702.1" cy="-717.9" rx="44.1" ry="45.2"/>
<ellipse class="st18" cx="800.7" cy="-720.1" rx="44.1" ry="45.2"/>
<rect x="375.4" y="-661.2" style="fill:none;" width="86.6" height="23.2"/>
<text transform="matrix(1 0 0 1 398.4315 -652.6332)" class="st15" style="font-family:'MyriadPro-Regular'; font-size:12px;">#fea7b7</text>
<rect x="471" y="-661" style="fill:none;" width="86.6" height="23.2"/>
<text transform="matrix(1 0 0 1 495.4773 -652.4415)" class="st16" style="font-family:'MyriadPro-Regular'; font-size:12px;">#ff4869</text>
<rect x="563.2" y="-660.9" style="fill:none;" width="86.6" height="23.2"/>
<text transform="matrix(1 0 0 1 585.9832 -652.3575)" class="st17" style="font-family:'MyriadPro-Regular'; font-size:12px;">#859bf9</text>
<rect x="662.7" y="-661.1" style="fill:none;" width="86.6" height="23.2"/>
<text transform="matrix(1 0 0 1 687.2111 -652.5766)" class="st2" style="font-family:'MyriadPro-Regular'; font-size:12px;">#002ff2</text>
<rect x="757.8" y="-660.9" style="fill:none;" width="86.6" height="23.2"/>
<text transform="matrix(1 0 0 1 783.97 -652.3485)" style="fill:#DADFEF; font-family:'MyriadPro-Regular'; font-size:12px;">#f0f2fc</text>
<g>
	<g>
		<g>
			<circle class="st0" cx="71.6" cy="-447" r="11.8"/>
			<path class="st0" d="M118.7-448.5c-0.9-0.9-21.3-22.4-47.1-22.4c-25.8,0-46.3,21.5-47.1,22.4c-0.8,0.8-0.8,2.1,0,3
				c0.9,0.9,21.3,22.4,47.1,22.4c25.8,0,46.3-21.5,47.1-22.4C119.5-446.4,119.5-447.7,118.7-448.5z M71.6-428.9
				c-10,0-18.2-8.1-18.2-18.2c0-10,8.1-18.2,18.2-18.2c10,0,18.2,8.1,18.2,18.2C89.8-437,81.6-428.9,71.6-428.9z M57.2-464.2
				c-4.9,4.1-8.1,10.2-8.1,17.1c0,6.9,3.2,13,8.1,17.2C43.6-434.2,33-443.4,29.2-447C33-450.6,43.6-459.8,57.2-464.2z M86-429.9
				c4.9-4.1,8.1-10.2,8.1-17.1s-3.2-13-8.1-17.1c13.6,4.4,24.2,13.5,28,17.1C110.3-443.4,99.6-434.3,86-429.9z"/>
		</g>
	</g>
</g>
<g>
	<g>
		<circle class="st2" cx="268.3" cy="-446" r="62.6"/>
	</g>
</g>
<g>
	<g>
		<g>
			<circle class="st0" cx="267.1" cy="-447" r="11.8"/>
			<path class="st0" d="M314.3-448.5c-0.9-0.9-21.3-22.4-47.1-22.4c-25.8,0-46.3,21.5-47.1,22.4c-0.8,0.8-0.8,2.1,0,3
				c0.9,0.9,21.3,22.4,47.1,22.4c25.8,0,46.3-21.5,47.1-22.4C315-446.4,315-447.7,314.3-448.5z M267.1-428.9
				c-10,0-18.2-8.1-18.2-18.2c0-10,8.1-18.2,18.2-18.2c10,0,18.2,8.1,18.2,18.2C285.3-437,277.1-428.9,267.1-428.9z M252.7-464.2
				c-4.9,4.1-8.1,10.2-8.1,17.1c0,6.9,3.2,13,8.1,17.2c-13.6-4.4-24.2-13.6-28.1-17.2C228.5-450.6,239.2-459.8,252.7-464.2z
				 M281.5-429.9c4.9-4.1,8.1-10.2,8.1-17.1s-3.2-13-8.1-17.1c13.6,4.4,24.2,13.5,28,17.1C305.8-443.4,295.1-434.3,281.5-429.9z"/>
		</g>
	</g>
</g>
<g>
	<circle class="st1" cx="442.7" cy="77.5" r="65.3"/>
</g>
<g>
	<g>
		<path class="st0" d="M478.3,44.2c-3.4-3.4-8-5.3-12.9-5.4s-9.4,1.9-12.8,5.3L437,59.7c0,0,0,0,0,0.1c3.2-0.4,7-0.1,7.4,0.2
			c1.6,0.2,3.4,0.8,4.1,1.2L459,50.6c3.5-3.4,9.4-3.4,12.8,0c3.5,3.5,3.5,9.3,0,12.8L456.3,79c-2.9,2.9-7.3,3.2-9.8,1.9
			c-0.7,0-2.6-1.4-3.1-1.9c-1.5-1.4-3.8-1.7-5.6-0.7c-0.2,0.1-0.5,0.3-0.9,0.7l-2.8,2.8c0.8,1.3,1.7,2.5,2.8,3.6
			c1.1,1.1,2.3,2,3.6,2.8c4.4,2.6,9.8,3.1,13.9,1.9c3.1-0.8,5.9-2.4,8.1-4.7l15.5-15.5c3.4-3.4,5.3-8,5.3-12.8
			C483.6,52.2,481.7,47.7,478.3,44.2L478.3,44.2z M441.8,93.6l-10.6,10.6c-3.5,3.4-9.4,3.4-12.8,0c-3.5-3.5-3.5-9.3,0-12.8
			l15.5-15.5c3.6-3.6,9.2-3.4,12.8,0c1.8,1.7,4.7,1.7,6.4,0l2.8-2.8c-0.8-1.3-1.7-2.6-2.8-3.6c-3.6-3.6-8.2-5.2-11-5.2
			c-3.1-0.9-10.2,0.6-14.7,5.1l-15.5,15.5c-3.4,3.4-5.3,8-5.3,12.8c0,4.9,1.9,9.4,5.4,12.9c3.4,3.4,8,5.3,12.9,5.4
			c4.9,0,9.4-1.9,12.8-5.3l15.5-15.5C452.5,95.1,446.2,95.9,441.8,93.6z"/>
	</g>
</g>
<g>
	<g id="cutlery_2_">
		<path class="st0" d="M413.1-313.6c-3.6,0-8.3,9.6-8.3,16.9c0,4.8,1.6,7.4,4,8.6c1.9,1,3.1,3.1,2.9,5.2l-3.5,35.4
			c-0.1,1.4,0.3,2.7,1.2,3.7c0.9,1,2.2,1.6,3.6,1.6c1.4,0,2.7-0.6,3.6-1.6c0.9-1,1.4-2.4,1.2-3.7l-3.5-35.4
			c-0.2-2.2,0.9-4.2,2.9-5.2c2.4-1.2,4-3.8,4-8.6C421.4-304,416.9-313.6,413.1-313.6z"/>
		<path class="st0" d="M444.8-313.6c-0.7,0-1.2,0.5-1.2,1.2v14.6c0,0.7-0.5,1.2-1.2,1.2c-0.7,0-1.2-0.5-1.2-1.2v-14.6
			c0-0.7-0.5-1.2-1.2-1.2h0c-0.7,0-1.2,0.5-1.2,1.2v14.6c0,0.7-0.5,1.2-1.2,1.2c-0.7,0-1.2-0.5-1.2-1.2v-14.6c0-0.7-0.5-1.2-1.2-1.2
			h0c-0.7,0-1.2,0.5-1.2,1.2v14.6c0,0.7-0.5,1.2-1.2,1.2c-0.7,0-1.2-0.5-1.2-1.2v-14.6c0-0.7-0.5-1.2-1.2-1.2
			c-0.6,0-1.1,0.5-1.1,1.1c0,3.7,0,15.3,0,15.7c0,4.8,1.6,7.4,4,8.6c1.9,1,3.1,3.1,2.9,5.2l-3.5,35.4c-0.1,1.4,0.3,2.7,1.2,3.7
			c0.9,1,2.2,1.6,3.6,1.6c1.4,0,2.7-0.6,3.6-1.6c0.9-1,1.4-2.4,1.2-3.7l-3.5-35.4c-0.2-2.2,0.9-4.2,2.9-5.2c2.4-1.2,4-3.8,4-8.6
			c0-0.5,0-12,0-15.7C446-313.1,445.5-313.6,444.8-313.6z"/>
		<path class="st0" d="M464.2-279.9c0.4,0,0.8-0.4,0.8-0.8v-31.5c0-0.8-0.6-1.4-1.4-1.4c-0.7,0-1.3,0.5-1.5,1.1l-4.9,17.2
			c-1.4,5-0.6,10.4,2.4,14.8c0.3,0.4,0.8,0.7,1.3,0.7l-3.2,32.4c-0.1,1.4,0.3,2.7,1.2,3.7c0.9,1,2.2,1.6,3.6,1.6
			c1.4,0,2.7-0.6,3.6-1.6c0.9-1,1.4-2.4,1.2-3.7L464.2-279.9z"/>
	</g>
</g>
<g>
	<g>
		<path class="st0" d="M783.1-131.3c0-4.1,0-22.4,0-22.4h-3h-1.8h-3c0,0,0,18.3,0,22.4c0,4.1-7.6,9-7.6,14.8c0,5.8,0,47.6,0,49.1
			c0,1.5,1,3.9,3.2,3.9c1.5,0,5.2,0,7.4,0c1.1,0,1.8,0,1.8,0c2.2,0,5.9,0,7.4,0c2.2,0,3.2-2.5,3.2-3.9s0-43.3,0-49.1
			C790.7-122.3,783.1-127.3,783.1-131.3z"/>
	</g>
</g>
<g>
	<g>
		<circle class="st19" cx="270.6" cy="248.9" r="62.6"/>
	</g>
</g>
<g>
	<g>
		<circle class="st19" cx="71.5" cy="256.8" r="62.6"/>
	</g>
</g>
<g>
	<g>
		<circle class="st19" cx="614.1" cy="243.8" r="62.6"/>
	</g>
</g>
<g>
	<g>
		<g>
			<path class="st0" d="M308.1,234l-0.1-0.3c0,0,0-0.1,0-0.1l-5.3-12.8v-6.3h-64.7v6.3l-5.2,12.8c0,0.1,0,0.1,0,0.2l0,0.3
				c-0.1,0.5-0.1,0.9-0.1,1.4c0,3.4,1.9,6.4,4.7,7.9V279h66.1v-35.7c2.8-1.5,4.7-4.5,4.7-7.9C308.2,234.9,308.2,234.5,308.1,234z
				 M304.6,233.4H293l-1.4-9.3h9.1L304.6,233.4z M241.2,217.6h58.4v3.1h-58.4V217.6z M290.3,236.5l0.2,1.1l-0.9,1.2
				c-1.1,1.5-2.8,2.3-4.7,2.3s-3.6-0.9-4.7-2.3l-0.9-1.3l-0.1-1.1H290.3z M279,233.4l-0.5-9.3h9.9l1.4,9.3H279z M276,236.5
				L276,236.5l0.1,1.1l-0.9,1.2c-1.1,1.5-2.8,2.3-4.7,2.3c-1.9,0-3.6-0.9-4.7-2.3l-1-1.3l0.1-1.1H276L276,236.5z M265,233.4l0.5-9.3
				h9.9l0.5,9.3H265z M251.1,233.4l1.4-9.3h9.9l-0.5,9.3H251.1z M261.7,236.5l-0.1,1.2l-0.9,1.2c-1.1,1.5-2.8,2.3-4.7,2.3
				c-1.9,0-3.6-0.9-4.7-2.3l-0.9-1.2l0.2-1.2H261.7z M240.1,224h9.2l-1.4,9.3h-11.6L240.1,224z M235.9,236.5h11.5l-0.2,1.2l-0.9,1.2
				c-1.1,1.5-2.8,2.3-4.7,2.3C238.8,241.3,236.5,239.2,235.9,236.5z M294.1,275.9h-12.6v-11h1.6c0.9,0,1.6-0.7,1.6-1.6
				s-0.7-1.6-1.6-1.6h-1.6v-11h12.6V275.9z M300.3,275.9L300.3,275.9h-3.1v-28.3h-18.9v28.3h-37.8v-31.5c0.4,0,0.7,0.1,1.1,0.1
				c2.9,0,5.6-1.4,7.2-3.6c1.6,2.2,4.3,3.6,7.2,3.6s5.6-1.4,7.2-3.6c1.6,2.2,4.3,3.6,7.2,3.6s5.6-1.4,7.2-3.6
				c1.6,2.2,4.3,3.6,7.2,3.6c2.9,0,5.6-1.4,7.2-3.6c1.6,2.2,4.3,3.6,7.2,3.6c0.4,0,0.8,0,1.1-0.1L300.3,275.9L300.3,275.9z
				 M299.2,241.3c-1.9,0-3.6-0.9-4.7-2.3l-0.9-1.2l-0.2-1.2H305C304.4,239.2,302.1,241.3,299.2,241.3z"/>
		</g>
	</g>
	<g>
		<g>
			<path class="st0" d="M243.7,247.6v22h31.5v-22H243.7z M272,266.4h-25.2v-15.7H272V266.4z"/>
		</g>
	</g>
</g>
<g>
	<path class="st0" d="M102.3,289.7l-4.6-51.1c-0.1-1.4-1.3-2.5-2.7-2.5h-9.5v-4.3c0-7.9-6.5-14.4-14.4-14.4
		c-7.9,0-14.4,6.5-14.4,14.4v4.3h-9.5c-1.4,0-2.6,1.1-2.7,2.5L40,289.9c-0.1,0.8,0.2,1.5,0.7,2.1c0.5,0.6,1.2,0.9,2,0.9h57
		c0,0,0,0,0,0c1.5,0,2.7-1.2,2.7-2.7C102.3,290,102.3,289.8,102.3,289.7z M62.1,231.9c0-5,4-9,9-9c5,0,9,4,9,9v4.3h-18V231.9z
		 M45.6,287.4l4.1-45.9h7v4.8c0,1.5,1.2,2.7,2.7,2.7s2.7-1.2,2.7-2.7v-4.8h18v4.8c0,1.5,1.2,2.7,2.7,2.7s2.7-1.2,2.7-2.7v-4.8h7
		l4.1,45.9H45.6L45.6,287.4z"/>
</g>
<g>
	<g>
		<circle class="st19" cx="438.9" cy="245.5" r="62.6"/>
	</g>
</g>
<g>
	<path class="st0" d="M469.7,278.4l-4.6-51.1c-0.1-1.4-1.3-2.5-2.7-2.5H453v-4.3c0-7.9-6.5-14.4-14.4-14.4
		c-7.9,0-14.4,6.5-14.4,14.4v4.3h-9.5c-1.4,0-2.6,1.1-2.7,2.5l-4.6,51.3c-0.1,0.8,0.2,1.5,0.7,2.1c0.5,0.6,1.2,0.9,2,0.9h57
		c0,0,0,0,0,0c1.5,0,2.7-1.2,2.7-2.7C469.8,278.7,469.7,278.5,469.7,278.4z M429.6,220.6c0-5,4-9,9-9c5,0,9,4,9,9v4.3h-18V220.6z
		 M413,276.1l4.1-45.9h7v4.8c0,1.5,1.2,2.7,2.7,2.7s2.7-1.2,2.7-2.7v-4.8h18v4.8c0,1.5,1.2,2.7,2.7,2.7s2.7-1.2,2.7-2.7v-4.8h7
		l4.1,45.9L413,276.1L413,276.1z"/>
</g>
<g>
	<path class="st0" d="M597.2,259.7L597.2,259.7C597.2,259.7,597.2,259.7,597.2,259.7l41.3,0c1,0,1.9-0.7,2.2-1.7l9.1-31.9
		c0.2-0.7,0.1-1.4-0.4-2c-0.4-0.6-1.1-0.9-1.8-0.9h-55.7l-1.6-7.3c-0.2-1-1.2-1.8-2.2-1.8h-13.7c-1.3,0-2.3,1-2.3,2.3s1,2.3,2.3,2.3
		h11.8c0.3,1.3,7.8,35.1,8.2,37c-2.4,1.1-4.1,3.5-4.1,6.3c0,3.8,3.1,6.8,6.8,6.8h41.3c1.3,0,2.3-1,2.3-2.3s-1-2.3-2.3-2.3h-41.3
		c-1.3,0-2.3-1-2.3-2.3C594.9,260.7,595.9,259.7,597.2,259.7z M644.6,227.8l-7.8,27.3H599l-6.1-27.3H644.6z"/>
	<path class="st0" d="M594.9,275.6c0,3.8,3.1,6.8,6.8,6.8s6.8-3.1,6.8-6.8c0-3.8-3.1-6.8-6.8-6.8S594.9,271.8,594.9,275.6z
		 M601.7,273.3c1.3,0,2.3,1,2.3,2.3c0,1.3-1,2.3-2.3,2.3s-2.3-1-2.3-2.3C599.4,274.4,600.5,273.3,601.7,273.3z"/>
	<path class="st0" d="M627.1,275.6c0,3.8,3.1,6.8,6.8,6.8c3.8,0,6.8-3.1,6.8-6.8c0-3.8-3.1-6.8-6.8-6.8
		C630.1,268.8,627.1,271.8,627.1,275.6z M633.9,273.3c1.3,0,2.3,1,2.3,2.3c0,1.3-1,2.3-2.3,2.3c-1.3,0-2.3-1-2.3-2.3
		C631.6,274.4,632.7,273.3,633.9,273.3z"/>
</g>
<g>
	<g>
		<path class="st0" d="M977-102.8c-1.1-1.4-2.7-2.2-4.5-2.2h-5.3v-4h-39.7v11.9c0,6.7,3.4,12.6,8.5,16.2h-8.5v3.5h39.7v-3.5h-8.5
			c1.8-1.2,3.4-2.8,4.7-4.5h3.8c4.5,0,8.4-3.1,9.5-7.4l1.3-5.1C978.4-99.6,978-101.4,977-102.8L977-102.8z M947.5-80.9h-0.3
			c-8.9,0-16.2-7.3-16.2-16.2v-8.4h32.7v8.4C963.7-88.1,956.4-80.9,947.5-80.9L947.5-80.9z M974.6-98.8l-1.3,5.1
			c-0.7,2.8-3.2,4.8-6.1,4.8h-1.8c1.1-2.5,1.8-5.3,1.8-8.2v-4.4h5.3c0.7,0,1.3,0.3,1.7,0.8C974.6-100.1,974.8-99.4,974.6-98.8
			L974.6-98.8z"/>
		<path class="st0" d="M947.4-123.3c-3.2,0-5.8,2.6-5.8,5.8v4h3.5v-4c0-1.3,1-2.3,2.3-2.3h16.1c7.6,0,13.8-6.2,13.8-13.8v-3.5h-3.5
			v3.5c0,5.7-4.6,10.3-10.3,10.3H947.4z"/>
		<path class="st0" d="M937.1-117c0-5.7,4.6-10.3,10.3-10.3h16.1c3.2,0,5.8-2.6,5.8-5.8v-4h-3.5v4c0,1.3-1,2.3-2.3,2.3h-16.1
			c-7.6,0-13.8,6.2-13.8,13.8v3.5h3.5V-117z"/>
	</g>
</g>
<g>
	<g>
		<path class="st0" d="M621.5-282.6c4.5,2.4,13.3,1.7,19.9-5c6.6-6.6,9.1-16.2,2.9-22.7l0,0c0,0-0.1-0.1-0.2-0.2c0,0,0,0,0,0
			c-6.4-6.2-16.1-3.7-22.7,2.9c-6.6,6.7-7.4,15.4-5,19.9c-0.6,3.7-5.7,7.8-10.3,10.4c-3.5-2.2-8-6-8.4-13.8c0.3-3.1-0.7-6.3-3-8.7
			c-0.2-0.2-0.8-0.7-0.8-0.7l-17.2-13.4l-1.6,1.6l18.7,17.5l-2,2l-18.1-18.1l-1.7,1.7l18.1,18.1l-1.7,1.7l-18.1-18.1l-1.5,1.5l18,18
			l-2.1,2.1l-17.5-18.5l-1.7,1.7l14.3,18c0,0,0.3,0.3,0.5,0.5c2.1,1.8,4.7,2.7,7.3,2.6c0,0,0,0,0.1,0c6.8,0.1,11,4.2,13.7,7.8
			c-6.5,6.5-26.6,26.6-26.6,26.6l0,0c0,0,0,0-0.1,0.1c-1.6,1.6-1.6,4.3,0,5.9c0.1,0.1,0.4,0.4,0.5,0.5c1.6,1.6,4.3,1.6,5.9,0
			c0,0,0,0,0.1-0.1l0,0c0,0,18.7-18.7,25.8-25.8c6.8,6.8,25.7,25.7,25.7,25.7l0,0c0,0,0,0,0,0.1c1.6,1.6,4.2,1.6,5.8,0
			c1.6-1.6,1.6-4.2,0-5.8c0,0,0,0-0.1-0.1l0,0c0,0-20.8-20.8-26.6-26.6C614.4-277.7,618.1-282.1,621.5-282.6z"/>
	</g>
</g>
<g>
	<g id="cutlery-6_1_">
		<path class="st0" d="M38.3-295.5c-0.5,0-1,0.4-1,1v11.9c0,0.5-0.4,1-1,1c-0.5,0-1-0.4-1-1v-11.9c0-0.5-0.4-1-1-1h0
			c-0.5,0-1,0.4-1,1v11.9c0,0.5-0.4,1-1,1c-0.5,0-1-0.4-1-1v-11.9c0-0.5-0.4-1-1-1h0c-0.5,0-1,0.4-1,1v11.9c0,0.5-0.4,1-1,1
			c-0.5,0-1-0.4-1-1v-11.9c0-0.5-0.4-1-1-1c-0.5,0-0.9,0.4-0.9,0.9c0,3,0,12.5,0,12.9c0,3.9,1.3,6.1,3.3,7.1
			c1.6,0.8,2.5,2.5,2.3,4.3l-2.8,28.9c-0.1,1.1,0.3,2.2,1,3.1c0.8,0.8,1.8,1.3,2.9,1.3c1.1,0,2.2-0.5,2.9-1.3c0.8-0.8,1.1-1.9,1-3.1
			l-2.8-28.9c-0.2-1.8,0.8-3.5,2.3-4.3c2-1,3.3-3.1,3.3-7.1c0-0.4,0-9.8,0-12.9C39.2-295,38.8-295.5,38.3-295.5z"/>
		<path class="st0" d="M113.7-267.9c0.4,0,0.7-0.3,0.7-0.7v-25.7c0-0.6-0.5-1.2-1.2-1.2c-0.6,0-1,0.4-1.2,0.9l-4,14.1
			c-1.2,4.1-0.5,8.5,2,12.1c0.2,0.3,0.6,0.5,1,0.5l-2.6,26.5c-0.1,1.1,0.3,2.2,1,3.1c0.8,0.8,1.8,1.3,2.9,1.3s2.2-0.5,2.9-1.3
			c0.8-0.8,1.1-1.9,1-3.1L113.7-267.9z"/>
		<path class="st0" d="M72.5-296.4c-16.7,0-30.2,13.5-30.2,30.2c0,16.7,13.5,30.2,30.2,30.2c16.7,0,30.2-13.5,30.2-30.2
			C102.6-282.9,89.1-296.4,72.5-296.4z M72.5-244.7c-11.9,0-21.5-9.7-21.5-21.5c0-11.9,9.7-21.5,21.5-21.5
			c11.9,0,21.5,9.7,21.5,21.5C94-254.4,84.4-244.7,72.5-244.7z"/>
		<path class="st0" d="M72.5-284.8c-10.2,0-18.5,8.3-18.5,18.5c0,10.2,8.3,18.5,18.5,18.5c10.2,0,18.5-8.3,18.5-18.5
			C91-276.5,82.7-284.8,72.5-284.8z"/>
	</g>
</g>
<g>
	<g>
		<circle class="st3" cx="781.5" cy="-282.1" r="62.6"/>
	</g>
</g>
<g>
	<g id="cutlery-6_2_">
		<path class="st0" d="M748.5-307.7c-0.5,0-1,0.4-1,1v11.9c0,0.5-0.4,1-1,1c-0.5,0-1-0.4-1-1v-11.9c0-0.5-0.4-1-1-1h0
			c-0.5,0-1,0.4-1,1v11.9c0,0.5-0.4,1-1,1c-0.5,0-1-0.4-1-1v-11.9c0-0.5-0.4-1-1-1h0c-0.5,0-1,0.4-1,1v11.9c0,0.5-0.4,1-1,1
			c-0.5,0-1-0.4-1-1v-11.9c0-0.5-0.4-1-1-1c-0.5,0-0.9,0.4-0.9,0.9c0,3,0,12.5,0,12.9c0,3.9,1.3,6.1,3.3,7.1
			c1.6,0.8,2.5,2.5,2.3,4.3l-2.8,28.9c-0.1,1.1,0.3,2.2,1,3.1c0.8,0.8,1.8,1.3,2.9,1.3c1.1,0,2.2-0.5,2.9-1.3c0.8-0.8,1.1-1.9,1-3.1
			l-2.8-28.9c-0.2-1.8,0.8-3.5,2.3-4.3c2-1,3.3-3.1,3.3-7.1c0-0.4,0-9.8,0-12.9C749.4-307.3,749-307.7,748.5-307.7z"/>
		<path class="st0" d="M823.9-280.2c0.4,0,0.7-0.3,0.7-0.7v-25.7c0-0.6-0.5-1.2-1.2-1.2c-0.6,0-1,0.4-1.2,0.9l-4,14.1
			c-1.2,4.1-0.5,8.5,2,12.1c0.2,0.3,0.6,0.5,1,0.5l-2.6,26.5c-0.1,1.1,0.3,2.2,1,3.1c0.8,0.8,1.8,1.3,2.9,1.3s2.2-0.5,2.9-1.3
			c0.8-0.8,1.1-1.9,1-3.1L823.9-280.2z"/>
		<path class="st0" d="M782.7-308.7c-16.7,0-30.2,13.5-30.2,30.2c0,16.7,13.5,30.2,30.2,30.2c16.7,0,30.2-13.5,30.2-30.2
			C812.9-295.2,799.4-308.7,782.7-308.7z M782.7-257c-11.9,0-21.5-9.7-21.5-21.5c0-11.9,9.7-21.5,21.5-21.5
			c11.9,0,21.5,9.7,21.5,21.5C804.2-266.7,794.6-257,782.7-257z"/>
		<path class="st0" d="M782.7-297c-10.2,0-18.5,8.3-18.5,18.5c0,10.2,8.3,18.5,18.5,18.5c10.2,0,18.5-8.3,18.5-18.5
			C801.2-288.7,792.9-297,782.7-297z"/>
	</g>
</g>
<g>
	<g>
		<path class="st0" d="M462.3-451.2c-7.3-6.2-16.2-11.1-25.8-11.1c-9.5,0-18.5,4.9-25.8,11.1c-6.4,5.4-10.3,10.7-10.5,11
			c-0.5,0.8-0.5,1.8,0,2.5c0.2,0.2,4.1,5.6,10.5,11c7.3,6.2,16.2,11.1,25.8,11.1c9.5,0,18.5-4.9,25.8-11.1
			c6.4-5.4,10.3-10.7,10.5-11c0.5-0.8,0.5-1.8,0-2.5C472.6-440.4,468.7-445.8,462.3-451.2z M459.4-429.9c-5.4,4.6-13.8,10-22.9,10
			s-17.5-5.5-22.9-10c-4.2-3.6-7.3-7.2-8.8-9c1.5-1.8,4.6-5.5,8.8-9c5.4-4.6,13.8-10,22.9-10s17.5,5.5,22.9,10
			c4.2,3.6,7.3,7.2,8.8,9C466.8-437.1,463.6-433.5,459.4-429.9z"/>
		<path class="st0" d="M436.5-451.5c-6.9,0-12.5,5.6-12.5,12.5s5.6,12.5,12.5,12.5S449-432,449-438.9S443.4-451.5,436.5-451.5z
			 M436.5-430.7c-4.6,0-8.3-3.7-8.3-8.3c0-4.6,3.7-8.3,8.3-8.3c4.6,0,8.3,3.7,8.3,8.3C444.7-434.4,441-430.7,436.5-430.7z"/>
		<path class="st0" d="M436.5-466.6c1.2,0,2.1-1,2.1-2.1v-18c0-1.2-1-2.1-2.1-2.1c-1.2,0-2.1,1-2.1,2.1v18
			C434.3-467.6,435.3-466.6,436.5-466.6z"/>
		<path class="st0" d="M419.4-465.8c0.5,1.1,1.8,1.5,2.9,0.9c1.1-0.5,1.5-1.8,0.9-2.9l-8.3-16c-0.5-1.1-1.8-1.5-2.9-0.9
			c-1.1,0.5-1.5,1.8-0.9,2.9L419.4-465.8z"/>
		<path class="st0" d="M450.7-464.9c1.1,0.5,2.3,0.1,2.9-0.9l8.3-16c0.5-1.1,0.1-2.3-0.9-2.9c-1.1-0.5-2.3-0.1-2.9,0.9l-8.3,16
			C449.2-466.8,449.6-465.5,450.7-464.9L450.7-464.9z"/>
	</g>
</g>
<g>
	<g>
		<path class="st0" d="M296.1-243.6L296.1-243.6c0,0-17.7-18-19.5-19.8c-1.1-0.3-7.4-3.1-7.5-8.3c2.7-3.1,6.6-6.1,12.4-6.1
			c0,0,0,0,0.1,0c2.6,0.1,5.3-0.8,7.4-2.6c0.1-0.1,0.5-0.5,0.5-0.5l14.5-18.2l-1.7-1.7l-17.7,18.8l-2.1-2.1l18.2-18.2l-1.5-1.5
			l-18.3,18.3l-1.7-1.7l18.3-18.3l-1.7-1.7l-18.3,18.3l-2.1-2.1l18.9-17.8l-1.6-1.6l-17.4,13.6c0,0-0.6,0.5-0.9,0.8
			c-2.4,2.4-3.4,5.6-3.1,8.8c-0.2,4-1.5,6.9-3.2,9.2c-32.5-31.8-44.8-28.4-44.8-28.4l-1,1c0,0,21.9,21.9,35.4,35.5
			c-4.7,4.7-27.6,27.6-27.6,27.6l0,0c0,0,0,0-0.1,0.1c-1.6,1.6-1.6,4.3,0,5.9c1.6,1.6,4.3,1.6,5.9,0c0,0,0-0.1,0-0.1l0,0
			c0,0,22.9-22.9,27.6-27.6c2.5,2.5,4.1,4.1,4.4,4.4c2,2,22.2,22.2,22.2,22.2h0c0,0,0,0,0,0.1c1.6,1.6,4.3,1.6,5.9,0
			C297.8-239.2,297.8-241.9,296.1-243.6C296.2-243.6,296.1-243.6,296.1-243.6z"/>
	</g>
</g>
<g>
	<g>
		<g>
			<circle class="st5" cx="445.1" cy="425" r="62.6"/>
		</g>
	</g>
</g>
<path class="st0" d="M474.8,435h-3.1l-8.9-27.9c-5.5,3.2-10.9,5.3-15.7,3.3c-6.2-2.9-7.9-9.7-8.2-10.6l-11.3-7.4L405.7,423
	l51.6,35.2l32.8-0.2v-7.7C490.1,441.8,483.2,435,474.8,435L474.8,435z M419.6,412.5c3.1,4.9,7.6,8.8,14.1,12.7
	c10,5.9,10.8,13,10.4,16.8l-30.9-20.3L419.6,412.5z M484.8,452.7h-24.4l-11.6-7.6c2.9-10.8-4.5-20-12.4-24.4
	c-9.1-5.4-12.3-10.6-13.3-12.9l5.9-8.3l5.5,3.6c3.3,9.3,12.5,17,25.2,11.4l1.9,5.8l-6.7,2.2l1.6,5l6.7-2.2l1.8,5.6l-6.1,2l1.6,5
	l6.1-2l1.4,4.3h7c5.5,0,10,4.5,10,10L484.8,452.7L484.8,452.7z"/>
<g>
	<g>
		<g>
			<circle class="st5" cx="612" cy="419.8" r="62.6"/>
		</g>
	</g>
</g>
<g>
	<g>
		<path class="st0" d="M571.6,428.9h19v4.8h-19V428.9z"/>
		<path class="st0" d="M639.5,424.2h-2.9l-8.2-25.7c-5.1,2.9-10,4.9-14.5,3c-5.7-2.6-7.2-8.9-7.5-9.8L596,385l-20.2,28.2l41.6,27.4
			h-36.2v4.8h72.3v-7.1C653.6,430.6,647.3,424.2,639.5,424.2L639.5,424.2z M588.7,403.6c2.9,4.5,7,8.1,12.9,11.7
			c9.2,5.4,10,12,9.5,15.5l-28.5-18.7L588.7,403.6z M648.8,440.6h-22.5l-10.7-7c2.6-10-4.2-18.4-11.5-22.5
			c-8.4-4.9-11.3-9.7-12.3-11.9l5.4-7.6l5,3.3c3,8.6,11.5,15.7,23.2,10.5l1.7,5.4l-6.2,2l1.5,4.6l6.2-2l1.7,5.2l-5.6,1.8l1.5,4.6
			l5.6-1.8l1.3,3.9h6.4c5.1,0,9.2,4.1,9.2,9.2L648.8,440.6L648.8,440.6z"/>
	</g>
</g>
<line class="st20" x1="457.9" y1="353.5" x2="435.1" y2="401.4"/>
<polyline class="st20" points="446.5,377.4 469.5,387.7 457.3,413.1 480.1,365.2 "/>
<path class="st20" d="M435.8,399.4"/>
<g>
	<g>
		<g>
			<circle class="st5" cx="84.6" cy="430.5" r="62.6"/>
		</g>
	</g>
</g>
<line class="st20" x1="97.4" y1="359" x2="74.7" y2="406.9"/>
<polyline class="st20" points="86,383 109.1,393.2 96.9,418.6 119.6,370.7 "/>
<path class="st20" d="M75.3,404.9"/>
<g>
	<g>
		<path class="st0" d="M43.5,442.5h19v4.8h-19V442.5z"/>
		<path class="st0" d="M111.5,437.8h-2.9l-8.2-25.7c-5.1,2.9-10,4.9-14.5,3c-5.7-2.6-7.2-8.9-7.5-9.8L68,398.6l-20.2,28.2l41.6,27.4
			H53.2v4.8h72.3v-7.1C125.6,444.1,119.3,437.8,111.5,437.8L111.5,437.8z M60.7,417.1c2.9,4.5,7,8.1,12.9,11.7
			c9.2,5.4,10,12,9.5,15.5l-28.5-18.7L60.7,417.1z M120.8,454.1H98.3l-10.7-7c2.6-10-4.2-18.4-11.5-22.5
			c-8.4-4.9-11.3-9.7-12.3-11.9l5.4-7.6l5,3.3c3,8.6,11.5,15.7,23.2,10.5l1.7,5.4l-6.2,2l1.5,4.6l6.2-2l1.7,5.2l-5.6,1.8l1.5,4.6
			l5.6-1.8l1.3,3.9h6.4c5.1,0,9.2,4.1,9.2,9.2L120.8,454.1L120.8,454.1z"/>
	</g>
</g>
<polygon class="st0" points="83.8,388.1 107.4,398.5 94.5,418 78.4,413.6 74.7,404.7 "/>
<g>
	<g>
		<g>
			<circle class="st5" cx="795.7" cy="421.5" r="62.6"/>
		</g>
	</g>
</g>
<line class="st20" x1="808.5" y1="350" x2="785.8" y2="397.9"/>
<polyline class="st20" points="797.1,373.9 820.2,384.1 808,409.6 830.7,361.7 "/>
<path class="st20" d="M786.4,395.9"/>
<g>
	<g>
		<path class="st0" d="M754.6,433.5h19v4.8h-19V433.5z"/>
		<path class="st0" d="M822.6,428.8h-2.9l-8.2-25.7c-5.1,2.9-10,4.9-14.5,3c-5.7-2.6-7.2-8.9-7.5-9.8l-10.4-6.8L759,417.8l41.6,27.4
			h-36.2v4.8h72.3v-7.1C836.7,435.1,830.4,428.8,822.6,428.8L822.6,428.8z M771.8,408.1c2.9,4.5,7,8.1,12.9,11.7
			c9.2,5.4,10,12,9.5,15.5l-28.5-18.7L771.8,408.1z M831.9,445.1h-22.5l-10.7-7c2.6-10-4.2-18.4-11.5-22.5
			c-8.4-4.9-11.3-9.7-12.3-11.9l5.4-7.6l5,3.3c3,8.6,11.5,15.7,23.2,10.5l1.7,5.4l-6.2,2l1.5,4.6l6.2-2l1.7,5.2l-5.6,1.8l1.5,4.6
			l5.6-1.8l1.3,3.9h6.4c5.1,0,9.2,4.1,9.2,9.2L831.9,445.1L831.9,445.1z"/>
	</g>
</g>
<polygon class="st0" points="794.9,379.1 818.5,389.4 805.6,409 789.5,404.6 785.8,395.6 "/>
</svg>
