<?xml version="1.0" encoding="utf-8"?>
<!-- Generator: Adobe Illustrator 25.0.0, SVG Export Plug-In . SVG Version: 6.00 Build 0)  -->
<svg version="1.1" id="Layer_1" xmlns="http://www.w3.org/2000/svg" xmlns:xlink="http://www.w3.org/1999/xlink" x="0px" y="0px"
	 viewBox="0 0 148.1 150.5" style="enable-background:new 0 0 148.1 150.5;" xml:space="preserve">
<style type="text/css">
	.st0{fill:#FFFFFF;}
	.st1{fill:#4F953B;}
	.st2{fill:#002FF2;}
	.st3{fill:#DA291C;}
	.st4{fill:#E97F02;}
	.st5{fill:#FFCD42;}
	.st6{fill:#704C55;}
	.st7{fill:#5A344B;}
	.st8{fill:#00C6CD;}
	.st9{fill:#A9F0F0;}
	.st10{fill:#00A0AA;}
	.st11{fill:#64DDE0;}
	.st12{fill:#E4F1FB;}
	.st13{fill:#C9E3F7;}
	.st14{fill:#000100;}
	.st15{fill:#FEA7B7;}
	.st16{fill:#FF4869;}
	.st17{fill:#859BF9;}
	.st18{fill:#F0F2FC;}
	.st19{fill:#C8A2C8;}
	.st20{fill:none;stroke:#FFFFFF;stroke-width:5;stroke-miterlimit:10;}
</style>
<g>
	<g>
		<circle class="st0" cx="78.7" cy="-110.4" r="65.3"/>
	</g>
	<g>
		<path class="st1" d="M51.2-151c5-1,10.2,0.5,13.8,4.2l12.6,12.6l10.3-10.3l2.3-2.3c3.6-3.6,8.8-5.2,13.8-4.2l1.3,0.3l11.9-11.9
			c-10.9-8.1-24.4-13-39.1-13c-14.9,0-28.7,5-39.7,13.4L50-150.8L51.2-151z"/>
		<path class="st1" d="M29.4-129.7c0.4,0.4,0.6,1,0.5,1.5l-0.6,3.5c-0.7,4.4,0.5,8.8,3.4,12.2l16.5,16.6c0.8,0.8,1.8,1.1,2.8,1
			c0.2-2.1,1.3-3.9,3-5.1c-0.2-0.4-0.4-0.7-0.7-1l-9.2-9.2c-0.7-0.7-0.7-1.8,0-2.5c0.7-0.7,1.8-0.7,2.5,0l9.2,9.2
			c0.2,0.2,0.4,0.4,0.6,0.6v-19.9c0-3.9,3.1-7,7-7c1.5,0,2.9,0.5,4,1.3c1-2.3,3.2-4,5.8-4.3l-11.6-11.6c-2.8-2.8-6.8-4-10.6-3.2
			l-1.6,0.3c-0.9,0.2-1.9-0.1-2.6-0.8l-12-12c-6.6,5.7-12.1,12.6-16,20.5c0.1,0.1,0.2,0.1,0.3,0.2L29.4-129.7z"/>
		<path class="st1" d="M105-147.2l-1.6-0.3c-3.9-0.8-7.8,0.4-10.6,3.2l-2.3,2.3l-11,11c1.5,1.3,2.4,3.2,2.4,5.3v1.2
			c1-0.6,2.2-0.9,3.5-0.9c3.1,0,5.8,2.1,6.7,4.9c1.1-0.7,2.4-1.1,3.8-1.1c3.9,0,7,3.1,7,7v6.8l4.8-4.8c0.7-0.7,1.8-0.7,2.5,0
			c0.7,0.7,0.7,1.8,0,2.5l-7.4,7.4v7.9c1.1,0.2,2.3-0.1,3.2-1l15.7-15.7c3.4-3.4,5-8.4,4.2-13.2l-0.6-3.5c-0.1-0.6,0.1-1.1,0.5-1.5
			l9.2-9.2c0.4-0.4,1-0.6,1.6-0.5c-4-8.1-9.7-15.3-16.6-21L107.6-148C106.9-147.3,105.9-147,105-147.2z"/>
		<path class="st1" d="M62-55.2l-2.1-1.5c-4.9-3.5-7.8-9.2-7.8-15.2v-19.4c-0.1,0-0.2,0-0.2,0c-1.9,0-3.7-0.7-5-2.1L30-110.2
			c-0.1-0.1-0.2-0.2-0.2-0.3c-3.4-4.1-4.8-9.5-4-14.8l0.4-2.6l-8.2-8.2c-3.4,7.9-5.3,16.6-5.3,25.7C12.8-79.8,33.7-54.2,62-47
			c0-0.1,0-0.2,0-0.3V-55.2z"/>
		<path class="st1" d="M91.3-56.1c0-1,0.5-1.8,1.3-2.4l1.4-0.9c3.3-2.2,5.2-5.8,5.2-9.8l0-15.6c0-0.1,0-0.3,0-0.5v-29.4
			c0-1.9-1.6-3.5-3.5-3.5c-1.9,0-3.5,1.6-3.5,3.5c0,0,0,0,0,0v16.1c0,1-0.8,1.8-1.8,1.8c-1,0-1.8-0.8-1.8-1.8v-19.9
			c0-1.9-1.6-3.5-3.5-3.5c-1.9,0-3.5,1.6-3.5,3.5v19.9c0,1-0.8,1.8-1.8,1.8c-1,0-1.8-0.8-1.8-1.8v-27.3c0-1.9-1.6-3.5-3.5-3.5
			c-1.9,0-3.5,1.6-3.5,3.5v26.3c0,1-0.8,1.8-1.8,1.8c-1,0-1.8-0.8-1.8-1.8v-23.3c0-1.9-1.6-3.5-3.5-3.5c-1.9,0-3.5,1.6-3.5,3.5v21.7
			c3.1,0.8,5.3,3.6,5.3,6.9v13c0,1-0.8,1.8-1.8,1.8c-1,0-1.8-0.8-1.8-1.8v-13c0-2-1.6-3.6-3.6-3.6s-3.6,1.6-3.6,3.6v22.2
			c0,4.9,2.4,9.5,6.3,12.3l2.9,2.1c0.5,0.3,0.7,0.9,0.7,1.4v8.8c0,0.4-0.1,0.7-0.3,1c4.2,0.8,8.5,1.3,13,1.3c4.6,0,9.1-0.5,13.4-1.4
			c-0.2-0.3-0.3-0.6-0.3-0.9V-56.1z"/>
		<path class="st1" d="M143.5-110.3c0-9.5-2-18.4-5.6-26.5c-0.1,0.1-0.2,0.3-0.3,0.4l-8.6,8.6l0.4,2.6c1,5.9-1,12-5.2,16.2
			l-15.7,15.7c-1.4,1.4-3.2,2.1-5,2.1c-0.2,0-0.4,0-0.7,0v6.3v15.8c0,5.1-2.6,9.9-6.8,12.7l-1.1,0.7v8.4c0,0.1,0,0.1,0,0.1
			C122.9-54.5,143.5-80,143.5-110.3z"/>
		<path class="st0" d="M30-110.2c-0.1-0.1-0.1-0.2-0.2-0.3C29.8-110.4,29.9-110.3,30-110.2z"/>
		<path class="st0" d="M94.9-55.7l1.1-0.7c4.3-2.8,6.8-7.6,6.8-12.7V-85c0,1-0.8,1.8-1.8,1.8c-1,0-1.8-0.8-1.8-1.8v-0.3
			c0,0.2,0,0.3,0,0.5l0,15.6c0,3.9-2,7.6-5.2,9.8l-1.4,0.9c-0.8,0.5-1.3,1.4-1.3,2.4v8.8c0,0.3,2.5,0.4,3.5,0.1
			C94.9-47.2,94.9-55.7,94.9-55.7z"/>
		<path class="st0" d="M101-87.3l-0.4,0.2c-0.8,0-1.3,1-1.4,1.8v0.3c0,1,0.8,1.8,1.8,1.8c1,0,1.8-0.8,1.8-1.8
			C102.8-86,102-87.3,101-87.3z"/>
		<path class="st0" d="M117.2-162.7c1,0.7,1.9,1.5,2.8,2.2L117.2-162.7z"/>
		<path class="st0" d="M104.1-151c-5-1-10.2,0.5-13.8,4.2l-2.3,2.3c0.7-0.7,1.6,0.5,2.3,1.2c0.7,0.7,0.9,0.7,0.2,1.4l2.3-2.3
			c2.8-2.8,6.8-4,10.6-3.2l1.6,0.3c0.9,0.2,1.9-0.1,2.6-0.8l12.5-12.5c-0.9-0.8-1.8-1.5-2.8-2.2l-11.9,11.9L104.1-151z"/>
		<path class="st0" d="M90.2-143.4c-0.7-0.7-1.6-1.9-2.3-1.2c-0.7,0.7-0.7,1.8,0,2.5c0.3,0.3,0.8,0.5,1.3,0.5c0.5,0,0.9-0.2,1.3-0.5
			C91.1-142.8,90.9-142.7,90.2-143.4z"/>
		<path class="st0" d="M25.8-125.3c-0.9,5.3,0.6,10.7,4,14.8c-0.3-0.5,0.3-0.9,0.9-1.5c0.7-0.7,1.3-1.3,2-0.6
			c-2.9-3.4-4.1-7.8-3.4-12.2l0.6-3.5c0.1-0.6-0.1-1.1-0.5-1.5l-9.5-9.5c-0.1-0.1-0.2-0.2-0.3-0.2c-0.6,1.1-1.1,2.2-1.6,3.4l8.2,8.2
			L25.8-125.3z"/>
		<path class="st0" d="M30.7-111.9c-0.6,0.6-1.2,0.9-0.9,1.5c0.1,0.1,0.1,0.2,0.2,0.3c0.4,0.4,0.9,0.6,1.4,0.6
			c0.4,0,0.8-0.1,1.1-0.4c0.7-0.6,0.8-1.8,0.2-2.5C32-113.2,31.4-112.6,30.7-111.9z"/>
	</g>
</g>
<g>
	<g>
		<circle class="st0" cx="277.4" cy="-108.1" r="65.3"/>
	</g>
	<g>
		<path class="st1" d="M249.9-148.8c5-1,10.2,0.5,13.8,4.2l12.6,12.6l10.3-10.3l2.3-2.3c3.6-3.6,8.8-5.2,13.8-4.2l1.3,0.3l11.9-11.9
			c-10.9-8.1-24.4-13-39.1-13c-14.9,0-28.7,5-39.7,13.4l11.5,11.5L249.9-148.8z"/>
		<path class="st1" d="M228.1-127.5c0.4,0.4,0.6,1,0.5,1.5l-0.6,3.5c-0.7,4.4,0.5,8.8,3.4,12.2l16.5,16.6c0.8,0.8,1.8,1.1,2.8,1
			c0.2-2.1,1.3-3.9,3-5.1c-0.2-0.4-0.4-0.7-0.7-1l-9.2-9.2c-0.7-0.7-0.7-1.8,0-2.5c0.7-0.7,1.8-0.7,2.5,0l9.2,9.2
			c0.2,0.2,0.4,0.4,0.6,0.6v-19.9c0-3.9,3.1-7,7-7c1.5,0,2.9,0.5,4,1.3c1-2.3,3.2-4,5.8-4.3l-11.6-11.6c-2.8-2.8-6.8-4-10.6-3.2
			l-1.6,0.3c-0.9,0.2-1.9-0.1-2.6-0.8l-12-12c-6.6,5.7-12.1,12.6-16,20.5c0.1,0.1,0.2,0.1,0.3,0.2L228.1-127.5z"/>
		<path class="st1" d="M303.6-144.9l-1.6-0.3c-3.9-0.8-7.8,0.4-10.6,3.2l-2.3,2.3l-11,11c1.5,1.3,2.4,3.2,2.4,5.3v1.2
			c1-0.6,2.2-0.9,3.5-0.9c3.1,0,5.8,2.1,6.7,4.9c1.1-0.7,2.4-1.1,3.8-1.1c3.9,0,7,3.1,7,7v6.8l4.8-4.8c0.7-0.7,1.8-0.7,2.5,0
			c0.7,0.7,0.7,1.8,0,2.5l-7.4,7.4v7.9c1.1,0.2,2.3-0.1,3.2-1l15.7-15.7c3.4-3.4,5-8.4,4.2-13.2l-0.6-3.5c-0.1-0.6,0.1-1.1,0.5-1.5
			l9.2-9.2c0.4-0.4,1-0.6,1.6-0.5c-4-8.1-9.7-15.3-16.6-21l-12.5,12.5C305.5-145.1,304.6-144.8,303.6-144.9z"/>
		<path class="st1" d="M260.6-52.9l-2.1-1.5c-4.9-3.5-7.8-9.2-7.8-15.2V-89c-0.1,0-0.2,0-0.2,0c-1.9,0-3.7-0.7-5-2.1l-16.7-16.8
			c-0.1-0.1-0.2-0.2-0.2-0.3c-3.4-4.1-4.8-9.5-4-14.8l0.4-2.6l-8.2-8.2c-3.4,7.9-5.3,16.6-5.3,25.7c0,30.5,20.9,56.1,49.2,63.3
			c0-0.1,0-0.2,0-0.3V-52.9z"/>
		<path class="st1" d="M290-53.9c0-1,0.5-1.8,1.3-2.4l1.4-0.9c3.3-2.2,5.2-5.8,5.2-9.8l0-15.6c0-0.1,0-0.3,0-0.5v-29.4
			c0-1.9-1.6-3.5-3.5-3.5c-1.9,0-3.5,1.6-3.5,3.5c0,0,0,0,0,0v16.1c0,1-0.8,1.8-1.8,1.8s-1.8-0.8-1.8-1.8v-19.9
			c0-1.9-1.6-3.5-3.5-3.5c-1.9,0-3.5,1.6-3.5,3.5v19.9c0,1-0.8,1.8-1.8,1.8c-1,0-1.8-0.8-1.8-1.8v-27.3c0-1.9-1.6-3.5-3.5-3.5
			c-1.9,0-3.5,1.6-3.5,3.5v26.3c0,1-0.8,1.8-1.8,1.8c-1,0-1.8-0.8-1.8-1.8v-23.3c0-1.9-1.6-3.5-3.5-3.5c-1.9,0-3.5,1.6-3.5,3.5v21.7
			c3.1,0.8,5.3,3.6,5.3,6.9v13c0,1-0.8,1.8-1.8,1.8c-1,0-1.8-0.8-1.8-1.8v-13c0-2-1.6-3.6-3.6-3.6c-2,0-3.6,1.6-3.6,3.6v22.2
			c0,4.9,2.4,9.5,6.3,12.3l2.9,2.1c0.5,0.3,0.7,0.9,0.7,1.4v8.8c0,0.4-0.1,0.7-0.3,1c4.2,0.8,8.5,1.3,13,1.3c4.6,0,9.1-0.5,13.4-1.4
			c-0.2-0.3-0.3-0.6-0.3-0.9V-53.9z"/>
		<path class="st1" d="M342.2-108.1c0-9.5-2-18.4-5.6-26.5c-0.1,0.1-0.2,0.3-0.3,0.4l-8.6,8.6l0.4,2.6c1,5.9-1,12-5.2,16.2
			l-15.7,15.7c-1.4,1.4-3.2,2.1-5,2.1c-0.2,0-0.4,0-0.7,0v6.3v15.8c0,5.1-2.6,9.9-6.8,12.7l-1.1,0.7v8.4c0,0.1,0,0.1,0,0.1
			C321.5-52.3,342.2-77.7,342.2-108.1z"/>
		<path class="st0" d="M228.7-107.9c-0.1-0.1-0.1-0.2-0.2-0.3C228.5-108.1,228.6-108,228.7-107.9z"/>
		<path class="st0" d="M293.6-53.5l1.1-0.7c4.3-2.8,6.8-7.6,6.8-12.7v-15.8c0,1-0.8,1.8-1.8,1.8c-1,0-1.8-0.8-1.8-1.8V-83
			c0,0.2,0,0.3,0,0.5l0,15.6c0,3.9-2,7.6-5.2,9.8l-1.4,0.9c-0.8,0.5-1.3,1.4-1.3,2.4v8.8c0,0.3,2.5,0.4,3.5,0.1
			C293.5-44.9,293.6-53.5,293.6-53.5z"/>
		<path class="st0" d="M299.6-85l-0.4,0.2c-0.8,0-1.3,1-1.4,1.8v0.3c0,1,0.8,1.8,1.8,1.8c1,0,1.8-0.8,1.8-1.8
			C301.5-83.7,300.6-85,299.6-85z"/>
		<path class="st0" d="M315.9-160.4c1,0.7,1.9,1.5,2.8,2.2L315.9-160.4z"/>
		<path class="st0" d="M302.7-148.8c-5-1-10.2,0.5-13.8,4.2l-2.3,2.3c0.7-0.7,1.6,0.5,2.3,1.2c0.7,0.7,0.9,0.7,0.2,1.4l2.3-2.3
			c2.8-2.8,6.8-4,10.6-3.2l1.6,0.3c0.9,0.2,1.9-0.1,2.6-0.8l12.5-12.5c-0.9-0.8-1.8-1.5-2.8-2.2L304-148.5L302.7-148.8z"/>
		<path class="st0" d="M288.9-141.2c-0.7-0.7-1.6-1.9-2.3-1.2c-0.7,0.7-0.7,1.8,0,2.5c0.3,0.3,0.8,0.5,1.3,0.5
			c0.5,0,0.9-0.2,1.3-0.5C289.8-140.5,289.6-140.5,288.9-141.2z"/>
		<path class="st0" d="M224.5-123c-0.9,5.3,0.6,10.7,4,14.8c-0.3-0.5,0.3-0.9,0.9-1.5c0.7-0.7,1.3-1.3,2-0.6
			c-2.9-3.4-4.1-7.8-3.4-12.2l0.6-3.5c0.1-0.6-0.1-1.1-0.5-1.5l-9.5-9.5c-0.1-0.1-0.2-0.2-0.3-0.2c-0.6,1.1-1.1,2.2-1.6,3.4l8.2,8.2
			L224.5-123z"/>
		<path class="st0" d="M229.4-109.7c-0.6,0.6-1.2,0.9-0.9,1.5c0.1,0.1,0.1,0.2,0.2,0.3c0.4,0.4,0.9,0.6,1.4,0.6
			c0.4,0,0.8-0.1,1.1-0.4c0.7-0.6,0.8-1.8,0.2-2.5C230.7-110.9,230.1-110.3,229.4-109.7z"/>
	</g>
</g>
<g>
	<g>
		<circle class="st2" cx="439.2" cy="-631" r="62.6"/>
	</g>
</g>
<g>
	<g>
		<circle class="st3" cx="73.9" cy="-451.3" r="62.6"/>
	</g>
</g>
<g>
	<g>
		<circle class="st3" cx="609" cy="-461.9" r="62.6"/>
	</g>
</g>
<g>
	<g>
		<circle class="st4" cx="951.8" cy="-287.5" r="62.6"/>
	</g>
</g>
<g>
	<g>
		<circle class="st4" cx="781.8" cy="-287.5" r="62.6"/>
	</g>
</g>
<g>
	<g>
		<circle class="st1" cx="788.8" cy="-109.2" r="62.6"/>
	</g>
</g>
<g>
	<g>
		<circle class="st4" cx="75.4" cy="-282.4" r="62.6"/>
	</g>
</g>
<g>
	<g>
		<circle class="st4" cx="438.4" cy="-282.4" r="62.6"/>
	</g>
</g>
<g>
	<g>
		<circle class="st4" cx="606.7" cy="-285.8" r="62.6"/>
	</g>
</g>
<g>
	<g>
		<circle class="st2" cx="75.4" cy="-627.6" r="62.6"/>
	</g>
</g>
<g>
	<g>
		<circle class="st3" cx="439.5" cy="-458.5" r="62.6"/>
	</g>
</g>
<g>
	<g>
		<g>
			<circle class="st5" cx="277.6" cy="243.5" r="62.6"/>
		</g>
	</g>
	<path id="Subtraction_1" class="st0" d="M285,181.3c0,0,1.9,0.3,2.6,0.4c0.7,0.1,2.5,0.5,2.5,0.5l-14.3,13.4l15.6,14.6l21.3-18.5
		c0,0,0.9,0.6,1.2,0.8c0.3,0.2,1.3,1,1.3,1l-40,34.9c1.6,2.9,2.9,5.8,3.9,8.9h6.4v3.1h-5.3c0.2,0.7,0.5,1.4,0.7,2v0l0.4,1.1h5.7v3.1
		h-4.6c0.4,1.2,0.8,2.2,1.2,3.1h5v3.1h-3.7c0.6,1.4,1.1,2.1,1.4,2.2c0.6,0.2,2.6,0.7,5.2,1.2c5.2,1.1,12.3,2.5,14.2,3.9
		c2.5,1.8,4.8,8,5.3,9.2h1.2c0,0,4.1,3,4.1,5.3c0,1.4-0.4,2.8-1,4.1h-41.6l0,0l-46-46.8l2.2-2.2l7.7-7.9l0.2,0.2l1,1.1l15.5-14.4
		l2,2.1L285,181.3z M273.5,197.7l-2.5,2.5l15.3,14.3l0,0l2.6-2.3L273.5,197.7z M253.8,213.3l-12.9,12l38.4,43.9h26.6h0l0,0h1.8
		c-0.5-2.3-1.6-4.3-3.3-5.9c-1.7-1.4-7.6-2.6-12.8-3.7c-2.7-0.5-5.4-1.1-8-2c-0.6-0.3-1.5-1.9-2.7-4.8h-6.3v-3.1h5.1
		c-0.3-0.9-0.7-1.9-1.1-3.1h-5.5v-3.1h4.5c-0.4-1-0.7-2.1-1.1-3.1h-4.9v-3.1h3.8c-1.5-4-2.4-6-3-6.5c-0.9-0.8-2.9-0.9-4.7-0.9
		c-0.7,0-1.5,0-2.3,0h0c-0.8,0-1.5,0-2.3,0c-1.7,0.2-3.4-0.1-5-0.9C256,227.4,254.2,216.6,253.8,213.3L253.8,213.3z"/>
</g>
<path id="Subtraction_1-2" class="st2" d="M1476.3-1129.6c-22.1,0-40,18-40,40.1c0,22.1,18,40,40.1,40c22.1,0,40-18,40-40.1
	c0-2.7-0.3-5.3-0.8-7.9C1511.7-1116.2,1495.3-1129.6,1476.3-1129.6z M1446-1103.1l14.4,19.2h11.9v-1.6h22v1.6h14.1v2h-2.5v5.5h-2
	v-5.5h-9.6v2.1l-1.4,0.1v1.2h-1v-1.1l-2,0.2v1.9h-1v-1.8l-2,0.2v1.6h-1v-1.5l-2,0.2v1.3h-1v-1.2l-2,0.2v1h-1v-0.9l-2,0.2v1.7h-1
	v-1.6l-2,0.2v1.4h-1v-1.3l-1.6,0.2v-4.4h-8.4v5.5h-2v-5.5h-2.5l0,0v0h0v0l-15-20L1446-1103.1z"/>
<path id="Union_122" class="st2" d="M1298.4-1048.6c-20.4-8.6-30-32.1-21.4-52.6c8.6-20.4,32.1-30,52.6-21.4
	c20.4,8.6,30,32.1,21.4,52.6c-6.3,14.9-20.8,24.6-37,24.6h-0.1C1308.6-1045.4,1303.3-1046.5,1298.4-1048.6z M1290-1057.4h49v-2h-49
	V-1057.4z M1294-1061.4h40v-2h-5.8v-52l0,0c-0.3,0.6-3.3,5.6-6.8,7.7c-1.8,1-3.8,1.5-5.8,1.5c-0.8,0-1.6-0.1-2.4-0.2l0,0
	c-0.5,0.7-3.4,4.3-6.3,5.9c-1.7,0.9-3.6,1.4-5.5,1.4c-0.4,0-0.8,0-1.2-0.1v35.9h-6.1V-1061.4z M1305.9-1069.7L1305.9-1069.7l0-21h2
	v20.2c0.1,0.9,0.4,2.3,1.6,2.3c1,0,1.3-1,1.4-1.9v-24.6h2v25c0.1,1.8-1.2,3.3-3,3.4c-0.1,0-0.2,0-0.3,0
	C1307.6-1066.2,1306-1067.7,1305.9-1069.7z M1315.9-1071.7L1315.9-1071.7l0-27h2v26.2c0.1,0.9,0.4,2.3,1.6,2.3c1,0,1.3-1,1.4-1.9
	v-29.6h2v30c0.1,1.8-1.2,3.3-3,3.4c-0.1,0-0.2,0-0.3,0C1317.6-1068.2,1316-1069.7,1315.9-1071.7z"/>
<path id="Subtraction_2" class="st2" d="M1135.5-1129.8c-5.4,0-10.8,1.1-15.8,3.1c-4.8,2-9.2,4.9-12.9,8.6
	c-15.6,15.2-15.9,40.3-0.7,55.9c0.2,0.2,0.4,0.5,0.7,0.7c3.7,3.7,8.1,6.6,12.9,8.6c10.1,4.2,21.5,4.2,31.7,0c4.8-2,9.2-4.9,12.9-8.6
	c15.6-15.2,15.9-40.3,0.7-55.9c-0.2-0.2-0.4-0.5-0.7-0.7c-3.7-3.7-8.1-6.6-12.9-8.6C1146.3-1128.7,1140.9-1129.8,1135.5-1129.8z
	 M1135.1-1120.8c8.8,0,16,2.9,16,6.5c0,0.1,0,0.1,0,0.2v0c0.1,2.8,0,5.7-0.4,8.5c-0.6,4.3-2.1,10.3-5.7,14.1
	c-2.1,2.2-4.9,3.6-7.9,3.9v19.8c5.7,0.3,10,2.2,10,4.5c0,2.5-5.2,4.5-11.5,4.5c-6.3,0-11.5-2-11.5-4.5c0-1.1,1.1-2.2,3.1-3.1
	c2.4-0.9,4.9-1.4,7.5-1.4v-19.8c-3.3-0.2-6.4-1.6-8.6-3.9c-3.8-3.8-5.4-9.8-6.2-14.2c-0.5-2.8-0.7-5.7-0.7-8.6v-0.1
	C1119.1-1117.9,1126.2-1120.8,1135.1-1120.8z M1135.1-1118.8c-7.7,0-14,2.5-14,5.5s6.3,5.5,14,5.5s14-2.5,14-5.5
	S1142.8-1118.8,1135.1-1118.8L1135.1-1118.8z"/>
<path id="Subtraction_1-3" class="st2" d="M1652.5-1309.1c-22.1,0-40,18-40,40.1s18,40,40.1,40c22.1,0,40-18,40-40.1
	c0-2.7-0.3-5.3-0.8-7.9C1687.9-1295.7,1671.5-1309.1,1652.5-1309.1z M1666.5-1299.1L1666.5-1299.1l2,0v61h-2v-19.9
	c-5.5-1.2-9.3-6.2-9.1-11.9C1657.5-1279.9,1666.1-1298.3,1666.5-1299.1L1666.5-1299.1L1666.5-1299.1L1666.5-1299.1z M1636.5-1299.1
	h2c0,0-0.4,2.9-0.7,6.5c-0.2,3.3-0.2,7.8,0.7,10.8c0.4,1.8,1.4,3.4,2.8,4.6c0.6,0.5,1.4,0.8,2.1,0.8h0.1v-22.6h2v22.7h0.1
	c0.6,0,3.5-0.3,5.1-5.4c0.9-3,0.9-7.5,0.7-10.8c-0.2-3.1-0.6-5.7-0.7-6.4c0,0,0,0,0,0h2c0,0.1,1.7,12.8,0,18.5
	c-1,3.3-3.8,5.8-7.2,6.5v36h-2v-36c-3.4-0.7-6.1-3.2-7-6.5C1634.8-1286.3,1636.5-1299,1636.5-1299.1L1636.5-1299.1z"/>
<path id="Subtraction_1-4" class="st2" d="M1480.9-1293.7c-22.1,0-40,18-40,40.1c0,22.1,18,40,40.1,40s40-18,40-40.1
	c0-2.7-0.3-5.3-0.8-7.9C1516.4-1280.4,1500-1293.8,1480.9-1293.7z M1480.5-1288.7c9.7,0,17.5,9.5,17.5,21.2c0,11-7.1,20.3-16.2,21.1
	l2.1,2.8h-3.4c-1.3,1.2-4.3,4.2-3.8,7.1c0.3,1.9,2,3,3.6,4c1.5,1,3.1,2,3.4,3.7c0.7,3.5-2.7,6.1-2.7,6.1h-3c0.9-0.4,1.7-0.9,2.5-1.6
	c1.1-0.9,2.3-2.4,1.9-4.2c-0.4-1.7-1.9-2.7-3.6-3.9c-1.7-1.2-3.4-2.3-3.8-4.3c-0.5-3,2-6,3.1-7.1h-3l2.3-3
	c-8.4-1.8-14.4-10.5-14.4-20.8C1463-1279.2,1470.8-1288.7,1480.5-1288.7L1480.5-1288.7z"/>
<path id="Subtraction_1-5" class="st2" d="M1309.1-1294.5c-22.1,0-40,17.9-40,40c0,22.1,17.9,40,40,40c22.1,0,40-17.9,40-40
	c0-2.7-0.3-5.3-0.8-7.9C1344.6-1281.1,1328.1-1294.5,1309.1-1294.5z M1309.6-1287.5l6.5,19h-1.9l5.3,18.5h-2.8l6.8,18.7h-12.4v6.9
	h-2v-6.9h-14l6.8-18.7h-2.4l5.6-18.5h-1.9L1309.6-1287.5z"/>
<path id="Subtraction_112" class="st2" d="M1820.7-1222.7c-22.1,0-40-17.9-40-40c0-16.1,9.6-30.6,24.4-36.8
	c20.4-8.6,43.8,0.9,52.4,21.3c8.6,20.4-0.9,43.8-21.3,52.4l0,0C1831.4-1223.8,1826.1-1222.7,1820.7-1222.7z M1796.7-1274.2
	c0.3,6.1,1.3,12.2,3.2,18.1c1.3,4.6,3.7,8.8,6.8,12.4c3.3,3.6,8,5.7,12.9,5.6c0.1,0,0.2,0,0.3,0c4.6,0,9-1.8,12.2-5.1
	c2.3-2.3,4.2-5,5.5-8c2.6-0.2,5.3-0.8,7.7-1.7c3.4-1.4,5.2-3.6,5.1-6.4c-0.1-6.1-6-7.7-8.5-8.1c0.4-2.9,0.5-5.2,0.5-6.3
	c0-0.2,0-0.4,0-0.6c0-2.8-2.4-5.4-6.7-7.4c-5.1-2.1-10.6-3.2-16.2-3c-5.5-0.1-11.1,0.9-16.2,3
	C1799.1-1279.7,1796.7-1277.1,1796.7-1274.2C1796.7-1274.3,1796.7-1274.3,1796.7-1274.2L1796.7-1274.2L1796.7-1274.2z
	 M1838.7-1253.9L1838.7-1253.9l0.2-0.4c1.3-3.5,2.2-7.1,2.7-10.8c1.5,0.4,2.9,1,4.3,1.8c1.7,1.1,2.5,2.5,2.5,4
	C1848.4-1255.7,1841.6-1254.3,1838.7-1253.9L1838.7-1253.9z M1819.6-1266.7c-11.1,0-20.1-3.4-20.1-7.6c0-4.2,9-7.6,20.1-7.6
	s20.1,3.4,20.1,7.6S1830.7-1266.7,1819.6-1266.7z"/>
<text transform="matrix(1 0 0 1 632.9669 -1174.5038)"><tspan x="0" y="0" style="font-family:'MyriadPro-Regular'; font-size:26px;">Go see</tspan><tspan x="0" y="31.2" style="font-family:'MyriadPro-Regular'; font-size:26px;">Go eat</tspan><tspan x="0" y="62.4" style="font-family:'MyriadPro-Regular'; font-size:26px;">Go drink</tspan><tspan x="0" y="93.6" style="font-family:'MyriadPro-Regular'; font-size:26px;">Go attend/join/take part of</tspan><tspan x="0" y="124.8" style="font-family:'MyriadPro-Regular'; font-size:26px;">Go shop</tspan><tspan x="0" y="156" style="font-family:'MyriadPro-Regular'; font-size:26px;">Go do</tspan></text>
<g>
	<g>
		<circle class="st3" cx="270.7" cy="-458.5" r="62.6"/>
	</g>
</g>
<path class="st6" d="M1835-907v9c0,1.5-1.2,2.8-2.8,2.8s-2.8-1.2-2.8-2.8v-41.3c0-1.5,1.2-2.8,2.8-2.8s2.8,1.2,2.8,2.8v26.7V-907z"
	/>
<path class="st7" d="M1835-907v9c0,1.5-1.2,2.8-2.8,2.8V-942c1.5,0,2.8,1.2,2.8,2.8v26.7V-907z"/>
<path class="st8" d="M1845.8-937.8h-26.7l12.5-27.5c0.7-0.3,0.6-0.1,0.8-0.1c0.2,0,0.2-0.1,0.8,0.1L1845.8-937.8z"/>
<path class="st9" d="M1832.5-965.5l-13.3,27.7h-25.1c-2.8,0-3.8-3.8-1.4-5.2C1837-968.5,1830.8-965.1,1832.5-965.5z"/>
<path class="st10" d="M1870.8-937.8h-25.1l-13.2-27.7c1,0-2.3-1.7,39.7,22.5C1874.6-941.5,1873.6-937.8,1870.8-937.8z"/>
<path class="st11" d="M1845.8-937.8h-13.3v-27.7c0.3,0,0.2-0.1,0.8,0.1L1845.8-937.8z"/>
<path class="st6" d="M1792.4-883.4c-1.5,0-2.8-1.2-2.8-2.8v-20.7c0-1.5,1.2-2.8,2.8-2.8s2.8,1.2,2.8,2.8v20.7
	C1795.2-884.6,1793.9-883.4,1792.4-883.4z"/>
<path class="st12" d="M1879.3-893.7v3.4c0,3.8-3.1,7-7,7c-4.1,0-54.9,0-59.3,0c-0.7,0-1.4-0.3-2-0.8l-23.8-23.8
	c-2.7-2.7-2.7-7.1,0-9.9c2.4-2.4,3.9-4.4,7.3-4.4c1.9,0,3.6,0.7,4.9,2l19.1,19.1c0.3,0.3,0.6,0.4,1,0.4h52.7
	C1876.2-900.7,1879.3-897.6,1879.3-893.7L1879.3-893.7z"/>
<path class="st13" d="M1879.3-893.7v3.4c0,3.8-3.1,7-7,7h-40v-17.3h40C1876.2-900.7,1879.3-897.6,1879.3-893.7z"/>
<path class="st6" d="M1879.3-886.2v11.8c0,1.5-1.2,2.8-2.8,2.8s-2.8-1.2-2.8-2.8v-9h-83v9c0,1.5-1.2,2.8-2.8,2.8s-2.8-1.2-2.8-2.8
	v-11.8c0-1.5,1.2-2.8,2.8-2.8h88.5C1878-888.9,1879.3-887.7,1879.3-886.2z"/>
<path class="st7" d="M1879.3-886.2v11.8c0,1.5-1.2,2.8-2.8,2.8s-2.8-1.2-2.8-2.8v-9h-41.5v-5.5h44.3
	C1878-888.9,1879.3-887.7,1879.3-886.2z"/>
<g>
	<path id="oversized-wine-glass-2_1_" class="st0" d="M441.5-249.8v-25.8c12.2-1.4,20.8-11.6,20.8-23.2c0-4.4-1.2-9.8-3.3-15.1
		c-0.4-1.1-1.5-1.9-2.8-1.9h-34.5c-1.2,0-2.3,0.7-2.8,1.9c-1.9,4.8-3.4,10.4-3.3,15.6l0,0c0,0,0,0,0,0c0.2,11.5,8.8,21.4,20.8,22.7
		v25.8c-7.9,0.6-14,4.2-14,5.9c0,2,7.4,3.5,16.5,3.5c9.1,0,16.5-1.6,16.5-3.5C455.5-245.6,449.4-249.1,441.5-249.8z M423.1-310.7
		h31.6c1.6,4.3,2.5,8.6,2.5,12c0,0.8-0.1,1.6-0.2,2.4c-1.6-0.4-3.2-0.4-5,0.2c-4.6,1.6-7.5,2.7-12.2,0.8c-4.6-1.8-7.5-10.1-13.1-9.4
		c-2.2,0.2-4.1,1-5.8,2C421.4-305.3,422.1-308,423.1-310.7z"/>
</g>
<g>
	<g id="cutlery_1_">
		<path class="st14" d="M182.6-427.2c-0.1,0-0.2,0.3-0.2,0.4c0,0.1,0,0.2,0.1,0.2c0.1,0,0.1,0.1,0.1,0.1l-0.1,0.9c0,0,0,0.1,0,0.1
			c0,0,0.1,0,0.1,0c0,0,0.1,0,0.1,0c0,0,0-0.1,0-0.1l-0.1-0.9c0-0.1,0-0.1,0.1-0.1c0.1,0,0.1-0.1,0.1-0.2
			C182.9-427,182.7-427.2,182.6-427.2z"/>
		<path class="st14" d="M183.5-427.2C183.5-427.2,183.5-427.2,183.5-427.2l0,0.4c0,0,0,0,0,0s0,0,0,0L183.5-427.2
			c-0.1,0-0.1,0-0.1,0h0c0,0,0,0,0,0v0.4c0,0,0,0,0,0c0,0,0,0,0,0v-0.4c0,0,0,0,0,0h0c0,0,0,0,0,0v0.4c0,0,0,0,0,0s0,0,0,0v-0.4
			c0,0,0,0,0,0c0,0,0,0,0,0c0,0.1,0,0.4,0,0.4c0,0.1,0,0.2,0.1,0.2c0.1,0,0.1,0.1,0.1,0.1l-0.1,0.9c0,0,0,0.1,0,0.1c0,0,0.1,0,0.1,0
			c0,0,0.1,0,0.1,0c0,0,0-0.1,0-0.1l-0.1-0.9c0-0.1,0-0.1,0.1-0.1c0.1,0,0.1-0.1,0.1-0.2C183.5-426.8,183.5-427.1,183.5-427.2
			C183.5-427.2,183.5-427.2,183.5-427.2z"/>
		<path class="st14" d="M184-426.3C184-426.3,184-426.3,184-426.3l0-0.9c0,0,0,0,0,0c0,0,0,0,0,0l-0.1,0.5c0,0.1,0,0.3,0.1,0.4
			C183.9-426.3,183.9-426.3,184-426.3l-0.2,0.9c0,0,0,0.1,0,0.1c0,0,0.1,0,0.1,0c0,0,0.1,0,0.1,0c0,0,0-0.1,0-0.1L184-426.3z"/>
	</g>
</g>
<g>
	<g>
		<path class="st0" d="M767.9-86.2c5.6,0,10.8-2,14.7-5.4c-2.2-2.6-3.8-5.5-4.9-8.7c-2.4,2.7-5.9,4.4-9.9,4.4
			c-7.3,0-13.4-5.9-13.4-13.2s6.1-13.2,13.4-13.2c7.4,0,13.2,6,13.2,13.2c0,12.5,10.2,22.9,22.9,22.9c12.6,0,23-10.3,23-22.9
			S816.6-132,804-132c-5.6,0-10.8,2-14.7,5.4c2.2,2.6,3.8,5.5,4.9,8.7c2.4-2.7,5.9-4.4,9.9-4.4c7.3,0,13.4,5.9,13.4,13.2
			s-6.1,13.2-13.4,13.2c-7.4,0-13.2-6-13.2-13.2c0-12.5-10.2-22.9-22.9-22.9c-12.6,0-23,10.3-23,22.9S755.2-86.2,767.9-86.2z"/>
	</g>
</g>
<g>
	<g>
		<g>
			<circle class="st0" cx="613.8" cy="-107.5" r="62.6"/>
		</g>
	</g>
	<g>
		<g id="Page-1_3_">
			<g id="_x30_27---Web-Connections_3_">
				<path id="Shape_3_" class="st1" d="M659.7-64.9c-7.3-0.1-14.5-1-21.6-2.9c0.1-0.5,0.1-1,0.2-1.6c0-3.3-1.5-6.5-4.1-8.6
					c4.2-10.8,6.4-22.4,6.4-34c0-4-0.3-7.9-0.8-11.9c3.3-1.2,5.9-3.8,6.9-7.2c10.4,2.9,20.3,7.7,29,14.1
					C678.5-98,672.6-78.9,659.7-64.9L659.7-64.9z M606.1-45.2c-5.9-0.7-11.6-2.2-17.1-4.5c-0.1-1.2-0.1-2.5-0.1-4
					c0-8.4,1.2-16.7,3.5-24.7c0.3,0,0.6,0.1,1,0.1c2.9,0,5.8-1.2,7.8-3.2c4.6,3.8,9.6,7.1,14.8,9.9c-0.9,4.1,0.6,8.2,3.8,10.9
					C616-55.1,611.3-49.8,606.1-45.2z M568.8-123.1c0-3.7,3-6.7,6.7-6.7c3.7,0,6.7,3,6.7,6.7s-3,6.7-6.7,6.7
					C571.8-116.4,568.8-119.4,568.8-123.1z M571.1-153.5c11.6-10.7,26.8-16.7,42.5-16.7c0.3,0,0.6,0,0.9,0
					c6.7,7.8,12,16.7,15.6,26.3c-2,1.2-3.5,3-4.4,5.1c-1,0-2.1-0.1-3.1-0.1c-13.3,0-26.5,2.8-38.7,8.3c-2.6-3-6.6-4.4-10.5-3.6
					C571.9-140.5,571.1-147,571.1-153.5z M674.3-123.3c-8.3-5.5-17.5-9.7-27.2-12.2c-0.1-0.6-0.2-1.3-0.4-1.9c6.1-2.3,12.5-4,19-4.9
					C669.6-136.5,672.5-130.1,674.3-123.3z M642.7-134.3c0,3.7-3,6.7-6.7,6.7c-3.7,0-6.7-3-6.7-6.7s3-6.7,6.7-6.7
					C639.7-141.1,642.7-138.1,642.7-134.3z M636-111.9c0,10.9-2,21.7-5.9,31.9c-1-0.3-2.1-0.5-3.1-0.5c-3.7,0-7.1,1.8-9.2,4.8
					c-5-2.7-9.7-5.9-14.1-9.5c1.9-4.5,0.6-9.6-3.1-12.7c6.6-11.6,15.8-21.6,26.7-29.3c1.9,2.4,4.8,3.8,7.8,4
					C635.7-119.5,636-115.7,636-111.9L636-111.9z M586.7-123.1c0-1.2-0.2-2.3-0.6-3.4c11.5-5.1,23.9-7.8,36.4-7.8
					c0.8,0,1.5,0,2.2,0.1c0,1,0.2,2.1,0.5,3.1c-11.7,8.1-21.5,18.7-28.5,31.1c-2.4-0.8-4.9-0.8-7.2,0.2c-3.2-4.2-6.1-8.7-8.6-13.4
					C584.5-115.4,586.7-119.1,586.7-123.1L586.7-123.1z M593.4-96.2c3.7,0,6.7,3,6.7,6.7c0,3.7-3,6.7-6.7,6.7c-3.7,0-6.7-3-6.7-6.7
					C586.7-93.2,589.7-96.2,593.4-96.2z M620.3-69.4c0-3.7,3-6.7,6.7-6.7c3.7,0,6.7,3,6.7,6.7c0,0.8-0.2,1.6-0.4,2.3v0
					c-1.1,3-4.3,4.8-7.5,4.3S620.3-66.1,620.3-69.4L620.3-69.4z M662.7-146.4c-6.2,1-12.3,2.7-18.1,5c-2.1-2.6-5.3-4.1-8.6-4.1
					c-0.6,0-1.1,0.1-1.7,0.2c-3.3-8.8-8-17-13.7-24.4C637.2-167.9,652.4-159.5,662.7-146.4z M566.7-149.1c0.3,5.6,1.2,11.2,2.5,16.7
					c-4.3,2.9-6,8.4-4.1,13.2c-5.2,4-9.9,8.5-14.2,13.5c0-0.6,0-1.2,0-1.8C550.9-122.8,556.5-137.6,566.7-149.1L566.7-149.1z
					 M551.4-99.2c4.6-6,10-11.5,16.1-16.2c2.1,2.2,5,3.4,8,3.4c0.4,0,0.8-0.1,1.2-0.1c2.6,5.1,5.6,9.9,9.1,14.4
					c-2.6,2.5-3.9,6-3.4,9.6s2.6,6.7,5.8,8.3c-2.4,8.5-3.7,17.2-3.7,26c0,0.6,0,1.2,0,1.8C566.5-61.4,554.1-79,551.4-99.2
					L551.4-99.2z M612.2-44.7c4.3-4.2,8.2-8.9,11.7-13.9c1,0.3,2.1,0.5,3.1,0.5c3.9,0,7.5-2.1,9.5-5.4c6.1,1.6,12.4,2.6,18.7,3
					c-11.5,10.2-26.3,15.9-41.6,15.9C613.2-44.7,612.7-44.7,612.2-44.7L612.2-44.7z"/>
			</g>
		</g>
	</g>
</g>
<g>
	<g>
		<g>
			<path class="st0" d="M627.9-310.5c-0.3-0.4-0.8-0.6-1.3-0.6h-39.4c-0.5,0-1,0.2-1.3,0.6c-0.3,0.4-0.5,0.9-0.5,1.4l5.4,53.7
				c0.1,0.9,0.9,1.6,1.8,1.6h28.7c0.9,0,1.7-0.7,1.8-1.6l5.4-53.7C628.5-309.7,628.3-310.2,627.9-310.5z M623.2-292.9
				c-4.6,1.5-10.5,2.2-15.1-1.7c-5.8-4.8-13-4-17.8-2.5l-1-10.4h35.4L623.2-292.9z"/>
		</g>
	</g>
</g>
<g>
	<g>
		<g>
			<path class="st0" d="M77.5-254.6v-24.5c10.2-0.8,18.3-9.3,18.3-19.7c0-4.3-2.3-11.5-4-16.7l-0.7-2.1c-0.2-0.6-0.8-1.1-1.5-1.1
				H62.5c-0.6,0-1.2,0.4-1.4,1c-1.5,3.9-4.9,13.5-4.9,18.8c0,10.4,8.1,19,18.3,19.7v24.5c-7.6,0.3-15.2,2.9-15.2,7.6
				c0,0.8,0.7,1.5,1.5,1.5h30.5c0.8,0,1.5-0.7,1.5-1.5C92.7-251.7,85.1-254.3,77.5-254.6z M59.3-297.3c0-0.5-0.1-1-0.1-1.5
				c0-3.7,2.2-10.9,4.3-16.8h25l0.3,1c1.5,4.7,3.8,11.9,3.8,15.8c0,0.5,0,1-0.1,1.5H59.3L59.3-297.3z"/>
		</g>
	</g>
</g>
<g>
	<g>
		<circle class="st4" cx="268.4" cy="-282.4" r="62.6"/>
	</g>
</g>
<g>
	<g>
		<g>
			<path class="st0" d="M270.5-254.6v-24.5c10.2-0.8,18.3-9.3,18.3-19.7c0-4.3-2.3-11.5-4-16.7l-0.7-2.1c-0.2-0.6-0.8-1.1-1.5-1.1
				h-27.2c-0.6,0-1.2,0.4-1.4,1c-1.5,3.9-4.9,13.5-4.9,18.8c0,10.4,8.1,19,18.3,19.7v24.5c-7.6,0.3-15.2,2.9-15.2,7.6
				c0,0.8,0.7,1.5,1.5,1.5h30.5c0.8,0,1.5-0.7,1.5-1.5C285.7-251.7,278.1-254.3,270.5-254.6z M252.3-297.3c0-0.5-0.1-1-0.1-1.5
				c0-3.7,2.2-10.9,4.3-16.8h25l0.3,1c1.5,4.7,3.8,11.9,3.8,15.8c0,0.5,0,1-0.1,1.5H252.3L252.3-297.3z"/>
		</g>
	</g>
</g>
<ellipse class="st15" cx="419.1" cy="-903.3" rx="44.1" ry="45.2"/>
<ellipse class="st16" cx="514.2" cy="-901.4" rx="44.1" ry="45.2"/>
<ellipse class="st17" cx="609.6" cy="-901.3" rx="44.1" ry="45.2"/>
<ellipse class="st2" cx="704.7" cy="-899.4" rx="44.1" ry="45.2"/>
<ellipse class="st18" cx="803.3" cy="-901.6" rx="44.1" ry="45.2"/>
<rect x="377.9" y="-842.7" style="fill:none;" width="86.6" height="23.2"/>
<text transform="matrix(1 0 0 1 401.0265 -834.1697)" class="st15" style="font-family:'MyriadPro-Regular'; font-size:12px;">#fea7b7</text>
<rect x="473.6" y="-842.5" style="fill:none;" width="86.6" height="23.2"/>
<text transform="matrix(1 0 0 1 498.0723 -833.9781)" class="st16" style="font-family:'MyriadPro-Regular'; font-size:12px;">#ff4869</text>
<rect x="565.8" y="-842.4" style="fill:none;" width="86.6" height="23.2"/>
<text transform="matrix(1 0 0 1 588.5781 -833.894)" class="st17" style="font-family:'MyriadPro-Regular'; font-size:12px;">#859bf9</text>
<rect x="665.3" y="-842.6" style="fill:none;" width="86.6" height="23.2"/>
<text transform="matrix(1 0 0 1 689.806 -834.1132)" class="st2" style="font-family:'MyriadPro-Regular'; font-size:12px;">#002ff2</text>
<rect x="760.4" y="-842.4" style="fill:none;" width="86.6" height="23.2"/>
<text transform="matrix(1 0 0 1 786.5649 -833.8851)" style="fill:#DADFEF; font-family:'MyriadPro-Regular'; font-size:12px;">#f0f2fc</text>
<g>
	<g>
		<g>
			<circle class="st0" cx="74.2" cy="-628.6" r="11.8"/>
			<path class="st0" d="M121.3-630c-0.9-0.9-21.3-22.4-47.1-22.4C48.4-652.4,28-631,27.1-630c-0.8,0.8-0.8,2.1,0,3
				c0.9,0.9,21.3,22.4,47.1,22.4c25.8,0,46.3-21.5,47.1-22.4C122.1-627.9,122.1-629.2,121.3-630z M74.2-610.4
				c-10,0-18.2-8.1-18.2-18.2c0-10,8.1-18.2,18.2-18.2c10,0,18.2,8.1,18.2,18.2C92.4-618.5,84.2-610.4,74.2-610.4z M59.8-645.7
				c-4.9,4.1-8.1,10.2-8.1,17.1c0,6.9,3.2,13,8.1,17.2c-13.6-4.4-24.2-13.6-28.1-17.2C35.6-632.2,46.2-641.3,59.8-645.7z
				 M88.6-611.4c4.9-4.1,8.1-10.2,8.1-17.1s-3.2-13-8.1-17.1c13.6,4.4,24.2,13.5,28,17.1C112.9-625,102.2-615.8,88.6-611.4z"/>
		</g>
	</g>
</g>
<g>
	<g>
		<circle class="st2" cx="270.9" cy="-627.6" r="62.6"/>
	</g>
</g>
<g>
	<g>
		<g>
			<circle class="st0" cx="269.7" cy="-628.6" r="11.8"/>
			<path class="st0" d="M316.9-630c-0.9-0.9-21.3-22.4-47.1-22.4c-25.8,0-46.3,21.5-47.1,22.4c-0.8,0.8-0.8,2.1,0,3
				c0.9,0.9,21.3,22.4,47.1,22.4c25.8,0,46.3-21.5,47.1-22.4C317.6-627.9,317.6-629.2,316.9-630z M269.7-610.4
				c-10,0-18.2-8.1-18.2-18.2c0-10,8.1-18.2,18.2-18.2c10,0,18.2,8.1,18.2,18.2C287.9-618.5,279.7-610.4,269.7-610.4z M255.3-645.7
				c-4.9,4.1-8.1,10.2-8.1,17.1c0,6.9,3.2,13,8.1,17.2c-13.6-4.4-24.2-13.6-28.1-17.2C231.1-632.2,241.8-641.3,255.3-645.7z
				 M284.1-611.4c4.9-4.1,8.1-10.2,8.1-17.1s-3.2-13-8.1-17.1c13.6,4.4,24.2,13.5,28,17.1C308.4-625,297.7-615.8,284.1-611.4z"/>
		</g>
	</g>
</g>
<g>
	<circle class="st1" cx="445.3" cy="-104" r="65.3"/>
</g>
<g>
	<g>
		<path class="st0" d="M480.8-137.3c-3.4-3.4-8-5.3-12.9-5.4c-4.9,0-9.4,1.9-12.8,5.3l-15.5,15.5c0,0,0,0,0,0.1
			c3.2-0.4,7-0.1,7.4,0.2c1.6,0.2,3.4,0.8,4.1,1.2l10.5-10.5c3.5-3.4,9.4-3.4,12.8,0c3.5,3.5,3.5,9.3,0,12.8l-15.5,15.5
			c-2.9,2.9-7.3,3.2-9.8,1.9c-0.7,0-2.6-1.4-3.1-1.9c-1.5-1.4-3.8-1.7-5.6-0.7c-0.2,0.1-0.5,0.3-0.9,0.7l-2.8,2.8
			c0.8,1.3,1.7,2.5,2.8,3.6c1.1,1.1,2.3,2,3.6,2.8c4.4,2.6,9.8,3.1,13.9,1.9c3.1-0.8,5.9-2.4,8.1-4.7l15.5-15.5
			c3.4-3.4,5.3-8,5.3-12.8C486.2-129.3,484.3-133.9,480.8-137.3L480.8-137.3z M444.4-87.9l-10.6,10.6c-3.5,3.4-9.4,3.4-12.8,0
			c-3.5-3.5-3.5-9.3,0-12.8l15.5-15.5c3.6-3.6,9.2-3.4,12.8,0c1.8,1.7,4.7,1.7,6.4,0l2.8-2.8c-0.8-1.3-1.7-2.6-2.8-3.6
			c-3.6-3.6-8.2-5.2-11-5.2c-3.1-0.9-10.2,0.6-14.7,5.1l-15.5,15.5c-3.4,3.4-5.3,8-5.3,12.8c0,4.9,1.9,9.4,5.4,12.9
			c3.4,3.4,8,5.3,12.9,5.4c4.9,0,9.4-1.9,12.8-5.3l15.5-15.5C455.1-86.5,448.8-85.6,444.4-87.9z"/>
	</g>
</g>
<g>
	<g id="cutlery_2_">
		<path class="st0" d="M415.7-495.1c-3.6,0-8.3,9.6-8.3,16.9c0,4.8,1.6,7.4,4,8.6c1.9,1,3.1,3.1,2.9,5.2l-3.5,35.4
			c-0.1,1.4,0.3,2.7,1.2,3.7c0.9,1,2.2,1.6,3.6,1.6c1.4,0,2.7-0.6,3.6-1.6c0.9-1,1.4-2.4,1.2-3.7l-3.5-35.4
			c-0.2-2.2,0.9-4.2,2.9-5.2c2.4-1.2,4-3.8,4-8.6C424-485.6,419.5-495.1,415.7-495.1z"/>
		<path class="st0" d="M447.4-495.1c-0.7,0-1.2,0.5-1.2,1.2v14.6c0,0.7-0.5,1.2-1.2,1.2c-0.7,0-1.2-0.5-1.2-1.2v-14.6
			c0-0.7-0.5-1.2-1.2-1.2h0c-0.7,0-1.2,0.5-1.2,1.2v14.6c0,0.7-0.5,1.2-1.2,1.2c-0.7,0-1.2-0.5-1.2-1.2v-14.6c0-0.7-0.5-1.2-1.2-1.2
			h0c-0.7,0-1.2,0.5-1.2,1.2v14.6c0,0.7-0.5,1.2-1.2,1.2c-0.7,0-1.2-0.5-1.2-1.2v-14.6c0-0.7-0.5-1.2-1.2-1.2
			c-0.6,0-1.1,0.5-1.1,1.1c0,3.7,0,15.3,0,15.7c0,4.8,1.6,7.4,4,8.6c1.9,1,3.1,3.1,2.9,5.2l-3.5,35.4c-0.1,1.4,0.3,2.7,1.2,3.7
			c0.9,1,2.2,1.6,3.6,1.6c1.4,0,2.7-0.6,3.6-1.6c0.9-1,1.4-2.4,1.2-3.7l-3.5-35.4c-0.2-2.2,0.9-4.2,2.9-5.2c2.4-1.2,4-3.8,4-8.6
			c0-0.5,0-12,0-15.7C448.6-494.6,448.1-495.1,447.4-495.1z"/>
		<path class="st0" d="M466.8-461.4c0.4,0,0.8-0.4,0.8-0.8v-31.5c0-0.8-0.6-1.4-1.4-1.4c-0.7,0-1.3,0.5-1.5,1.1l-4.9,17.2
			c-1.4,5-0.6,10.4,2.4,14.8c0.3,0.4,0.8,0.7,1.3,0.7l-3.2,32.4c-0.1,1.4,0.3,2.7,1.2,3.7c0.9,1,2.2,1.6,3.6,1.6
			c1.4,0,2.7-0.6,3.6-1.6c0.9-1,1.4-2.4,1.2-3.7L466.8-461.4z"/>
	</g>
</g>
<g>
	<g>
		<path class="st0" d="M785.7-312.9c0-4.1,0-22.4,0-22.4h-3h-1.8h-3c0,0,0,18.3,0,22.4s-7.6,9-7.6,14.8c0,5.8,0,47.6,0,49.1
			c0,1.5,1,3.9,3.2,3.9c1.5,0,5.2,0,7.4,0c1.1,0,1.8,0,1.8,0c2.2,0,5.9,0,7.4,0c2.2,0,3.2-2.5,3.2-3.9c0-1.5,0-43.3,0-49.1
			C793.3-303.9,785.7-308.8,785.7-312.9z"/>
	</g>
</g>
<g>
	<g>
		<circle class="st19" cx="273.2" cy="67.4" r="62.6"/>
	</g>
</g>
<g>
	<g>
		<circle class="st19" cx="74.1" cy="75.3" r="62.6"/>
	</g>
</g>
<g>
	<g>
		<circle class="st19" cx="616.7" cy="62.3" r="62.6"/>
	</g>
</g>
<g>
	<g>
		<g>
			<path class="st0" d="M310.7,52.5l-0.1-0.3c0,0,0-0.1,0-0.1l-5.3-12.8V33h-64.7v6.3l-5.2,12.8c0,0.1,0,0.1,0,0.2l0,0.3
				c-0.1,0.5-0.1,0.9-0.1,1.4c0,3.4,1.9,6.4,4.7,7.9v35.7h66.1V61.8c2.8-1.5,4.7-4.5,4.7-7.9C310.8,53.4,310.8,52.9,310.7,52.5z
				 M307.1,51.8h-11.6l-1.4-9.3h9.1L307.1,51.8z M243.8,36.1h58.4v3.1h-58.4V36.1z M292.9,55l0.2,1.1l-0.9,1.2
				c-1.1,1.5-2.8,2.3-4.7,2.3c-1.9,0-3.6-0.9-4.7-2.3l-0.9-1.3l-0.1-1.1H292.9z M281.6,51.8l-0.5-9.3h9.9l1.4,9.3H281.6z M278.6,55
				L278.6,55l0.1,1.1l-0.9,1.2c-1.1,1.5-2.8,2.3-4.7,2.3c-1.9,0-3.6-0.9-4.7-2.3l-1-1.3l0.1-1.1L278.6,55L278.6,55z M267.6,51.8
				l0.5-9.3h9.9l0.5,9.3H267.6z M253.7,51.8l1.4-9.3h9.9l-0.5,9.3H253.7z M264.3,55l-0.1,1.2l-0.9,1.2c-1.1,1.5-2.8,2.3-4.7,2.3
				s-3.6-0.9-4.7-2.3l-0.9-1.2l0.2-1.2H264.3z M242.7,42.5h9.2l-1.4,9.3h-11.6L242.7,42.5z M238.5,55h11.5l-0.2,1.2l-0.9,1.2
				c-1.1,1.5-2.8,2.3-4.7,2.3C241.4,59.7,239.1,57.7,238.5,55z M296.6,94.3h-12.6v-11h1.6c0.9,0,1.6-0.7,1.6-1.6
				c0-0.9-0.7-1.6-1.6-1.6h-1.6v-11h12.6V94.3z M302.9,94.3L302.9,94.3h-3.1V66h-18.9v28.3h-37.8V62.8c0.4,0,0.7,0.1,1.1,0.1
				c2.9,0,5.6-1.4,7.2-3.6c1.6,2.2,4.3,3.6,7.2,3.6c2.9,0,5.6-1.4,7.2-3.6c1.6,2.2,4.3,3.6,7.2,3.6s5.6-1.4,7.2-3.6
				c1.6,2.2,4.3,3.6,7.2,3.6s5.6-1.4,7.2-3.6c1.6,2.2,4.3,3.6,7.2,3.6c0.4,0,0.8,0,1.1-0.1V94.3L302.9,94.3z M301.8,59.7
				c-1.9,0-3.6-0.9-4.7-2.3l-0.9-1.2l-0.2-1.2h11.5C307,57.7,304.7,59.7,301.8,59.7z"/>
		</g>
	</g>
	<g>
		<g>
			<path class="st0" d="M246.3,66v22h31.5V66H246.3z M274.6,84.9h-25.2V69.2h25.2V84.9z"/>
		</g>
	</g>
</g>
<g>
	<path class="st0" d="M104.9,108.1l-4.6-51.1c-0.1-1.4-1.3-2.5-2.7-2.5h-9.5v-4.3c0-7.9-6.5-14.4-14.4-14.4
		c-7.9,0-14.4,6.5-14.4,14.4v4.3h-9.5c-1.4,0-2.6,1.1-2.7,2.5l-4.6,51.3c-0.1,0.8,0.2,1.5,0.7,2.1c0.5,0.6,1.2,0.9,2,0.9h57
		c0,0,0,0,0,0c1.5,0,2.7-1.2,2.7-2.7C104.9,108.4,104.9,108.3,104.9,108.1z M64.7,50.3c0-5,4-9,9-9c5,0,9,4,9,9v4.3h-18V50.3z
		 M48.2,105.9L52.3,60h7v4.8c0,1.5,1.2,2.7,2.7,2.7c1.5,0,2.7-1.2,2.7-2.7V60h18v4.8c0,1.5,1.2,2.7,2.7,2.7s2.7-1.2,2.7-2.7V60h7
		l4.1,45.9H48.2L48.2,105.9z"/>
</g>
<g>
	<g>
		<circle class="st19" cx="441.5" cy="64" r="62.6"/>
	</g>
</g>
<g>
	<path class="st0" d="M472.3,96.9l-4.6-51.1c-0.1-1.4-1.3-2.5-2.7-2.5h-9.5v-4.3c0-7.9-6.5-14.4-14.4-14.4
		c-7.9,0-14.4,6.5-14.4,14.4v4.3h-9.5c-1.4,0-2.6,1.1-2.7,2.5L410,97.1c-0.1,0.8,0.2,1.5,0.7,2.1s1.2,0.9,2,0.9h57c0,0,0,0,0,0
		c1.5,0,2.7-1.2,2.7-2.7C472.3,97.1,472.3,97,472.3,96.9z M432.2,39.1c0-5,4-9,9-9c5,0,9,4,9,9v4.3h-18V39.1z M415.6,94.6l4.1-45.9
		h7v4.8c0,1.5,1.2,2.7,2.7,2.7s2.7-1.2,2.7-2.7v-4.8h18v4.8c0,1.5,1.2,2.7,2.7,2.7c1.5,0,2.7-1.2,2.7-2.7v-4.8h7l4.1,45.9H415.6
		L415.6,94.6z"/>
</g>
<g>
	<path class="st0" d="M599.8,78.1L599.8,78.1C599.8,78.1,599.8,78.1,599.8,78.1l41.3,0c1,0,1.9-0.7,2.2-1.7l9.1-31.9
		c0.2-0.7,0.1-1.4-0.4-2c-0.4-0.6-1.1-0.9-1.8-0.9h-55.7l-1.6-7.3c-0.2-1-1.2-1.8-2.2-1.8H577c-1.3,0-2.3,1-2.3,2.3
		c0,1.3,1,2.3,2.3,2.3h11.8c0.3,1.3,7.8,35.1,8.2,37c-2.4,1.1-4.1,3.5-4.1,6.3c0,3.8,3.1,6.8,6.8,6.8h41.3c1.3,0,2.3-1,2.3-2.3
		s-1-2.3-2.3-2.3h-41.3c-1.3,0-2.3-1-2.3-2.3C597.5,79.1,598.5,78.1,599.8,78.1z M647.2,46.2l-7.8,27.3h-37.8l-6.1-27.3H647.2z"/>
	<path class="st0" d="M597.5,94.1c0,3.8,3.1,6.8,6.8,6.8s6.8-3.1,6.8-6.8c0-3.8-3.1-6.8-6.8-6.8S597.5,90.3,597.5,94.1z M604.3,91.8
		c1.3,0,2.3,1,2.3,2.3c0,1.3-1,2.3-2.3,2.3s-2.3-1-2.3-2.3C602,92.8,603.1,91.8,604.3,91.8z"/>
	<path class="st0" d="M629.7,94.1c0,3.8,3.1,6.8,6.8,6.8s6.8-3.1,6.8-6.8c0-3.8-3.1-6.8-6.8-6.8S629.7,90.3,629.7,94.1z M636.5,91.8
		c1.3,0,2.3,1,2.3,2.3c0,1.3-1,2.3-2.3,2.3s-2.3-1-2.3-2.3C634.2,92.8,635.3,91.8,636.5,91.8z"/>
</g>
<g>
	<g>
		<path class="st0" d="M979.6-284.3c-1.1-1.4-2.7-2.2-4.5-2.2h-5.3v-4h-39.7v11.9c0,6.7,3.4,12.6,8.5,16.2h-8.5v3.5h39.7v-3.5h-8.5
			c1.8-1.2,3.4-2.8,4.7-4.5h3.8c4.5,0,8.4-3.1,9.5-7.4l1.3-5.1C981-281.2,980.6-282.9,979.6-284.3L979.6-284.3z M950.1-262.4h-0.3
			c-8.9,0-16.2-7.3-16.2-16.2v-8.4h32.7v8.4C966.3-269.7,959-262.4,950.1-262.4L950.1-262.4z M977.2-280.3l-1.3,5.1
			c-0.7,2.8-3.2,4.8-6.1,4.8H968c1.1-2.5,1.8-5.3,1.8-8.2v-4.4h5.3c0.7,0,1.3,0.3,1.7,0.8C977.2-281.6,977.4-281,977.2-280.3
			L977.2-280.3z"/>
		<path class="st0" d="M950-304.9c-3.2,0-5.8,2.6-5.8,5.8v4h3.5v-4c0-1.3,1-2.3,2.3-2.3h16.1c7.6,0,13.8-6.2,13.8-13.8v-3.5h-3.5
			v3.5c0,5.7-4.6,10.3-10.3,10.3H950z"/>
		<path class="st0" d="M939.7-298.6c0-5.7,4.6-10.3,10.3-10.3h16.1c3.2,0,5.8-2.6,5.8-5.8v-4h-3.5v4c0,1.3-1,2.3-2.3,2.3H950
			c-7.6,0-13.8,6.2-13.8,13.8v3.5h3.5V-298.6z"/>
	</g>
</g>
<g>
	<g>
		<path class="st0" d="M624.1-464.2c4.5,2.4,13.3,1.7,19.9-5c6.6-6.6,9.1-16.2,2.9-22.7l0,0c0,0-0.1-0.1-0.2-0.2c0,0,0,0,0,0
			c-6.4-6.2-16.1-3.7-22.7,2.9c-6.6,6.7-7.4,15.4-5,19.9c-0.6,3.7-5.7,7.8-10.3,10.4c-3.5-2.2-8-6-8.4-13.8c0.3-3.1-0.7-6.3-3-8.7
			c-0.2-0.2-0.8-0.7-0.8-0.7l-17.2-13.4l-1.6,1.6l18.7,17.5l-2,2l-18.1-18.1l-1.7,1.7l18.1,18.1l-1.7,1.7L572.8-489l-1.5,1.5l18,18
			l-2.1,2.1l-17.5-18.5l-1.7,1.7l14.3,18c0,0,0.3,0.3,0.5,0.5c2.1,1.8,4.7,2.7,7.3,2.6c0,0,0,0,0.1,0c6.8,0.1,11,4.2,13.7,7.8
			c-6.5,6.5-26.6,26.6-26.6,26.6l0,0c0,0,0,0-0.1,0.1c-1.6,1.6-1.6,4.3,0,5.9c0.1,0.1,0.4,0.4,0.5,0.5c1.6,1.6,4.3,1.6,5.9,0
			c0,0,0,0,0.1-0.1l0,0c0,0,18.7-18.7,25.8-25.8c6.8,6.8,25.7,25.7,25.7,25.7l0,0c0,0,0,0,0,0.1c1.6,1.6,4.2,1.6,5.8,0
			c1.6-1.6,1.6-4.2,0-5.8c0,0,0,0-0.1-0.1l0,0c0,0-20.8-20.8-26.6-26.6C617-459.2,620.7-463.6,624.1-464.2z"/>
	</g>
</g>
<g>
	<g id="cutlery-6_1_">
		<path class="st0" d="M40.9-477c-0.5,0-1,0.4-1,1v11.9c0,0.5-0.4,1-1,1c-0.5,0-1-0.4-1-1V-476c0-0.5-0.4-1-1-1h0c-0.5,0-1,0.4-1,1
			v11.9c0,0.5-0.4,1-1,1c-0.5,0-1-0.4-1-1V-476c0-0.5-0.4-1-1-1h0c-0.5,0-1,0.4-1,1v11.9c0,0.5-0.4,1-1,1c-0.5,0-1-0.4-1-1V-476
			c0-0.5-0.4-1-1-1c-0.5,0-0.9,0.4-0.9,0.9c0,3,0,12.5,0,12.9c0,3.9,1.3,6.1,3.3,7.1c1.6,0.8,2.5,2.5,2.3,4.3L31.1-423
			c-0.1,1.1,0.3,2.2,1,3.1c0.8,0.8,1.8,1.3,2.9,1.3c1.1,0,2.2-0.5,2.9-1.3c0.8-0.8,1.1-1.9,1-3.1l-2.8-28.9
			c-0.2-1.8,0.8-3.5,2.3-4.3c2-1,3.3-3.1,3.3-7.1c0-0.4,0-9.8,0-12.9C41.8-476.6,41.4-477,40.9-477z"/>
		<path class="st0" d="M116.3-449.4c0.4,0,0.7-0.3,0.7-0.7v-25.7c0-0.6-0.5-1.2-1.2-1.2c-0.6,0-1,0.4-1.2,0.9l-4,14.1
			c-1.2,4.1-0.5,8.5,2,12.1c0.2,0.3,0.6,0.5,1,0.5L111-423c-0.1,1.1,0.3,2.2,1,3.1c0.8,0.8,1.8,1.3,2.9,1.3s2.2-0.5,2.9-1.3
			c0.8-0.8,1.1-1.9,1-3.1L116.3-449.4z"/>
		<path class="st0" d="M75.1-478c-16.7,0-30.2,13.5-30.2,30.2c0,16.7,13.5,30.2,30.2,30.2c16.7,0,30.2-13.5,30.2-30.2
			C105.2-464.5,91.7-478,75.1-478z M75.1-426.2c-11.9,0-21.5-9.7-21.5-21.5c0-11.9,9.7-21.5,21.5-21.5c11.9,0,21.5,9.7,21.5,21.5
			C96.6-435.9,86.9-426.2,75.1-426.2z"/>
		<path class="st0" d="M75.1-466.3c-10.2,0-18.5,8.3-18.5,18.5c0,10.2,8.3,18.5,18.5,18.5c10.2,0,18.5-8.3,18.5-18.5
			C93.6-458,85.3-466.3,75.1-466.3z"/>
	</g>
</g>
<g>
	<g>
		<circle class="st3" cx="784.1" cy="-463.6" r="62.6"/>
	</g>
</g>
<g>
	<g id="cutlery-6_2_">
		<path class="st0" d="M751.1-489.3c-0.5,0-1,0.4-1,1v11.9c0,0.5-0.4,1-1,1c-0.5,0-1-0.4-1-1v-11.9c0-0.5-0.4-1-1-1h0
			c-0.5,0-1,0.4-1,1v11.9c0,0.5-0.4,1-1,1c-0.5,0-1-0.4-1-1v-11.9c0-0.5-0.4-1-1-1h0c-0.5,0-1,0.4-1,1v11.9c0,0.5-0.4,1-1,1
			c-0.5,0-1-0.4-1-1v-11.9c0-0.5-0.4-1-1-1c-0.5,0-0.9,0.4-0.9,0.9c0,3,0,12.5,0,12.9c0,3.9,1.3,6.1,3.3,7.1
			c1.6,0.8,2.5,2.5,2.3,4.3l-2.8,28.9c-0.1,1.1,0.3,2.2,1,3.1c0.8,0.8,1.8,1.3,2.9,1.3c1.1,0,2.2-0.5,2.9-1.3c0.8-0.8,1.1-1.9,1-3.1
			l-2.8-28.9c-0.2-1.8,0.8-3.5,2.3-4.3c2-1,3.3-3.1,3.3-7.1c0-0.4,0-9.8,0-12.9C752-488.9,751.6-489.3,751.1-489.3z"/>
		<path class="st0" d="M826.5-461.7c0.4,0,0.7-0.3,0.7-0.7v-25.7c0-0.6-0.5-1.2-1.2-1.2c-0.6,0-1,0.4-1.2,0.9l-4,14.1
			c-1.2,4.1-0.5,8.5,2,12.1c0.2,0.3,0.6,0.5,1,0.5l-2.6,26.5c-0.1,1.1,0.3,2.2,1,3.1c0.8,0.8,1.8,1.3,2.9,1.3s2.2-0.5,2.9-1.3
			c0.8-0.8,1.1-1.9,1-3.1L826.5-461.7z"/>
		<path class="st0" d="M785.3-490.3c-16.7,0-30.2,13.5-30.2,30.2c0,16.7,13.5,30.2,30.2,30.2c16.7,0,30.2-13.5,30.2-30.2
			C815.5-476.7,802-490.3,785.3-490.3z M785.3-438.5c-11.9,0-21.5-9.7-21.5-21.5s9.7-21.5,21.5-21.5c11.9,0,21.5,9.7,21.5,21.5
			S797.2-438.5,785.3-438.5z"/>
		<path class="st0" d="M785.3-478.6c-10.2,0-18.5,8.3-18.5,18.5c0,10.2,8.3,18.5,18.5,18.5c10.2,0,18.5-8.3,18.5-18.5
			C803.8-470.3,795.5-478.6,785.3-478.6z"/>
	</g>
</g>
<g>
	<g>
		<path class="st0" d="M464.9-632.7c-7.3-6.2-16.2-11.1-25.8-11.1c-9.5,0-18.5,4.9-25.8,11.1c-6.4,5.4-10.3,10.7-10.5,11
			c-0.5,0.8-0.5,1.8,0,2.5c0.2,0.2,4.1,5.6,10.5,11c7.3,6.2,16.2,11.1,25.8,11.1c9.5,0,18.5-4.9,25.8-11.1
			c6.4-5.4,10.3-10.7,10.5-11c0.5-0.8,0.5-1.8,0-2.5C475.2-622,471.2-627.3,464.9-632.7z M462-611.5c-5.4,4.6-13.8,10-22.9,10
			s-17.5-5.5-22.9-10c-4.2-3.6-7.3-7.2-8.8-9c1.5-1.8,4.6-5.5,8.8-9c5.4-4.6,13.8-10,22.9-10s17.5,5.5,22.9,10
			c4.2,3.6,7.3,7.2,8.8,9C469.4-618.6,466.2-615,462-611.5z"/>
		<path class="st0" d="M439.1-633c-6.9,0-12.5,5.6-12.5,12.5s5.6,12.5,12.5,12.5s12.5-5.6,12.5-12.5S446-633,439.1-633z
			 M439.1-612.2c-4.6,0-8.3-3.7-8.3-8.3s3.7-8.3,8.3-8.3s8.3,3.7,8.3,8.3S443.6-612.2,439.1-612.2z"/>
		<path class="st0" d="M439.1-648.1c1.2,0,2.1-1,2.1-2.1v-18c0-1.2-1-2.1-2.1-2.1s-2.1,1-2.1,2.1v18
			C436.9-649.1,437.9-648.1,439.1-648.1z"/>
		<path class="st0" d="M422-647.4c0.5,1.1,1.8,1.5,2.9,0.9c1.1-0.5,1.5-1.8,0.9-2.9l-8.3-16c-0.5-1.1-1.8-1.5-2.9-0.9
			c-1.1,0.5-1.5,1.8-0.9,2.9L422-647.4z"/>
		<path class="st0" d="M453.3-646.5c1.1,0.5,2.3,0.1,2.9-0.9l8.3-16c0.5-1.1,0.1-2.3-0.9-2.9c-1.1-0.5-2.3-0.1-2.9,0.9l-8.3,16
			C451.8-648.3,452.2-647,453.3-646.5L453.3-646.5z"/>
	</g>
</g>
<g>
	<g>
		<path class="st0" d="M298.7-425.1L298.7-425.1c0,0-17.7-18-19.5-19.8c-1.1-0.3-7.4-3.1-7.5-8.3c2.7-3.1,6.6-6.1,12.4-6.1
			c0,0,0,0,0.1,0c2.6,0.1,5.3-0.8,7.4-2.6c0.1-0.1,0.5-0.5,0.5-0.5l14.5-18.2l-1.7-1.7l-17.7,18.8l-2.1-2.1l18.2-18.2l-1.5-1.5
			l-18.3,18.3l-1.7-1.7l18.3-18.3l-1.7-1.7l-18.3,18.3l-2.1-2.1l18.9-17.8l-1.6-1.6l-17.4,13.6c0,0-0.6,0.5-0.9,0.8
			c-2.4,2.4-3.4,5.6-3.1,8.8c-0.2,4-1.5,6.9-3.2,9.2c-32.5-31.8-44.8-28.4-44.8-28.4l-1,1c0,0,21.9,21.9,35.4,35.5
			c-4.7,4.7-27.6,27.6-27.6,27.6l0,0c0,0,0,0-0.1,0.1c-1.6,1.6-1.6,4.3,0,5.9c1.6,1.6,4.3,1.6,5.9,0c0,0,0-0.1,0-0.1l0,0
			c0,0,22.9-22.9,27.6-27.6c2.5,2.5,4.1,4.1,4.4,4.4c2,2,22.2,22.2,22.2,22.2h0c0,0,0,0,0,0.1c1.6,1.6,4.3,1.6,5.9,0
			C300.4-420.8,300.4-423.4,298.7-425.1C298.8-425.1,298.7-425.1,298.7-425.1z"/>
	</g>
</g>
<g>
	<g>
		<g>
			<circle class="st5" cx="447.6" cy="243.5" r="62.6"/>
		</g>
	</g>
</g>
<path class="st0" d="M477.4,253.5h-3.1l-8.9-27.9c-5.5,3.2-10.9,5.3-15.7,3.3c-6.2-2.9-7.9-9.7-8.2-10.6l-11.3-7.4l-21.9,30.6
	l51.6,35.2l32.8-0.2v-7.7C492.7,260.3,485.8,253.5,477.4,253.5L477.4,253.5z M422.2,231c3.1,4.9,7.6,8.8,14.1,12.7
	c10,5.9,10.8,13,10.4,16.8l-30.9-20.3L422.2,231z M487.4,271.2H463l-11.6-7.6c2.9-10.8-4.5-20-12.4-24.4
	c-9.1-5.4-12.3-10.6-13.3-12.9l5.9-8.3l5.5,3.6c3.3,9.3,12.5,17,25.2,11.4l1.9,5.8l-6.7,2.2l1.6,5l6.7-2.2l1.8,5.6l-6.1,2l1.6,5
	l6.1-2l1.4,4.3h7c5.5,0,10,4.5,10,10L487.4,271.2L487.4,271.2z"/>
<g>
	<g>
		<g>
			<circle class="st5" cx="614.6" cy="238.3" r="62.6"/>
		</g>
	</g>
</g>
<g>
	<g>
		<path class="st0" d="M574.2,247.4h19v4.8h-19V247.4z"/>
		<path class="st0" d="M642.1,242.7h-2.9L631,217c-5.1,2.9-10,4.9-14.5,3c-5.7-2.6-7.2-8.9-7.5-9.8l-10.4-6.8l-20.2,28.2l41.6,27.4
			h-36.2v4.8h72.3v-7.1C656.2,249,649.9,242.7,642.1,242.7L642.1,242.7z M591.3,222c2.9,4.5,7,8.1,12.9,11.7c9.2,5.4,10,12,9.5,15.5
			l-28.5-18.7L591.3,222z M651.4,259h-22.5l-10.7-7c2.6-10-4.2-18.4-11.5-22.5c-8.4-4.9-11.3-9.7-12.3-11.9l5.4-7.6l5,3.3
			c3,8.6,11.5,15.7,23.2,10.5l1.7,5.4l-6.2,2l1.5,4.6l6.2-2l1.7,5.2l-5.6,1.8l1.5,4.6l5.6-1.8l1.3,3.9h6.4c5.1,0,9.2,4.1,9.2,9.2
			L651.4,259L651.4,259z"/>
	</g>
</g>
<line class="st20" x1="460.5" y1="172" x2="437.7" y2="219.8"/>
<polyline class="st20" points="449.1,195.9 472.1,206.1 459.9,231.6 482.7,183.7 "/>
<path class="st20" d="M438.4,217.9"/>
<g>
	<g>
		<g>
			<circle class="st5" cx="87.2" cy="249" r="62.6"/>
		</g>
	</g>
</g>
<line class="st20" x1="100" y1="177.5" x2="77.3" y2="225.3"/>
<polyline class="st20" points="88.6,201.4 111.7,211.6 99.5,237.1 122.2,189.2 "/>
<path class="st20" d="M77.9,223.4"/>
<g>
	<g>
		<path class="st0" d="M46.1,260.9h19v4.8h-19V260.9z"/>
		<path class="st0" d="M114.1,256.3h-2.9l-8.2-25.7c-5.1,2.9-10,4.9-14.5,3c-5.7-2.6-7.2-8.9-7.5-9.8L70.6,217l-20.2,28.2l41.6,27.4
			H55.8v4.8h72.3v-7.1C128.2,262.6,121.9,256.3,114.1,256.3L114.1,256.3z M63.3,235.6c2.9,4.5,7,8.1,12.9,11.7
			c9.2,5.4,10,12,9.5,15.5L57.3,244L63.3,235.6z M123.3,272.6h-22.5l-10.7-7c2.6-10-4.2-18.4-11.5-22.5c-8.4-4.9-11.3-9.7-12.3-11.9
			l5.4-7.6l5,3.3c3,8.6,11.5,15.7,23.2,10.5l1.7,5.4l-6.2,2l1.5,4.6l6.2-2l1.7,5.2l-5.6,1.8l1.5,4.6l5.6-1.8l1.3,3.9h6.4
			c5.1,0,9.2,4.1,9.2,9.2L123.3,272.6L123.3,272.6z"/>
	</g>
</g>
<polygon class="st0" points="86.4,206.6 110,216.9 97.1,236.5 81,232.1 77.3,223.1 "/>
<g>
	<g>
		<g>
			<circle class="st5" cx="798.3" cy="239.9" r="62.6"/>
		</g>
	</g>
</g>
<line class="st20" x1="811.1" y1="168.5" x2="788.4" y2="216.3"/>
<polyline class="st20" points="799.7,192.4 822.8,202.6 810.6,228 833.3,180.2 "/>
<path class="st20" d="M789,214.4"/>
<g>
	<g>
		<path class="st0" d="M757.2,251.9h19v4.8h-19V251.9z"/>
		<path class="st0" d="M825.2,247.3h-2.9l-8.2-25.7c-5.1,2.9-10,4.9-14.5,3c-5.7-2.6-7.2-8.9-7.5-9.8l-10.4-6.8l-20.2,28.2
			l41.6,27.4h-36.2v4.8h72.3v-7.1C839.3,253.6,833,247.3,825.2,247.3L825.2,247.3z M774.4,226.6c2.9,4.5,7,8.1,12.9,11.7
			c9.2,5.4,10,12,9.5,15.5l-28.5-18.7L774.4,226.6z M834.5,263.6H812l-10.7-7c2.6-10-4.2-18.4-11.5-22.5
			c-8.4-4.9-11.3-9.7-12.3-11.9l5.4-7.6l5,3.3c3,8.6,11.5,15.7,23.2,10.5l1.7,5.4l-6.2,2l1.5,4.6l6.2-2l1.7,5.2l-5.6,1.8l1.5,4.6
			l5.6-1.8l1.3,3.9h6.4c5.1,0,9.2,4.1,9.2,9.2L834.5,263.6L834.5,263.6z"/>
	</g>
</g>
<polygon class="st0" points="797.5,197.6 821.1,207.9 808.2,227.4 792.1,223 788.4,214.1 "/>
</svg>
